<svg xmlns="http://www.w3.org/2000/svg" width="1280" height="848" viewBox="0 0 1280 848" data-palette="halsa-2" data-motif-variant="2">
<defs>
  <filter id="ds" x="-20%" y="-20%" width="140%" height="140%"><feDropShadow dx="0" dy="10" stdDeviation="10" flood-color="#000000" flood-opacity="0.18"/></filter>
  <filter id="fibre"><feTurbulence type="fractalNoise" baseFrequency="0.9" numOctaves="2" result="n"/><feColorMatrix in="n" type="saturate" values="0"/><feComponentTransfer><feFuncA type="linear" slope="0.05"/></feComponentTransfer><feComposite operator="in" in2="SourceGraphic"/></filter>
</defs>
<rect width="1280" height="848" fill="#f3ece1"/>
<g filter="url(#ds)">
<polygon points="86.0 56 163.2 61 223.4 60 302.7 63 386.9 53 449.1 53 525.3 56 605.6 50 673.8 55 748.0 56 754.0 502 670.8 502 590.6 496 530.3 508 447.1 495 370.9 501 298.7 502 237.4 502 164.2 495 84.0 502 745.0 504.0 671.8 455.4 598.6 399.9 525.3 362.3 452.1 300.8 378.9 255.2 305.7 209.7 232.4 150.1 159.2 98.6 86.0 48.0 86.0 51.0 159.2 107.6 232.4 164.1 305.7 205.7 378.9 254.2 452.1 299.8 525.3 362.3 598.6 405.9 671.8 444.4 745.0 505.0" fill="#f6dcf1" stroke="#3f1538" stroke-width="2.4" stroke-dasharray="2 6" stroke-linecap="round" transform="rotate(-6.5 415.5 279.0)"/>
<polygon points="553.0 241 639.9 238 704.8 238 783.7 241 866.6 235 937.4 240 1014.3 238 1084.2 240 1172.1 235 1236.0 241 1244.0 721 1158.1 714 1079.2 720 1004.3 721 940.4 721 864.6 714 781.7 714 698.8 716 630.9 725 556.0 721 1239.0 730.0 1163.1 664.7 1087.2 615.3 1011.3 566.0 935.4 502.7 859.6 447.3 783.7 393.0 707.8 344.7 631.9 302.3 556.0 250.0 556.0 242.0 631.9 294.3 707.8 343.7 783.7 410.0 859.6 457.3 935.4 499.7 1011.3 564.0 1087.2 614.3 1163.1 660.7 1239.0 719.0" fill="#c87ab8" stroke="#3f1538" stroke-width="2.4" stroke-dasharray="2 6" stroke-linecap="round" transform="rotate(6.0 897.5 481.0)"/>
<polygon points="390.0 399 456.7 393 511.3 398 572.0 396 625.7 398 697.3 393 745.0 393 808.7 405 872.3 397 922.0 399 920.0 810 872.3 810 812.7 803 746.0 803 679.3 805 627.7 814 569.0 813 513.3 805 440.7 806 387.0 810 927.0 815.0 867.3 759.3 807.7 711.7 748.0 665.0 688.3 624.3 628.7 589.7 569.0 545.0 509.3 489.3 449.7 436.7 390.0 404.0 390.0 408.0 449.7 447.7 509.3 482.3 569.0 539.0 628.7 581.7 688.3 620.3 748.0 671.0 807.7 715.7 867.3 767.3 927.0 801.0" fill="#7a2f6b" stroke="#3f1538" stroke-width="2.4" stroke-dasharray="2 6" stroke-linecap="round" transform="rotate(-4.5 658.5 604.5)"/>
</g>
<path d="M606 458 L569 535 L543 625 L468 682 L385 628 L287 641 L248 549 L252 458 L222 354 L302 296 L373 230 L468 232 L537 299 L563 383 Z" fill="#f6dcf1" opacity="0.16"/><path d="M1009 376 L1036 456 L977 506 L912 518 L843 561 L788 504 L728 456 L713 376 L749 306 L804 270 L852 234 L912 232 L972 253 L998 316 Z" fill="#c87ab8" opacity="0.16"/><path d="M905 727 L856 816 L819 908 L733 951 L645 923 L588 860 L535 806 L516 727 L523 642 L586 591 L638 497 L730 517 L784 594 L878 626 Z" fill="#f6dcf1" opacity="0.16"/><path d="M982 669 L952 718 L928 764 L883 789 L831 797 L791 760 L727 737 L726 669 L764 620 L769 548 L827 522 L883 550 L942 554 L981 605 Z" fill="#c87ab8" opacity="0.16"/><path d="M1229 207 L1195 279 L1186 381 L1100 406 L1025 364 L932 378 L881 300 L899 207 L886 117 L938 43 L1014 -3 L1097 22 L1167 58 L1193 136 Z" fill="#f6dcf1" opacity="0.16"/>
<g filter="url(#fibre)" opacity="0.6"><rect width="1280" height="848" fill="#3f1538"/></g>
<circle cx="243" cy="304" r="1.4" fill="#3f1538" opacity="0.25"/><circle cx="304" cy="177" r="1.4" fill="#3f1538" opacity="0.25"/><circle cx="177" cy="221" r="1.4" fill="#3f1538" opacity="0.25"/><circle cx="221" cy="194" r="1.4" fill="#3f1538" opacity="0.25"/><circle cx="194" cy="259" r="1.4" fill="#3f1538" opacity="0.25"/><circle cx="259" cy="319" r="1.4" fill="#3f1538" opacity="0.25"/><circle cx="319" cy="307" r="1.4" fill="#3f1538" opacity="0.25"/><circle cx="307" cy="226" r="1.4" fill="#3f1538" opacity="0.25"/><circle cx="226" cy="246" r="1.4" fill="#3f1538" opacity="0.25"/><circle cx="246" cy="259" r="1.4" fill="#3f1538" opacity="0.25"/><circle cx="259" cy="366" r="1.4" fill="#3f1538" opacity="0.25"/><circle cx="366" cy="316" r="1.4" fill="#3f1538" opacity="0.25"/><circle cx="316" cy="301" r="1.4" fill="#3f1538" opacity="0.25"/><circle cx="301" cy="343" r="1.4" fill="#3f1538" opacity="0.25"/><circle cx="343" cy="200" r="1.4" fill="#3f1538" opacity="0.25"/><circle cx="200" cy="350" r="1.4" fill="#3f1538" opacity="0.25"/><circle cx="350" cy="159" r="1.4" fill="#3f1538" opacity="0.25"/><circle cx="159" cy="297" r="1.4" fill="#3f1538" opacity="0.25"/><circle cx="297" cy="251" r="1.4" fill="#3f1538" opacity="0.25"/><circle cx="251" cy="157" r="1.4" fill="#3f1538" opacity="0.25"/><circle cx="157" cy="223" r="1.4" fill="#3f1538" opacity="0.25"/><circle cx="223" cy="292" r="1.4" fill="#3f1538" opacity="0.25"/><circle cx="292" cy="343" r="1.4" fill="#3f1538" opacity="0.25"/><circle cx="343" cy="181" r="1.4" fill="#3f1538" opacity="0.25"/><circle cx="181" cy="254" r="1.4" fill="#3f1538" opacity="0.25"/><circle cx="254" cy="293" r="1.4" fill="#3f1538" opacity="0.25"/><circle cx="293" cy="172" r="1.4" fill="#3f1538" opacity="0.25"/><circle cx="172" cy="172" r="1.4" fill="#3f1538" opacity="0.25"/><circle cx="172" cy="374" r="1.4" fill="#3f1538" opacity="0.25"/><circle cx="374" cy="329" r="1.4" fill="#3f1538" opacity="0.25"/><circle cx="329" cy="147" r="1.4" fill="#3f1538" opacity="0.25"/><circle cx="147" cy="243" r="1.4" fill="#3f1538" opacity="0.25"/><circle cx="243" cy="304" r="1.4" fill="#3f1538" opacity="0.25"/><circle cx="304" cy="177" r="1.4" fill="#3f1538" opacity="0.25"/><circle cx="177" cy="221" r="1.4" fill="#3f1538" opacity="0.25"/><circle cx="221" cy="194" r="1.4" fill="#3f1538" opacity="0.25"/>
<g data-collage-motif="halsa"><path d="M640 300 C720 420 740 500 640 580 C540 500 560 420 640 300 Z" fill="#c87ab8" opacity="0.82"/><circle cx="640" cy="470" r="30" fill="#3f1538" opacity="0.6"/></g>
<g fill="#c87ab8" opacity="0.9"><circle cx="104" cy="106" r="8"/><circle cx="130" cy="106" r="8"/><circle cx="156" cy="106" r="8"/></g>
</svg>