<svg xmlns="http://www.w3.org/2000/svg" width="1280" height="848" viewBox="0 0 1280 848">
<defs>
  <linearGradient id="bg" x1="0" y1="0" x2="1" y2="1"><stop stop-color="#4a2531"/><stop offset="1" stop-color="#a64b60"/></linearGradient>
  <radialGradient id="glow"><stop stop-color="#ffc76a" stop-opacity=".72"/><stop offset="1" stop-color="#ffc76a" stop-opacity="0"/></radialGradient>
</defs>
<rect width="1280" height="848" fill="url(#bg)"/>
<circle cx="394" cy="187" r="390" fill="url(#glow)"/>
<circle cx="357" cy="341" r="216" fill="#fff0f3" opacity="0.212"/><circle cx="1190" cy="757" r="136" fill="#fff0f3" opacity="0.142"/><circle cx="1034" cy="646" r="110" fill="#fff0f3" opacity="0.084"/><circle cx="366" cy="347" r="186" fill="#fff0f3" opacity="0.175"/><circle cx="340" cy="96" r="157" fill="#fff0f3" opacity="0.231"/><circle cx="1000" cy="487" r="173" fill="#fff0f3" opacity="0.087"/><circle cx="297" cy="730" r="254" fill="#fff0f3" opacity="0.177"/>
<path d="M0 673 C260 523 450 783 690 628S1080 633 1280 543V848H0Z" fill="#4a2531" opacity=".28"/>
<g fill="#fff0f3" opacity=".78">
  <circle cx="535" cy="375" r="66"/><circle cx="744" cy="350" r="52"/><circle cx="672" cy="535" r="72"/>
</g><path d="M535 375 744 350 672 535Z" fill="none" stroke="#ffc76a" stroke-width="22" stroke-linejoin="round"/>
<g fill="#ffc76a" opacity=".9"><circle cx="104" cy="106" r="8"/><circle cx="130" cy="106" r="8"/><circle cx="156" cy="106" r="8"/></g>
</svg>