<svg xmlns="http://www.w3.org/2000/svg" width="1280" height="848" viewBox="0 0 1280 848" data-palette="halsa-1" data-motif-variant="1">
<defs>
  <filter id="ds" x="-20%" y="-20%" width="140%" height="140%"><feDropShadow dx="0" dy="10" stdDeviation="10" flood-color="#000000" flood-opacity="0.18"/></filter>
  <filter id="fibre"><feTurbulence type="fractalNoise" baseFrequency="0.9" numOctaves="2" result="n"/><feColorMatrix in="n" type="saturate" values="0"/><feComponentTransfer><feFuncA type="linear" slope="0.05"/></feComponentTransfer><feComposite operator="in" in2="SourceGraphic"/></filter>
</defs>
<rect width="1280" height="848" fill="#f3ece1"/>
<g filter="url(#ds)">
<polygon points="72.0 54 140.6 57 194.1 54 264.7 57 335.2 52 408.8 57 468.3 60 541.9 52 613.4 51 674.0 54 667.0 532 613.4 531 542.9 526 479.3 530 396.8 525 333.2 531 267.7 525 197.1 526 127.6 527 56.0 532 673.0 540.0 605.4 479.9 537.9 432.8 470.3 367.7 402.8 327.6 335.2 265.4 267.7 219.3 200.1 161.2 132.6 98.1 65.0 46.0 65.0 59.0 132.6 116.1 200.1 160.2 267.7 215.3 335.2 259.4 402.8 311.6 470.3 378.7 537.9 428.8 605.4 478.9 673.0 526.0" fill="#fbe6cf" stroke="#5e2813" stroke-width="2.4" stroke-dasharray="2 6" stroke-linecap="round" transform="rotate(-2.5 369.0 293.0)"/>
<polygon points="570.0 256 647.8 254 728.6 259 795.3 262 876.1 254 954.9 253 1022.7 252 1103.4 262 1166.2 252 1254.0 256 1255.0 803 1165.2 796 1094.4 802 1021.7 796 943.9 797 867.1 798 788.3 802 722.6 801 645.8 803 580.0 803 1246.0 798.0 1171.2 750.2 1096.4 680.4 1021.7 626.7 946.9 560.9 872.1 490.1 797.3 430.3 722.6 383.6 647.8 309.8 573.0 250.0 573.0 258.0 647.8 309.8 722.6 369.6 797.3 444.3 872.1 502.1 946.9 559.9 1021.7 614.7 1096.4 683.4 1171.2 738.2 1246.0 795.0" fill="#e89b5b" stroke="#5e2813" stroke-width="2.4" stroke-dasharray="2 6" stroke-linecap="round" transform="rotate(2.0 909.5 529.5)"/>
<polygon points="373.0 374 440.1 372 505.2 371 559.3 370 626.4 380 675.6 370 749.7 378 801.8 375 869.9 374 926.0 374 925.0 808 860.9 802 797.8 803 732.7 807 680.6 806 617.4 808 565.3 813 505.2 805 430.1 808 372.0 808 925.0 814.0 863.9 760.8 802.8 702.6 741.7 655.3 680.6 621.1 619.4 559.9 558.3 512.7 497.2 478.4 436.1 427.2 375.0 383.0 375.0 380.0 436.1 425.2 497.2 470.4 558.3 512.7 619.4 568.9 680.6 611.1 741.7 655.3 802.8 710.6 863.9 752.8 925.0 813.0" fill="#a8431f" stroke="#5e2813" stroke-width="2.4" stroke-dasharray="2 6" stroke-linecap="round" transform="rotate(-2.5 650.0 591.0)"/>
</g>
<path d="M653 386 L653 484 L618 593 L509 591 L422 597 L356 536 L275 486 L267 386 L256 276 L338 211 L417 150 L509 181 L601 202 L659 285 Z" fill="#fbe6cf" opacity="0.16"/><path d="M315 724 L286 783 L267 852 L205 874 L136 899 L82 848 L31 799 L36 724 L35 652 L78 595 L140 568 L210 546 L271 591 L318 648 Z" fill="#e89b5b" opacity="0.16"/><path d="M952 406 L922 467 L893 525 L832 535 L775 551 L721 521 L687 468 L655 406 L680 340 L716 284 L780 288 L832 277 L896 282 L912 350 Z" fill="#fbe6cf" opacity="0.16"/><path d="M1204 243 L1191 300 L1155 343 L1112 385 L1054 375 L1002 352 L992 290 L973 243 L964 181 L1015 152 L1055 115 L1111 105 L1165 130 L1172 196 Z" fill="#e89b5b" opacity="0.16"/><path d="M656 446 L645 518 L581 547 L536 584 L472 611 L427 554 L377 514 L351 446 L364 371 L433 345 L481 320 L535 311 L588 335 L638 377 Z" fill="#fbe6cf" opacity="0.16"/>
<g filter="url(#fibre)" opacity="0.6"><rect width="1280" height="848" fill="#5e2813"/></g>
<circle cx="307" cy="137" r="1.4" fill="#5e2813" opacity="0.25"/><circle cx="137" cy="370" r="1.4" fill="#5e2813" opacity="0.25"/><circle cx="370" cy="202" r="1.4" fill="#5e2813" opacity="0.25"/><circle cx="202" cy="205" r="1.4" fill="#5e2813" opacity="0.25"/><circle cx="205" cy="230" r="1.4" fill="#5e2813" opacity="0.25"/><circle cx="230" cy="355" r="1.4" fill="#5e2813" opacity="0.25"/><circle cx="355" cy="133" r="1.4" fill="#5e2813" opacity="0.25"/><circle cx="133" cy="365" r="1.4" fill="#5e2813" opacity="0.25"/><circle cx="365" cy="244" r="1.4" fill="#5e2813" opacity="0.25"/><circle cx="244" cy="288" r="1.4" fill="#5e2813" opacity="0.25"/><circle cx="288" cy="238" r="1.4" fill="#5e2813" opacity="0.25"/><circle cx="238" cy="213" r="1.4" fill="#5e2813" opacity="0.25"/><circle cx="213" cy="356" r="1.4" fill="#5e2813" opacity="0.25"/><circle cx="356" cy="173" r="1.4" fill="#5e2813" opacity="0.25"/><circle cx="173" cy="187" r="1.4" fill="#5e2813" opacity="0.25"/><circle cx="187" cy="215" r="1.4" fill="#5e2813" opacity="0.25"/><circle cx="215" cy="254" r="1.4" fill="#5e2813" opacity="0.25"/><circle cx="254" cy="230" r="1.4" fill="#5e2813" opacity="0.25"/><circle cx="230" cy="274" r="1.4" fill="#5e2813" opacity="0.25"/><circle cx="274" cy="256" r="1.4" fill="#5e2813" opacity="0.25"/><circle cx="256" cy="308" r="1.4" fill="#5e2813" opacity="0.25"/><circle cx="308" cy="248" r="1.4" fill="#5e2813" opacity="0.25"/><circle cx="248" cy="328" r="1.4" fill="#5e2813" opacity="0.25"/><circle cx="328" cy="294" r="1.4" fill="#5e2813" opacity="0.25"/><circle cx="294" cy="374" r="1.4" fill="#5e2813" opacity="0.25"/><circle cx="374" cy="338" r="1.4" fill="#5e2813" opacity="0.25"/><circle cx="338" cy="164" r="1.4" fill="#5e2813" opacity="0.25"/><circle cx="164" cy="238" r="1.4" fill="#5e2813" opacity="0.25"/><circle cx="238" cy="177" r="1.4" fill="#5e2813" opacity="0.25"/><circle cx="177" cy="338" r="1.4" fill="#5e2813" opacity="0.25"/><circle cx="338" cy="279" r="1.4" fill="#5e2813" opacity="0.25"/><circle cx="279" cy="307" r="1.4" fill="#5e2813" opacity="0.25"/><circle cx="307" cy="137" r="1.4" fill="#5e2813" opacity="0.25"/><circle cx="137" cy="370" r="1.4" fill="#5e2813" opacity="0.25"/><circle cx="370" cy="202" r="1.4" fill="#5e2813" opacity="0.25"/><circle cx="202" cy="205" r="1.4" fill="#5e2813" opacity="0.25"/>
<g data-collage-motif="halsa"><path d="M640 580 C520 480 520 360 600 340 C640 330 640 370 640 380 C640 370 640 330 680 340 C760 360 760 480 640 580 Z" fill="#e89b5b" opacity="0.84"/></g>
<g fill="#e89b5b" opacity="0.9"><circle cx="104" cy="106" r="8"/><circle cx="130" cy="106" r="8"/><circle cx="156" cy="106" r="8"/></g>
</svg>