<svg xmlns="http://www.w3.org/2000/svg" width="1280" height="848" viewBox="0 0 1280 848">
<defs>
  <filter id="ds" x="-20%" y="-20%" width="140%" height="140%"><feDropShadow dx="0" dy="10" stdDeviation="10" flood-color="#000000" flood-opacity="0.18"/></filter>
  <filter id="fibre"><feTurbulence type="fractalNoise" baseFrequency="0.9" numOctaves="2" result="n"/><feColorMatrix in="n" type="saturate" values="0"/><feComponentTransfer><feFuncA type="linear" slope="0.05"/></feComponentTransfer><feComposite operator="in" in2="SourceGraphic"/></filter>
</defs>
<rect width="1280" height="848" fill="#f3ece1"/>
<g filter="url(#ds)">
<polygon points="62.0 60 132.1 58 203.2 66 278.3 54 356.4 62 428.6 64 494.7 55 574.8 58 635.9 61 703.0 60 718.0 530 642.9 525 568.8 532 492.7 526 418.6 533 349.4 529 280.3 525 211.2 533 146.1 529 71.0 530 710.0 527.0 638.9 470.8 567.8 418.6 496.7 381.3 425.6 328.1 354.4 266.9 283.3 214.7 212.2 168.4 141.1 103.2 70.0 54.0 70.0 55.0 141.1 111.2 212.2 164.4 283.3 215.7 354.4 276.9 425.6 330.1 496.7 382.3 567.8 430.6 638.9 475.8 710.0 527.0" fill="#e3e9f0" stroke="#232b3f" stroke-width="2.4" stroke-dasharray="2 6" stroke-linecap="round" transform="rotate(-3.5 390.0 295.0)"/>
<polygon points="555.0 240 635.3 242 709.7 244 778.0 235 860.3 238 923.7 241 993.0 233 1066.3 234 1154.7 239 1227.0 240 1216.0 760 1139.7 763 1068.3 759 997.0 755 925.7 763 858.3 759 781.0 756 706.7 756 634.3 763 552.0 760 1220.0 768.0 1146.7 709.2 1073.3 642.4 1000.0 584.7 926.7 532.9 853.3 462.1 780.0 407.3 706.7 349.6 633.3 306.8 560.0 248.0 560.0 239.0 633.3 305.8 706.7 364.6 780.0 422.3 853.3 476.1 926.7 526.9 1000.0 583.7 1073.3 646.4 1146.7 695.2 1220.0 763.0" fill="#7a8aa0" stroke="#232b3f" stroke-width="2.4" stroke-dasharray="2 6" stroke-linecap="round" transform="rotate(4.0 890.0 500.0)"/>
<polygon points="358.0 380 429.2 378 481.4 381 539.7 373 601.9 374 679.1 379 740.3 382 793.6 386 855.8 379 924.0 380 917.0 780 856.8 783 800.6 779 734.3 776 671.1 776 609.9 783 538.7 774 475.4 782 413.2 774 355.0 780 920.0 778.0 857.8 739.6 795.6 682.1 733.3 640.7 671.1 596.2 608.9 566.8 546.7 521.3 484.4 472.9 422.2 425.4 360.0 376.0 360.0 389.0 422.2 429.4 484.4 466.9 546.7 510.3 608.9 559.8 671.1 595.2 733.3 649.7 795.6 698.1 857.8 742.6 920.0 772.0" fill="#43506b" stroke="#232b3f" stroke-width="2.4" stroke-dasharray="2 6" stroke-linecap="round" transform="rotate(-1.5 640.0 580.0)"/>
</g>
<path d="M644 283 L645 332 L615 369 L572 377 L527 402 L483 377 L458 332 L453 283 L450 230 L485 192 L529 171 L572 189 L603 213 L636 239 Z" fill="#e3e9f0" opacity="0.16"/><path d="M699 649 L677 744 L613 810 L535 839 L449 867 L373 815 L322 739 L333 649 L360 579 L389 504 L450 433 L533 468 L610 492 L663 561 Z" fill="#7a8aa0" opacity="0.16"/><path d="M837 677 L813 752 L767 809 L699 816 L643 805 L584 795 L521 755 L532 677 L535 606 L576 549 L640 533 L698 546 L746 573 L805 606 Z" fill="#e3e9f0" opacity="0.16"/><path d="M862 556 L864 607 L848 665 L792 669 L742 679 L695 655 L674 605 L672 556 L682 511 L696 457 L743 439 L789 454 L830 472 L854 511 Z" fill="#7a8aa0" opacity="0.16"/><path d="M703 260 L685 353 L618 411 L543 432 L471 430 L385 427 L339 348 L345 260 L356 181 L407 124 L467 70 L552 44 L604 128 L704 157 Z" fill="#e3e9f0" opacity="0.16"/>
<g filter="url(#fibre)" opacity="0.6"><rect width="1280" height="848" fill="#232b3f"/></g>
<circle cx="349" cy="253" r="1.4" fill="#232b3f" opacity="0.25"/><circle cx="253" cy="215" r="1.4" fill="#232b3f" opacity="0.25"/><circle cx="215" cy="238" r="1.4" fill="#232b3f" opacity="0.25"/><circle cx="238" cy="226" r="1.4" fill="#232b3f" opacity="0.25"/><circle cx="226" cy="189" r="1.4" fill="#232b3f" opacity="0.25"/><circle cx="189" cy="146" r="1.4" fill="#232b3f" opacity="0.25"/><circle cx="146" cy="212" r="1.4" fill="#232b3f" opacity="0.25"/><circle cx="212" cy="335" r="1.4" fill="#232b3f" opacity="0.25"/><circle cx="335" cy="293" r="1.4" fill="#232b3f" opacity="0.25"/><circle cx="293" cy="255" r="1.4" fill="#232b3f" opacity="0.25"/><circle cx="255" cy="346" r="1.4" fill="#232b3f" opacity="0.25"/><circle cx="346" cy="231" r="1.4" fill="#232b3f" opacity="0.25"/><circle cx="231" cy="279" r="1.4" fill="#232b3f" opacity="0.25"/><circle cx="279" cy="298" r="1.4" fill="#232b3f" opacity="0.25"/><circle cx="298" cy="171" r="1.4" fill="#232b3f" opacity="0.25"/><circle cx="171" cy="215" r="1.4" fill="#232b3f" opacity="0.25"/><circle cx="215" cy="180" r="1.4" fill="#232b3f" opacity="0.25"/><circle cx="180" cy="313" r="1.4" fill="#232b3f" opacity="0.25"/><circle cx="313" cy="233" r="1.4" fill="#232b3f" opacity="0.25"/><circle cx="233" cy="232" r="1.4" fill="#232b3f" opacity="0.25"/><circle cx="232" cy="323" r="1.4" fill="#232b3f" opacity="0.25"/><circle cx="323" cy="282" r="1.4" fill="#232b3f" opacity="0.25"/><circle cx="282" cy="125" r="1.4" fill="#232b3f" opacity="0.25"/><circle cx="125" cy="236" r="1.4" fill="#232b3f" opacity="0.25"/><circle cx="236" cy="124" r="1.4" fill="#232b3f" opacity="0.25"/><circle cx="124" cy="278" r="1.4" fill="#232b3f" opacity="0.25"/><circle cx="278" cy="147" r="1.4" fill="#232b3f" opacity="0.25"/><circle cx="147" cy="229" r="1.4" fill="#232b3f" opacity="0.25"/><circle cx="229" cy="263" r="1.4" fill="#232b3f" opacity="0.25"/><circle cx="263" cy="281" r="1.4" fill="#232b3f" opacity="0.25"/><circle cx="281" cy="206" r="1.4" fill="#232b3f" opacity="0.25"/><circle cx="206" cy="349" r="1.4" fill="#232b3f" opacity="0.25"/><circle cx="349" cy="253" r="1.4" fill="#232b3f" opacity="0.25"/><circle cx="253" cy="215" r="1.4" fill="#232b3f" opacity="0.25"/><circle cx="215" cy="238" r="1.4" fill="#232b3f" opacity="0.25"/><circle cx="238" cy="226" r="1.4" fill="#232b3f" opacity="0.25"/>
<g data-collage-motif="hälsa"><circle cx="540" cy="420" r="40" fill="#7a8aa0"/><circle cx="740" cy="400" r="34" fill="#7a8aa0" opacity="0.86"/><circle cx="650" cy="560" r="30" fill="#7a8aa0" opacity="0.8"/><path d="M540 420 L740 400 L650 560 Z" stroke="#232b3f" stroke-width="6" fill="none" stroke-linejoin="round"/></g>
<g fill="#7a8aa0" opacity="0.9"><circle cx="104" cy="106" r="8"/><circle cx="130" cy="106" r="8"/><circle cx="156" cy="106" r="8"/></g>
</svg>