<svg xmlns="http://www.w3.org/2000/svg" width="1280" height="848" viewBox="0 0 1280 848">
<defs>
  <linearGradient id="bg" x1="0" y1="0" x2="1" y2="1"><stop stop-color="#4a2531"/><stop offset="1" stop-color="#a64b60"/></linearGradient>
  <radialGradient id="glow"><stop stop-color="#ffc76a" stop-opacity=".72"/><stop offset="1" stop-color="#ffc76a" stop-opacity="0"/></radialGradient>
</defs>
<rect width="1280" height="848" fill="url(#bg)"/>
<circle cx="562" cy="416" r="390" fill="url(#glow)"/>
<circle cx="206" cy="622" r="175" fill="#fff0f3" opacity="0.172"/><circle cx="202" cy="511" r="244" fill="#fff0f3" opacity="0.222"/><circle cx="1069" cy="473" r="151" fill="#fff0f3" opacity="0.102"/><circle cx="460" cy="692" r="80" fill="#fff0f3" opacity="0.131"/><circle cx="284" cy="174" r="235" fill="#fff0f3" opacity="0.159"/><circle cx="840" cy="301" r="198" fill="#fff0f3" opacity="0.190"/><circle cx="814" cy="419" r="144" fill="#fff0f3" opacity="0.149"/>
<path d="M0 659 C260 509 450 769 690 614S1080 619 1280 529V848H0Z" fill="#4a2531" opacity=".28"/>
<path d="M640 212 684 355l148-36-104 111 104 110-148-35-44 143-44-143-148 35 104-110-104-111 148 36Z" fill="#fff0f3" opacity=".76"/>
<circle cx="640" cy="430" r="78" fill="#ffc76a"/>
<g fill="#ffc76a" opacity=".9"><circle cx="104" cy="106" r="8"/><circle cx="130" cy="106" r="8"/><circle cx="156" cy="106" r="8"/></g>
</svg>