<svg xmlns="http://www.w3.org/2000/svg" width="1280" height="848" viewBox="0 0 1280 848">
<defs>
  <filter id="ds" x="-20%" y="-20%" width="140%" height="140%"><feDropShadow dx="0" dy="10" stdDeviation="10" flood-color="#000000" flood-opacity="0.18"/></filter>
  <filter id="fibre"><feTurbulence type="fractalNoise" baseFrequency="0.9" numOctaves="2" result="n"/><feColorMatrix in="n" type="saturate" values="0"/><feComponentTransfer><feFuncA type="linear" slope="0.05"/></feComponentTransfer><feComposite operator="in" in2="SourceGraphic"/></filter>
</defs>
<rect width="1280" height="848" fill="#f3ece1"/>
<g filter="url(#ds)">
<polygon points="76.0 60 145.1 64 209.2 66 288.3 60 355.4 65 426.6 59 492.7 57 560.8 54 642.9 63 701.0 60 712.0 530 647.9 535 576.8 534 505.7 523 427.6 523 351.4 528 281.3 537 213.2 527 149.1 531 76.0 530 710.0 534.0 638.9 468.8 567.8 425.6 496.7 374.3 425.6 322.1 354.4 271.9 283.3 221.7 212.2 161.4 141.1 112.2 70.0 59.0 70.0 52.0 141.1 106.2 212.2 171.4 283.3 213.7 354.4 262.9 425.6 317.1 496.7 376.3 567.8 420.6 638.9 476.8 710.0 529.0" fill="#e3e9f0" stroke="#232b3f" stroke-width="2.4" stroke-dasharray="2 6" stroke-linecap="round" transform="rotate(-3.5 390.0 295.0)"/>
<polygon points="565.0 240 634.3 245 707.7 239 776.0 237 846.3 234 930.7 243 991.0 237 1073.3 245 1147.7 236 1221.0 240 1229.0 760 1148.7 753 1070.3 758 998.0 767 927.7 757 861.3 761 786.0 757 699.7 767 636.3 754 566.0 760 1220.0 761.0 1146.7 703.2 1073.3 647.4 1000.0 591.7 926.7 525.9 853.3 471.1 780.0 412.3 706.7 346.6 633.3 294.8 560.0 242.0 560.0 237.0 633.3 291.8 706.7 351.6 780.0 416.3 853.3 466.1 926.7 527.9 1000.0 585.7 1073.3 648.4 1146.7 709.2 1220.0 756.0" fill="#7a8aa0" stroke="#232b3f" stroke-width="2.4" stroke-dasharray="2 6" stroke-linecap="round" transform="rotate(4.0 890.0 500.0)"/>
<polygon points="356.0 380 415.2 374 488.4 383 537.7 377 608.9 385 672.1 376 734.3 378 798.6 378 862.8 384 917.0 380 918.0 780 858.8 777 803.6 781 739.3 777 664.1 787 611.9 774 552.7 785 488.4 776 419.2 774 365.0 780 920.0 785.0 857.8 732.6 795.6 691.1 733.3 645.7 671.1 593.2 608.9 554.8 546.7 515.3 484.4 477.9 422.2 433.4 360.0 389.0 360.0 383.0 422.2 419.4 484.4 467.9 546.7 512.3 608.9 561.8 671.1 609.2 733.3 642.7 795.6 700.1 857.8 735.6 920.0 779.0" fill="#43506b" stroke="#232b3f" stroke-width="2.4" stroke-dasharray="2 6" stroke-linecap="round" transform="rotate(-1.5 640.0 580.0)"/>
</g>
<path d="M501 516 L522 584 L480 635 L418 635 L361 667 L314 623 L290 570 L277 516 L271 452 L321 417 L365 381 L421 382 L467 415 L502 459 Z" fill="#e3e9f0" opacity="0.16"/><path d="M957 714 L915 801 L853 857 L786 894 L704 924 L642 859 L580 802 L563 714 L591 632 L637 563 L712 544 L794 496 L879 535 L915 627 Z" fill="#7a8aa0" opacity="0.16"/><path d="M1047 516 L1021 563 L999 609 L955 631 L908 624 L866 605 L846 561 L810 516 L819 458 L863 424 L906 395 L951 421 L988 439 L1041 459 Z" fill="#e3e9f0" opacity="0.16"/><path d="M452 574 L442 636 L397 675 L357 735 L288 740 L238 690 L193 642 L209 574 L219 520 L227 444 L295 439 L354 429 L413 452 L434 516 Z" fill="#7a8aa0" opacity="0.16"/><path d="M696 606 L664 669 L631 725 L569 723 L519 725 L451 733 L432 665 L411 606 L418 540 L469 504 L515 469 L578 443 L628 492 L650 551 Z" fill="#e3e9f0" opacity="0.16"/>
<g filter="url(#fibre)" opacity="0.6"><rect width="1280" height="848" fill="#232b3f"/></g>
<circle cx="268" cy="152" r="1.4" fill="#232b3f" opacity="0.25"/><circle cx="152" cy="221" r="1.4" fill="#232b3f" opacity="0.25"/><circle cx="221" cy="343" r="1.4" fill="#232b3f" opacity="0.25"/><circle cx="343" cy="187" r="1.4" fill="#232b3f" opacity="0.25"/><circle cx="187" cy="282" r="1.4" fill="#232b3f" opacity="0.25"/><circle cx="282" cy="201" r="1.4" fill="#232b3f" opacity="0.25"/><circle cx="201" cy="274" r="1.4" fill="#232b3f" opacity="0.25"/><circle cx="274" cy="361" r="1.4" fill="#232b3f" opacity="0.25"/><circle cx="361" cy="310" r="1.4" fill="#232b3f" opacity="0.25"/><circle cx="310" cy="319" r="1.4" fill="#232b3f" opacity="0.25"/><circle cx="319" cy="282" r="1.4" fill="#232b3f" opacity="0.25"/><circle cx="282" cy="168" r="1.4" fill="#232b3f" opacity="0.25"/><circle cx="168" cy="170" r="1.4" fill="#232b3f" opacity="0.25"/><circle cx="170" cy="305" r="1.4" fill="#232b3f" opacity="0.25"/><circle cx="305" cy="221" r="1.4" fill="#232b3f" opacity="0.25"/><circle cx="221" cy="224" r="1.4" fill="#232b3f" opacity="0.25"/><circle cx="224" cy="318" r="1.4" fill="#232b3f" opacity="0.25"/><circle cx="318" cy="215" r="1.4" fill="#232b3f" opacity="0.25"/><circle cx="215" cy="373" r="1.4" fill="#232b3f" opacity="0.25"/><circle cx="373" cy="302" r="1.4" fill="#232b3f" opacity="0.25"/><circle cx="302" cy="366" r="1.4" fill="#232b3f" opacity="0.25"/><circle cx="366" cy="347" r="1.4" fill="#232b3f" opacity="0.25"/><circle cx="347" cy="138" r="1.4" fill="#232b3f" opacity="0.25"/><circle cx="138" cy="359" r="1.4" fill="#232b3f" opacity="0.25"/><circle cx="359" cy="164" r="1.4" fill="#232b3f" opacity="0.25"/><circle cx="164" cy="279" r="1.4" fill="#232b3f" opacity="0.25"/><circle cx="279" cy="225" r="1.4" fill="#232b3f" opacity="0.25"/><circle cx="225" cy="175" r="1.4" fill="#232b3f" opacity="0.25"/><circle cx="175" cy="306" r="1.4" fill="#232b3f" opacity="0.25"/><circle cx="306" cy="160" r="1.4" fill="#232b3f" opacity="0.25"/><circle cx="160" cy="360" r="1.4" fill="#232b3f" opacity="0.25"/><circle cx="360" cy="268" r="1.4" fill="#232b3f" opacity="0.25"/><circle cx="268" cy="152" r="1.4" fill="#232b3f" opacity="0.25"/><circle cx="152" cy="221" r="1.4" fill="#232b3f" opacity="0.25"/><circle cx="221" cy="343" r="1.4" fill="#232b3f" opacity="0.25"/><circle cx="343" cy="187" r="1.4" fill="#232b3f" opacity="0.25"/>
<g data-collage-motif="rymden"><circle cx="540" cy="420" r="40" fill="#7a8aa0"/><circle cx="740" cy="400" r="34" fill="#7a8aa0" opacity="0.86"/><circle cx="650" cy="560" r="30" fill="#7a8aa0" opacity="0.8"/><path d="M540 420 L740 400 L650 560 Z" stroke="#232b3f" stroke-width="6" fill="none" stroke-linejoin="round"/></g>
<g fill="#7a8aa0" opacity="0.9"><circle cx="104" cy="106" r="8"/><circle cx="130" cy="106" r="8"/><circle cx="156" cy="106" r="8"/></g>
</svg>