<svg xmlns="http://www.w3.org/2000/svg" width="1280" height="848" viewBox="0 0 1280 848" data-palette="teknik-2" data-motif-variant="1">
<defs>
  <filter id="ds" x="-20%" y="-20%" width="140%" height="140%"><feDropShadow dx="0" dy="10" stdDeviation="10" flood-color="#000000" flood-opacity="0.18"/></filter>
  <filter id="fibre"><feTurbulence type="fractalNoise" baseFrequency="0.9" numOctaves="2" result="n"/><feColorMatrix in="n" type="saturate" values="0"/><feComponentTransfer><feFuncA type="linear" slope="0.05"/></feComponentTransfer><feComposite operator="in" in2="SourceGraphic"/></filter>
</defs>
<rect width="1280" height="848" fill="#f3ece1"/>
<g filter="url(#ds)">
<polygon points="91.0 66 171.9 65 248.8 61 317.7 72 392.6 70 466.4 68 525.3 72 605.2 73 676.1 60 754.0 66 747.0 520 670.1 525 606.2 527 538.3 522 460.4 515 388.6 518 323.7 527 244.8 524 179.9 517 93.0 520 746.0 522.0 674.1 477.6 602.2 419.1 530.3 366.7 458.4 309.2 386.6 275.8 314.7 214.3 242.8 174.9 170.9 119.4 99.0 62.0 99.0 57.0 170.9 122.4 242.8 166.9 314.7 216.3 386.6 275.8 458.4 317.2 530.3 362.7 602.2 416.1 674.1 463.6 746.0 512.0" fill="#d4f1f2" stroke="#103038" stroke-width="2.4" stroke-dasharray="2 6" stroke-linecap="round" transform="rotate(-3.5 422.5 293.0)"/>
<polygon points="581.0 250 661.1 254 740.2 252 804.3 256 889.4 257 965.6 244 1048.7 245 1117.8 257 1192.9 251 1263.0 250 1280.0 747 1196.9 742 1119.8 745 1049.7 754 965.6 751 895.4 744 803.3 743 732.2 747 656.1 740 570.0 747 1272.0 745.0 1194.9 682.8 1117.8 644.6 1040.7 578.3 963.6 534.1 886.4 473.9 809.3 411.7 732.2 353.4 655.1 301.2 578.0 251.0 578.0 249.0 655.1 313.2 732.2 359.4 809.3 409.7 886.4 467.9 963.6 520.1 1040.7 573.3 1117.8 641.6 1194.9 688.8 1272.0 745.0" fill="#3fb0b8" stroke="#103038" stroke-width="2.4" stroke-dasharray="2 6" stroke-linecap="round" transform="rotate(6.0 925.0 498.5)"/>
<polygon points="341.0 365 412.4 372 474.9 359 544.3 360 599.8 372 661.2 366 717.7 358 798.1 367 850.6 360 925.0 365 926.0 760 855.6 764 799.1 757 720.7 756 663.2 760 600.8 753 528.3 757 473.9 761 415.4 765 349.0 760 917.0 757.0 853.6 724.1 790.1 675.2 726.7 624.3 663.2 577.4 599.8 536.6 536.3 497.7 472.9 448.8 409.4 412.9 346.0 373.0 346.0 359.0 409.4 405.9 472.9 446.8 536.3 488.7 599.8 545.6 663.2 581.4 726.7 626.3 790.1 664.2 853.6 716.1 917.0 762.0" fill="#1f4a5e" stroke="#103038" stroke-width="2.4" stroke-dasharray="2 6" stroke-linecap="round" transform="rotate(-1.5 631.5 562.5)"/>
</g>
<path d="M870 438 L836 497 L798 540 L758 607 L697 562 L634 559 L589 508 L590 438 L594 371 L645 332 L695 304 L748 317 L794 341 L831 381 Z" fill="#d4f1f2" opacity="0.16"/><path d="M654 709 L671 810 L617 898 L523 921 L430 936 L361 869 L307 799 L306 709 L323 628 L366 556 L433 493 L523 495 L605 535 L638 625 Z" fill="#3fb0b8" opacity="0.16"/><path d="M419 747 L396 792 L371 828 L330 839 L292 839 L254 824 L218 796 L209 747 L218 698 L255 671 L285 624 L333 641 L378 656 L409 695 Z" fill="#d4f1f2" opacity="0.16"/><path d="M808 697 L804 735 L788 775 L751 794 L711 794 L681 765 L637 746 L642 697 L645 652 L670 614 L708 586 L749 611 L788 620 L811 655 Z" fill="#3fb0b8" opacity="0.16"/><path d="M830 122 L787 203 L772 311 L675 324 L587 339 L503 299 L431 228 L460 122 L457 30 L514 -40 L593 -68 L682 -112 L756 -45 L839 14 Z" fill="#d4f1f2" opacity="0.16"/>
<g filter="url(#fibre)" opacity="0.6"><rect width="1280" height="848" fill="#103038"/></g>
<circle cx="254" cy="130" r="1.4" fill="#103038" opacity="0.25"/><circle cx="130" cy="306" r="1.4" fill="#103038" opacity="0.25"/><circle cx="306" cy="227" r="1.4" fill="#103038" opacity="0.25"/><circle cx="227" cy="268" r="1.4" fill="#103038" opacity="0.25"/><circle cx="268" cy="251" r="1.4" fill="#103038" opacity="0.25"/><circle cx="251" cy="219" r="1.4" fill="#103038" opacity="0.25"/><circle cx="219" cy="208" r="1.4" fill="#103038" opacity="0.25"/><circle cx="208" cy="359" r="1.4" fill="#103038" opacity="0.25"/><circle cx="359" cy="346" r="1.4" fill="#103038" opacity="0.25"/><circle cx="346" cy="167" r="1.4" fill="#103038" opacity="0.25"/><circle cx="167" cy="374" r="1.4" fill="#103038" opacity="0.25"/><circle cx="374" cy="158" r="1.4" fill="#103038" opacity="0.25"/><circle cx="158" cy="270" r="1.4" fill="#103038" opacity="0.25"/><circle cx="270" cy="354" r="1.4" fill="#103038" opacity="0.25"/><circle cx="354" cy="137" r="1.4" fill="#103038" opacity="0.25"/><circle cx="137" cy="246" r="1.4" fill="#103038" opacity="0.25"/><circle cx="246" cy="125" r="1.4" fill="#103038" opacity="0.25"/><circle cx="125" cy="331" r="1.4" fill="#103038" opacity="0.25"/><circle cx="331" cy="315" r="1.4" fill="#103038" opacity="0.25"/><circle cx="315" cy="358" r="1.4" fill="#103038" opacity="0.25"/><circle cx="358" cy="144" r="1.4" fill="#103038" opacity="0.25"/><circle cx="144" cy="152" r="1.4" fill="#103038" opacity="0.25"/><circle cx="152" cy="270" r="1.4" fill="#103038" opacity="0.25"/><circle cx="270" cy="245" r="1.4" fill="#103038" opacity="0.25"/><circle cx="245" cy="207" r="1.4" fill="#103038" opacity="0.25"/><circle cx="207" cy="309" r="1.4" fill="#103038" opacity="0.25"/><circle cx="309" cy="150" r="1.4" fill="#103038" opacity="0.25"/><circle cx="150" cy="138" r="1.4" fill="#103038" opacity="0.25"/><circle cx="138" cy="370" r="1.4" fill="#103038" opacity="0.25"/><circle cx="370" cy="281" r="1.4" fill="#103038" opacity="0.25"/><circle cx="281" cy="187" r="1.4" fill="#103038" opacity="0.25"/><circle cx="187" cy="254" r="1.4" fill="#103038" opacity="0.25"/><circle cx="254" cy="130" r="1.4" fill="#103038" opacity="0.25"/><circle cx="130" cy="306" r="1.4" fill="#103038" opacity="0.25"/><circle cx="306" cy="227" r="1.4" fill="#103038" opacity="0.25"/><circle cx="227" cy="268" r="1.4" fill="#103038" opacity="0.25"/>
<g data-collage-motif="teknik"><circle cx="640" cy="440" r="120" fill="#3fb0b8" opacity="0.82"/><circle cx="640" cy="440" r="52" fill="#103038"/><rect x="628" y="290" width="24" height="40" rx="6" fill="#3fb0b8" transform="rotate(0 640 440)"/><rect x="628" y="290" width="24" height="40" rx="6" fill="#3fb0b8" transform="rotate(45 640 440)"/><rect x="628" y="290" width="24" height="40" rx="6" fill="#3fb0b8" transform="rotate(90 640 440)"/><rect x="628" y="290" width="24" height="40" rx="6" fill="#3fb0b8" transform="rotate(135 640 440)"/><rect x="628" y="290" width="24" height="40" rx="6" fill="#3fb0b8" transform="rotate(180 640 440)"/><rect x="628" y="290" width="24" height="40" rx="6" fill="#3fb0b8" transform="rotate(225 640 440)"/><rect x="628" y="290" width="24" height="40" rx="6" fill="#3fb0b8" transform="rotate(270 640 440)"/><rect x="628" y="290" width="24" height="40" rx="6" fill="#3fb0b8" transform="rotate(315 640 440)"/></g>
<g fill="#3fb0b8" opacity="0.9"><circle cx="104" cy="106" r="8"/><circle cx="130" cy="106" r="8"/><circle cx="156" cy="106" r="8"/></g>
</svg>