<svg xmlns="http://www.w3.org/2000/svg" width="1280" height="848" viewBox="0 0 1280 848" data-palette="samhalle-0" data-motif-variant="1">
<defs>
  <filter id="ds" x="-20%" y="-20%" width="140%" height="140%"><feDropShadow dx="0" dy="10" stdDeviation="10" flood-color="#000000" flood-opacity="0.18"/></filter>
  <filter id="fibre"><feTurbulence type="fractalNoise" baseFrequency="0.9" numOctaves="2" result="n"/><feColorMatrix in="n" type="saturate" values="0"/><feComponentTransfer><feFuncA type="linear" slope="0.05"/></feComponentTransfer><feComposite operator="in" in2="SourceGraphic"/></filter>
</defs>
<rect width="1280" height="848" fill="#f3ece1"/>
<g filter="url(#ds)">
<polygon points="86.0 50 158.1 56 233.2 55 320.3 53 400.4 46 458.6 57 542.7 54 622.8 45 683.9 43 768.0 50 773.0 508 689.9 510 614.8 506 544.7 510 475.6 505 391.4 504 313.3 508 245.2 507 168.1 508 92.0 508 768.0 499.0 692.9 457.1 617.8 405.2 542.7 349.3 467.6 303.4 392.4 258.6 317.3 197.7 242.2 145.8 167.1 101.9 92.0 59.0 92.0 49.0 167.1 100.9 242.2 152.8 317.3 204.7 392.4 259.6 467.6 313.4 542.7 364.3 617.8 403.2 692.9 449.1 768.0 517.0" fill="#d9def0" stroke="#1f2456" stroke-width="2.4" stroke-dasharray="2 6" stroke-linecap="round" transform="rotate(-5.5 430.0 279.0)"/>
<polygon points="551.0 251 630.8 247 688.6 258 772.3 255 852.1 246 912.9 244 996.7 255 1070.4 252 1140.2 252 1220.0 251 1223.0 783 1154.2 780 1070.4 779 992.7 783 924.9 782 848.1 783 772.3 781 696.6 780 620.8 790 542.0 783 1221.0 777.0 1146.2 722.9 1071.4 669.8 996.7 600.7 921.9 540.6 847.1 488.4 772.3 437.3 697.6 366.2 622.8 319.1 548.0 256.0 548.0 253.0 622.8 316.1 697.6 378.2 772.3 437.3 847.1 484.4 921.9 538.6 996.7 614.7 1071.4 664.8 1146.2 718.9 1221.0 792.0" fill="#6f74c2" stroke="#1f2456" stroke-width="2.4" stroke-dasharray="2 6" stroke-linecap="round" transform="rotate(6.0 884.5 517.0)"/>
<polygon points="366.0 378 435.8 373 486.6 371 560.3 382 624.1 379 683.9 379 753.7 382 824.4 374 879.2 373 943.0 378 945.0 813 887.2 812 820.4 813 754.7 811 688.9 810 623.1 820 554.3 818 486.6 807 421.8 808 369.0 813 949.0 808.0 884.2 758.7 819.4 717.3 754.7 677.0 689.9 616.7 625.1 580.3 560.3 528.0 495.6 471.7 430.8 423.3 366.0 380.0 366.0 387.0 430.8 423.3 495.6 466.7 560.3 532.0 625.1 571.3 689.9 614.7 754.7 677.0 819.4 716.3 884.2 765.7 949.0 819.0" fill="#3a3f7a" stroke="#1f2456" stroke-width="2.4" stroke-dasharray="2 6" stroke-linecap="round" transform="rotate(-4.5 657.5 595.5)"/>
</g>
<path d="M491 682 L457 741 L437 808 L373 820 L313 831 L263 793 L201 757 L181 682 L231 623 L273 585 L312 532 L377 523 L422 576 L490 605 Z" fill="#d9def0" opacity="0.16"/><path d="M590 491 L561 571 L537 665 L456 713 L373 662 L317 616 L244 577 L215 491 L264 415 L278 313 L363 272 L455 274 L516 345 L571 406 Z" fill="#6f74c2" opacity="0.16"/><path d="M1160 355 L1146 388 L1137 430 L1103 454 L1065 437 L1019 441 L992 402 L983 355 L1007 316 L1028 282 L1061 255 L1098 277 L1128 293 L1170 309 Z" fill="#d9def0" opacity="0.16"/><path d="M586 644 L617 753 L550 836 L459 882 L367 844 L286 811 L216 745 L242 644 L258 565 L270 455 L358 400 L445 473 L545 458 L583 553 Z" fill="#6f74c2" opacity="0.16"/><path d="M582 155 L575 210 L549 263 L492 260 L448 260 L388 267 L347 219 L374 155 L353 94 L399 58 L440 14 L497 26 L555 39 L592 91 Z" fill="#d9def0" opacity="0.16"/>
<g filter="url(#fibre)" opacity="0.6"><rect width="1280" height="848" fill="#1f2456"/></g>
<circle cx="180" cy="272" r="1.4" fill="#1f2456" opacity="0.25"/><circle cx="272" cy="253" r="1.4" fill="#1f2456" opacity="0.25"/><circle cx="253" cy="132" r="1.4" fill="#1f2456" opacity="0.25"/><circle cx="132" cy="175" r="1.4" fill="#1f2456" opacity="0.25"/><circle cx="175" cy="348" r="1.4" fill="#1f2456" opacity="0.25"/><circle cx="348" cy="224" r="1.4" fill="#1f2456" opacity="0.25"/><circle cx="224" cy="191" r="1.4" fill="#1f2456" opacity="0.25"/><circle cx="191" cy="272" r="1.4" fill="#1f2456" opacity="0.25"/><circle cx="272" cy="300" r="1.4" fill="#1f2456" opacity="0.25"/><circle cx="300" cy="356" r="1.4" fill="#1f2456" opacity="0.25"/><circle cx="356" cy="218" r="1.4" fill="#1f2456" opacity="0.25"/><circle cx="218" cy="128" r="1.4" fill="#1f2456" opacity="0.25"/><circle cx="128" cy="191" r="1.4" fill="#1f2456" opacity="0.25"/><circle cx="191" cy="333" r="1.4" fill="#1f2456" opacity="0.25"/><circle cx="333" cy="332" r="1.4" fill="#1f2456" opacity="0.25"/><circle cx="332" cy="206" r="1.4" fill="#1f2456" opacity="0.25"/><circle cx="206" cy="138" r="1.4" fill="#1f2456" opacity="0.25"/><circle cx="138" cy="183" r="1.4" fill="#1f2456" opacity="0.25"/><circle cx="183" cy="195" r="1.4" fill="#1f2456" opacity="0.25"/><circle cx="195" cy="267" r="1.4" fill="#1f2456" opacity="0.25"/><circle cx="267" cy="259" r="1.4" fill="#1f2456" opacity="0.25"/><circle cx="259" cy="335" r="1.4" fill="#1f2456" opacity="0.25"/><circle cx="335" cy="264" r="1.4" fill="#1f2456" opacity="0.25"/><circle cx="264" cy="365" r="1.4" fill="#1f2456" opacity="0.25"/><circle cx="365" cy="280" r="1.4" fill="#1f2456" opacity="0.25"/><circle cx="280" cy="296" r="1.4" fill="#1f2456" opacity="0.25"/><circle cx="296" cy="322" r="1.4" fill="#1f2456" opacity="0.25"/><circle cx="322" cy="263" r="1.4" fill="#1f2456" opacity="0.25"/><circle cx="263" cy="262" r="1.4" fill="#1f2456" opacity="0.25"/><circle cx="262" cy="204" r="1.4" fill="#1f2456" opacity="0.25"/><circle cx="204" cy="355" r="1.4" fill="#1f2456" opacity="0.25"/><circle cx="355" cy="180" r="1.4" fill="#1f2456" opacity="0.25"/><circle cx="180" cy="272" r="1.4" fill="#1f2456" opacity="0.25"/><circle cx="272" cy="253" r="1.4" fill="#1f2456" opacity="0.25"/><circle cx="253" cy="132" r="1.4" fill="#1f2456" opacity="0.25"/><circle cx="132" cy="175" r="1.4" fill="#1f2456" opacity="0.25"/>
<g data-collage-motif="samhalle"><rect x="500" y="360" width="120" height="120" rx="14" fill="#6f74c2" opacity="0.82"/><rect x="660" y="360" width="120" height="120" rx="14" fill="#6f74c2" opacity="0.7"/><rect x="580" y="500" width="120" height="120" rx="14" fill="#6f74c2" opacity="0.6"/></g>
<g fill="#6f74c2" opacity="0.9"><circle cx="104" cy="106" r="8"/><circle cx="130" cy="106" r="8"/><circle cx="156" cy="106" r="8"/></g>
</svg>