<svg xmlns="http://www.w3.org/2000/svg" width="1280" height="848" viewBox="0 0 1280 848">
<defs>
  <filter id="ds" x="-20%" y="-20%" width="140%" height="140%"><feDropShadow dx="0" dy="10" stdDeviation="10" flood-color="#000000" flood-opacity="0.18"/></filter>
  <filter id="fibre"><feTurbulence type="fractalNoise" baseFrequency="0.9" numOctaves="2" result="n"/><feColorMatrix in="n" type="saturate" values="0"/><feComponentTransfer><feFuncA type="linear" slope="0.05"/></feComponentTransfer><feComposite operator="in" in2="SourceGraphic"/></filter>
</defs>
<rect width="1280" height="848" fill="#f3ece1"/>
<g filter="url(#ds)">
<polygon points="73.0 60 133.1 63 218.2 56 287.3 55 353.4 56 418.6 66 501.7 53 568.8 65 639.9 53 704.0 60 706.0 530 645.9 531 564.8 537 494.7 527 431.6 533 354.4 537 283.3 526 209.2 530 137.1 533 70.0 530 710.0 531.0 638.9 471.8 567.8 427.6 496.7 372.3 425.6 325.1 354.4 267.9 283.3 207.7 212.2 171.4 141.1 109.2 70.0 52.0 70.0 64.0 141.1 112.2 212.2 160.4 283.3 223.7 354.4 265.9 425.6 329.1 496.7 367.3 567.8 421.6 638.9 478.8 710.0 537.0" fill="#e3e9f0" stroke="#232b3f" stroke-width="2.4" stroke-dasharray="2 6" stroke-linecap="round" transform="rotate(-3.5 390.0 295.0)"/>
<polygon points="564.0 240 632.3 236 699.7 246 785.0 233 854.3 245 927.7 233 994.0 237 1075.3 233 1145.7 233 1224.0 240 1218.0 760 1152.7 763 1073.3 767 1000.0 756 923.7 760 849.3 763 780.0 757 710.7 764 626.3 755 563.0 760 1220.0 759.0 1146.7 706.2 1073.3 643.4 1000.0 577.7 926.7 535.9 853.3 468.1 780.0 405.3 706.7 362.6 633.3 288.8 560.0 236.0 560.0 247.0 633.3 294.8 706.7 363.6 780.0 407.3 853.3 467.1 926.7 529.9 1000.0 593.7 1073.3 639.4 1146.7 701.2 1220.0 759.0" fill="#7a8aa0" stroke="#232b3f" stroke-width="2.4" stroke-dasharray="2 6" stroke-linecap="round" transform="rotate(4.0 890.0 500.0)"/>
<polygon points="365.0 380 423.2 385 485.4 373 540.7 377 610.9 373 670.1 373 737.3 383 794.6 376 848.8 376 927.0 380 920.0 780 854.8 780 791.6 783 733.3 777 675.1 784 601.9 775 549.7 784 476.4 777 428.2 784 364.0 780 920.0 771.0 857.8 742.6 795.6 688.1 733.3 638.7 671.1 609.2 608.9 548.8 546.7 509.3 484.4 475.9 422.2 421.4 360.0 378.0 360.0 374.0 422.2 420.4 484.4 469.9 546.7 520.3 608.9 552.8 671.1 601.2 733.3 645.7 795.6 697.1 857.8 733.6 920.0 781.0" fill="#43506b" stroke="#232b3f" stroke-width="2.4" stroke-dasharray="2 6" stroke-linecap="round" transform="rotate(-1.5 640.0 580.0)"/>
</g>
<path d="M808 305 L784 392 L753 490 L654 482 L574 512 L505 457 L454 390 L383 305 L434 209 L483 122 L574 100 L655 122 L748 127 L797 211 Z" fill="#e3e9f0" opacity="0.16"/><path d="M658 516 L639 564 L612 603 L577 656 L522 638 L472 620 L450 568 L450 516 L441 460 L478 420 L524 401 L575 387 L632 402 L644 466 Z" fill="#7a8aa0" opacity="0.16"/><path d="M491 750 L483 836 L421 889 L352 905 L280 938 L214 893 L173 826 L137 750 L138 655 L219 614 L286 591 L362 544 L417 617 L490 661 Z" fill="#e3e9f0" opacity="0.16"/><path d="M950 682 L925 762 L873 820 L813 876 L727 896 L672 819 L636 753 L577 682 L630 608 L653 520 L738 521 L807 515 L887 525 L929 600 Z" fill="#7a8aa0" opacity="0.16"/><path d="M1187 589 L1132 660 L1084 709 L1037 784 L963 746 L884 741 L867 657 L848 589 L839 507 L893 449 L966 447 L1036 397 L1092 458 L1144 511 Z" fill="#e3e9f0" opacity="0.16"/>
<g filter="url(#fibre)" opacity="0.6"><rect width="1280" height="848" fill="#232b3f"/></g>
<circle cx="132" cy="273" r="1.4" fill="#232b3f" opacity="0.25"/><circle cx="273" cy="325" r="1.4" fill="#232b3f" opacity="0.25"/><circle cx="325" cy="228" r="1.4" fill="#232b3f" opacity="0.25"/><circle cx="228" cy="242" r="1.4" fill="#232b3f" opacity="0.25"/><circle cx="242" cy="198" r="1.4" fill="#232b3f" opacity="0.25"/><circle cx="198" cy="343" r="1.4" fill="#232b3f" opacity="0.25"/><circle cx="343" cy="225" r="1.4" fill="#232b3f" opacity="0.25"/><circle cx="225" cy="282" r="1.4" fill="#232b3f" opacity="0.25"/><circle cx="282" cy="180" r="1.4" fill="#232b3f" opacity="0.25"/><circle cx="180" cy="169" r="1.4" fill="#232b3f" opacity="0.25"/><circle cx="169" cy="375" r="1.4" fill="#232b3f" opacity="0.25"/><circle cx="375" cy="285" r="1.4" fill="#232b3f" opacity="0.25"/><circle cx="285" cy="280" r="1.4" fill="#232b3f" opacity="0.25"/><circle cx="280" cy="348" r="1.4" fill="#232b3f" opacity="0.25"/><circle cx="348" cy="288" r="1.4" fill="#232b3f" opacity="0.25"/><circle cx="288" cy="335" r="1.4" fill="#232b3f" opacity="0.25"/><circle cx="335" cy="311" r="1.4" fill="#232b3f" opacity="0.25"/><circle cx="311" cy="269" r="1.4" fill="#232b3f" opacity="0.25"/><circle cx="269" cy="367" r="1.4" fill="#232b3f" opacity="0.25"/><circle cx="367" cy="201" r="1.4" fill="#232b3f" opacity="0.25"/><circle cx="201" cy="364" r="1.4" fill="#232b3f" opacity="0.25"/><circle cx="364" cy="126" r="1.4" fill="#232b3f" opacity="0.25"/><circle cx="126" cy="165" r="1.4" fill="#232b3f" opacity="0.25"/><circle cx="165" cy="325" r="1.4" fill="#232b3f" opacity="0.25"/><circle cx="325" cy="319" r="1.4" fill="#232b3f" opacity="0.25"/><circle cx="319" cy="300" r="1.4" fill="#232b3f" opacity="0.25"/><circle cx="300" cy="221" r="1.4" fill="#232b3f" opacity="0.25"/><circle cx="221" cy="277" r="1.4" fill="#232b3f" opacity="0.25"/><circle cx="277" cy="319" r="1.4" fill="#232b3f" opacity="0.25"/><circle cx="319" cy="190" r="1.4" fill="#232b3f" opacity="0.25"/><circle cx="190" cy="198" r="1.4" fill="#232b3f" opacity="0.25"/><circle cx="198" cy="132" r="1.4" fill="#232b3f" opacity="0.25"/><circle cx="132" cy="273" r="1.4" fill="#232b3f" opacity="0.25"/><circle cx="273" cy="325" r="1.4" fill="#232b3f" opacity="0.25"/><circle cx="325" cy="228" r="1.4" fill="#232b3f" opacity="0.25"/><circle cx="228" cy="242" r="1.4" fill="#232b3f" opacity="0.25"/>
<g data-collage-motif="samhälle"><circle cx="540" cy="420" r="40" fill="#7a8aa0"/><circle cx="740" cy="400" r="34" fill="#7a8aa0" opacity="0.86"/><circle cx="650" cy="560" r="30" fill="#7a8aa0" opacity="0.8"/><path d="M540 420 L740 400 L650 560 Z" stroke="#232b3f" stroke-width="6" fill="none" stroke-linejoin="round"/></g>
<g fill="#7a8aa0" opacity="0.9"><circle cx="104" cy="106" r="8"/><circle cx="130" cy="106" r="8"/><circle cx="156" cy="106" r="8"/></g>
</svg>