<svg xmlns="http://www.w3.org/2000/svg" width="1280" height="848" viewBox="0 0 1280 848">
<defs>
  <filter id="ds" x="-20%" y="-20%" width="140%" height="140%"><feDropShadow dx="0" dy="10" stdDeviation="10" flood-color="#000000" flood-opacity="0.18"/></filter>
  <filter id="fibre"><feTurbulence type="fractalNoise" baseFrequency="0.9" numOctaves="2" result="n"/><feColorMatrix in="n" type="saturate" values="0"/><feComponentTransfer><feFuncA type="linear" slope="0.05"/></feComponentTransfer><feComposite operator="in" in2="SourceGraphic"/></filter>
</defs>
<rect width="1280" height="848" fill="#f3ece1"/>
<g filter="url(#ds)">
<polygon points="65.0 60 149.1 55 221.2 65 280.3 53 358.4 64 424.6 64 504.7 54 575.8 63 645.9 66 702.0 60 715.0 530 643.9 524 561.8 525 491.7 531 417.6 534 354.4 526 288.3 526 210.2 531 144.1 523 68.0 530 710.0 537.0 638.9 469.8 567.8 429.6 496.7 375.3 425.6 319.1 354.4 262.9 283.3 210.7 212.2 158.4 141.1 107.2 70.0 58.0 70.0 57.0 141.1 114.2 212.2 156.4 283.3 212.7 354.4 273.9 425.6 313.1 496.7 364.3 567.8 428.6 638.9 473.8 710.0 531.0" fill="#bfe3c8" stroke="#0c3a25" stroke-width="2.4" stroke-dasharray="2 6" stroke-linecap="round" transform="rotate(-3.5 390.0 295.0)"/>
<polygon points="557.0 240 637.3 244 705.7 244 788.0 234 861.3 243 933.7 246 992.0 235 1077.3 245 1148.7 239 1218.0 240 1215.0 760 1138.7 764 1073.3 756 1005.0 756 924.7 761 856.3 753 778.0 767 714.7 757 637.3 755 555.0 760 1220.0 762.0 1146.7 700.2 1073.3 638.4 1000.0 580.7 926.7 522.9 853.3 466.1 780.0 411.3 706.7 354.6 633.3 294.8 560.0 245.0 560.0 236.0 633.3 302.8 706.7 347.6 780.0 404.3 853.3 474.1 926.7 524.9 1000.0 587.7 1073.3 636.4 1146.7 694.2 1220.0 753.0" fill="#3fa66b" stroke="#0c3a25" stroke-width="2.4" stroke-dasharray="2 6" stroke-linecap="round" transform="rotate(4.0 890.0 500.0)"/>
<polygon points="368.0 380 430.2 383 491.4 386 538.7 375 612.9 385 673.1 379 731.3 373 789.6 375 851.8 381 914.0 380 925.0 780 855.8 781 798.6 773 731.3 787 679.1 777 612.9 775 541.7 775 492.4 785 431.2 775 357.0 780 920.0 774.0 857.8 729.6 795.6 686.1 733.3 644.7 671.1 601.2 608.9 554.8 546.7 518.3 484.4 473.9 422.2 418.4 360.0 375.0 360.0 371.0 422.2 427.4 484.4 464.9 546.7 514.3 608.9 549.8 671.1 594.2 733.3 639.7 795.6 699.1 857.8 731.6 920.0 778.0" fill="#1f6f52" stroke="#0c3a25" stroke-width="2.4" stroke-dasharray="2 6" stroke-linecap="round" transform="rotate(-1.5 640.0 580.0)"/>
</g>
<path d="M927 702 L943 781 L881 823 L831 889 L757 870 L694 835 L647 778 L651 702 L648 627 L692 566 L753 516 L825 544 L871 595 L939 625 Z" fill="#bfe3c8" opacity="0.16"/><path d="M1159 436 L1146 491 L1116 538 L1064 547 L1015 562 L967 537 L924 497 L930 436 L957 392 L966 333 L1012 298 L1068 305 L1120 328 L1125 392 Z" fill="#3fa66b" opacity="0.16"/><path d="M458 328 L437 426 L392 521 L293 533 L214 501 L118 508 L45 435 L34 328 L50 223 L148 189 L202 97 L302 80 L361 177 L403 248 Z" fill="#bfe3c8" opacity="0.16"/><path d="M475 642 L493 710 L460 773 L397 797 L331 801 L295 736 L231 712 L206 642 L256 585 L292 544 L335 506 L390 516 L453 520 L482 580 Z" fill="#3fa66b" opacity="0.16"/><path d="M785 652 L749 689 L744 741 L703 772 L659 743 L627 722 L595 695 L593 652 L586 604 L620 572 L653 532 L701 541 L738 570 L751 614 Z" fill="#bfe3c8" opacity="0.16"/>
<g filter="url(#fibre)" opacity="0.6"><rect width="1280" height="848" fill="#0c3a25"/></g>
<circle cx="162" cy="327" r="1.4" fill="#0c3a25" opacity="0.25"/><circle cx="327" cy="347" r="1.4" fill="#0c3a25" opacity="0.25"/><circle cx="347" cy="297" r="1.4" fill="#0c3a25" opacity="0.25"/><circle cx="297" cy="285" r="1.4" fill="#0c3a25" opacity="0.25"/><circle cx="285" cy="356" r="1.4" fill="#0c3a25" opacity="0.25"/><circle cx="356" cy="251" r="1.4" fill="#0c3a25" opacity="0.25"/><circle cx="251" cy="346" r="1.4" fill="#0c3a25" opacity="0.25"/><circle cx="346" cy="250" r="1.4" fill="#0c3a25" opacity="0.25"/><circle cx="250" cy="178" r="1.4" fill="#0c3a25" opacity="0.25"/><circle cx="178" cy="152" r="1.4" fill="#0c3a25" opacity="0.25"/><circle cx="152" cy="207" r="1.4" fill="#0c3a25" opacity="0.25"/><circle cx="207" cy="336" r="1.4" fill="#0c3a25" opacity="0.25"/><circle cx="336" cy="180" r="1.4" fill="#0c3a25" opacity="0.25"/><circle cx="180" cy="332" r="1.4" fill="#0c3a25" opacity="0.25"/><circle cx="332" cy="218" r="1.4" fill="#0c3a25" opacity="0.25"/><circle cx="218" cy="257" r="1.4" fill="#0c3a25" opacity="0.25"/><circle cx="257" cy="336" r="1.4" fill="#0c3a25" opacity="0.25"/><circle cx="336" cy="147" r="1.4" fill="#0c3a25" opacity="0.25"/><circle cx="147" cy="335" r="1.4" fill="#0c3a25" opacity="0.25"/><circle cx="335" cy="343" r="1.4" fill="#0c3a25" opacity="0.25"/><circle cx="343" cy="267" r="1.4" fill="#0c3a25" opacity="0.25"/><circle cx="267" cy="313" r="1.4" fill="#0c3a25" opacity="0.25"/><circle cx="313" cy="162" r="1.4" fill="#0c3a25" opacity="0.25"/><circle cx="162" cy="216" r="1.4" fill="#0c3a25" opacity="0.25"/><circle cx="216" cy="243" r="1.4" fill="#0c3a25" opacity="0.25"/><circle cx="243" cy="191" r="1.4" fill="#0c3a25" opacity="0.25"/><circle cx="191" cy="146" r="1.4" fill="#0c3a25" opacity="0.25"/><circle cx="146" cy="246" r="1.4" fill="#0c3a25" opacity="0.25"/><circle cx="246" cy="374" r="1.4" fill="#0c3a25" opacity="0.25"/><circle cx="374" cy="270" r="1.4" fill="#0c3a25" opacity="0.25"/><circle cx="270" cy="190" r="1.4" fill="#0c3a25" opacity="0.25"/><circle cx="190" cy="162" r="1.4" fill="#0c3a25" opacity="0.25"/><circle cx="162" cy="327" r="1.4" fill="#0c3a25" opacity="0.25"/><circle cx="327" cy="347" r="1.4" fill="#0c3a25" opacity="0.25"/><circle cx="347" cy="297" r="1.4" fill="#0c3a25" opacity="0.25"/><circle cx="297" cy="285" r="1.4" fill="#0c3a25" opacity="0.25"/>
<g data-collage-motif="natur"><path d="M640 660 C520 560 520 380 640 250 C760 380 760 560 640 660 Z" fill="#3fa66b" opacity="0.82"/><path d="M640 650 V280" stroke="#0c3a25" stroke-width="6" fill="none" stroke-linecap="round"/><path d="M640 470 C600 450 575 430 552 405 M640 540 C684 520 709 500 732 475" stroke="#0c3a25" stroke-width="4" fill="none" stroke-linecap="round" opacity="0.8"/></g>
<g fill="#3fa66b" opacity="0.9"><circle cx="104" cy="106" r="8"/><circle cx="130" cy="106" r="8"/><circle cx="156" cy="106" r="8"/></g>
</svg>