<svg xmlns="http://www.w3.org/2000/svg" width="1280" height="848" viewBox="0 0 1280 848" data-palette="natur-2" data-motif-variant="0">
<defs>
  <filter id="ds" x="-20%" y="-20%" width="140%" height="140%"><feDropShadow dx="0" dy="10" stdDeviation="10" flood-color="#000000" flood-opacity="0.18"/></filter>
  <filter id="fibre"><feTurbulence type="fractalNoise" baseFrequency="0.9" numOctaves="2" result="n"/><feColorMatrix in="n" type="saturate" values="0"/><feComponentTransfer><feFuncA type="linear" slope="0.05"/></feComponentTransfer><feComposite operator="in" in2="SourceGraphic"/></filter>
</defs>
<rect width="1280" height="848" fill="#f3ece1"/>
<g filter="url(#ds)">
<polygon points="61.0 67 140.2 66 219.4 74 290.7 63 357.9 74 422.1 66 496.3 66 586.6 65 658.8 62 724.0 67 723.0 581 644.8 585 582.6 577 505.3 588 437.1 579 362.9 578 291.7 576 220.4 575 144.2 576 69.0 581 724.0 589.0 650.8 523.9 577.6 463.8 504.3 406.7 431.1 361.6 357.9 289.4 284.7 234.3 211.4 182.2 138.2 133.1 65.0 58.0 65.0 61.0 138.2 120.1 211.4 173.2 284.7 236.3 357.9 299.4 431.1 350.6 504.3 401.7 577.6 460.8 650.8 523.9 724.0 590.0" fill="#dff3c4" stroke="#1f4a26" stroke-width="2.4" stroke-dasharray="2 6" stroke-linecap="round" transform="rotate(-6.5 394.5 324.0)"/>
<polygon points="574.0 255 638.2 262 699.4 254 770.7 254 857.9 253 927.1 250 989.3 252 1056.6 257 1126.8 261 1209.0 255 1201.0 745 1135.8 743 1064.6 742 996.3 740 928.1 739 854.9 740 782.7 750 716.4 751 640.2 746 564.0 745 1200.0 742.0 1129.8 699.6 1059.6 630.1 989.3 577.7 919.1 528.2 848.9 481.8 778.7 409.3 708.4 356.9 638.2 311.4 568.0 254.0 568.0 253.0 638.2 313.4 708.4 361.9 778.7 410.3 848.9 466.8 919.1 527.2 989.3 590.7 1059.6 644.1 1129.8 681.6 1200.0 737.0" fill="#a6cf6e" stroke="#1f4a26" stroke-width="2.4" stroke-dasharray="2 6" stroke-linecap="round" transform="rotate(3.0 884.0 500.0)"/>
<polygon points="385.0 398 464.2 396 525.4 393 579.7 395 638.9 400 701.1 404 775.3 396 822.6 403 886.8 401 954.0 398 960.0 761 899.8 755 834.6 756 770.3 766 712.1 767 643.9 762 575.7 767 519.4 762 463.2 754 399.0 761 953.0 757.0 890.8 721.7 828.6 689.3 766.3 631.0 704.1 592.7 641.9 561.3 579.7 518.0 517.4 472.7 455.2 443.3 393.0 399.0 393.0 390.0 455.2 432.3 517.4 478.7 579.7 528.0 641.9 567.3 704.1 590.7 766.3 632.0 828.6 680.3 890.8 723.7 953.0 764.0" fill="#3a7d44" stroke="#1f4a26" stroke-width="2.4" stroke-dasharray="2 6" stroke-linecap="round" transform="rotate(-3.5 673.0 579.5)"/>
</g>
<path d="M743 634 L761 707 L690 728 L648 762 L592 772 L528 761 L493 701 L471 634 L487 564 L543 528 L587 473 L651 492 L713 508 L734 575 Z" fill="#dff3c4" opacity="0.16"/><path d="M1227 724 L1231 780 L1194 821 L1150 852 L1096 851 L1061 809 L1013 781 L1015 724 L1016 668 L1061 639 L1103 630 L1145 619 L1181 644 L1204 681 Z" fill="#a6cf6e" opacity="0.16"/><path d="M902 697 L849 783 L823 884 L729 904 L638 924 L573 851 L542 772 L507 697 L533 617 L584 558 L649 519 L730 488 L810 528 L883 594 Z" fill="#dff3c4" opacity="0.16"/><path d="M848 742 L825 780 L797 803 L770 827 L735 823 L706 804 L684 777 L664 742 L672 700 L691 659 L730 635 L771 653 L805 670 L835 698 Z" fill="#a6cf6e" opacity="0.16"/><path d="M670 205 L659 246 L636 281 L603 316 L556 317 L507 304 L472 261 L480 205 L489 157 L511 111 L556 90 L605 88 L636 129 L662 162 Z" fill="#dff3c4" opacity="0.16"/>
<g filter="url(#fibre)" opacity="0.6"><rect width="1280" height="848" fill="#1f4a26"/></g>
<circle cx="201" cy="226" r="1.4" fill="#1f4a26" opacity="0.25"/><circle cx="226" cy="156" r="1.4" fill="#1f4a26" opacity="0.25"/><circle cx="156" cy="344" r="1.4" fill="#1f4a26" opacity="0.25"/><circle cx="344" cy="243" r="1.4" fill="#1f4a26" opacity="0.25"/><circle cx="243" cy="329" r="1.4" fill="#1f4a26" opacity="0.25"/><circle cx="329" cy="216" r="1.4" fill="#1f4a26" opacity="0.25"/><circle cx="216" cy="366" r="1.4" fill="#1f4a26" opacity="0.25"/><circle cx="366" cy="365" r="1.4" fill="#1f4a26" opacity="0.25"/><circle cx="365" cy="167" r="1.4" fill="#1f4a26" opacity="0.25"/><circle cx="167" cy="259" r="1.4" fill="#1f4a26" opacity="0.25"/><circle cx="259" cy="354" r="1.4" fill="#1f4a26" opacity="0.25"/><circle cx="354" cy="328" r="1.4" fill="#1f4a26" opacity="0.25"/><circle cx="328" cy="275" r="1.4" fill="#1f4a26" opacity="0.25"/><circle cx="275" cy="372" r="1.4" fill="#1f4a26" opacity="0.25"/><circle cx="372" cy="130" r="1.4" fill="#1f4a26" opacity="0.25"/><circle cx="130" cy="233" r="1.4" fill="#1f4a26" opacity="0.25"/><circle cx="233" cy="158" r="1.4" fill="#1f4a26" opacity="0.25"/><circle cx="158" cy="160" r="1.4" fill="#1f4a26" opacity="0.25"/><circle cx="160" cy="283" r="1.4" fill="#1f4a26" opacity="0.25"/><circle cx="283" cy="356" r="1.4" fill="#1f4a26" opacity="0.25"/><circle cx="356" cy="294" r="1.4" fill="#1f4a26" opacity="0.25"/><circle cx="294" cy="153" r="1.4" fill="#1f4a26" opacity="0.25"/><circle cx="153" cy="206" r="1.4" fill="#1f4a26" opacity="0.25"/><circle cx="206" cy="135" r="1.4" fill="#1f4a26" opacity="0.25"/><circle cx="135" cy="324" r="1.4" fill="#1f4a26" opacity="0.25"/><circle cx="324" cy="250" r="1.4" fill="#1f4a26" opacity="0.25"/><circle cx="250" cy="252" r="1.4" fill="#1f4a26" opacity="0.25"/><circle cx="252" cy="268" r="1.4" fill="#1f4a26" opacity="0.25"/><circle cx="268" cy="342" r="1.4" fill="#1f4a26" opacity="0.25"/><circle cx="342" cy="137" r="1.4" fill="#1f4a26" opacity="0.25"/><circle cx="137" cy="226" r="1.4" fill="#1f4a26" opacity="0.25"/><circle cx="226" cy="201" r="1.4" fill="#1f4a26" opacity="0.25"/><circle cx="201" cy="226" r="1.4" fill="#1f4a26" opacity="0.25"/><circle cx="226" cy="156" r="1.4" fill="#1f4a26" opacity="0.25"/><circle cx="156" cy="344" r="1.4" fill="#1f4a26" opacity="0.25"/><circle cx="344" cy="243" r="1.4" fill="#1f4a26" opacity="0.25"/>
<g data-collage-motif="natur"><path d="M640 660 C520 560 520 380 640 250 C760 380 760 560 640 660 Z" fill="#a6cf6e" opacity="0.82"/><path d="M640 650 V280" stroke="#1f4a26" stroke-width="6" fill="none" stroke-linecap="round"/><path d="M640 470 C600 450 575 430 552 405 M640 540 C684 520 709 500 732 475" stroke="#1f4a26" stroke-width="4" fill="none" stroke-linecap="round" opacity="0.8"/></g>
<g fill="#a6cf6e" opacity="0.9"><circle cx="104" cy="106" r="8"/><circle cx="130" cy="106" r="8"/><circle cx="156" cy="106" r="8"/></g>
</svg>