<svg xmlns="http://www.w3.org/2000/svg" width="1280" height="848" viewBox="0 0 1280 848" data-palette="samhalle-1" data-motif-variant="2">
<defs>
  <filter id="ds" x="-20%" y="-20%" width="140%" height="140%"><feDropShadow dx="0" dy="10" stdDeviation="10" flood-color="#000000" flood-opacity="0.18"/></filter>
  <filter id="fibre"><feTurbulence type="fractalNoise" baseFrequency="0.9" numOctaves="2" result="n"/><feColorMatrix in="n" type="saturate" values="0"/><feComponentTransfer><feFuncA type="linear" slope="0.05"/></feComponentTransfer><feComposite operator="in" in2="SourceGraphic"/></filter>
</defs>
<rect width="1280" height="848" fill="#f3ece1"/>
<g filter="url(#ds)">
<polygon points="85.0 57 171.3 55 242.7 54 304.0 52 378.3 50 446.7 53 519.0 51 601.3 64 672.7 57 732.0 57 732.0 546 672.7 544 589.3 542 516.0 544 452.7 552 371.3 541 304.0 550 243.7 544 171.3 543 91.0 546 736.0 554.0 664.7 487.7 593.3 440.3 522.0 374.0 450.7 332.7 379.3 282.3 308.0 228.0 236.7 164.7 165.3 118.3 94.0 54.0 94.0 51.0 165.3 114.3 236.7 158.7 308.0 226.0 379.3 283.3 450.7 322.7 522.0 377.0 593.3 441.3 664.7 492.7 736.0 550.0" fill="#d4e8f1" stroke="#163a4f" stroke-width="2.4" stroke-dasharray="2 6" stroke-linecap="round" transform="rotate(-2.5 415.0 301.5)"/>
<polygon points="578.0 254 657.2 247 730.4 250 807.7 248 894.9 261 971.1 254 1035.3 254 1118.6 261 1182.8 259 1272.0 254 1262.0 742 1193.8 748 1107.6 737 1035.3 746 970.1 740 892.9 739 807.7 744 741.4 749 652.2 743 573.0 742 1268.0 733.0 1191.8 691.8 1115.6 641.6 1039.3 587.3 963.1 524.1 886.9 477.9 810.7 413.7 734.4 367.4 658.2 299.2 582.0 250.0 582.0 260.0 658.2 317.2 734.4 356.4 810.7 410.7 886.9 474.9 963.1 526.1 1039.3 583.3 1115.6 636.6 1191.8 679.8 1268.0 734.0" fill="#5f9bb8" stroke="#163a4f" stroke-width="2.4" stroke-dasharray="2 6" stroke-linecap="round" transform="rotate(5.0 925.0 498.0)"/>
<polygon points="391.0 375 464.7 382 527.3 375 578.0 375 647.7 382 698.3 380 774.0 382 840.7 369 903.3 376 957.0 375 954.0 750 902.3 748 838.7 747 767.0 752 714.3 757 638.7 751 573.0 753 525.3 752 462.7 753 390.0 750 958.0 758.0 895.3 707.3 832.7 673.7 770.0 622.0 707.3 588.3 644.7 532.7 582.0 496.0 519.3 466.3 456.7 412.7 394.0 369.0 394.0 369.0 456.7 420.7 519.3 459.3 582.0 504.0 644.7 544.7 707.3 575.3 770.0 617.0 832.7 670.7 895.3 705.3 958.0 759.0" fill="#3a5a7a" stroke="#163a4f" stroke-width="2.4" stroke-dasharray="2 6" stroke-linecap="round" transform="rotate(-3.5 676.0 562.5)"/>
</g>
<path d="M744 599 L739 663 L678 682 L647 743 L592 718 L546 695 L502 659 L510 599 L529 553 L548 505 L590 470 L646 462 L681 512 L705 553 Z" fill="#d4e8f1" opacity="0.16"/><path d="M1202 295 L1187 372 L1155 450 L1075 458 L1010 444 L942 430 L884 377 L855 295 L908 226 L953 175 L1007 132 L1075 135 L1145 153 L1218 203 Z" fill="#5f9bb8" opacity="0.16"/><path d="M1113 634 L1116 725 L1074 813 L993 872 L903 823 L837 778 L775 722 L761 634 L761 539 L795 433 L895 407 L990 409 L1055 481 L1111 546 Z" fill="#d4e8f1" opacity="0.16"/><path d="M497 677 L486 711 L471 745 L438 759 L402 769 L358 763 L338 720 L330 677 L352 641 L371 609 L401 580 L438 597 L465 617 L486 643 Z" fill="#5f9bb8" opacity="0.16"/><path d="M533 649 L544 756 L468 823 L385 864 L302 831 L229 800 L155 746 L172 649 L197 574 L240 513 L305 481 L386 432 L464 480 L526 552 Z" fill="#d4e8f1" opacity="0.16"/>
<g filter="url(#fibre)" opacity="0.6"><rect width="1280" height="848" fill="#163a4f"/></g>
<circle cx="291" cy="154" r="1.4" fill="#163a4f" opacity="0.25"/><circle cx="154" cy="230" r="1.4" fill="#163a4f" opacity="0.25"/><circle cx="230" cy="334" r="1.4" fill="#163a4f" opacity="0.25"/><circle cx="334" cy="242" r="1.4" fill="#163a4f" opacity="0.25"/><circle cx="242" cy="315" r="1.4" fill="#163a4f" opacity="0.25"/><circle cx="315" cy="183" r="1.4" fill="#163a4f" opacity="0.25"/><circle cx="183" cy="346" r="1.4" fill="#163a4f" opacity="0.25"/><circle cx="346" cy="194" r="1.4" fill="#163a4f" opacity="0.25"/><circle cx="194" cy="277" r="1.4" fill="#163a4f" opacity="0.25"/><circle cx="277" cy="322" r="1.4" fill="#163a4f" opacity="0.25"/><circle cx="322" cy="329" r="1.4" fill="#163a4f" opacity="0.25"/><circle cx="329" cy="342" r="1.4" fill="#163a4f" opacity="0.25"/><circle cx="342" cy="194" r="1.4" fill="#163a4f" opacity="0.25"/><circle cx="194" cy="346" r="1.4" fill="#163a4f" opacity="0.25"/><circle cx="346" cy="128" r="1.4" fill="#163a4f" opacity="0.25"/><circle cx="128" cy="174" r="1.4" fill="#163a4f" opacity="0.25"/><circle cx="174" cy="335" r="1.4" fill="#163a4f" opacity="0.25"/><circle cx="335" cy="324" r="1.4" fill="#163a4f" opacity="0.25"/><circle cx="324" cy="215" r="1.4" fill="#163a4f" opacity="0.25"/><circle cx="215" cy="163" r="1.4" fill="#163a4f" opacity="0.25"/><circle cx="163" cy="346" r="1.4" fill="#163a4f" opacity="0.25"/><circle cx="346" cy="144" r="1.4" fill="#163a4f" opacity="0.25"/><circle cx="144" cy="161" r="1.4" fill="#163a4f" opacity="0.25"/><circle cx="161" cy="264" r="1.4" fill="#163a4f" opacity="0.25"/><circle cx="264" cy="121" r="1.4" fill="#163a4f" opacity="0.25"/><circle cx="121" cy="372" r="1.4" fill="#163a4f" opacity="0.25"/><circle cx="372" cy="288" r="1.4" fill="#163a4f" opacity="0.25"/><circle cx="288" cy="249" r="1.4" fill="#163a4f" opacity="0.25"/><circle cx="249" cy="145" r="1.4" fill="#163a4f" opacity="0.25"/><circle cx="145" cy="155" r="1.4" fill="#163a4f" opacity="0.25"/><circle cx="155" cy="180" r="1.4" fill="#163a4f" opacity="0.25"/><circle cx="180" cy="291" r="1.4" fill="#163a4f" opacity="0.25"/><circle cx="291" cy="154" r="1.4" fill="#163a4f" opacity="0.25"/><circle cx="154" cy="230" r="1.4" fill="#163a4f" opacity="0.25"/><circle cx="230" cy="334" r="1.4" fill="#163a4f" opacity="0.25"/><circle cx="334" cy="242" r="1.4" fill="#163a4f" opacity="0.25"/>
<g data-collage-motif="samhalle"><path d="M640 320 L700 480 L560 480 Z" fill="#5f9bb8" opacity="0.82"/><path d="M640 420 L720 600 L560 600 Z" fill="#5f9bb8" opacity="0.7"/><circle cx="640" cy="300" r="26" fill="#163a4f"/></g>
<g fill="#5f9bb8" opacity="0.9"><circle cx="104" cy="106" r="8"/><circle cx="130" cy="106" r="8"/><circle cx="156" cy="106" r="8"/></g>
</svg>