<svg xmlns="http://www.w3.org/2000/svg" width="1280" height="848" viewBox="0 0 1280 848">
<defs>
  <filter id="ds" x="-20%" y="-20%" width="140%" height="140%"><feDropShadow dx="0" dy="10" stdDeviation="10" flood-color="#000000" flood-opacity="0.18"/></filter>
  <filter id="fibre"><feTurbulence type="fractalNoise" baseFrequency="0.9" numOctaves="2" result="n"/><feColorMatrix in="n" type="saturate" values="0"/><feComponentTransfer><feFuncA type="linear" slope="0.05"/></feComponentTransfer><feComposite operator="in" in2="SourceGraphic"/></filter>
</defs>
<rect width="1280" height="848" fill="#f3ece1"/>
<g filter="url(#ds)">
<polygon points="67.0 60 135.1 59 209.2 57 289.3 55 352.4 63 426.6 53 498.7 53 573.8 56 644.9 65 718.0 60 701.0 530 631.9 529 573.8 535 498.7 528 432.6 523 347.4 526 278.3 531 218.2 532 144.1 528 77.0 530 710.0 536.0 638.9 485.8 567.8 417.6 496.7 371.3 425.6 313.1 354.4 274.9 283.3 217.7 212.2 172.4 141.1 116.2 70.0 51.0 70.0 57.0 141.1 105.2 212.2 155.4 283.3 214.7 354.4 271.9 425.6 327.1 496.7 376.3 567.8 419.6 638.9 479.8 710.0 529.0" fill="#e3e9f0" stroke="#232b3f" stroke-width="2.4" stroke-dasharray="2 6" stroke-linecap="round" transform="rotate(-3.5 390.0 295.0)"/>
<polygon points="566.0 240 631.3 243 707.7 233 782.0 233 859.3 236 932.7 245 1008.0 243 1065.3 234 1144.7 236 1212.0 240 1222.0 760 1153.7 753 1066.3 756 995.0 761 932.7 762 856.3 758 787.0 754 715.7 758 635.3 761 557.0 760 1220.0 758.0 1146.7 694.2 1073.3 650.4 1000.0 587.7 926.7 536.9 853.3 475.1 780.0 404.3 706.7 350.6 633.3 291.8 560.0 231.0 560.0 238.0 633.3 300.8 706.7 361.6 780.0 416.3 853.3 465.1 926.7 530.9 1000.0 585.7 1073.3 642.4 1146.7 696.2 1220.0 754.0" fill="#7a8aa0" stroke="#232b3f" stroke-width="2.4" stroke-dasharray="2 6" stroke-linecap="round" transform="rotate(4.0 890.0 500.0)"/>
<polygon points="362.0 380 428.2 376 490.4 385 554.7 383 600.9 374 669.1 376 725.3 382 801.6 385 858.8 373 928.0 380 915.0 780 863.8 782 798.6 778 740.3 774 680.1 778 610.9 781 543.7 775 478.4 781 419.2 783 366.0 780 920.0 781.0 857.8 743.6 795.6 695.1 733.3 637.7 671.1 597.2 608.9 551.8 546.7 504.3 484.4 461.9 422.2 430.4 360.0 382.0 360.0 383.0 422.2 418.4 484.4 470.9 546.7 512.3 608.9 555.8 671.1 596.2 733.3 640.7 795.6 683.1 857.8 743.6 920.0 782.0" fill="#43506b" stroke="#232b3f" stroke-width="2.4" stroke-dasharray="2 6" stroke-linecap="round" transform="rotate(-1.5 640.0 580.0)"/>
</g>
<path d="M1010 135 L1004 177 L977 209 L948 256 L901 238 L867 212 L824 187 L828 135 L826 84 L856 44 L904 42 L944 36 L979 59 L1014 87 Z" fill="#e3e9f0" opacity="0.16"/><path d="M373 719 L342 803 L317 904 L223 919 L134 943 L49 899 L25 800 L-3 719 L22 636 L56 549 L138 513 L219 538 L283 580 L358 627 Z" fill="#7a8aa0" opacity="0.16"/><path d="M770 413 L752 498 L681 538 L624 580 L555 573 L483 558 L440 491 L443 413 L464 347 L485 271 L548 218 L623 250 L704 257 L746 331 Z" fill="#e3e9f0" opacity="0.16"/><path d="M795 516 L798 596 L748 655 L678 669 L615 662 L543 657 L482 602 L494 516 L482 430 L539 370 L610 344 L677 370 L748 377 L801 435 Z" fill="#7a8aa0" opacity="0.16"/><path d="M846 157 L857 231 L823 305 L747 311 L676 341 L613 297 L575 230 L584 157 L574 83 L613 17 L674 -37 L746 11 L809 29 L856 83 Z" fill="#e3e9f0" opacity="0.16"/>
<g filter="url(#fibre)" opacity="0.6"><rect width="1280" height="848" fill="#232b3f"/></g>
<circle cx="126" cy="237" r="1.4" fill="#232b3f" opacity="0.25"/><circle cx="237" cy="126" r="1.4" fill="#232b3f" opacity="0.25"/><circle cx="126" cy="154" r="1.4" fill="#232b3f" opacity="0.25"/><circle cx="154" cy="317" r="1.4" fill="#232b3f" opacity="0.25"/><circle cx="317" cy="130" r="1.4" fill="#232b3f" opacity="0.25"/><circle cx="130" cy="150" r="1.4" fill="#232b3f" opacity="0.25"/><circle cx="150" cy="135" r="1.4" fill="#232b3f" opacity="0.25"/><circle cx="135" cy="363" r="1.4" fill="#232b3f" opacity="0.25"/><circle cx="363" cy="327" r="1.4" fill="#232b3f" opacity="0.25"/><circle cx="327" cy="235" r="1.4" fill="#232b3f" opacity="0.25"/><circle cx="235" cy="241" r="1.4" fill="#232b3f" opacity="0.25"/><circle cx="241" cy="273" r="1.4" fill="#232b3f" opacity="0.25"/><circle cx="273" cy="249" r="1.4" fill="#232b3f" opacity="0.25"/><circle cx="249" cy="282" r="1.4" fill="#232b3f" opacity="0.25"/><circle cx="282" cy="270" r="1.4" fill="#232b3f" opacity="0.25"/><circle cx="270" cy="266" r="1.4" fill="#232b3f" opacity="0.25"/><circle cx="266" cy="139" r="1.4" fill="#232b3f" opacity="0.25"/><circle cx="139" cy="257" r="1.4" fill="#232b3f" opacity="0.25"/><circle cx="257" cy="275" r="1.4" fill="#232b3f" opacity="0.25"/><circle cx="275" cy="329" r="1.4" fill="#232b3f" opacity="0.25"/><circle cx="329" cy="179" r="1.4" fill="#232b3f" opacity="0.25"/><circle cx="179" cy="173" r="1.4" fill="#232b3f" opacity="0.25"/><circle cx="173" cy="302" r="1.4" fill="#232b3f" opacity="0.25"/><circle cx="302" cy="174" r="1.4" fill="#232b3f" opacity="0.25"/><circle cx="174" cy="179" r="1.4" fill="#232b3f" opacity="0.25"/><circle cx="179" cy="371" r="1.4" fill="#232b3f" opacity="0.25"/><circle cx="371" cy="306" r="1.4" fill="#232b3f" opacity="0.25"/><circle cx="306" cy="170" r="1.4" fill="#232b3f" opacity="0.25"/><circle cx="170" cy="174" r="1.4" fill="#232b3f" opacity="0.25"/><circle cx="174" cy="328" r="1.4" fill="#232b3f" opacity="0.25"/><circle cx="328" cy="264" r="1.4" fill="#232b3f" opacity="0.25"/><circle cx="264" cy="126" r="1.4" fill="#232b3f" opacity="0.25"/><circle cx="126" cy="237" r="1.4" fill="#232b3f" opacity="0.25"/><circle cx="237" cy="126" r="1.4" fill="#232b3f" opacity="0.25"/><circle cx="126" cy="154" r="1.4" fill="#232b3f" opacity="0.25"/><circle cx="154" cy="317" r="1.4" fill="#232b3f" opacity="0.25"/>
<g data-collage-motif="samhälle"><circle cx="540" cy="420" r="40" fill="#7a8aa0"/><circle cx="740" cy="400" r="34" fill="#7a8aa0" opacity="0.86"/><circle cx="650" cy="560" r="30" fill="#7a8aa0" opacity="0.8"/><path d="M540 420 L740 400 L650 560 Z" stroke="#232b3f" stroke-width="6" fill="none" stroke-linejoin="round"/></g>
<g fill="#7a8aa0" opacity="0.9"><circle cx="104" cy="106" r="8"/><circle cx="130" cy="106" r="8"/><circle cx="156" cy="106" r="8"/></g>
</svg>