<svg xmlns="http://www.w3.org/2000/svg" width="1280" height="848" viewBox="0 0 1280 848">
<defs>
  <linearGradient id="bg" x1="0" y1="0" x2="1" y2="1"><stop stop-color="#17351f"/><stop offset="1" stop-color="#3f8450"/></linearGradient>
  <radialGradient id="glow"><stop stop-color="#f5d56b" stop-opacity=".72"/><stop offset="1" stop-color="#f5d56b" stop-opacity="0"/></radialGradient>
</defs>
<rect width="1280" height="848" fill="url(#bg)"/>
<circle cx="346" cy="422" r="390" fill="url(#glow)"/>
<circle cx="430" cy="673" r="85" fill="#e8ffe9" opacity="0.148"/><circle cx="128" cy="263" r="215" fill="#e8ffe9" opacity="0.206"/><circle cx="676" cy="371" r="70" fill="#e8ffe9" opacity="0.126"/><circle cx="111" cy="622" r="242" fill="#e8ffe9" opacity="0.170"/><circle cx="1108" cy="276" r="151" fill="#e8ffe9" opacity="0.161"/><circle cx="193" cy="465" r="204" fill="#e8ffe9" opacity="0.140"/><circle cx="806" cy="428" r="249" fill="#e8ffe9" opacity="0.184"/>
<path d="M0 658 C260 508 450 768 690 613S1080 618 1280 528V848H0Z" fill="#17351f" opacity=".28"/>
<g fill="#e8ffe9" opacity=".78">
  <circle cx="535" cy="375" r="66"/><circle cx="744" cy="350" r="52"/><circle cx="672" cy="535" r="72"/>
</g><path d="M535 375 744 350 672 535Z" fill="none" stroke="#f5d56b" stroke-width="22" stroke-linejoin="round"/>
<g fill="#f5d56b" opacity=".9"><circle cx="104" cy="106" r="8"/><circle cx="130" cy="106" r="8"/><circle cx="156" cy="106" r="8"/></g>
</svg>