<svg xmlns="http://www.w3.org/2000/svg" width="1280" height="848" viewBox="0 0 1280 848">
<defs>
  <filter id="ds" x="-20%" y="-20%" width="140%" height="140%"><feDropShadow dx="0" dy="10" stdDeviation="10" flood-color="#000000" flood-opacity="0.18"/></filter>
  <filter id="fibre"><feTurbulence type="fractalNoise" baseFrequency="0.9" numOctaves="2" result="n"/><feColorMatrix in="n" type="saturate" values="0"/><feComponentTransfer><feFuncA type="linear" slope="0.05"/></feComponentTransfer><feComposite operator="in" in2="SourceGraphic"/></filter>
</defs>
<rect width="1280" height="848" fill="#f3ece1"/>
<g filter="url(#ds)">
<polygon points="69.0 60 148.1 56 206.2 58 279.3 54 347.4 55 424.6 67 500.7 59 566.8 59 636.9 55 702.0 60 701.0 530 640.9 535 574.8 527 489.7 527 419.6 523 357.4 524 283.3 523 214.2 533 145.1 527 73.0 530 710.0 528.0 638.9 469.8 567.8 430.6 496.7 381.3 425.6 322.1 354.4 267.9 283.3 213.7 212.2 171.4 141.1 117.2 70.0 67.0 70.0 56.0 141.1 109.2 212.2 161.4 283.3 223.7 354.4 269.9 425.6 314.1 496.7 379.3 567.8 429.6 638.9 484.8 710.0 531.0" fill="#e3e9f0" stroke="#232b3f" stroke-width="2.4" stroke-dasharray="2 6" stroke-linecap="round" transform="rotate(-3.5 390.0 295.0)"/>
<polygon points="556.0 240 626.3 235 705.7 247 784.0 239 852.3 239 924.7 235 992.0 241 1078.3 240 1154.7 237 1221.0 240 1213.0 760 1140.7 753 1076.3 754 1000.0 753 928.7 763 857.3 757 783.0 765 709.7 753 626.3 767 559.0 760 1220.0 768.0 1146.7 703.2 1073.3 643.4 1000.0 583.7 926.7 535.9 853.3 476.1 780.0 420.3 706.7 360.6 633.3 295.8 560.0 231.0 560.0 247.0 633.3 298.8 706.7 348.6 780.0 419.3 853.3 475.1 926.7 535.9 1000.0 587.7 1073.3 640.4 1146.7 703.2 1220.0 762.0" fill="#7a8aa0" stroke="#232b3f" stroke-width="2.4" stroke-dasharray="2 6" stroke-linecap="round" transform="rotate(4.0 890.0 500.0)"/>
<polygon points="364.0 380 421.2 379 482.4 375 538.7 381 613.9 380 679.1 377 734.3 385 794.6 376 854.8 383 927.0 380 920.0 780 859.8 783 799.6 777 736.3 785 674.1 773 601.9 787 545.7 774 491.4 784 416.2 782 356.0 780 920.0 777.0 857.8 742.6 795.6 696.1 733.3 653.7 671.1 607.2 608.9 555.8 546.7 504.3 484.4 470.9 422.2 431.4 360.0 373.0 360.0 386.0 422.2 428.4 484.4 475.9 546.7 514.3 608.9 553.8 671.1 603.2 733.3 648.7 795.6 699.1 857.8 730.6 920.0 772.0" fill="#43506b" stroke="#232b3f" stroke-width="2.4" stroke-dasharray="2 6" stroke-linecap="round" transform="rotate(-1.5 640.0 580.0)"/>
</g>
<path d="M1091 416 L1078 467 L1049 510 L1005 536 L947 572 L902 523 L863 477 L830 416 L883 365 L909 319 L950 275 L1005 297 L1060 307 L1108 349 Z" fill="#e3e9f0" opacity="0.16"/><path d="M835 652 L802 708 L772 756 L727 803 L672 760 L628 744 L581 712 L588 652 L585 595 L611 537 L665 509 L724 515 L774 544 L826 583 Z" fill="#7a8aa0" opacity="0.16"/><path d="M764 391 L759 452 L737 520 L671 527 L609 546 L541 529 L496 468 L487 391 L505 319 L533 243 L609 233 L675 235 L736 263 L772 323 Z" fill="#e3e9f0" opacity="0.16"/><path d="M380 268 L380 347 L334 409 L265 436 L195 433 L119 420 L92 340 L79 268 L91 195 L138 142 L195 103 L259 129 L340 117 L370 195 Z" fill="#7a8aa0" opacity="0.16"/><path d="M775 197 L780 269 L723 308 L671 334 L613 337 L563 305 L522 260 L530 197 L505 126 L559 84 L610 45 L673 52 L712 102 L740 146 Z" fill="#e3e9f0" opacity="0.16"/>
<g filter="url(#fibre)" opacity="0.6"><rect width="1280" height="848" fill="#232b3f"/></g>
<circle cx="375" cy="193" r="1.4" fill="#232b3f" opacity="0.25"/><circle cx="193" cy="123" r="1.4" fill="#232b3f" opacity="0.25"/><circle cx="123" cy="125" r="1.4" fill="#232b3f" opacity="0.25"/><circle cx="125" cy="331" r="1.4" fill="#232b3f" opacity="0.25"/><circle cx="331" cy="242" r="1.4" fill="#232b3f" opacity="0.25"/><circle cx="242" cy="209" r="1.4" fill="#232b3f" opacity="0.25"/><circle cx="209" cy="261" r="1.4" fill="#232b3f" opacity="0.25"/><circle cx="261" cy="336" r="1.4" fill="#232b3f" opacity="0.25"/><circle cx="336" cy="197" r="1.4" fill="#232b3f" opacity="0.25"/><circle cx="197" cy="248" r="1.4" fill="#232b3f" opacity="0.25"/><circle cx="248" cy="232" r="1.4" fill="#232b3f" opacity="0.25"/><circle cx="232" cy="244" r="1.4" fill="#232b3f" opacity="0.25"/><circle cx="244" cy="147" r="1.4" fill="#232b3f" opacity="0.25"/><circle cx="147" cy="183" r="1.4" fill="#232b3f" opacity="0.25"/><circle cx="183" cy="250" r="1.4" fill="#232b3f" opacity="0.25"/><circle cx="250" cy="248" r="1.4" fill="#232b3f" opacity="0.25"/><circle cx="248" cy="155" r="1.4" fill="#232b3f" opacity="0.25"/><circle cx="155" cy="210" r="1.4" fill="#232b3f" opacity="0.25"/><circle cx="210" cy="317" r="1.4" fill="#232b3f" opacity="0.25"/><circle cx="317" cy="139" r="1.4" fill="#232b3f" opacity="0.25"/><circle cx="139" cy="207" r="1.4" fill="#232b3f" opacity="0.25"/><circle cx="207" cy="212" r="1.4" fill="#232b3f" opacity="0.25"/><circle cx="212" cy="160" r="1.4" fill="#232b3f" opacity="0.25"/><circle cx="160" cy="370" r="1.4" fill="#232b3f" opacity="0.25"/><circle cx="370" cy="284" r="1.4" fill="#232b3f" opacity="0.25"/><circle cx="284" cy="148" r="1.4" fill="#232b3f" opacity="0.25"/><circle cx="148" cy="359" r="1.4" fill="#232b3f" opacity="0.25"/><circle cx="359" cy="304" r="1.4" fill="#232b3f" opacity="0.25"/><circle cx="304" cy="265" r="1.4" fill="#232b3f" opacity="0.25"/><circle cx="265" cy="227" r="1.4" fill="#232b3f" opacity="0.25"/><circle cx="227" cy="179" r="1.4" fill="#232b3f" opacity="0.25"/><circle cx="179" cy="375" r="1.4" fill="#232b3f" opacity="0.25"/><circle cx="375" cy="193" r="1.4" fill="#232b3f" opacity="0.25"/><circle cx="193" cy="123" r="1.4" fill="#232b3f" opacity="0.25"/><circle cx="123" cy="125" r="1.4" fill="#232b3f" opacity="0.25"/><circle cx="125" cy="331" r="1.4" fill="#232b3f" opacity="0.25"/>
<g data-collage-motif="hälsa"><circle cx="540" cy="420" r="40" fill="#7a8aa0"/><circle cx="740" cy="400" r="34" fill="#7a8aa0" opacity="0.86"/><circle cx="650" cy="560" r="30" fill="#7a8aa0" opacity="0.8"/><path d="M540 420 L740 400 L650 560 Z" stroke="#232b3f" stroke-width="6" fill="none" stroke-linejoin="round"/></g>
<g fill="#7a8aa0" opacity="0.9"><circle cx="104" cy="106" r="8"/><circle cx="130" cy="106" r="8"/><circle cx="156" cy="106" r="8"/></g>
</svg>