<svg xmlns="http://www.w3.org/2000/svg" width="1280" height="848" viewBox="0 0 1280 848" data-palette="halsa-0" data-motif-variant="0">
<defs>
  <filter id="ds" x="-20%" y="-20%" width="140%" height="140%"><feDropShadow dx="0" dy="10" stdDeviation="10" flood-color="#000000" flood-opacity="0.18"/></filter>
  <filter id="fibre"><feTurbulence type="fractalNoise" baseFrequency="0.9" numOctaves="2" result="n"/><feColorMatrix in="n" type="saturate" values="0"/><feComponentTransfer><feFuncA type="linear" slope="0.05"/></feComponentTransfer><feComposite operator="in" in2="SourceGraphic"/></filter>
</defs>
<rect width="1280" height="848" fill="#f3ece1"/>
<g filter="url(#ds)">
<polygon points="88.0 79 151.1 79 228.2 84 296.3 84 359.4 75 427.6 77 498.7 86 562.8 80 640.9 86 702.0 79 692.0 524 626.9 531 566.8 517 501.7 527 433.6 524 356.4 518 292.3 523 233.2 527 151.1 517 88.0 524 701.0 532.0 632.9 475.6 564.8 433.1 496.7 371.7 428.6 331.2 360.4 268.8 292.3 234.3 224.2 183.9 156.1 125.4 88.0 76.0 88.0 84.0 156.1 128.4 224.2 174.9 292.3 222.3 360.4 276.8 428.6 331.2 496.7 371.7 564.8 421.1 632.9 475.6 701.0 525.0" fill="#fbd9e1" stroke="#5e132b" stroke-width="2.4" stroke-dasharray="2 6" stroke-linecap="round" transform="rotate(-5.5 394.5 301.5)"/>
<polygon points="571.0 255 635.8 251 705.6 253 778.3 262 844.1 256 923.9 262 986.7 251 1063.4 253 1121.2 260 1200.0 255 1200.0 746 1130.2 746 1051.4 740 985.7 745 924.9 749 841.1 739 776.3 744 709.6 744 641.8 746 567.0 746 1195.0 742.0 1125.2 696.4 1055.4 628.9 985.7 589.3 915.9 533.8 846.1 470.2 776.3 415.7 706.6 358.1 636.8 318.6 567.0 246.0 567.0 250.0 636.8 309.6 706.6 369.1 776.3 414.7 846.1 469.2 915.9 528.8 985.7 583.3 1055.4 634.9 1125.2 693.4 1195.0 738.0" fill="#e07a94" stroke="#5e132b" stroke-width="2.4" stroke-dasharray="2 6" stroke-linecap="round" transform="rotate(2.0 881.0 500.5)"/>
<polygon points="396.0 385 451.3 386 520.7 392 573.0 381 639.3 383 686.7 390 755.0 388 801.3 381 875.7 379 934.0 385 928.0 793 877.7 796 804.3 786 750.0 791 693.7 791 636.3 793 572.0 799 507.7 793 457.3 788 398.0 793 928.0 800.0 868.7 753.7 809.3 699.3 750.0 654.0 690.7 605.7 631.3 575.3 572.0 512.0 512.7 469.7 453.3 432.3 394.0 390.0 394.0 381.0 453.3 426.3 512.7 476.7 572.0 522.0 631.3 564.3 690.7 613.7 750.0 649.0 809.3 701.3 868.7 739.7 928.0 797.0" fill="#9c2f4a" stroke="#5e132b" stroke-width="2.4" stroke-dasharray="2 6" stroke-linecap="round" transform="rotate(-3.5 661.0 589.0)"/>
</g>
<path d="M404 606 L375 682 L324 735 L259 746 L194 779 L137 733 L96 676 L104 606 L108 542 L126 465 L196 442 L259 468 L309 498 L350 543 Z" fill="#fbd9e1" opacity="0.16"/><path d="M1262 581 L1244 627 L1216 664 L1173 669 L1135 675 L1087 674 L1064 629 L1069 581 L1080 542 L1100 507 L1132 470 L1177 476 L1216 497 L1250 531 Z" fill="#e07a94" opacity="0.16"/><path d="M645 122 L661 207 L603 264 L530 271 L468 268 L409 244 L344 203 L335 122 L353 46 L391 -25 L459 -70 L539 -67 L594 -7 L668 33 Z" fill="#fbd9e1" opacity="0.16"/><path d="M701 531 L694 586 L676 650 L619 672 L560 670 L501 651 L456 600 L444 531 L478 473 L494 401 L556 375 L617 397 L657 438 L702 472 Z" fill="#e07a94" opacity="0.16"/><path d="M1251 172 L1244 261 L1197 340 L1117 378 L1037 348 L946 346 L896 265 L904 172 L942 103 L969 29 L1031 -34 L1108 9 L1169 43 L1255 77 Z" fill="#fbd9e1" opacity="0.16"/>
<g filter="url(#fibre)" opacity="0.6"><rect width="1280" height="848" fill="#5e132b"/></g>
<circle cx="262" cy="181" r="1.4" fill="#5e132b" opacity="0.25"/><circle cx="181" cy="247" r="1.4" fill="#5e132b" opacity="0.25"/><circle cx="247" cy="342" r="1.4" fill="#5e132b" opacity="0.25"/><circle cx="342" cy="147" r="1.4" fill="#5e132b" opacity="0.25"/><circle cx="147" cy="318" r="1.4" fill="#5e132b" opacity="0.25"/><circle cx="318" cy="245" r="1.4" fill="#5e132b" opacity="0.25"/><circle cx="245" cy="374" r="1.4" fill="#5e132b" opacity="0.25"/><circle cx="374" cy="308" r="1.4" fill="#5e132b" opacity="0.25"/><circle cx="308" cy="149" r="1.4" fill="#5e132b" opacity="0.25"/><circle cx="149" cy="213" r="1.4" fill="#5e132b" opacity="0.25"/><circle cx="213" cy="125" r="1.4" fill="#5e132b" opacity="0.25"/><circle cx="125" cy="267" r="1.4" fill="#5e132b" opacity="0.25"/><circle cx="267" cy="235" r="1.4" fill="#5e132b" opacity="0.25"/><circle cx="235" cy="288" r="1.4" fill="#5e132b" opacity="0.25"/><circle cx="288" cy="211" r="1.4" fill="#5e132b" opacity="0.25"/><circle cx="211" cy="354" r="1.4" fill="#5e132b" opacity="0.25"/><circle cx="354" cy="145" r="1.4" fill="#5e132b" opacity="0.25"/><circle cx="145" cy="294" r="1.4" fill="#5e132b" opacity="0.25"/><circle cx="294" cy="328" r="1.4" fill="#5e132b" opacity="0.25"/><circle cx="328" cy="348" r="1.4" fill="#5e132b" opacity="0.25"/><circle cx="348" cy="370" r="1.4" fill="#5e132b" opacity="0.25"/><circle cx="370" cy="150" r="1.4" fill="#5e132b" opacity="0.25"/><circle cx="150" cy="134" r="1.4" fill="#5e132b" opacity="0.25"/><circle cx="134" cy="229" r="1.4" fill="#5e132b" opacity="0.25"/><circle cx="229" cy="277" r="1.4" fill="#5e132b" opacity="0.25"/><circle cx="277" cy="148" r="1.4" fill="#5e132b" opacity="0.25"/><circle cx="148" cy="233" r="1.4" fill="#5e132b" opacity="0.25"/><circle cx="233" cy="124" r="1.4" fill="#5e132b" opacity="0.25"/><circle cx="124" cy="224" r="1.4" fill="#5e132b" opacity="0.25"/><circle cx="224" cy="189" r="1.4" fill="#5e132b" opacity="0.25"/><circle cx="189" cy="324" r="1.4" fill="#5e132b" opacity="0.25"/><circle cx="324" cy="262" r="1.4" fill="#5e132b" opacity="0.25"/><circle cx="262" cy="181" r="1.4" fill="#5e132b" opacity="0.25"/><circle cx="181" cy="247" r="1.4" fill="#5e132b" opacity="0.25"/><circle cx="247" cy="342" r="1.4" fill="#5e132b" opacity="0.25"/><circle cx="342" cy="147" r="1.4" fill="#5e132b" opacity="0.25"/>
<g data-collage-motif="halsa"><path d="M400 440 H560 L600 320 L660 560 L700 440 H880" stroke="#5e132b" stroke-width="9" fill="none" stroke-linecap="round" stroke-linejoin="round"/><circle cx="640" cy="440" r="40" fill="#e07a94" opacity="0.8"/></g>
<g fill="#e07a94" opacity="0.9"><circle cx="104" cy="106" r="8"/><circle cx="130" cy="106" r="8"/><circle cx="156" cy="106" r="8"/></g>
</svg>