<svg xmlns="http://www.w3.org/2000/svg" width="1280" height="848" viewBox="0 0 1280 848" data-palette="halsa-2" data-motif-variant="1">
<defs>
  <filter id="ds" x="-20%" y="-20%" width="140%" height="140%"><feDropShadow dx="0" dy="10" stdDeviation="10" flood-color="#000000" flood-opacity="0.18"/></filter>
  <filter id="fibre"><feTurbulence type="fractalNoise" baseFrequency="0.9" numOctaves="2" result="n"/><feColorMatrix in="n" type="saturate" values="0"/><feComponentTransfer><feFuncA type="linear" slope="0.05"/></feComponentTransfer><feComposite operator="in" in2="SourceGraphic"/></filter>
</defs>
<rect width="1280" height="848" fill="#f3ece1"/>
<g filter="url(#ds)">
<polygon points="78.0 52 133.7 49 198.3 56 278.0 55 330.7 51 395.3 58 467.0 51 543.7 46 610.3 47 670.0 52 667.0 541 603.3 538 541.7 536 469.0 546 404.3 541 337.7 537 265.0 544 211.3 534 144.7 536 66.0 541 671.0 547.0 604.3 485.7 537.7 435.3 471.0 380.0 404.3 322.7 337.7 267.3 271.0 217.0 204.3 155.7 137.7 110.3 71.0 57.0 71.0 45.0 137.7 111.3 204.3 163.7 271.0 224.0 337.7 262.3 404.3 327.7 471.0 384.0 537.7 425.3 604.3 493.7 671.0 550.0" fill="#f6dcf1" stroke="#3f1538" stroke-width="2.4" stroke-dasharray="2 6" stroke-linecap="round" transform="rotate(-3.5 371.0 296.5)"/>
<polygon points="590.0 227 647.8 226 717.6 233 794.3 226 876.1 221 947.9 222 1012.7 220 1088.4 224 1159.2 233 1228.0 227 1227.0 783 1157.2 783 1085.4 779 1007.7 786 948.9 776 877.1 778 793.3 779 723.6 785 645.8 787 590.0 783 1229.0 785.0 1157.2 720.2 1085.4 657.4 1013.7 599.7 941.9 530.9 870.1 478.1 798.3 417.3 726.6 351.6 654.8 297.8 583.0 223.0 583.0 236.0 654.8 281.8 726.6 354.6 798.3 418.3 870.1 467.1 941.9 542.9 1013.7 606.7 1085.4 663.4 1157.2 715.2 1229.0 777.0" fill="#c87ab8" stroke="#3f1538" stroke-width="2.4" stroke-dasharray="2 6" stroke-linecap="round" transform="rotate(5.0 906.0 505.0)"/>
<polygon points="381.0 362 449.4 356 507.9 357 559.3 355 621.8 359 679.2 368 734.7 362 792.1 356 854.6 361 906.0 362 905.0 736 859.6 729 801.1 731 730.7 732 674.2 738 609.8 740 567.3 729 497.9 739 437.4 732 392.0 736 911.0 738.0 852.6 689.4 794.1 656.9 735.7 616.3 677.2 570.8 618.8 537.2 560.3 482.7 501.9 444.1 443.4 407.6 385.0 360.0 385.0 368.0 443.4 396.6 501.9 452.1 560.3 495.7 618.8 532.2 677.2 563.8 735.7 605.3 794.1 653.9 852.6 691.4 911.0 734.0" fill="#7a2f6b" stroke="#3f1538" stroke-width="2.4" stroke-dasharray="2 6" stroke-linecap="round" transform="rotate(-3.5 648.0 549.0)"/>
</g>
<path d="M395 539 L372 585 L342 619 L308 660 L263 635 L211 637 L198 583 L190 539 L187 489 L220 453 L258 420 L305 432 L358 437 L368 495 Z" fill="#f6dcf1" opacity="0.16"/><path d="M1005 338 L1023 414 L960 450 L907 476 L845 497 L789 459 L737 412 L737 338 L727 259 L796 226 L840 156 L909 190 L973 208 L1022 263 Z" fill="#c87ab8" opacity="0.16"/><path d="M1237 232 L1217 294 L1189 356 L1127 371 L1063 397 L1021 336 L954 307 L968 232 L970 165 L1005 105 L1069 92 L1130 80 L1191 105 L1210 173 Z" fill="#f6dcf1" opacity="0.16"/><path d="M336 376 L282 446 L268 540 L183 542 L110 558 L36 529 L4 451 L-25 376 L-14 291 L55 249 L105 171 L190 178 L245 244 L322 285 Z" fill="#c87ab8" opacity="0.16"/><path d="M925 717 L917 783 L869 822 L822 859 L761 864 L720 816 L657 787 L648 717 L684 661 L699 590 L767 598 L824 567 L862 622 L894 664 Z" fill="#f6dcf1" opacity="0.16"/>
<g filter="url(#fibre)" opacity="0.6"><rect width="1280" height="848" fill="#3f1538"/></g>
<circle cx="288" cy="239" r="1.4" fill="#3f1538" opacity="0.25"/><circle cx="239" cy="199" r="1.4" fill="#3f1538" opacity="0.25"/><circle cx="199" cy="326" r="1.4" fill="#3f1538" opacity="0.25"/><circle cx="326" cy="160" r="1.4" fill="#3f1538" opacity="0.25"/><circle cx="160" cy="291" r="1.4" fill="#3f1538" opacity="0.25"/><circle cx="291" cy="163" r="1.4" fill="#3f1538" opacity="0.25"/><circle cx="163" cy="306" r="1.4" fill="#3f1538" opacity="0.25"/><circle cx="306" cy="211" r="1.4" fill="#3f1538" opacity="0.25"/><circle cx="211" cy="242" r="1.4" fill="#3f1538" opacity="0.25"/><circle cx="242" cy="360" r="1.4" fill="#3f1538" opacity="0.25"/><circle cx="360" cy="169" r="1.4" fill="#3f1538" opacity="0.25"/><circle cx="169" cy="223" r="1.4" fill="#3f1538" opacity="0.25"/><circle cx="223" cy="127" r="1.4" fill="#3f1538" opacity="0.25"/><circle cx="127" cy="226" r="1.4" fill="#3f1538" opacity="0.25"/><circle cx="226" cy="276" r="1.4" fill="#3f1538" opacity="0.25"/><circle cx="276" cy="285" r="1.4" fill="#3f1538" opacity="0.25"/><circle cx="285" cy="362" r="1.4" fill="#3f1538" opacity="0.25"/><circle cx="362" cy="206" r="1.4" fill="#3f1538" opacity="0.25"/><circle cx="206" cy="214" r="1.4" fill="#3f1538" opacity="0.25"/><circle cx="214" cy="182" r="1.4" fill="#3f1538" opacity="0.25"/><circle cx="182" cy="128" r="1.4" fill="#3f1538" opacity="0.25"/><circle cx="128" cy="190" r="1.4" fill="#3f1538" opacity="0.25"/><circle cx="190" cy="222" r="1.4" fill="#3f1538" opacity="0.25"/><circle cx="222" cy="167" r="1.4" fill="#3f1538" opacity="0.25"/><circle cx="167" cy="262" r="1.4" fill="#3f1538" opacity="0.25"/><circle cx="262" cy="161" r="1.4" fill="#3f1538" opacity="0.25"/><circle cx="161" cy="364" r="1.4" fill="#3f1538" opacity="0.25"/><circle cx="364" cy="269" r="1.4" fill="#3f1538" opacity="0.25"/><circle cx="269" cy="162" r="1.4" fill="#3f1538" opacity="0.25"/><circle cx="162" cy="221" r="1.4" fill="#3f1538" opacity="0.25"/><circle cx="221" cy="215" r="1.4" fill="#3f1538" opacity="0.25"/><circle cx="215" cy="288" r="1.4" fill="#3f1538" opacity="0.25"/><circle cx="288" cy="239" r="1.4" fill="#3f1538" opacity="0.25"/><circle cx="239" cy="199" r="1.4" fill="#3f1538" opacity="0.25"/><circle cx="199" cy="326" r="1.4" fill="#3f1538" opacity="0.25"/><circle cx="326" cy="160" r="1.4" fill="#3f1538" opacity="0.25"/>
<g data-collage-motif="halsa"><path d="M640 580 C520 480 520 360 600 340 C640 330 640 370 640 380 C640 370 640 330 680 340 C760 360 760 480 640 580 Z" fill="#c87ab8" opacity="0.84"/></g>
<g fill="#c87ab8" opacity="0.9"><circle cx="104" cy="106" r="8"/><circle cx="130" cy="106" r="8"/><circle cx="156" cy="106" r="8"/></g>
</svg>