<svg xmlns="http://www.w3.org/2000/svg" width="1280" height="848" viewBox="0 0 1280 848">
<defs>
  <linearGradient id="bg" x1="0" y1="0" x2="1" y2="1"><stop stop-color="#3f2f18"/><stop offset="1" stop-color="#a36c2f"/></linearGradient>
  <radialGradient id="glow"><stop stop-color="#f6c85f" stop-opacity=".72"/><stop offset="1" stop-color="#f6c85f" stop-opacity="0"/></radialGradient>
</defs>
<rect width="1280" height="848" fill="url(#bg)"/>
<circle cx="510" cy="288" r="390" fill="url(#glow)"/>
<circle cx="335" cy="608" r="162" fill="#fff6dc" opacity="0.100"/><circle cx="555" cy="290" r="146" fill="#fff6dc" opacity="0.168"/><circle cx="279" cy="166" r="122" fill="#fff6dc" opacity="0.199"/><circle cx="253" cy="457" r="230" fill="#fff6dc" opacity="0.099"/><circle cx="1073" cy="592" r="117" fill="#fff6dc" opacity="0.217"/><circle cx="974" cy="163" r="216" fill="#fff6dc" opacity="0.128"/><circle cx="322" cy="670" r="115" fill="#fff6dc" opacity="0.094"/>
<path d="M0 610 C260 460 450 720 690 565S1080 570 1280 480V848H0Z" fill="#3f2f18" opacity=".28"/>
<g fill="#fff6dc" opacity=".78">
  <circle cx="535" cy="375" r="66"/><circle cx="744" cy="350" r="52"/><circle cx="672" cy="535" r="72"/>
</g><path d="M535 375 744 350 672 535Z" fill="none" stroke="#f6c85f" stroke-width="22" stroke-linejoin="round"/>
<g fill="#f6c85f" opacity=".9"><circle cx="104" cy="106" r="8"/><circle cx="130" cy="106" r="8"/><circle cx="156" cy="106" r="8"/></g>
</svg>