<svg xmlns="http://www.w3.org/2000/svg" width="1280" height="848" viewBox="0 0 1280 848">
<defs>
  <filter id="ds" x="-20%" y="-20%" width="140%" height="140%"><feDropShadow dx="0" dy="10" stdDeviation="10" flood-color="#000000" flood-opacity="0.18"/></filter>
  <filter id="fibre"><feTurbulence type="fractalNoise" baseFrequency="0.9" numOctaves="2" result="n"/><feColorMatrix in="n" type="saturate" values="0"/><feComponentTransfer><feFuncA type="linear" slope="0.05"/></feComponentTransfer><feComposite operator="in" in2="SourceGraphic"/></filter>
</defs>
<rect width="1280" height="848" fill="#f3ece1"/>
<g filter="url(#ds)">
<polygon points="70.0 60 144.1 63 218.2 66 289.3 57 363.4 56 434.6 67 499.7 55 570.8 59 634.9 59 710.0 60 704.0 530 647.9 533 559.8 523 492.7 530 424.6 526 361.4 524 284.3 525 207.2 535 143.1 528 69.0 530 710.0 526.0 638.9 477.8 567.8 417.6 496.7 374.3 425.6 313.1 354.4 261.9 283.3 217.7 212.2 155.4 141.1 103.2 70.0 55.0 70.0 58.0 141.1 113.2 212.2 162.4 283.3 221.7 354.4 268.9 425.6 318.1 496.7 367.3 567.8 419.6 638.9 468.8 710.0 521.0" fill="#e3e9f0" stroke="#232b3f" stroke-width="2.4" stroke-dasharray="2 6" stroke-linecap="round" transform="rotate(-3.5 390.0 295.0)"/>
<polygon points="566.0 240 642.3 236 715.7 247 783.0 235 856.3 239 922.7 239 1000.0 244 1065.3 234 1147.7 233 1212.0 240 1216.0 760 1145.7 756 1080.3 754 1001.0 755 921.7 765 855.3 758 779.0 761 708.7 754 628.3 759 560.0 760 1220.0 761.0 1146.7 694.2 1073.3 637.4 1000.0 587.7 926.7 519.9 853.3 462.1 780.0 408.3 706.7 351.6 633.3 294.8 560.0 234.0 560.0 245.0 633.3 297.8 706.7 352.6 780.0 407.3 853.3 465.1 926.7 519.9 1000.0 577.7 1073.3 641.4 1146.7 699.2 1220.0 764.0" fill="#7a8aa0" stroke="#232b3f" stroke-width="2.4" stroke-dasharray="2 6" stroke-linecap="round" transform="rotate(4.0 890.0 500.0)"/>
<polygon points="363.0 380 425.2 379 480.4 379 546.7 384 600.9 374 672.1 373 725.3 375 788.6 374 858.8 386 911.0 380 921.0 780 852.8 785 797.6 778 732.3 781 673.1 774 603.9 779 546.7 785 487.4 777 428.2 774 366.0 780 920.0 781.0 857.8 726.6 795.6 682.1 733.3 641.7 671.1 598.2 608.9 554.8 546.7 507.3 484.4 477.9 422.2 416.4 360.0 376.0 360.0 374.0 422.2 418.4 484.4 459.9 546.7 504.3 608.9 554.8 671.1 599.2 733.3 650.7 795.6 691.1 857.8 743.6 920.0 779.0" fill="#43506b" stroke="#232b3f" stroke-width="2.4" stroke-dasharray="2 6" stroke-linecap="round" transform="rotate(-1.5 640.0 580.0)"/>
</g>
<path d="M647 155 L683 249 L617 311 L536 311 L463 344 L396 300 L346 237 L303 155 L363 82 L384 -8 L468 -14 L535 4 L622 -8 L633 87 Z" fill="#e3e9f0" opacity="0.16"/><path d="M678 313 L662 369 L631 415 L587 459 L532 427 L474 425 L457 365 L458 313 L437 251 L494 229 L534 209 L584 179 L622 223 L656 261 Z" fill="#7a8aa0" opacity="0.16"/><path d="M1076 564 L1096 668 L1012 719 L934 736 L849 797 L795 704 L751 641 L688 564 L739 481 L783 407 L852 344 L937 377 L1014 406 L1085 466 Z" fill="#e3e9f0" opacity="0.16"/><path d="M301 564 L245 625 L208 673 L165 739 L97 711 L37 687 L-20 641 L-11 564 L-4 495 L26 425 L95 408 L160 412 L208 455 L278 485 Z" fill="#7a8aa0" opacity="0.16"/><path d="M825 501 L820 543 L802 587 L758 592 L719 597 L676 587 L657 544 L650 501 L667 464 L675 413 L717 396 L758 412 L789 433 L820 459 Z" fill="#e3e9f0" opacity="0.16"/>
<g filter="url(#fibre)" opacity="0.6"><rect width="1280" height="848" fill="#232b3f"/></g>
<circle cx="338" cy="227" r="1.4" fill="#232b3f" opacity="0.25"/><circle cx="227" cy="325" r="1.4" fill="#232b3f" opacity="0.25"/><circle cx="325" cy="268" r="1.4" fill="#232b3f" opacity="0.25"/><circle cx="268" cy="214" r="1.4" fill="#232b3f" opacity="0.25"/><circle cx="214" cy="138" r="1.4" fill="#232b3f" opacity="0.25"/><circle cx="138" cy="284" r="1.4" fill="#232b3f" opacity="0.25"/><circle cx="284" cy="227" r="1.4" fill="#232b3f" opacity="0.25"/><circle cx="227" cy="201" r="1.4" fill="#232b3f" opacity="0.25"/><circle cx="201" cy="186" r="1.4" fill="#232b3f" opacity="0.25"/><circle cx="186" cy="311" r="1.4" fill="#232b3f" opacity="0.25"/><circle cx="311" cy="301" r="1.4" fill="#232b3f" opacity="0.25"/><circle cx="301" cy="330" r="1.4" fill="#232b3f" opacity="0.25"/><circle cx="330" cy="122" r="1.4" fill="#232b3f" opacity="0.25"/><circle cx="122" cy="301" r="1.4" fill="#232b3f" opacity="0.25"/><circle cx="301" cy="253" r="1.4" fill="#232b3f" opacity="0.25"/><circle cx="253" cy="272" r="1.4" fill="#232b3f" opacity="0.25"/><circle cx="272" cy="276" r="1.4" fill="#232b3f" opacity="0.25"/><circle cx="276" cy="144" r="1.4" fill="#232b3f" opacity="0.25"/><circle cx="144" cy="164" r="1.4" fill="#232b3f" opacity="0.25"/><circle cx="164" cy="313" r="1.4" fill="#232b3f" opacity="0.25"/><circle cx="313" cy="252" r="1.4" fill="#232b3f" opacity="0.25"/><circle cx="252" cy="349" r="1.4" fill="#232b3f" opacity="0.25"/><circle cx="349" cy="239" r="1.4" fill="#232b3f" opacity="0.25"/><circle cx="239" cy="337" r="1.4" fill="#232b3f" opacity="0.25"/><circle cx="337" cy="326" r="1.4" fill="#232b3f" opacity="0.25"/><circle cx="326" cy="358" r="1.4" fill="#232b3f" opacity="0.25"/><circle cx="358" cy="162" r="1.4" fill="#232b3f" opacity="0.25"/><circle cx="162" cy="302" r="1.4" fill="#232b3f" opacity="0.25"/><circle cx="302" cy="204" r="1.4" fill="#232b3f" opacity="0.25"/><circle cx="204" cy="321" r="1.4" fill="#232b3f" opacity="0.25"/><circle cx="321" cy="238" r="1.4" fill="#232b3f" opacity="0.25"/><circle cx="238" cy="338" r="1.4" fill="#232b3f" opacity="0.25"/><circle cx="338" cy="227" r="1.4" fill="#232b3f" opacity="0.25"/><circle cx="227" cy="325" r="1.4" fill="#232b3f" opacity="0.25"/><circle cx="325" cy="268" r="1.4" fill="#232b3f" opacity="0.25"/><circle cx="268" cy="214" r="1.4" fill="#232b3f" opacity="0.25"/>
<g data-collage-motif="hälsa"><circle cx="540" cy="420" r="40" fill="#7a8aa0"/><circle cx="740" cy="400" r="34" fill="#7a8aa0" opacity="0.86"/><circle cx="650" cy="560" r="30" fill="#7a8aa0" opacity="0.8"/><path d="M540 420 L740 400 L650 560 Z" stroke="#232b3f" stroke-width="6" fill="none" stroke-linejoin="round"/></g>
<g fill="#7a8aa0" opacity="0.9"><circle cx="104" cy="106" r="8"/><circle cx="130" cy="106" r="8"/><circle cx="156" cy="106" r="8"/></g>
</svg>