<svg xmlns="http://www.w3.org/2000/svg" width="1280" height="848" viewBox="0 0 1280 848">
<defs>
  <linearGradient id="bg" x1="0" y1="0" x2="1" y2="1"><stop stop-color="#102a43"/><stop offset="1" stop-color="#286a8d"/></linearGradient>
  <radialGradient id="glow"><stop stop-color="#ffb45b" stop-opacity=".72"/><stop offset="1" stop-color="#ffb45b" stop-opacity="0"/></radialGradient>
</defs>
<rect width="1280" height="848" fill="url(#bg)"/>
<circle cx="588" cy="396" r="390" fill="url(#glow)"/>
<circle cx="1077" cy="374" r="146" fill="#e1f4ff" opacity="0.194"/><circle cx="1073" cy="662" r="145" fill="#e1f4ff" opacity="0.089"/><circle cx="1164" cy="571" r="228" fill="#e1f4ff" opacity="0.193"/><circle cx="120" cy="117" r="207" fill="#e1f4ff" opacity="0.160"/><circle cx="1125" cy="565" r="84" fill="#e1f4ff" opacity="0.204"/><circle cx="900" cy="425" r="93" fill="#e1f4ff" opacity="0.173"/><circle cx="521" cy="611" r="71" fill="#e1f4ff" opacity="0.208"/>
<path d="M0 619 C260 469 450 729 690 574S1080 579 1280 489V848H0Z" fill="#102a43" opacity=".28"/>
<path d="M640 620C470 545 455 342 640 225c185 117 170 320 0 395Z" fill="#e1f4ff" opacity=".74"/>
<path d="M640 590V275M640 430c-68-10-114-48-146-102M640 472c76-11 125-56 158-121" fill="none" stroke="#ffb45b" stroke-width="18" stroke-linecap="round"/>
<g fill="#ffb45b" opacity=".9"><circle cx="104" cy="106" r="8"/><circle cx="130" cy="106" r="8"/><circle cx="156" cy="106" r="8"/></g>
</svg>