<svg xmlns="http://www.w3.org/2000/svg" width="1280" height="848" viewBox="0 0 1280 848">
<defs>
  <filter id="ds" x="-20%" y="-20%" width="140%" height="140%"><feDropShadow dx="0" dy="10" stdDeviation="10" flood-color="#000000" flood-opacity="0.18"/></filter>
  <filter id="fibre"><feTurbulence type="fractalNoise" baseFrequency="0.9" numOctaves="2" result="n"/><feColorMatrix in="n" type="saturate" values="0"/><feComponentTransfer><feFuncA type="linear" slope="0.05"/></feComponentTransfer><feComposite operator="in" in2="SourceGraphic"/></filter>
</defs>
<rect width="1280" height="848" fill="#f3ece1"/>
<g filter="url(#ds)">
<polygon points="74.0 60 138.1 54 203.2 56 278.3 58 363.4 65 434.6 58 491.7 60 570.8 57 634.9 57 707.0 60 712.0 530 639.9 529 558.8 537 497.7 534 429.6 528 352.4 526 282.3 536 221.2 525 145.1 526 72.0 530 710.0 526.0 638.9 474.8 567.8 424.6 496.7 368.3 425.6 313.1 354.4 266.9 283.3 218.7 212.2 164.4 141.1 115.2 70.0 51.0 70.0 56.0 141.1 110.2 212.2 159.4 283.3 209.7 354.4 264.9 425.6 324.1 496.7 382.3 567.8 430.6 638.9 468.8 710.0 521.0" fill="#e3e9f0" stroke="#232b3f" stroke-width="2.4" stroke-dasharray="2 6" stroke-linecap="round" transform="rotate(-3.5 390.0 295.0)"/>
<polygon points="555.0 240 642.3 245 715.7 238 775.0 240 856.3 237 922.7 237 997.0 238 1072.3 246 1141.7 247 1212.0 240 1221.0 760 1150.7 758 1071.3 756 999.0 766 935.7 755 857.3 756 782.0 759 711.7 761 640.3 756 564.0 760 1220.0 755.0 1146.7 694.2 1073.3 642.4 1000.0 588.7 926.7 528.9 853.3 474.1 780.0 404.3 706.7 357.6 633.3 295.8 560.0 242.0 560.0 233.0 633.3 293.8 706.7 358.6 780.0 422.3 853.3 476.1 926.7 519.9 1000.0 577.7 1073.3 649.4 1146.7 699.2 1220.0 764.0" fill="#7a8aa0" stroke="#232b3f" stroke-width="2.4" stroke-dasharray="2 6" stroke-linecap="round" transform="rotate(4.0 890.0 500.0)"/>
<polygon points="355.0 380 425.2 377 480.4 377 543.7 378 607.9 386 666.1 387 725.3 380 793.6 378 859.8 381 920.0 380 919.0 780 866.8 775 799.6 776 735.3 779 676.1 781 615.9 776 550.7 776 481.4 786 413.2 784 355.0 780 920.0 782.0 857.8 735.6 795.6 694.1 733.3 637.7 671.1 604.2 608.9 555.8 546.7 515.3 484.4 469.9 422.2 415.4 360.0 381.0 360.0 389.0 422.2 429.4 484.4 459.9 546.7 504.3 608.9 562.8 671.1 599.2 733.3 650.7 795.6 694.1 857.8 736.6 920.0 785.0" fill="#43506b" stroke="#232b3f" stroke-width="2.4" stroke-dasharray="2 6" stroke-linecap="round" transform="rotate(-1.5 640.0 580.0)"/>
</g>
<path d="M919 441 L939 507 L881 533 L845 595 L783 585 L730 555 L711 494 L682 441 L681 372 L724 320 L782 293 L839 318 L898 325 L914 388 Z" fill="#e3e9f0" opacity="0.16"/><path d="M1113 647 L1093 726 L1031 767 L979 820 L902 840 L832 798 L786 729 L798 647 L790 567 L856 528 L908 482 L972 507 L1058 491 L1089 571 Z" fill="#7a8aa0" opacity="0.16"/><path d="M564 406 L542 488 L492 552 L417 557 L348 583 L299 523 L247 478 L255 406 L222 321 L286 271 L349 234 L420 241 L495 256 L527 332 Z" fill="#e3e9f0" opacity="0.16"/><path d="M365 423 L309 507 L272 592 L185 602 L96 672 L19 599 L-42 522 L-55 423 L-58 315 L20 249 L111 244 L199 179 L251 283 L323 331 Z" fill="#7a8aa0" opacity="0.16"/><path d="M804 253 L752 356 L695 442 L604 479 L502 509 L421 436 L396 337 L313 253 L400 171 L428 79 L508 24 L598 53 L672 95 L733 160 Z" fill="#e3e9f0" opacity="0.16"/>
<g filter="url(#fibre)" opacity="0.6"><rect width="1280" height="848" fill="#232b3f"/></g>
<circle cx="266" cy="221" r="1.4" fill="#232b3f" opacity="0.25"/><circle cx="221" cy="196" r="1.4" fill="#232b3f" opacity="0.25"/><circle cx="196" cy="333" r="1.4" fill="#232b3f" opacity="0.25"/><circle cx="333" cy="290" r="1.4" fill="#232b3f" opacity="0.25"/><circle cx="290" cy="252" r="1.4" fill="#232b3f" opacity="0.25"/><circle cx="252" cy="200" r="1.4" fill="#232b3f" opacity="0.25"/><circle cx="200" cy="322" r="1.4" fill="#232b3f" opacity="0.25"/><circle cx="322" cy="334" r="1.4" fill="#232b3f" opacity="0.25"/><circle cx="334" cy="259" r="1.4" fill="#232b3f" opacity="0.25"/><circle cx="259" cy="185" r="1.4" fill="#232b3f" opacity="0.25"/><circle cx="185" cy="238" r="1.4" fill="#232b3f" opacity="0.25"/><circle cx="238" cy="254" r="1.4" fill="#232b3f" opacity="0.25"/><circle cx="254" cy="127" r="1.4" fill="#232b3f" opacity="0.25"/><circle cx="127" cy="245" r="1.4" fill="#232b3f" opacity="0.25"/><circle cx="245" cy="338" r="1.4" fill="#232b3f" opacity="0.25"/><circle cx="338" cy="227" r="1.4" fill="#232b3f" opacity="0.25"/><circle cx="227" cy="177" r="1.4" fill="#232b3f" opacity="0.25"/><circle cx="177" cy="359" r="1.4" fill="#232b3f" opacity="0.25"/><circle cx="359" cy="355" r="1.4" fill="#232b3f" opacity="0.25"/><circle cx="355" cy="188" r="1.4" fill="#232b3f" opacity="0.25"/><circle cx="188" cy="320" r="1.4" fill="#232b3f" opacity="0.25"/><circle cx="320" cy="158" r="1.4" fill="#232b3f" opacity="0.25"/><circle cx="158" cy="225" r="1.4" fill="#232b3f" opacity="0.25"/><circle cx="225" cy="228" r="1.4" fill="#232b3f" opacity="0.25"/><circle cx="228" cy="279" r="1.4" fill="#232b3f" opacity="0.25"/><circle cx="279" cy="356" r="1.4" fill="#232b3f" opacity="0.25"/><circle cx="356" cy="271" r="1.4" fill="#232b3f" opacity="0.25"/><circle cx="271" cy="342" r="1.4" fill="#232b3f" opacity="0.25"/><circle cx="342" cy="131" r="1.4" fill="#232b3f" opacity="0.25"/><circle cx="131" cy="248" r="1.4" fill="#232b3f" opacity="0.25"/><circle cx="248" cy="231" r="1.4" fill="#232b3f" opacity="0.25"/><circle cx="231" cy="266" r="1.4" fill="#232b3f" opacity="0.25"/><circle cx="266" cy="221" r="1.4" fill="#232b3f" opacity="0.25"/><circle cx="221" cy="196" r="1.4" fill="#232b3f" opacity="0.25"/><circle cx="196" cy="333" r="1.4" fill="#232b3f" opacity="0.25"/><circle cx="333" cy="290" r="1.4" fill="#232b3f" opacity="0.25"/>
<g data-collage-motif="hälsa"><circle cx="540" cy="420" r="40" fill="#7a8aa0"/><circle cx="740" cy="400" r="34" fill="#7a8aa0" opacity="0.86"/><circle cx="650" cy="560" r="30" fill="#7a8aa0" opacity="0.8"/><path d="M540 420 L740 400 L650 560 Z" stroke="#232b3f" stroke-width="6" fill="none" stroke-linejoin="round"/></g>
<g fill="#7a8aa0" opacity="0.9"><circle cx="104" cy="106" r="8"/><circle cx="130" cy="106" r="8"/><circle cx="156" cy="106" r="8"/></g>
</svg>