<svg xmlns="http://www.w3.org/2000/svg" width="1280" height="848" viewBox="0 0 1280 848" data-palette="halsa-2" data-motif-variant="2">
<defs>
  <filter id="ds" x="-20%" y="-20%" width="140%" height="140%"><feDropShadow dx="0" dy="10" stdDeviation="10" flood-color="#000000" flood-opacity="0.18"/></filter>
  <filter id="fibre"><feTurbulence type="fractalNoise" baseFrequency="0.9" numOctaves="2" result="n"/><feColorMatrix in="n" type="saturate" values="0"/><feComponentTransfer><feFuncA type="linear" slope="0.05"/></feComponentTransfer><feComposite operator="in" in2="SourceGraphic"/></filter>
</defs>
<rect width="1280" height="848" fill="#f3ece1"/>
<g filter="url(#ds)">
<polygon points="96.0 54 169.7 49 234.3 61 303.0 49 371.7 61 437.3 54 505.0 58 575.7 59 647.3 51 716.0 54 706.0 494 636.3 497 573.7 494 500.0 500 440.3 496 364.7 501 299.0 487 230.3 501 151.7 499 87.0 494 710.0 500.0 641.3 451.1 572.7 405.2 504.0 342.3 435.3 300.4 366.7 245.6 298.0 193.7 229.3 145.8 160.7 102.9 92.0 52.0 92.0 63.0 160.7 107.9 229.3 160.8 298.0 201.7 366.7 245.6 435.3 289.4 504.0 342.3 572.7 391.2 641.3 440.1 710.0 492.0" fill="#f6dcf1" stroke="#3f1538" stroke-width="2.4" stroke-dasharray="2 6" stroke-linecap="round" transform="rotate(-6.5 401.0 274.0)"/>
<polygon points="569.0 236 641.9 243 711.8 236 783.7 240 858.6 241 934.4 233 1007.3 232 1083.2 234 1142.1 238 1222.0 236 1216.0 726 1152.1 728 1072.2 733 1002.3 719 929.4 733 846.6 731 777.7 723 700.8 719 635.9 720 568.0 726 1220.0 721.0 1147.1 673.6 1074.2 613.1 1001.3 555.7 928.4 502.2 855.6 453.8 782.7 397.3 709.8 336.9 636.9 295.4 564.0 232.0 564.0 237.0 636.9 286.4 709.8 335.9 782.7 394.3 855.6 448.8 928.4 503.2 1001.3 560.7 1074.2 616.1 1147.1 668.6 1220.0 720.0" fill="#c87ab8" stroke="#3f1538" stroke-width="2.4" stroke-dasharray="2 6" stroke-linecap="round" transform="rotate(4.0 892.0 481.0)"/>
<polygon points="344.0 384 404.7 389 466.3 381 525.0 380 586.7 382 631.3 386 697.0 388 749.7 388 805.3 387 865.0 384 872.0 811 813.3 818 744.7 816 690.0 808 627.3 804 576.7 805 523.0 815 469.3 816 406.7 804 348.0 811 871.0 804.0 812.3 757.6 753.7 716.1 695.0 666.7 636.3 613.2 577.7 578.8 519.0 522.3 460.3 473.9 401.7 432.4 343.0 380.0 343.0 379.0 401.7 426.4 460.3 473.9 519.0 524.3 577.7 572.8 636.3 618.2 695.0 662.7 753.7 710.1 812.3 754.6 871.0 816.0" fill="#7a2f6b" stroke="#3f1538" stroke-width="2.4" stroke-dasharray="2 6" stroke-linecap="round" transform="rotate(-2.5 607.0 597.5)"/>
</g>
<path d="M1219 709 L1213 765 L1186 818 L1131 830 L1077 845 L1028 815 L985 772 L1003 709 L1018 663 L1020 592 L1080 583 L1130 596 L1167 626 L1228 645 Z" fill="#f6dcf1" opacity="0.16"/><path d="M1130 290 L1117 340 L1092 387 L1041 383 L1003 378 L948 390 L930 338 L930 290 L946 251 L949 192 L1001 193 L1047 166 L1082 207 L1121 238 Z" fill="#c87ab8" opacity="0.16"/><path d="M324 310 L360 398 L293 446 L225 463 L164 449 L79 465 L63 378 L7 310 L53 237 L83 160 L152 117 L223 166 L275 198 L334 236 Z" fill="#f6dcf1" opacity="0.16"/><path d="M1016 401 L1061 518 L959 568 L893 669 L790 625 L687 605 L613 518 L652 401 L676 317 L704 219 L789 175 L883 181 L978 208 L1061 284 Z" fill="#c87ab8" opacity="0.16"/><path d="M831 270 L835 382 L775 479 L662 465 L582 458 L489 450 L430 370 L416 270 L418 164 L467 61 L566 7 L674 16 L732 119 L837 157 Z" fill="#f6dcf1" opacity="0.16"/>
<g filter="url(#fibre)" opacity="0.6"><rect width="1280" height="848" fill="#3f1538"/></g>
<circle cx="133" cy="138" r="1.4" fill="#3f1538" opacity="0.25"/><circle cx="138" cy="362" r="1.4" fill="#3f1538" opacity="0.25"/><circle cx="362" cy="134" r="1.4" fill="#3f1538" opacity="0.25"/><circle cx="134" cy="362" r="1.4" fill="#3f1538" opacity="0.25"/><circle cx="362" cy="359" r="1.4" fill="#3f1538" opacity="0.25"/><circle cx="359" cy="187" r="1.4" fill="#3f1538" opacity="0.25"/><circle cx="187" cy="341" r="1.4" fill="#3f1538" opacity="0.25"/><circle cx="341" cy="192" r="1.4" fill="#3f1538" opacity="0.25"/><circle cx="192" cy="154" r="1.4" fill="#3f1538" opacity="0.25"/><circle cx="154" cy="138" r="1.4" fill="#3f1538" opacity="0.25"/><circle cx="138" cy="200" r="1.4" fill="#3f1538" opacity="0.25"/><circle cx="200" cy="264" r="1.4" fill="#3f1538" opacity="0.25"/><circle cx="264" cy="296" r="1.4" fill="#3f1538" opacity="0.25"/><circle cx="296" cy="236" r="1.4" fill="#3f1538" opacity="0.25"/><circle cx="236" cy="370" r="1.4" fill="#3f1538" opacity="0.25"/><circle cx="370" cy="243" r="1.4" fill="#3f1538" opacity="0.25"/><circle cx="243" cy="184" r="1.4" fill="#3f1538" opacity="0.25"/><circle cx="184" cy="368" r="1.4" fill="#3f1538" opacity="0.25"/><circle cx="368" cy="267" r="1.4" fill="#3f1538" opacity="0.25"/><circle cx="267" cy="372" r="1.4" fill="#3f1538" opacity="0.25"/><circle cx="372" cy="352" r="1.4" fill="#3f1538" opacity="0.25"/><circle cx="352" cy="244" r="1.4" fill="#3f1538" opacity="0.25"/><circle cx="244" cy="277" r="1.4" fill="#3f1538" opacity="0.25"/><circle cx="277" cy="286" r="1.4" fill="#3f1538" opacity="0.25"/><circle cx="286" cy="260" r="1.4" fill="#3f1538" opacity="0.25"/><circle cx="260" cy="225" r="1.4" fill="#3f1538" opacity="0.25"/><circle cx="225" cy="149" r="1.4" fill="#3f1538" opacity="0.25"/><circle cx="149" cy="120" r="1.4" fill="#3f1538" opacity="0.25"/><circle cx="120" cy="257" r="1.4" fill="#3f1538" opacity="0.25"/><circle cx="257" cy="310" r="1.4" fill="#3f1538" opacity="0.25"/><circle cx="310" cy="299" r="1.4" fill="#3f1538" opacity="0.25"/><circle cx="299" cy="133" r="1.4" fill="#3f1538" opacity="0.25"/><circle cx="133" cy="138" r="1.4" fill="#3f1538" opacity="0.25"/><circle cx="138" cy="362" r="1.4" fill="#3f1538" opacity="0.25"/><circle cx="362" cy="134" r="1.4" fill="#3f1538" opacity="0.25"/><circle cx="134" cy="362" r="1.4" fill="#3f1538" opacity="0.25"/>
<g data-collage-motif="halsa"><path d="M640 300 C720 420 740 500 640 580 C540 500 560 420 640 300 Z" fill="#c87ab8" opacity="0.82"/><circle cx="640" cy="470" r="30" fill="#3f1538" opacity="0.6"/></g>
<g fill="#c87ab8" opacity="0.9"><circle cx="104" cy="106" r="8"/><circle cx="130" cy="106" r="8"/><circle cx="156" cy="106" r="8"/></g>
</svg>