<svg xmlns="http://www.w3.org/2000/svg" width="1280" height="848" viewBox="0 0 1280 848" data-palette="halsa-2" data-motif-variant="2">
<defs>
  <filter id="ds" x="-20%" y="-20%" width="140%" height="140%"><feDropShadow dx="0" dy="10" stdDeviation="10" flood-color="#000000" flood-opacity="0.18"/></filter>
  <filter id="fibre"><feTurbulence type="fractalNoise" baseFrequency="0.9" numOctaves="2" result="n"/><feColorMatrix in="n" type="saturate" values="0"/><feComponentTransfer><feFuncA type="linear" slope="0.05"/></feComponentTransfer><feComposite operator="in" in2="SourceGraphic"/></filter>
</defs>
<rect width="1280" height="848" fill="#f3ece1"/>
<g filter="url(#ds)">
<polygon points="58.0 52 135.1 55 195.2 47 271.3 53 326.4 45 407.6 51 463.7 54 530.8 46 601.9 47 675.0 52 672.0 539 596.9 545 536.8 545 459.7 546 408.6 537 335.4 535 260.3 534 198.2 532 128.1 532 65.0 539 670.0 538.0 602.9 489.9 535.8 429.8 468.7 376.7 401.6 327.6 334.4 277.4 267.3 207.3 200.2 156.2 133.1 106.1 66.0 50.0 66.0 57.0 133.1 107.1 200.2 156.2 267.3 222.3 334.4 276.4 401.6 320.6 468.7 381.7 535.8 426.8 602.9 492.9 670.0 533.0" fill="#f6dcf1" stroke="#3f1538" stroke-width="2.4" stroke-dasharray="2 6" stroke-linecap="round" transform="rotate(-2.5 368.0 295.5)"/>
<polygon points="596.0 236 661.6 229 753.1 235 819.7 238 897.2 230 978.8 231 1062.3 238 1133.9 231 1212.4 236 1295.0 236 1281.0 721 1219.4 719 1135.9 717 1050.3 716 977.8 714 897.2 714 823.7 724 751.1 717 661.6 714 584.0 721 1290.0 721.0 1212.4 672.1 1134.9 622.2 1057.3 552.3 979.8 501.4 902.2 451.6 824.7 395.7 747.1 338.8 669.6 298.9 592.0 238.0 592.0 244.0 669.6 297.9 747.1 341.8 824.7 402.7 902.2 447.6 979.8 513.4 1057.3 553.3 1134.9 618.2 1212.4 672.1 1290.0 722.0" fill="#c87ab8" stroke="#3f1538" stroke-width="2.4" stroke-dasharray="2 6" stroke-linecap="round" transform="rotate(3.0 941.0 478.5)"/>
<polygon points="376.0 382 433.8 376 495.6 377 559.3 384 611.1 377 669.9 382 732.7 386 794.4 378 836.2 380 897.0 382 894.0 756 841.2 749 780.4 749 726.7 759 673.9 752 604.1 749 546.3 749 498.6 753 433.8 761 385.0 756 901.0 749.0 843.2 710.4 785.4 672.9 727.7 629.3 669.9 584.8 612.1 557.2 554.3 508.7 496.6 459.1 438.8 424.6 381.0 373.0 381.0 387.0 438.8 419.6 496.6 473.1 554.3 500.7 612.1 553.2 669.9 594.8 727.7 632.3 785.4 667.9 843.2 715.4 901.0 756.0" fill="#7a2f6b" stroke="#3f1538" stroke-width="2.4" stroke-dasharray="2 6" stroke-linecap="round" transform="rotate(-4.5 641.0 569.0)"/>
</g>
<path d="M1311 147 L1289 229 L1248 307 L1173 348 L1089 348 L1030 284 L990 221 L949 147 L993 75 L1019 -6 L1096 -19 L1165 -17 L1233 8 L1284 67 Z" fill="#f6dcf1" opacity="0.16"/><path d="M766 225 L710 323 L648 396 L575 472 L479 433 L379 421 L342 320 L325 225 L335 126 L387 40 L481 26 L564 28 L655 45 L738 112 Z" fill="#c87ab8" opacity="0.16"/><path d="M564 227 L569 283 L527 315 L485 336 L438 342 L392 323 L374 273 L366 227 L364 175 L385 122 L440 122 L488 105 L540 120 L558 176 Z" fill="#f6dcf1" opacity="0.16"/><path d="M431 305 L426 346 L394 368 L364 383 L329 394 L289 386 L279 341 L260 305 L261 259 L297 235 L332 231 L364 228 L396 240 L413 271 Z" fill="#c87ab8" opacity="0.16"/><path d="M901 366 L903 433 L847 462 L805 505 L744 518 L700 470 L682 415 L668 366 L673 312 L709 275 L751 246 L807 216 L851 263 L909 296 Z" fill="#f6dcf1" opacity="0.16"/>
<g filter="url(#fibre)" opacity="0.6"><rect width="1280" height="848" fill="#3f1538"/></g>
<circle cx="254" cy="359" r="1.4" fill="#3f1538" opacity="0.25"/><circle cx="359" cy="295" r="1.4" fill="#3f1538" opacity="0.25"/><circle cx="295" cy="152" r="1.4" fill="#3f1538" opacity="0.25"/><circle cx="152" cy="368" r="1.4" fill="#3f1538" opacity="0.25"/><circle cx="368" cy="135" r="1.4" fill="#3f1538" opacity="0.25"/><circle cx="135" cy="276" r="1.4" fill="#3f1538" opacity="0.25"/><circle cx="276" cy="219" r="1.4" fill="#3f1538" opacity="0.25"/><circle cx="219" cy="166" r="1.4" fill="#3f1538" opacity="0.25"/><circle cx="166" cy="362" r="1.4" fill="#3f1538" opacity="0.25"/><circle cx="362" cy="204" r="1.4" fill="#3f1538" opacity="0.25"/><circle cx="204" cy="167" r="1.4" fill="#3f1538" opacity="0.25"/><circle cx="167" cy="172" r="1.4" fill="#3f1538" opacity="0.25"/><circle cx="172" cy="176" r="1.4" fill="#3f1538" opacity="0.25"/><circle cx="176" cy="198" r="1.4" fill="#3f1538" opacity="0.25"/><circle cx="198" cy="125" r="1.4" fill="#3f1538" opacity="0.25"/><circle cx="125" cy="281" r="1.4" fill="#3f1538" opacity="0.25"/><circle cx="281" cy="222" r="1.4" fill="#3f1538" opacity="0.25"/><circle cx="222" cy="200" r="1.4" fill="#3f1538" opacity="0.25"/><circle cx="200" cy="214" r="1.4" fill="#3f1538" opacity="0.25"/><circle cx="214" cy="188" r="1.4" fill="#3f1538" opacity="0.25"/><circle cx="188" cy="351" r="1.4" fill="#3f1538" opacity="0.25"/><circle cx="351" cy="301" r="1.4" fill="#3f1538" opacity="0.25"/><circle cx="301" cy="196" r="1.4" fill="#3f1538" opacity="0.25"/><circle cx="196" cy="345" r="1.4" fill="#3f1538" opacity="0.25"/><circle cx="345" cy="339" r="1.4" fill="#3f1538" opacity="0.25"/><circle cx="339" cy="236" r="1.4" fill="#3f1538" opacity="0.25"/><circle cx="236" cy="222" r="1.4" fill="#3f1538" opacity="0.25"/><circle cx="222" cy="314" r="1.4" fill="#3f1538" opacity="0.25"/><circle cx="314" cy="299" r="1.4" fill="#3f1538" opacity="0.25"/><circle cx="299" cy="304" r="1.4" fill="#3f1538" opacity="0.25"/><circle cx="304" cy="311" r="1.4" fill="#3f1538" opacity="0.25"/><circle cx="311" cy="254" r="1.4" fill="#3f1538" opacity="0.25"/><circle cx="254" cy="359" r="1.4" fill="#3f1538" opacity="0.25"/><circle cx="359" cy="295" r="1.4" fill="#3f1538" opacity="0.25"/><circle cx="295" cy="152" r="1.4" fill="#3f1538" opacity="0.25"/><circle cx="152" cy="368" r="1.4" fill="#3f1538" opacity="0.25"/>
<g data-collage-motif="halsa"><path d="M640 300 C720 420 740 500 640 580 C540 500 560 420 640 300 Z" fill="#c87ab8" opacity="0.82"/><circle cx="640" cy="470" r="30" fill="#3f1538" opacity="0.6"/></g>
<g fill="#c87ab8" opacity="0.9"><circle cx="104" cy="106" r="8"/><circle cx="130" cy="106" r="8"/><circle cx="156" cy="106" r="8"/></g>
</svg>