<svg xmlns="http://www.w3.org/2000/svg" width="1280" height="848" viewBox="0 0 1280 848">
<defs>
  <filter id="ds" x="-20%" y="-20%" width="140%" height="140%"><feDropShadow dx="0" dy="10" stdDeviation="10" flood-color="#000000" flood-opacity="0.18"/></filter>
  <filter id="fibre"><feTurbulence type="fractalNoise" baseFrequency="0.9" numOctaves="2" result="n"/><feColorMatrix in="n" type="saturate" values="0"/><feComponentTransfer><feFuncA type="linear" slope="0.05"/></feComponentTransfer><feComposite operator="in" in2="SourceGraphic"/></filter>
</defs>
<rect width="1280" height="848" fill="#f3ece1"/>
<g filter="url(#ds)">
<polygon points="61.0 60 146.1 57 208.2 54 287.3 58 356.4 61 422.6 56 495.7 59 573.8 62 647.9 62 702.0 60 708.0 530 644.9 530 562.8 532 501.7 531 423.6 537 356.4 532 277.3 527 211.2 523 146.1 532 79.0 530 710.0 539.0 638.9 469.8 567.8 432.6 496.7 365.3 425.6 317.1 354.4 264.9 283.3 224.7 212.2 167.4 141.1 113.2 70.0 54.0 70.0 55.0 141.1 103.2 212.2 163.4 283.3 223.7 354.4 277.9 425.6 316.1 496.7 377.3 567.8 421.6 638.9 475.8 710.0 533.0" fill="#e3e9f0" stroke="#232b3f" stroke-width="2.4" stroke-dasharray="2 6" stroke-linecap="round" transform="rotate(-3.5 390.0 295.0)"/>
<polygon points="564.0 240 635.3 241 703.7 236 779.0 239 859.3 242 935.7 242 992.0 247 1080.3 239 1138.7 247 1216.0 240 1225.0 760 1144.7 767 1075.3 762 994.0 757 925.7 753 858.3 762 789.0 753 707.7 767 626.3 765 551.0 760 1220.0 752.0 1146.7 698.2 1073.3 640.4 1000.0 594.7 926.7 531.9 853.3 472.1 780.0 407.3 706.7 364.6 633.3 305.8 560.0 238.0 560.0 247.0 633.3 306.8 706.7 350.6 780.0 417.3 853.3 467.1 926.7 526.9 1000.0 589.7 1073.3 645.4 1146.7 696.2 1220.0 751.0" fill="#7a8aa0" stroke="#232b3f" stroke-width="2.4" stroke-dasharray="2 6" stroke-linecap="round" transform="rotate(4.0 890.0 500.0)"/>
<polygon points="359.0 380 428.2 382 493.4 382 538.7 387 615.9 379 663.1 387 729.3 385 791.6 380 865.8 379 923.0 380 914.0 780 856.8 773 800.6 782 742.3 773 672.1 787 601.9 785 537.7 783 489.4 783 418.2 786 364.0 780 920.0 788.0 857.8 738.6 795.6 692.1 733.3 640.7 671.1 611.2 608.9 565.8 546.7 511.3 484.4 474.9 422.2 419.4 360.0 385.0 360.0 384.0 422.2 420.4 484.4 466.9 546.7 516.3 608.9 558.8 671.1 596.2 733.3 637.7 795.6 699.1 857.8 728.6 920.0 788.0" fill="#43506b" stroke="#232b3f" stroke-width="2.4" stroke-dasharray="2 6" stroke-linecap="round" transform="rotate(-1.5 640.0 580.0)"/>
</g>
<path d="M800 506 L771 580 L766 693 L674 721 L587 705 L516 661 L458 595 L462 506 L474 425 L529 369 L592 331 L674 293 L739 356 L769 433 Z" fill="#e3e9f0" opacity="0.16"/><path d="M980 584 L967 631 L942 672 L898 680 L857 683 L823 658 L797 626 L769 584 L792 539 L825 512 L858 490 L901 475 L949 487 L975 533 Z" fill="#7a8aa0" opacity="0.16"/><path d="M861 350 L840 409 L807 459 L762 515 L697 495 L652 453 L613 410 L580 350 L580 273 L632 220 L699 214 L757 206 L812 234 L856 283 Z" fill="#e3e9f0" opacity="0.16"/><path d="M1287 391 L1258 449 L1228 501 L1181 551 L1110 568 L1049 524 L1029 453 L1008 391 L1021 325 L1056 267 L1114 234 L1176 252 L1224 286 L1299 311 Z" fill="#7a8aa0" opacity="0.16"/><path d="M397 165 L372 235 L316 271 L267 305 L208 306 L151 283 L111 231 L113 165 L132 109 L138 28 L208 24 L269 16 L324 48 L378 92 Z" fill="#e3e9f0" opacity="0.16"/>
<g filter="url(#fibre)" opacity="0.6"><rect width="1280" height="848" fill="#232b3f"/></g>
<circle cx="272" cy="229" r="1.4" fill="#232b3f" opacity="0.25"/><circle cx="229" cy="334" r="1.4" fill="#232b3f" opacity="0.25"/><circle cx="334" cy="361" r="1.4" fill="#232b3f" opacity="0.25"/><circle cx="361" cy="245" r="1.4" fill="#232b3f" opacity="0.25"/><circle cx="245" cy="278" r="1.4" fill="#232b3f" opacity="0.25"/><circle cx="278" cy="318" r="1.4" fill="#232b3f" opacity="0.25"/><circle cx="318" cy="306" r="1.4" fill="#232b3f" opacity="0.25"/><circle cx="306" cy="309" r="1.4" fill="#232b3f" opacity="0.25"/><circle cx="309" cy="159" r="1.4" fill="#232b3f" opacity="0.25"/><circle cx="159" cy="269" r="1.4" fill="#232b3f" opacity="0.25"/><circle cx="269" cy="216" r="1.4" fill="#232b3f" opacity="0.25"/><circle cx="216" cy="239" r="1.4" fill="#232b3f" opacity="0.25"/><circle cx="239" cy="372" r="1.4" fill="#232b3f" opacity="0.25"/><circle cx="372" cy="232" r="1.4" fill="#232b3f" opacity="0.25"/><circle cx="232" cy="246" r="1.4" fill="#232b3f" opacity="0.25"/><circle cx="246" cy="149" r="1.4" fill="#232b3f" opacity="0.25"/><circle cx="149" cy="142" r="1.4" fill="#232b3f" opacity="0.25"/><circle cx="142" cy="233" r="1.4" fill="#232b3f" opacity="0.25"/><circle cx="233" cy="346" r="1.4" fill="#232b3f" opacity="0.25"/><circle cx="346" cy="203" r="1.4" fill="#232b3f" opacity="0.25"/><circle cx="203" cy="135" r="1.4" fill="#232b3f" opacity="0.25"/><circle cx="135" cy="352" r="1.4" fill="#232b3f" opacity="0.25"/><circle cx="352" cy="305" r="1.4" fill="#232b3f" opacity="0.25"/><circle cx="305" cy="336" r="1.4" fill="#232b3f" opacity="0.25"/><circle cx="336" cy="150" r="1.4" fill="#232b3f" opacity="0.25"/><circle cx="150" cy="275" r="1.4" fill="#232b3f" opacity="0.25"/><circle cx="275" cy="280" r="1.4" fill="#232b3f" opacity="0.25"/><circle cx="280" cy="134" r="1.4" fill="#232b3f" opacity="0.25"/><circle cx="134" cy="290" r="1.4" fill="#232b3f" opacity="0.25"/><circle cx="290" cy="149" r="1.4" fill="#232b3f" opacity="0.25"/><circle cx="149" cy="255" r="1.4" fill="#232b3f" opacity="0.25"/><circle cx="255" cy="272" r="1.4" fill="#232b3f" opacity="0.25"/><circle cx="272" cy="229" r="1.4" fill="#232b3f" opacity="0.25"/><circle cx="229" cy="334" r="1.4" fill="#232b3f" opacity="0.25"/><circle cx="334" cy="361" r="1.4" fill="#232b3f" opacity="0.25"/><circle cx="361" cy="245" r="1.4" fill="#232b3f" opacity="0.25"/>
<g data-collage-motif="hälsa"><circle cx="540" cy="420" r="40" fill="#7a8aa0"/><circle cx="740" cy="400" r="34" fill="#7a8aa0" opacity="0.86"/><circle cx="650" cy="560" r="30" fill="#7a8aa0" opacity="0.8"/><path d="M540 420 L740 400 L650 560 Z" stroke="#232b3f" stroke-width="6" fill="none" stroke-linejoin="round"/></g>
<g fill="#7a8aa0" opacity="0.9"><circle cx="104" cy="106" r="8"/><circle cx="130" cy="106" r="8"/><circle cx="156" cy="106" r="8"/></g>
</svg>