<svg xmlns="http://www.w3.org/2000/svg" width="1280" height="848" viewBox="0 0 1280 848">
<defs>
  <linearGradient id="bg" x1="0" y1="0" x2="1" y2="1"><stop stop-color="#102a43"/><stop offset="1" stop-color="#286a8d"/></linearGradient>
  <radialGradient id="glow"><stop stop-color="#ffb45b" stop-opacity=".72"/><stop offset="1" stop-color="#ffb45b" stop-opacity="0"/></radialGradient>
</defs>
<rect width="1280" height="848" fill="url(#bg)"/>
<circle cx="314" cy="264" r="390" fill="url(#glow)"/>
<circle cx="922" cy="357" r="176" fill="#e1f4ff" opacity="0.212"/><circle cx="995" cy="185" r="213" fill="#e1f4ff" opacity="0.165"/><circle cx="443" cy="646" r="162" fill="#e1f4ff" opacity="0.165"/><circle cx="948" cy="444" r="102" fill="#e1f4ff" opacity="0.175"/><circle cx="1133" cy="444" r="114" fill="#e1f4ff" opacity="0.092"/><circle cx="1172" cy="487" r="255" fill="#e1f4ff" opacity="0.172"/><circle cx="961" cy="131" r="223" fill="#e1f4ff" opacity="0.209"/>
<path d="M0 633 C260 483 450 743 690 588S1080 593 1280 503V848H0Z" fill="#102a43" opacity=".28"/>
<path d="M640 620C470 545 455 342 640 225c185 117 170 320 0 395Z" fill="#e1f4ff" opacity=".74"/>
<path d="M640 590V275M640 430c-68-10-114-48-146-102M640 472c76-11 125-56 158-121" fill="none" stroke="#ffb45b" stroke-width="18" stroke-linecap="round"/>
<g fill="#ffb45b" opacity=".9"><circle cx="104" cy="106" r="8"/><circle cx="130" cy="106" r="8"/><circle cx="156" cy="106" r="8"/></g>
</svg>