<svg xmlns="http://www.w3.org/2000/svg" width="1280" height="848" viewBox="0 0 1280 848">
<defs>
  <filter id="ds" x="-20%" y="-20%" width="140%" height="140%"><feDropShadow dx="0" dy="10" stdDeviation="10" flood-color="#000000" flood-opacity="0.18"/></filter>
  <filter id="fibre"><feTurbulence type="fractalNoise" baseFrequency="0.9" numOctaves="2" result="n"/><feColorMatrix in="n" type="saturate" values="0"/><feComponentTransfer><feFuncA type="linear" slope="0.05"/></feComponentTransfer><feComposite operator="in" in2="SourceGraphic"/></filter>
</defs>
<rect width="1280" height="848" fill="#f3ece1"/>
<g filter="url(#ds)">
<polygon points="63.0 60 146.1 59 216.2 62 284.3 60 347.4 54 434.6 55 504.7 63 566.8 67 638.9 59 702.0 60 705.0 530 644.9 532 570.8 523 503.7 524 421.6 525 362.4 527 290.3 533 205.2 537 148.1 525 79.0 530 710.0 530.0 638.9 469.8 567.8 427.6 496.7 370.3 425.6 320.1 354.4 268.9 283.3 217.7 212.2 171.4 141.1 107.2 70.0 55.0 70.0 53.0 141.1 103.2 212.2 160.4 283.3 222.7 354.4 275.9 425.6 316.1 496.7 369.3 567.8 424.6 638.9 484.8 710.0 521.0" fill="#e3e9f0" stroke="#232b3f" stroke-width="2.4" stroke-dasharray="2 6" stroke-linecap="round" transform="rotate(-3.5 390.0 295.0)"/>
<polygon points="561.0 240 626.3 234 715.7 235 788.0 243 852.3 247 926.7 239 992.0 237 1075.3 241 1143.7 236 1219.0 240 1227.0 760 1142.7 755 1081.3 757 1007.0 763 919.7 767 860.3 755 789.0 760 710.7 764 627.3 753 553.0 760 1220.0 757.0 1146.7 701.2 1073.3 644.4 1000.0 587.7 926.7 535.9 853.3 466.1 780.0 408.3 706.7 348.6 633.3 303.8 560.0 235.0 560.0 246.0 633.3 304.8 706.7 350.6 780.0 409.3 853.3 470.1 926.7 535.9 1000.0 577.7 1073.3 636.4 1146.7 703.2 1220.0 760.0" fill="#7a8aa0" stroke="#232b3f" stroke-width="2.4" stroke-dasharray="2 6" stroke-linecap="round" transform="rotate(4.0 890.0 500.0)"/>
<polygon points="368.0 380 421.2 387 484.4 379 538.7 377 610.9 381 668.1 376 732.3 379 795.6 387 858.8 377 927.0 380 927.0 780 850.8 787 802.6 775 742.3 780 675.1 784 602.9 773 539.7 779 489.4 781 426.2 778 361.0 780 920.0 781.0 857.8 742.6 795.6 686.1 733.3 641.7 671.1 595.2 608.9 563.8 546.7 508.3 484.4 474.9 422.2 427.4 360.0 387.0 360.0 376.0 422.2 423.4 484.4 475.9 546.7 504.3 608.9 549.8 671.1 603.2 733.3 646.7 795.6 699.1 857.8 733.6 920.0 783.0" fill="#43506b" stroke="#232b3f" stroke-width="2.4" stroke-dasharray="2 6" stroke-linecap="round" transform="rotate(-1.5 640.0 580.0)"/>
</g>
<path d="M612 488 L600 532 L571 564 L532 571 L493 592 L464 558 L433 531 L425 488 L421 439 L454 405 L496 395 L535 394 L572 410 L608 439 Z" fill="#e3e9f0" opacity="0.16"/><path d="M916 371 L880 427 L855 484 L801 510 L738 533 L683 492 L657 431 L643 371 L651 308 L678 243 L739 213 L805 214 L849 266 L888 310 Z" fill="#7a8aa0" opacity="0.16"/><path d="M535 506 L500 601 L431 659 L359 699 L277 707 L187 686 L129 605 L111 506 L162 424 L206 351 L279 317 L355 333 L425 361 L505 409 Z" fill="#e3e9f0" opacity="0.16"/><path d="M603 182 L605 295 L537 384 L441 432 L345 391 L261 357 L207 277 L205 182 L215 91 L243 -17 L343 -36 L430 -16 L508 20 L600 72 Z" fill="#7a8aa0" opacity="0.16"/><path d="M772 596 L762 680 L710 744 L637 765 L564 773 L475 768 L440 680 L439 596 L452 518 L475 424 L558 391 L639 415 L706 452 L778 503 Z" fill="#e3e9f0" opacity="0.16"/>
<g filter="url(#fibre)" opacity="0.6"><rect width="1280" height="848" fill="#232b3f"/></g>
<circle cx="179" cy="248" r="1.4" fill="#232b3f" opacity="0.25"/><circle cx="248" cy="171" r="1.4" fill="#232b3f" opacity="0.25"/><circle cx="171" cy="339" r="1.4" fill="#232b3f" opacity="0.25"/><circle cx="339" cy="217" r="1.4" fill="#232b3f" opacity="0.25"/><circle cx="217" cy="271" r="1.4" fill="#232b3f" opacity="0.25"/><circle cx="271" cy="137" r="1.4" fill="#232b3f" opacity="0.25"/><circle cx="137" cy="280" r="1.4" fill="#232b3f" opacity="0.25"/><circle cx="280" cy="224" r="1.4" fill="#232b3f" opacity="0.25"/><circle cx="224" cy="216" r="1.4" fill="#232b3f" opacity="0.25"/><circle cx="216" cy="169" r="1.4" fill="#232b3f" opacity="0.25"/><circle cx="169" cy="278" r="1.4" fill="#232b3f" opacity="0.25"/><circle cx="278" cy="318" r="1.4" fill="#232b3f" opacity="0.25"/><circle cx="318" cy="186" r="1.4" fill="#232b3f" opacity="0.25"/><circle cx="186" cy="149" r="1.4" fill="#232b3f" opacity="0.25"/><circle cx="149" cy="364" r="1.4" fill="#232b3f" opacity="0.25"/><circle cx="364" cy="238" r="1.4" fill="#232b3f" opacity="0.25"/><circle cx="238" cy="314" r="1.4" fill="#232b3f" opacity="0.25"/><circle cx="314" cy="312" r="1.4" fill="#232b3f" opacity="0.25"/><circle cx="312" cy="268" r="1.4" fill="#232b3f" opacity="0.25"/><circle cx="268" cy="200" r="1.4" fill="#232b3f" opacity="0.25"/><circle cx="200" cy="363" r="1.4" fill="#232b3f" opacity="0.25"/><circle cx="363" cy="170" r="1.4" fill="#232b3f" opacity="0.25"/><circle cx="170" cy="269" r="1.4" fill="#232b3f" opacity="0.25"/><circle cx="269" cy="163" r="1.4" fill="#232b3f" opacity="0.25"/><circle cx="163" cy="327" r="1.4" fill="#232b3f" opacity="0.25"/><circle cx="327" cy="250" r="1.4" fill="#232b3f" opacity="0.25"/><circle cx="250" cy="274" r="1.4" fill="#232b3f" opacity="0.25"/><circle cx="274" cy="345" r="1.4" fill="#232b3f" opacity="0.25"/><circle cx="345" cy="252" r="1.4" fill="#232b3f" opacity="0.25"/><circle cx="252" cy="247" r="1.4" fill="#232b3f" opacity="0.25"/><circle cx="247" cy="123" r="1.4" fill="#232b3f" opacity="0.25"/><circle cx="123" cy="179" r="1.4" fill="#232b3f" opacity="0.25"/><circle cx="179" cy="248" r="1.4" fill="#232b3f" opacity="0.25"/><circle cx="248" cy="171" r="1.4" fill="#232b3f" opacity="0.25"/><circle cx="171" cy="339" r="1.4" fill="#232b3f" opacity="0.25"/><circle cx="339" cy="217" r="1.4" fill="#232b3f" opacity="0.25"/>
<g data-collage-motif="hälsa"><circle cx="540" cy="420" r="40" fill="#7a8aa0"/><circle cx="740" cy="400" r="34" fill="#7a8aa0" opacity="0.86"/><circle cx="650" cy="560" r="30" fill="#7a8aa0" opacity="0.8"/><path d="M540 420 L740 400 L650 560 Z" stroke="#232b3f" stroke-width="6" fill="none" stroke-linejoin="round"/></g>
<g fill="#7a8aa0" opacity="0.9"><circle cx="104" cy="106" r="8"/><circle cx="130" cy="106" r="8"/><circle cx="156" cy="106" r="8"/></g>
</svg>