<svg xmlns="http://www.w3.org/2000/svg" width="1280" height="848" viewBox="0 0 1280 848" data-palette="halsa-1" data-motif-variant="0">
<defs>
  <filter id="ds" x="-20%" y="-20%" width="140%" height="140%"><feDropShadow dx="0" dy="10" stdDeviation="10" flood-color="#000000" flood-opacity="0.18"/></filter>
  <filter id="fibre"><feTurbulence type="fractalNoise" baseFrequency="0.9" numOctaves="2" result="n"/><feColorMatrix in="n" type="saturate" values="0"/><feComponentTransfer><feFuncA type="linear" slope="0.05"/></feComponentTransfer><feComposite operator="in" in2="SourceGraphic"/></filter>
</defs>
<rect width="1280" height="848" fill="#f3ece1"/>
<g filter="url(#ds)">
<polygon points="71.0 68 140.7 68 220.3 68 285.0 67 364.7 66 437.3 66 504.0 68 576.7 66 631.3 64 712.0 68 715.0 537 633.3 537 561.7 543 496.0 536 427.3 542 366.7 533 280.0 535 209.3 533 148.7 541 69.0 537 711.0 528.0 640.3 485.9 569.7 440.8 499.0 389.7 428.3 332.6 357.7 274.4 287.0 227.3 216.3 166.2 145.7 126.1 75.0 73.0 75.0 65.0 145.7 126.1 216.3 164.2 287.0 219.3 357.7 280.4 428.3 333.6 499.0 376.7 569.7 434.8 640.3 477.9 711.0 528.0" fill="#fbe6cf" stroke="#5e2813" stroke-width="2.4" stroke-dasharray="2 6" stroke-linecap="round" transform="rotate(-2.5 393.0 302.5)"/>
<polygon points="567.0 227 650.4 225 726.9 225 797.3 227 873.8 225 932.2 223 1016.7 226 1098.1 229 1173.6 234 1243.0 227 1236.0 725 1163.6 730 1099.1 721 1008.7 723 934.2 721 869.8 729 786.3 722 725.9 725 648.4 726 565.0 725 1239.0 734.0 1164.6 673.7 1090.1 612.3 1015.7 562.0 941.2 497.7 866.8 454.3 792.3 398.0 717.9 335.7 643.4 283.3 569.0 231.0 569.0 222.0 643.4 286.3 717.9 342.7 792.3 389.0 866.8 450.3 941.2 496.7 1015.7 550.0 1090.1 609.3 1164.6 662.7 1239.0 734.0" fill="#e89b5b" stroke="#5e2813" stroke-width="2.4" stroke-dasharray="2 6" stroke-linecap="round" transform="rotate(2.0 904.0 476.0)"/>
<polygon points="379.0 385 442.9 383 488.8 381 560.7 384 629.6 387 692.4 392 749.3 385 805.2 383 872.1 386 925.0 385 924.0 789 862.1 785 810.2 793 739.3 786 691.4 789 626.6 790 555.7 790 492.8 789 439.9 789 372.0 789 931.0 792.0 869.1 738.1 807.2 705.2 745.3 659.3 683.4 607.4 621.6 565.6 559.7 523.7 497.8 467.8 435.9 421.9 374.0 382.0 374.0 381.0 435.9 431.9 497.8 467.8 559.7 510.7 621.6 559.6 683.4 602.4 745.3 663.3 807.2 698.2 869.1 736.1 931.0 780.0" fill="#a8431f" stroke="#5e2813" stroke-width="2.4" stroke-dasharray="2 6" stroke-linecap="round" transform="rotate(-4.5 652.5 587.0)"/>
</g>
<path d="M738 536 L726 617 L687 692 L608 708 L538 700 L449 703 L429 611 L410 536 L400 446 L465 390 L539 378 L609 360 L684 383 L718 460 Z" fill="#fbe6cf" opacity="0.16"/><path d="M974 348 L988 403 L941 428 L903 450 L857 469 L818 435 L802 390 L783 348 L785 297 L822 266 L859 238 L908 224 L961 241 L967 303 Z" fill="#e89b5b" opacity="0.16"/><path d="M403 584 L377 642 L333 675 L292 710 L237 721 L194 683 L153 643 L125 584 L129 513 L195 487 L237 447 L294 448 L338 486 L367 531 Z" fill="#fbe6cf" opacity="0.16"/><path d="M282 235 L256 292 L229 345 L181 390 L113 401 L75 335 L27 298 L15 235 L41 179 L75 136 L115 77 L177 95 L224 132 L261 176 Z" fill="#e89b5b" opacity="0.16"/><path d="M477 574 L406 651 L374 733 L299 770 L221 750 L157 712 L71 672 L73 574 L105 494 L149 425 L220 394 L306 344 L360 435 L402 498 Z" fill="#fbe6cf" opacity="0.16"/>
<g filter="url(#fibre)" opacity="0.6"><rect width="1280" height="848" fill="#5e2813"/></g>
<circle cx="201" cy="276" r="1.4" fill="#5e2813" opacity="0.25"/><circle cx="276" cy="247" r="1.4" fill="#5e2813" opacity="0.25"/><circle cx="247" cy="127" r="1.4" fill="#5e2813" opacity="0.25"/><circle cx="127" cy="231" r="1.4" fill="#5e2813" opacity="0.25"/><circle cx="231" cy="290" r="1.4" fill="#5e2813" opacity="0.25"/><circle cx="290" cy="305" r="1.4" fill="#5e2813" opacity="0.25"/><circle cx="305" cy="307" r="1.4" fill="#5e2813" opacity="0.25"/><circle cx="307" cy="215" r="1.4" fill="#5e2813" opacity="0.25"/><circle cx="215" cy="168" r="1.4" fill="#5e2813" opacity="0.25"/><circle cx="168" cy="156" r="1.4" fill="#5e2813" opacity="0.25"/><circle cx="156" cy="309" r="1.4" fill="#5e2813" opacity="0.25"/><circle cx="309" cy="209" r="1.4" fill="#5e2813" opacity="0.25"/><circle cx="209" cy="127" r="1.4" fill="#5e2813" opacity="0.25"/><circle cx="127" cy="170" r="1.4" fill="#5e2813" opacity="0.25"/><circle cx="170" cy="218" r="1.4" fill="#5e2813" opacity="0.25"/><circle cx="218" cy="154" r="1.4" fill="#5e2813" opacity="0.25"/><circle cx="154" cy="305" r="1.4" fill="#5e2813" opacity="0.25"/><circle cx="305" cy="317" r="1.4" fill="#5e2813" opacity="0.25"/><circle cx="317" cy="244" r="1.4" fill="#5e2813" opacity="0.25"/><circle cx="244" cy="342" r="1.4" fill="#5e2813" opacity="0.25"/><circle cx="342" cy="160" r="1.4" fill="#5e2813" opacity="0.25"/><circle cx="160" cy="292" r="1.4" fill="#5e2813" opacity="0.25"/><circle cx="292" cy="316" r="1.4" fill="#5e2813" opacity="0.25"/><circle cx="316" cy="128" r="1.4" fill="#5e2813" opacity="0.25"/><circle cx="128" cy="347" r="1.4" fill="#5e2813" opacity="0.25"/><circle cx="347" cy="236" r="1.4" fill="#5e2813" opacity="0.25"/><circle cx="236" cy="369" r="1.4" fill="#5e2813" opacity="0.25"/><circle cx="369" cy="341" r="1.4" fill="#5e2813" opacity="0.25"/><circle cx="341" cy="123" r="1.4" fill="#5e2813" opacity="0.25"/><circle cx="123" cy="175" r="1.4" fill="#5e2813" opacity="0.25"/><circle cx="175" cy="172" r="1.4" fill="#5e2813" opacity="0.25"/><circle cx="172" cy="201" r="1.4" fill="#5e2813" opacity="0.25"/><circle cx="201" cy="276" r="1.4" fill="#5e2813" opacity="0.25"/><circle cx="276" cy="247" r="1.4" fill="#5e2813" opacity="0.25"/><circle cx="247" cy="127" r="1.4" fill="#5e2813" opacity="0.25"/><circle cx="127" cy="231" r="1.4" fill="#5e2813" opacity="0.25"/>
<g data-collage-motif="halsa"><path d="M400 440 H560 L600 320 L660 560 L700 440 H880" stroke="#5e2813" stroke-width="9" fill="none" stroke-linecap="round" stroke-linejoin="round"/><circle cx="640" cy="440" r="40" fill="#e89b5b" opacity="0.8"/></g>
<g fill="#e89b5b" opacity="0.9"><circle cx="104" cy="106" r="8"/><circle cx="130" cy="106" r="8"/><circle cx="156" cy="106" r="8"/></g>
</svg>