<svg xmlns="http://www.w3.org/2000/svg" width="1280" height="848" viewBox="0 0 1280 848">
<defs>
  <filter id="ds" x="-20%" y="-20%" width="140%" height="140%"><feDropShadow dx="0" dy="10" stdDeviation="10" flood-color="#000000" flood-opacity="0.18"/></filter>
  <filter id="fibre"><feTurbulence type="fractalNoise" baseFrequency="0.9" numOctaves="2" result="n"/><feColorMatrix in="n" type="saturate" values="0"/><feComponentTransfer><feFuncA type="linear" slope="0.05"/></feComponentTransfer><feComposite operator="in" in2="SourceGraphic"/></filter>
</defs>
<rect width="1280" height="848" fill="#f3ece1"/>
<g filter="url(#ds)">
<polygon points="61.0 60 140.1 58 218.2 53 285.3 58 346.4 53 418.6 66 491.7 53 571.8 64 636.9 55 702.0 60 711.0 530 643.9 523 573.8 536 499.7 532 432.6 527 356.4 532 292.3 532 206.2 535 140.1 532 62.0 530 710.0 528.0 638.9 469.8 567.8 424.6 496.7 376.3 425.6 312.1 354.4 265.9 283.3 220.7 212.2 157.4 141.1 117.2 70.0 67.0 70.0 61.0 141.1 120.2 212.2 165.4 283.3 217.7 354.4 277.9 425.6 322.1 496.7 367.3 567.8 423.6 638.9 485.8 710.0 537.0" fill="#e3e9f0" stroke="#232b3f" stroke-width="2.4" stroke-dasharray="2 6" stroke-linecap="round" transform="rotate(-3.5 390.0 295.0)"/>
<polygon points="562.0 240 625.3 233 699.7 246 775.0 233 857.3 244 924.7 235 992.0 245 1072.3 239 1149.7 245 1211.0 240 1223.0 760 1153.7 757 1075.3 762 1009.0 762 920.7 765 852.3 762 772.0 765 705.7 758 632.3 753 551.0 760 1220.0 763.0 1146.7 693.2 1073.3 641.4 1000.0 590.7 926.7 521.9 853.3 476.1 780.0 420.3 706.7 354.6 633.3 289.8 560.0 241.0 560.0 241.0 633.3 306.8 706.7 356.6 780.0 407.3 853.3 469.1 926.7 536.9 1000.0 593.7 1073.3 649.4 1146.7 698.2 1220.0 762.0" fill="#7a8aa0" stroke="#232b3f" stroke-width="2.4" stroke-dasharray="2 6" stroke-linecap="round" transform="rotate(4.0 890.0 500.0)"/>
<polygon points="355.0 380 426.2 384 482.4 375 538.7 385 607.9 379 674.1 385 724.3 378 792.6 380 861.8 384 913.0 380 929.0 780 851.8 785 794.6 782 725.3 785 670.1 778 607.9 773 537.7 780 483.4 782 428.2 787 362.0 780 920.0 784.0 857.8 728.6 795.6 696.1 733.3 653.7 671.1 601.2 608.9 549.8 546.7 514.3 484.4 473.9 422.2 430.4 360.0 383.0 360.0 374.0 422.2 422.4 484.4 476.9 546.7 520.3 608.9 562.8 671.1 598.2 733.3 648.7 795.6 699.1 857.8 736.6 920.0 777.0" fill="#43506b" stroke="#232b3f" stroke-width="2.4" stroke-dasharray="2 6" stroke-linecap="round" transform="rotate(-1.5 640.0 580.0)"/>
</g>
<path d="M363 448 L310 505 L278 552 L237 622 L168 606 L102 583 L80 511 L50 448 L59 373 L122 340 L166 279 L234 293 L295 320 L355 367 Z" fill="#e3e9f0" opacity="0.16"/><path d="M919 175 L914 239 L863 272 L820 311 L762 317 L725 267 L670 239 L668 175 L677 115 L701 52 L764 42 L817 57 L873 65 L923 106 Z" fill="#7a8aa0" opacity="0.16"/><path d="M352 426 L319 472 L307 531 L255 546 L204 550 L147 539 L127 480 L128 426 L124 370 L147 313 L202 290 L253 317 L313 313 L336 370 Z" fill="#e3e9f0" opacity="0.16"/><path d="M1146 428 L1149 508 L1088 553 L1025 567 L962 588 L890 573 L848 505 L864 428 L843 348 L902 300 L967 289 L1033 254 L1102 283 L1109 369 Z" fill="#7a8aa0" opacity="0.16"/><path d="M941 197 L942 273 L894 330 L825 330 L761 368 L708 319 L685 256 L641 197 L652 121 L723 96 L764 39 L826 61 L880 84 L924 131 Z" fill="#e3e9f0" opacity="0.16"/>
<g filter="url(#fibre)" opacity="0.6"><rect width="1280" height="848" fill="#232b3f"/></g>
<circle cx="329" cy="337" r="1.4" fill="#232b3f" opacity="0.25"/><circle cx="337" cy="230" r="1.4" fill="#232b3f" opacity="0.25"/><circle cx="230" cy="150" r="1.4" fill="#232b3f" opacity="0.25"/><circle cx="150" cy="140" r="1.4" fill="#232b3f" opacity="0.25"/><circle cx="140" cy="255" r="1.4" fill="#232b3f" opacity="0.25"/><circle cx="255" cy="238" r="1.4" fill="#232b3f" opacity="0.25"/><circle cx="238" cy="285" r="1.4" fill="#232b3f" opacity="0.25"/><circle cx="285" cy="146" r="1.4" fill="#232b3f" opacity="0.25"/><circle cx="146" cy="197" r="1.4" fill="#232b3f" opacity="0.25"/><circle cx="197" cy="147" r="1.4" fill="#232b3f" opacity="0.25"/><circle cx="147" cy="246" r="1.4" fill="#232b3f" opacity="0.25"/><circle cx="246" cy="177" r="1.4" fill="#232b3f" opacity="0.25"/><circle cx="177" cy="335" r="1.4" fill="#232b3f" opacity="0.25"/><circle cx="335" cy="247" r="1.4" fill="#232b3f" opacity="0.25"/><circle cx="247" cy="236" r="1.4" fill="#232b3f" opacity="0.25"/><circle cx="236" cy="286" r="1.4" fill="#232b3f" opacity="0.25"/><circle cx="286" cy="155" r="1.4" fill="#232b3f" opacity="0.25"/><circle cx="155" cy="223" r="1.4" fill="#232b3f" opacity="0.25"/><circle cx="223" cy="273" r="1.4" fill="#232b3f" opacity="0.25"/><circle cx="273" cy="263" r="1.4" fill="#232b3f" opacity="0.25"/><circle cx="263" cy="286" r="1.4" fill="#232b3f" opacity="0.25"/><circle cx="286" cy="344" r="1.4" fill="#232b3f" opacity="0.25"/><circle cx="344" cy="151" r="1.4" fill="#232b3f" opacity="0.25"/><circle cx="151" cy="155" r="1.4" fill="#232b3f" opacity="0.25"/><circle cx="155" cy="340" r="1.4" fill="#232b3f" opacity="0.25"/><circle cx="340" cy="290" r="1.4" fill="#232b3f" opacity="0.25"/><circle cx="290" cy="275" r="1.4" fill="#232b3f" opacity="0.25"/><circle cx="275" cy="242" r="1.4" fill="#232b3f" opacity="0.25"/><circle cx="242" cy="140" r="1.4" fill="#232b3f" opacity="0.25"/><circle cx="140" cy="242" r="1.4" fill="#232b3f" opacity="0.25"/><circle cx="242" cy="204" r="1.4" fill="#232b3f" opacity="0.25"/><circle cx="204" cy="329" r="1.4" fill="#232b3f" opacity="0.25"/><circle cx="329" cy="337" r="1.4" fill="#232b3f" opacity="0.25"/><circle cx="337" cy="230" r="1.4" fill="#232b3f" opacity="0.25"/><circle cx="230" cy="150" r="1.4" fill="#232b3f" opacity="0.25"/><circle cx="150" cy="140" r="1.4" fill="#232b3f" opacity="0.25"/>
<g data-collage-motif="hälsa"><circle cx="540" cy="420" r="40" fill="#7a8aa0"/><circle cx="740" cy="400" r="34" fill="#7a8aa0" opacity="0.86"/><circle cx="650" cy="560" r="30" fill="#7a8aa0" opacity="0.8"/><path d="M540 420 L740 400 L650 560 Z" stroke="#232b3f" stroke-width="6" fill="none" stroke-linejoin="round"/></g>
<g fill="#7a8aa0" opacity="0.9"><circle cx="104" cy="106" r="8"/><circle cx="130" cy="106" r="8"/><circle cx="156" cy="106" r="8"/></g>
</svg>