<svg xmlns="http://www.w3.org/2000/svg" width="1280" height="848" viewBox="0 0 1280 848" data-palette="halsa-2" data-motif-variant="0">
<defs>
  <filter id="ds" x="-20%" y="-20%" width="140%" height="140%"><feDropShadow dx="0" dy="10" stdDeviation="10" flood-color="#000000" flood-opacity="0.18"/></filter>
  <filter id="fibre"><feTurbulence type="fractalNoise" baseFrequency="0.9" numOctaves="2" result="n"/><feColorMatrix in="n" type="saturate" values="0"/><feComponentTransfer><feFuncA type="linear" slope="0.05"/></feComponentTransfer><feComposite operator="in" in2="SourceGraphic"/></filter>
</defs>
<rect width="1280" height="848" fill="#f3ece1"/>
<g filter="url(#ds)">
<polygon points="94.0 53 161.3 57 229.7 51 302.0 49 362.3 51 449.7 46 503.0 54 583.3 51 645.7 49 717.0 53 731.0 568 660.7 562 585.3 573 507.0 564 442.7 570 366.3 566 297.0 565 221.7 566 167.3 572 83.0 568 723.0 561.0 652.7 504.8 582.3 447.6 512.0 394.3 441.7 340.1 371.3 280.9 301.0 220.7 230.7 172.4 160.3 119.2 90.0 55.0 90.0 46.0 160.3 117.2 230.7 158.4 301.0 233.7 371.3 277.9 441.7 338.1 512.0 397.3 582.3 452.6 652.7 519.8 723.0 560.0" fill="#f6dcf1" stroke="#3f1538" stroke-width="2.4" stroke-dasharray="2 6" stroke-linecap="round" transform="rotate(-2.5 406.5 310.5)"/>
<polygon points="567.0 258 631.9 256 723.8 251 781.7 259 866.6 256 933.4 254 1009.3 264 1084.2 261 1163.1 262 1241.0 258 1235.0 752 1166.1 754 1085.2 750 1011.3 749 931.4 750 872.6 756 783.7 752 724.8 752 631.9 747 570.0 752 1240.0 750.0 1165.1 698.1 1090.2 641.2 1015.3 583.3 940.4 537.4 865.6 486.6 790.7 424.7 715.8 367.8 640.9 303.9 566.0 266.0 566.0 267.0 640.9 308.9 715.8 366.8 790.7 423.7 865.6 476.6 940.4 541.4 1015.3 579.3 1090.2 651.2 1165.1 696.1 1240.0 759.0" fill="#c87ab8" stroke="#3f1538" stroke-width="2.4" stroke-dasharray="2 6" stroke-linecap="round" transform="rotate(2.0 903.0 505.0)"/>
<polygon points="384.0 369 456.6 367 511.1 365 574.7 375 637.2 372 703.8 373 769.3 365 829.9 366 889.4 376 961.0 369 952.0 740 884.4 738 837.9 744 761.3 740 714.8 740 634.2 735 584.7 739 519.1 736 454.6 742 394.0 740 956.0 736.0 893.4 703.8 830.9 666.6 768.3 618.3 705.8 575.1 643.2 524.9 580.7 500.7 518.1 459.4 455.6 413.2 393.0 364.0 393.0 370.0 455.6 409.2 518.1 460.4 580.7 484.7 643.2 542.9 705.8 574.1 768.3 623.3 830.9 663.6 893.4 704.8 956.0 742.0" fill="#7a2f6b" stroke="#3f1538" stroke-width="2.4" stroke-dasharray="2 6" stroke-linecap="round" transform="rotate(-4.5 674.5 554.5)"/>
</g>
<path d="M1122 724 L1136 770 L1102 796 L1068 813 L1032 806 L992 802 L988 756 L952 724 L977 687 L1005 664 L1031 641 L1068 635 L1099 656 L1124 685 Z" fill="#f6dcf1" opacity="0.16"/><path d="M782 687 L787 731 L746 745 L725 791 L685 772 L659 747 L631 725 L618 687 L631 649 L651 616 L681 584 L721 602 L748 625 L775 649 Z" fill="#c87ab8" opacity="0.16"/><path d="M1031 699 L1006 751 L983 803 L936 837 L879 830 L827 808 L772 769 L783 699 L806 646 L831 595 L879 567 L938 550 L996 578 L1033 633 Z" fill="#f6dcf1" opacity="0.16"/><path d="M1014 647 L1008 690 L992 736 L946 739 L910 730 L874 720 L848 688 L829 647 L837 600 L866 563 L907 553 L949 541 L981 573 L1000 609 Z" fill="#c87ab8" opacity="0.16"/><path d="M710 232 L708 299 L670 355 L616 404 L543 407 L479 370 L448 301 L415 232 L451 165 L496 118 L545 65 L611 87 L673 105 L698 170 Z" fill="#f6dcf1" opacity="0.16"/>
<g filter="url(#fibre)" opacity="0.6"><rect width="1280" height="848" fill="#3f1538"/></g>
<circle cx="342" cy="263" r="1.4" fill="#3f1538" opacity="0.25"/><circle cx="263" cy="356" r="1.4" fill="#3f1538" opacity="0.25"/><circle cx="356" cy="320" r="1.4" fill="#3f1538" opacity="0.25"/><circle cx="320" cy="348" r="1.4" fill="#3f1538" opacity="0.25"/><circle cx="348" cy="365" r="1.4" fill="#3f1538" opacity="0.25"/><circle cx="365" cy="120" r="1.4" fill="#3f1538" opacity="0.25"/><circle cx="120" cy="263" r="1.4" fill="#3f1538" opacity="0.25"/><circle cx="263" cy="350" r="1.4" fill="#3f1538" opacity="0.25"/><circle cx="350" cy="123" r="1.4" fill="#3f1538" opacity="0.25"/><circle cx="123" cy="313" r="1.4" fill="#3f1538" opacity="0.25"/><circle cx="313" cy="355" r="1.4" fill="#3f1538" opacity="0.25"/><circle cx="355" cy="206" r="1.4" fill="#3f1538" opacity="0.25"/><circle cx="206" cy="318" r="1.4" fill="#3f1538" opacity="0.25"/><circle cx="318" cy="334" r="1.4" fill="#3f1538" opacity="0.25"/><circle cx="334" cy="134" r="1.4" fill="#3f1538" opacity="0.25"/><circle cx="134" cy="233" r="1.4" fill="#3f1538" opacity="0.25"/><circle cx="233" cy="169" r="1.4" fill="#3f1538" opacity="0.25"/><circle cx="169" cy="243" r="1.4" fill="#3f1538" opacity="0.25"/><circle cx="243" cy="291" r="1.4" fill="#3f1538" opacity="0.25"/><circle cx="291" cy="365" r="1.4" fill="#3f1538" opacity="0.25"/><circle cx="365" cy="327" r="1.4" fill="#3f1538" opacity="0.25"/><circle cx="327" cy="208" r="1.4" fill="#3f1538" opacity="0.25"/><circle cx="208" cy="257" r="1.4" fill="#3f1538" opacity="0.25"/><circle cx="257" cy="206" r="1.4" fill="#3f1538" opacity="0.25"/><circle cx="206" cy="200" r="1.4" fill="#3f1538" opacity="0.25"/><circle cx="200" cy="144" r="1.4" fill="#3f1538" opacity="0.25"/><circle cx="144" cy="310" r="1.4" fill="#3f1538" opacity="0.25"/><circle cx="310" cy="174" r="1.4" fill="#3f1538" opacity="0.25"/><circle cx="174" cy="198" r="1.4" fill="#3f1538" opacity="0.25"/><circle cx="198" cy="157" r="1.4" fill="#3f1538" opacity="0.25"/><circle cx="157" cy="367" r="1.4" fill="#3f1538" opacity="0.25"/><circle cx="367" cy="342" r="1.4" fill="#3f1538" opacity="0.25"/><circle cx="342" cy="263" r="1.4" fill="#3f1538" opacity="0.25"/><circle cx="263" cy="356" r="1.4" fill="#3f1538" opacity="0.25"/><circle cx="356" cy="320" r="1.4" fill="#3f1538" opacity="0.25"/><circle cx="320" cy="348" r="1.4" fill="#3f1538" opacity="0.25"/>
<g data-collage-motif="halsa"><path d="M400 440 H560 L600 320 L660 560 L700 440 H880" stroke="#3f1538" stroke-width="9" fill="none" stroke-linecap="round" stroke-linejoin="round"/><circle cx="640" cy="440" r="40" fill="#c87ab8" opacity="0.8"/></g>
<g fill="#c87ab8" opacity="0.9"><circle cx="104" cy="106" r="8"/><circle cx="130" cy="106" r="8"/><circle cx="156" cy="106" r="8"/></g>
</svg>