<svg xmlns="http://www.w3.org/2000/svg" width="1280" height="848" viewBox="0 0 1280 848">
<defs>
  <linearGradient id="bg" x1="0" y1="0" x2="1" y2="1"><stop stop-color="#062f2b"/><stop offset="1" stop-color="#0e7467"/></linearGradient>
  <radialGradient id="glow"><stop stop-color="#f5c45d" stop-opacity=".72"/><stop offset="1" stop-color="#f5c45d" stop-opacity="0"/></radialGradient>
</defs>
<rect width="1280" height="848" fill="url(#bg)"/>
<circle cx="490" cy="287" r="390" fill="url(#glow)"/>
<circle cx="297" cy="287" r="100" fill="#d7fff4" opacity="0.217"/><circle cx="668" cy="568" r="82" fill="#d7fff4" opacity="0.222"/><circle cx="542" cy="668" r="179" fill="#d7fff4" opacity="0.167"/><circle cx="560" cy="689" r="176" fill="#d7fff4" opacity="0.126"/><circle cx="184" cy="452" r="105" fill="#d7fff4" opacity="0.207"/><circle cx="685" cy="279" r="201" fill="#d7fff4" opacity="0.096"/><circle cx="659" cy="625" r="109" fill="#d7fff4" opacity="0.162"/>
<path d="M0 658 C260 508 450 768 690 613S1080 618 1280 528V848H0Z" fill="#062f2b" opacity=".28"/>
<g fill="none" stroke="#d7fff4" stroke-width="18" opacity=".72">
  <ellipse cx="640" cy="424" rx="238" ry="112" transform="rotate(-18 640 424)"/>
  <ellipse cx="640" cy="424" rx="238" ry="112" transform="rotate(42 640 424)"/>
</g><circle cx="640" cy="424" r="54" fill="#f5c45d"/>
<g fill="#f5c45d" opacity=".9"><circle cx="104" cy="106" r="8"/><circle cx="130" cy="106" r="8"/><circle cx="156" cy="106" r="8"/></g>
</svg>