<svg xmlns="http://www.w3.org/2000/svg" width="1280" height="848" viewBox="0 0 1280 848">
<defs>
  <filter id="ds" x="-20%" y="-20%" width="140%" height="140%"><feDropShadow dx="0" dy="10" stdDeviation="10" flood-color="#000000" flood-opacity="0.18"/></filter>
  <filter id="fibre"><feTurbulence type="fractalNoise" baseFrequency="0.9" numOctaves="2" result="n"/><feColorMatrix in="n" type="saturate" values="0"/><feComponentTransfer><feFuncA type="linear" slope="0.05"/></feComponentTransfer><feComposite operator="in" in2="SourceGraphic"/></filter>
</defs>
<rect width="1280" height="848" fill="#f3ece1"/>
<g filter="url(#ds)">
<polygon points="63.0 60 138.1 56 221.2 66 284.3 65 352.4 66 424.6 60 492.7 62 574.8 67 635.9 53 701.0 60 709.0 530 642.9 525 565.8 528 499.7 532 420.6 523 355.4 529 283.3 530 207.2 532 140.1 526 66.0 530 710.0 527.0 638.9 468.8 567.8 421.6 496.7 366.3 425.6 318.1 354.4 274.9 283.3 221.7 212.2 158.4 141.1 118.2 70.0 62.0 70.0 61.0 141.1 116.2 212.2 159.4 283.3 213.7 354.4 275.9 425.6 324.1 496.7 364.3 567.8 424.6 638.9 479.8 710.0 531.0" fill="#e3e9f0" stroke="#232b3f" stroke-width="2.4" stroke-dasharray="2 6" stroke-linecap="round" transform="rotate(-3.5 390.0 295.0)"/>
<polygon points="561.0 240 631.3 246 705.7 240 776.0 242 860.3 247 923.7 233 991.0 240 1069.3 238 1139.7 240 1217.0 240 1223.0 760 1141.7 753 1074.3 759 1000.0 760 921.7 762 852.3 756 776.0 766 711.7 756 636.3 753 553.0 760 1220.0 753.0 1146.7 699.2 1073.3 650.4 1000.0 591.7 926.7 522.9 853.3 477.1 780.0 415.3 706.7 363.6 633.3 298.8 560.0 239.0 560.0 237.0 633.3 304.8 706.7 358.6 780.0 404.3 853.3 470.1 926.7 530.9 1000.0 587.7 1073.3 648.4 1146.7 695.2 1220.0 763.0" fill="#7a8aa0" stroke="#232b3f" stroke-width="2.4" stroke-dasharray="2 6" stroke-linecap="round" transform="rotate(4.0 890.0 500.0)"/>
<polygon points="356.0 380 429.2 387 481.4 373 537.7 380 604.9 378 664.1 380 730.3 378 801.6 377 862.8 382 914.0 380 920.0 780 852.8 782 794.6 776 729.3 786 676.1 776 611.9 773 539.7 774 481.4 784 431.2 774 361.0 780 920.0 785.0 857.8 729.6 795.6 697.1 733.3 648.7 671.1 610.2 608.9 558.8 546.7 512.3 484.4 472.9 422.2 422.4 360.0 383.0 360.0 371.0 422.2 423.4 484.4 470.9 546.7 514.3 608.9 561.8 671.1 595.2 733.3 649.7 795.6 700.1 857.8 739.6 920.0 787.0" fill="#43506b" stroke="#232b3f" stroke-width="2.4" stroke-dasharray="2 6" stroke-linecap="round" transform="rotate(-1.5 640.0 580.0)"/>
</g>
<path d="M712 368 L661 434 L640 510 L575 553 L494 567 L418 529 L393 443 L369 368 L400 297 L450 251 L501 199 L572 198 L632 237 L663 302 Z" fill="#e3e9f0" opacity="0.16"/><path d="M433 220 L424 264 L389 287 L358 308 L323 299 L298 278 L269 257 L261 220 L271 184 L297 161 L325 147 L361 122 L384 159 L418 179 Z" fill="#7a8aa0" opacity="0.16"/><path d="M874 687 L854 736 L835 789 L787 816 L734 811 L694 778 L665 737 L618 687 L662 636 L677 574 L736 571 L792 532 L831 590 L869 630 Z" fill="#e3e9f0" opacity="0.16"/><path d="M731 383 L702 453 L659 508 L612 593 L534 544 L452 541 L431 455 L365 383 L425 308 L463 240 L524 173 L613 168 L667 248 L745 291 Z" fill="#7a8aa0" opacity="0.16"/><path d="M846 709 L858 780 L799 813 L759 883 L694 845 L639 824 L579 784 L559 709 L607 648 L624 574 L696 582 L754 561 L822 574 L869 632 Z" fill="#e3e9f0" opacity="0.16"/>
<g filter="url(#fibre)" opacity="0.6"><rect width="1280" height="848" fill="#232b3f"/></g>
<circle cx="179" cy="373" r="1.4" fill="#232b3f" opacity="0.25"/><circle cx="373" cy="138" r="1.4" fill="#232b3f" opacity="0.25"/><circle cx="138" cy="358" r="1.4" fill="#232b3f" opacity="0.25"/><circle cx="358" cy="222" r="1.4" fill="#232b3f" opacity="0.25"/><circle cx="222" cy="223" r="1.4" fill="#232b3f" opacity="0.25"/><circle cx="223" cy="277" r="1.4" fill="#232b3f" opacity="0.25"/><circle cx="277" cy="174" r="1.4" fill="#232b3f" opacity="0.25"/><circle cx="174" cy="164" r="1.4" fill="#232b3f" opacity="0.25"/><circle cx="164" cy="120" r="1.4" fill="#232b3f" opacity="0.25"/><circle cx="120" cy="277" r="1.4" fill="#232b3f" opacity="0.25"/><circle cx="277" cy="350" r="1.4" fill="#232b3f" opacity="0.25"/><circle cx="350" cy="202" r="1.4" fill="#232b3f" opacity="0.25"/><circle cx="202" cy="230" r="1.4" fill="#232b3f" opacity="0.25"/><circle cx="230" cy="229" r="1.4" fill="#232b3f" opacity="0.25"/><circle cx="229" cy="294" r="1.4" fill="#232b3f" opacity="0.25"/><circle cx="294" cy="268" r="1.4" fill="#232b3f" opacity="0.25"/><circle cx="268" cy="359" r="1.4" fill="#232b3f" opacity="0.25"/><circle cx="359" cy="232" r="1.4" fill="#232b3f" opacity="0.25"/><circle cx="232" cy="225" r="1.4" fill="#232b3f" opacity="0.25"/><circle cx="225" cy="128" r="1.4" fill="#232b3f" opacity="0.25"/><circle cx="128" cy="133" r="1.4" fill="#232b3f" opacity="0.25"/><circle cx="133" cy="222" r="1.4" fill="#232b3f" opacity="0.25"/><circle cx="222" cy="189" r="1.4" fill="#232b3f" opacity="0.25"/><circle cx="189" cy="200" r="1.4" fill="#232b3f" opacity="0.25"/><circle cx="200" cy="149" r="1.4" fill="#232b3f" opacity="0.25"/><circle cx="149" cy="338" r="1.4" fill="#232b3f" opacity="0.25"/><circle cx="338" cy="352" r="1.4" fill="#232b3f" opacity="0.25"/><circle cx="352" cy="185" r="1.4" fill="#232b3f" opacity="0.25"/><circle cx="185" cy="296" r="1.4" fill="#232b3f" opacity="0.25"/><circle cx="296" cy="286" r="1.4" fill="#232b3f" opacity="0.25"/><circle cx="286" cy="341" r="1.4" fill="#232b3f" opacity="0.25"/><circle cx="341" cy="179" r="1.4" fill="#232b3f" opacity="0.25"/><circle cx="179" cy="373" r="1.4" fill="#232b3f" opacity="0.25"/><circle cx="373" cy="138" r="1.4" fill="#232b3f" opacity="0.25"/><circle cx="138" cy="358" r="1.4" fill="#232b3f" opacity="0.25"/><circle cx="358" cy="222" r="1.4" fill="#232b3f" opacity="0.25"/>
<g data-collage-motif="innovation"><circle cx="540" cy="420" r="40" fill="#7a8aa0"/><circle cx="740" cy="400" r="34" fill="#7a8aa0" opacity="0.86"/><circle cx="650" cy="560" r="30" fill="#7a8aa0" opacity="0.8"/><path d="M540 420 L740 400 L650 560 Z" stroke="#232b3f" stroke-width="6" fill="none" stroke-linejoin="round"/></g>
<g fill="#7a8aa0" opacity="0.9"><circle cx="104" cy="106" r="8"/><circle cx="130" cy="106" r="8"/><circle cx="156" cy="106" r="8"/></g>
</svg>