<svg xmlns="http://www.w3.org/2000/svg" width="1280" height="848" viewBox="0 0 1280 848" data-palette="teknik-2" data-motif-variant="0">
<defs>
  <filter id="ds" x="-20%" y="-20%" width="140%" height="140%"><feDropShadow dx="0" dy="10" stdDeviation="10" flood-color="#000000" flood-opacity="0.18"/></filter>
  <filter id="fibre"><feTurbulence type="fractalNoise" baseFrequency="0.9" numOctaves="2" result="n"/><feColorMatrix in="n" type="saturate" values="0"/><feComponentTransfer><feFuncA type="linear" slope="0.05"/></feComponentTransfer><feComposite operator="in" in2="SourceGraphic"/></filter>
</defs>
<rect width="1280" height="848" fill="#f3ece1"/>
<g filter="url(#ds)">
<polygon points="90.0 58 152.9 51 215.8 56 285.7 60 352.6 58 423.4 58 495.3 59 555.2 55 631.1 59 686.0 58 693.0 540 631.1 542 567.2 537 485.3 543 425.4 543 360.6 541 287.7 542 225.8 535 152.9 543 86.0 540 695.0 544.0 627.1 477.4 559.2 423.9 491.3 382.3 423.4 326.8 355.6 266.2 287.7 225.7 219.8 174.1 151.9 116.6 84.0 54.0 84.0 57.0 151.9 109.6 219.8 160.1 287.7 227.7 355.6 266.2 423.4 324.8 491.3 383.3 559.2 434.9 627.1 489.4 695.0 540.0" fill="#d4f1f2" stroke="#103038" stroke-width="2.4" stroke-dasharray="2 6" stroke-linecap="round" transform="rotate(-4.5 389.5 299.0)"/>
<polygon points="539.0 259 612.4 259 689.9 259 768.3 260 834.8 256 917.2 260 978.7 258 1053.1 259 1139.6 253 1212.0 259 1205.0 768 1138.6 771 1067.1 769 987.7 770 919.2 763 839.8 771 766.3 772 694.9 768 606.4 767 547.0 768 1211.0 771.0 1136.6 712.4 1062.1 648.9 987.7 605.3 913.2 550.8 838.8 490.2 764.3 424.7 689.9 370.1 615.4 310.6 541.0 257.0 541.0 268.0 615.4 309.6 689.9 371.1 764.3 432.7 838.8 487.2 913.2 544.8 987.7 598.3 1062.1 650.9 1136.6 715.4 1211.0 764.0" fill="#3fb0b8" stroke="#103038" stroke-width="2.4" stroke-dasharray="2 6" stroke-linecap="round" transform="rotate(4.0 876.0 513.5)"/>
<polygon points="355.0 363 409.3 360 479.7 364 529.0 362 591.3 363 665.7 357 726.0 360 781.3 366 856.7 365 921.0 363 912.0 795 855.7 790 788.3 798 727.0 799 667.7 795 591.3 794 544.0 795 476.7 802 409.3 797 349.0 795 912.0 802.0 849.7 756.0 787.3 704.0 725.0 647.0 662.7 601.0 600.3 550.0 538.0 505.0 475.7 463.0 413.3 419.0 351.0 357.0 351.0 367.0 413.3 413.0 475.7 462.0 538.0 507.0 600.3 551.0 662.7 607.0 725.0 647.0 787.3 708.0 849.7 756.0 912.0 792.0" fill="#1f4a5e" stroke="#103038" stroke-width="2.4" stroke-dasharray="2 6" stroke-linecap="round" transform="rotate(-2.5 631.5 579.0)"/>
</g>
<path d="M1223 466 L1228 546 L1165 590 L1112 648 L1040 626 L965 615 L937 538 L925 466 L957 405 L995 358 L1037 292 L1109 300 L1152 360 L1195 403 Z" fill="#d4f1f2" opacity="0.16"/><path d="M1173 571 L1178 627 L1135 659 L1093 679 L1050 665 L1016 645 L969 624 L963 571 L993 531 L1013 493 L1046 457 L1091 472 L1145 469 L1153 528 Z" fill="#3fb0b8" opacity="0.16"/><path d="M972 616 L953 687 L940 783 L859 815 L784 775 L717 752 L648 704 L653 616 L627 517 L717 480 L779 434 L856 429 L941 447 L984 528 Z" fill="#d4f1f2" opacity="0.16"/><path d="M595 436 L590 514 L562 599 L479 614 L394 665 L339 576 L284 519 L261 436 L259 340 L323 274 L396 218 L490 209 L552 287 L580 364 Z" fill="#3fb0b8" opacity="0.16"/><path d="M582 217 L528 279 L497 337 L441 371 L373 390 L314 347 L261 295 L237 217 L282 151 L332 113 L372 41 L437 85 L501 91 L536 151 Z" fill="#d4f1f2" opacity="0.16"/>
<g filter="url(#fibre)" opacity="0.6"><rect width="1280" height="848" fill="#103038"/></g>
<circle cx="173" cy="187" r="1.4" fill="#103038" opacity="0.25"/><circle cx="187" cy="315" r="1.4" fill="#103038" opacity="0.25"/><circle cx="315" cy="260" r="1.4" fill="#103038" opacity="0.25"/><circle cx="260" cy="354" r="1.4" fill="#103038" opacity="0.25"/><circle cx="354" cy="262" r="1.4" fill="#103038" opacity="0.25"/><circle cx="262" cy="247" r="1.4" fill="#103038" opacity="0.25"/><circle cx="247" cy="353" r="1.4" fill="#103038" opacity="0.25"/><circle cx="353" cy="304" r="1.4" fill="#103038" opacity="0.25"/><circle cx="304" cy="158" r="1.4" fill="#103038" opacity="0.25"/><circle cx="158" cy="291" r="1.4" fill="#103038" opacity="0.25"/><circle cx="291" cy="322" r="1.4" fill="#103038" opacity="0.25"/><circle cx="322" cy="301" r="1.4" fill="#103038" opacity="0.25"/><circle cx="301" cy="199" r="1.4" fill="#103038" opacity="0.25"/><circle cx="199" cy="250" r="1.4" fill="#103038" opacity="0.25"/><circle cx="250" cy="309" r="1.4" fill="#103038" opacity="0.25"/><circle cx="309" cy="191" r="1.4" fill="#103038" opacity="0.25"/><circle cx="191" cy="163" r="1.4" fill="#103038" opacity="0.25"/><circle cx="163" cy="241" r="1.4" fill="#103038" opacity="0.25"/><circle cx="241" cy="352" r="1.4" fill="#103038" opacity="0.25"/><circle cx="352" cy="184" r="1.4" fill="#103038" opacity="0.25"/><circle cx="184" cy="285" r="1.4" fill="#103038" opacity="0.25"/><circle cx="285" cy="365" r="1.4" fill="#103038" opacity="0.25"/><circle cx="365" cy="370" r="1.4" fill="#103038" opacity="0.25"/><circle cx="370" cy="169" r="1.4" fill="#103038" opacity="0.25"/><circle cx="169" cy="229" r="1.4" fill="#103038" opacity="0.25"/><circle cx="229" cy="186" r="1.4" fill="#103038" opacity="0.25"/><circle cx="186" cy="230" r="1.4" fill="#103038" opacity="0.25"/><circle cx="230" cy="282" r="1.4" fill="#103038" opacity="0.25"/><circle cx="282" cy="169" r="1.4" fill="#103038" opacity="0.25"/><circle cx="169" cy="153" r="1.4" fill="#103038" opacity="0.25"/><circle cx="153" cy="367" r="1.4" fill="#103038" opacity="0.25"/><circle cx="367" cy="173" r="1.4" fill="#103038" opacity="0.25"/><circle cx="173" cy="187" r="1.4" fill="#103038" opacity="0.25"/><circle cx="187" cy="315" r="1.4" fill="#103038" opacity="0.25"/><circle cx="315" cy="260" r="1.4" fill="#103038" opacity="0.25"/><circle cx="260" cy="354" r="1.4" fill="#103038" opacity="0.25"/>
<g data-collage-motif="teknik"><path d="M430 430 H610 V300 H820" stroke="#103038" stroke-width="7" fill="none" stroke-linecap="round" stroke-linejoin="round"/><circle cx="430" cy="430" r="16" fill="#3fb0b8"/><circle cx="610" cy="300" r="16" fill="#3fb0b8"/><circle cx="820" cy="300" r="16" fill="#3fb0b8"/><rect x="470" y="500" width="120" height="80" rx="12" fill="#3fb0b8" opacity="0.78"/></g>
<g fill="#3fb0b8" opacity="0.9"><circle cx="104" cy="106" r="8"/><circle cx="130" cy="106" r="8"/><circle cx="156" cy="106" r="8"/></g>
</svg>