<svg xmlns="http://www.w3.org/2000/svg" width="1280" height="848" viewBox="0 0 1280 848">
<defs>
  <linearGradient id="bg" x1="0" y1="0" x2="1" y2="1"><stop stop-color="#062f2b"/><stop offset="1" stop-color="#0e7467"/></linearGradient>
  <radialGradient id="glow"><stop stop-color="#f5c45d" stop-opacity=".72"/><stop offset="1" stop-color="#f5c45d" stop-opacity="0"/></radialGradient>
</defs>
<rect width="1280" height="848" fill="url(#bg)"/>
<circle cx="498" cy="347" r="390" fill="url(#glow)"/>
<circle cx="193" cy="527" r="107" fill="#d7fff4" opacity="0.143"/><circle cx="987" cy="692" r="230" fill="#d7fff4" opacity="0.134"/><circle cx="655" cy="349" r="234" fill="#d7fff4" opacity="0.193"/><circle cx="568" cy="312" r="76" fill="#d7fff4" opacity="0.162"/><circle cx="335" cy="565" r="109" fill="#d7fff4" opacity="0.116"/><circle cx="448" cy="433" r="133" fill="#d7fff4" opacity="0.195"/><circle cx="806" cy="236" r="128" fill="#d7fff4" opacity="0.109"/>
<path d="M0 660 C260 510 450 770 690 615S1080 620 1280 530V848H0Z" fill="#062f2b" opacity=".28"/>
<path d="M640 620C470 545 455 342 640 225c185 117 170 320 0 395Z" fill="#d7fff4" opacity=".74"/>
<path d="M640 590V275M640 430c-68-10-114-48-146-102M640 472c76-11 125-56 158-121" fill="none" stroke="#f5c45d" stroke-width="18" stroke-linecap="round"/>
<g fill="#f5c45d" opacity=".9"><circle cx="104" cy="106" r="8"/><circle cx="130" cy="106" r="8"/><circle cx="156" cy="106" r="8"/></g>
</svg>