<svg xmlns="http://www.w3.org/2000/svg" width="1280" height="848" viewBox="0 0 1280 848" data-palette="halsa-0" data-motif-variant="1">
<defs>
  <filter id="ds" x="-20%" y="-20%" width="140%" height="140%"><feDropShadow dx="0" dy="10" stdDeviation="10" flood-color="#000000" flood-opacity="0.18"/></filter>
  <filter id="fibre"><feTurbulence type="fractalNoise" baseFrequency="0.9" numOctaves="2" result="n"/><feColorMatrix in="n" type="saturate" values="0"/><feComponentTransfer><feFuncA type="linear" slope="0.05"/></feComponentTransfer><feComposite operator="in" in2="SourceGraphic"/></filter>
</defs>
<rect width="1280" height="848" fill="#f3ece1"/>
<g filter="url(#ds)">
<polygon points="71.0 51 149.9 49 223.8 47 289.7 45 353.6 44 437.4 56 497.3 52 573.2 50 650.1 45 722.0 51 720.0 561 638.1 568 583.2 564 494.3 562 425.4 557 355.6 558 289.7 556 213.8 566 148.9 561 66.0 561 718.0 565.0 646.1 508.3 574.2 447.7 502.3 399.0 430.4 335.3 358.6 268.7 286.7 216.0 214.8 161.3 142.9 102.7 71.0 59.0 71.0 45.0 142.9 112.7 214.8 173.3 286.7 216.0 358.6 277.7 430.4 327.3 502.3 382.0 574.2 444.7 646.1 509.3 718.0 554.0" fill="#fbd9e1" stroke="#5e132b" stroke-width="2.4" stroke-dasharray="2 6" stroke-linecap="round" transform="rotate(-2.5 394.5 306.0)"/>
<polygon points="582.0 258 648.8 251 735.6 263 798.3 259 877.1 257 956.9 252 1031.7 253 1102.4 251 1185.2 260 1253.0 258 1244.0 774 1172.2 770 1099.4 771 1030.7 769 951.9 779 884.1 774 798.3 773 719.6 776 658.8 779 579.0 774 1252.0 782.0 1177.2 717.7 1102.4 650.3 1027.7 597.0 952.9 541.7 878.1 482.3 803.3 438.0 728.6 370.7 653.8 313.3 579.0 260.0 579.0 253.0 653.8 315.3 728.6 365.7 803.3 421.0 878.1 484.3 952.9 549.7 1027.7 595.0 1102.4 664.3 1177.2 717.7 1252.0 770.0" fill="#e07a94" stroke="#5e132b" stroke-width="2.4" stroke-dasharray="2 6" stroke-linecap="round" transform="rotate(4.0 915.5 516.0)"/>
<polygon points="349.0 388 417.4 387 486.9 382 551.3 383 611.8 381 684.2 390 741.7 389 796.1 384 864.6 382 931.0 388 937.0 751 868.6 756 811.1 751 735.7 750 667.2 753 616.8 756 547.3 753 489.9 753 427.4 755 357.0 751 934.0 746.0 869.6 707.7 805.1 665.3 740.7 638.0 676.2 587.7 611.8 547.3 547.3 511.0 482.9 460.7 418.4 437.3 354.0 380.0 354.0 379.0 418.4 425.3 482.9 473.7 547.3 502.0 611.8 554.3 676.2 590.7 740.7 626.0 805.1 666.3 869.6 710.7 934.0 743.0" fill="#9c2f4a" stroke="#5e132b" stroke-width="2.4" stroke-dasharray="2 6" stroke-linecap="round" transform="rotate(-1.5 644.0 569.5)"/>
</g>
<path d="M466 674 L479 732 L439 770 L388 768 L343 793 L308 755 L285 718 L274 674 L276 626 L298 579 L346 571 L389 576 L424 598 L447 632 Z" fill="#fbd9e1" opacity="0.16"/><path d="M379 238 L326 329 L269 397 L195 441 L106 456 L10 431 L-26 331 L-35 238 L-11 153 L41 86 L98 -21 L198 17 L279 65 L324 148 Z" fill="#e07a94" opacity="0.16"/><path d="M506 486 L504 587 L427 645 L350 673 L273 667 L206 629 L103 595 L114 486 L138 395 L198 333 L260 244 L353 288 L419 339 L483 396 Z" fill="#fbd9e1" opacity="0.16"/><path d="M434 644 L417 719 L409 828 L315 840 L234 836 L168 788 L80 745 L99 644 L128 568 L162 492 L238 474 L314 454 L385 493 L463 545 Z" fill="#e07a94" opacity="0.16"/><path d="M1063 581 L1039 648 L1023 734 L944 737 L881 725 L817 709 L790 644 L761 581 L777 511 L801 432 L882 442 L949 398 L1015 440 L1051 508 Z" fill="#fbd9e1" opacity="0.16"/>
<g filter="url(#fibre)" opacity="0.6"><rect width="1280" height="848" fill="#5e132b"/></g>
<circle cx="167" cy="155" r="1.4" fill="#5e132b" opacity="0.25"/><circle cx="155" cy="290" r="1.4" fill="#5e132b" opacity="0.25"/><circle cx="290" cy="303" r="1.4" fill="#5e132b" opacity="0.25"/><circle cx="303" cy="181" r="1.4" fill="#5e132b" opacity="0.25"/><circle cx="181" cy="345" r="1.4" fill="#5e132b" opacity="0.25"/><circle cx="345" cy="162" r="1.4" fill="#5e132b" opacity="0.25"/><circle cx="162" cy="128" r="1.4" fill="#5e132b" opacity="0.25"/><circle cx="128" cy="171" r="1.4" fill="#5e132b" opacity="0.25"/><circle cx="171" cy="361" r="1.4" fill="#5e132b" opacity="0.25"/><circle cx="361" cy="167" r="1.4" fill="#5e132b" opacity="0.25"/><circle cx="167" cy="270" r="1.4" fill="#5e132b" opacity="0.25"/><circle cx="270" cy="339" r="1.4" fill="#5e132b" opacity="0.25"/><circle cx="339" cy="158" r="1.4" fill="#5e132b" opacity="0.25"/><circle cx="158" cy="333" r="1.4" fill="#5e132b" opacity="0.25"/><circle cx="333" cy="316" r="1.4" fill="#5e132b" opacity="0.25"/><circle cx="316" cy="314" r="1.4" fill="#5e132b" opacity="0.25"/><circle cx="314" cy="308" r="1.4" fill="#5e132b" opacity="0.25"/><circle cx="308" cy="260" r="1.4" fill="#5e132b" opacity="0.25"/><circle cx="260" cy="203" r="1.4" fill="#5e132b" opacity="0.25"/><circle cx="203" cy="340" r="1.4" fill="#5e132b" opacity="0.25"/><circle cx="340" cy="349" r="1.4" fill="#5e132b" opacity="0.25"/><circle cx="349" cy="195" r="1.4" fill="#5e132b" opacity="0.25"/><circle cx="195" cy="349" r="1.4" fill="#5e132b" opacity="0.25"/><circle cx="349" cy="276" r="1.4" fill="#5e132b" opacity="0.25"/><circle cx="276" cy="221" r="1.4" fill="#5e132b" opacity="0.25"/><circle cx="221" cy="265" r="1.4" fill="#5e132b" opacity="0.25"/><circle cx="265" cy="147" r="1.4" fill="#5e132b" opacity="0.25"/><circle cx="147" cy="287" r="1.4" fill="#5e132b" opacity="0.25"/><circle cx="287" cy="352" r="1.4" fill="#5e132b" opacity="0.25"/><circle cx="352" cy="158" r="1.4" fill="#5e132b" opacity="0.25"/><circle cx="158" cy="305" r="1.4" fill="#5e132b" opacity="0.25"/><circle cx="305" cy="167" r="1.4" fill="#5e132b" opacity="0.25"/><circle cx="167" cy="155" r="1.4" fill="#5e132b" opacity="0.25"/><circle cx="155" cy="290" r="1.4" fill="#5e132b" opacity="0.25"/><circle cx="290" cy="303" r="1.4" fill="#5e132b" opacity="0.25"/><circle cx="303" cy="181" r="1.4" fill="#5e132b" opacity="0.25"/>
<g data-collage-motif="halsa"><path d="M640 580 C520 480 520 360 600 340 C640 330 640 370 640 380 C640 370 640 330 680 340 C760 360 760 480 640 580 Z" fill="#e07a94" opacity="0.84"/></g>
<g fill="#e07a94" opacity="0.9"><circle cx="104" cy="106" r="8"/><circle cx="130" cy="106" r="8"/><circle cx="156" cy="106" r="8"/></g>
</svg>