<svg xmlns="http://www.w3.org/2000/svg" width="1280" height="848" viewBox="0 0 1280 848">
<defs>
  <filter id="ds" x="-20%" y="-20%" width="140%" height="140%"><feDropShadow dx="0" dy="10" stdDeviation="10" flood-color="#000000" flood-opacity="0.18"/></filter>
  <filter id="fibre"><feTurbulence type="fractalNoise" baseFrequency="0.9" numOctaves="2" result="n"/><feColorMatrix in="n" type="saturate" values="0"/><feComponentTransfer><feFuncA type="linear" slope="0.05"/></feComponentTransfer><feComposite operator="in" in2="SourceGraphic"/></filter>
</defs>
<rect width="1280" height="848" fill="#f3ece1"/>
<g filter="url(#ds)">
<polygon points="64.0 60 138.1 63 218.2 62 276.3 62 361.4 61 417.6 61 495.7 61 571.8 64 643.9 55 705.0 60 717.0 530 647.9 537 575.8 532 490.7 526 424.6 524 348.4 529 287.3 530 205.2 533 134.1 536 71.0 530 710.0 535.0 638.9 472.8 567.8 425.6 496.7 370.3 425.6 322.1 354.4 264.9 283.3 216.7 212.2 165.4 141.1 118.2 70.0 67.0 70.0 67.0 141.1 111.2 212.2 172.4 283.3 208.7 354.4 274.9 425.6 324.1 496.7 367.3 567.8 432.6 638.9 470.8 710.0 538.0" fill="#e3e9f0" stroke="#232b3f" stroke-width="2.4" stroke-dasharray="2 6" stroke-linecap="round" transform="rotate(-3.5 390.0 295.0)"/>
<polygon points="553.0 240 640.3 241 698.7 241 779.0 241 857.3 244 931.7 235 995.0 244 1073.3 243 1143.7 246 1221.0 240 1214.0 760 1145.7 754 1067.3 759 1004.0 760 919.7 763 846.3 766 781.0 756 698.7 762 641.3 759 554.0 760 1220.0 757.0 1146.7 703.2 1073.3 640.4 1000.0 586.7 926.7 529.9 853.3 477.1 780.0 420.3 706.7 357.6 633.3 291.8 560.0 247.0 560.0 232.0 633.3 303.8 706.7 358.6 780.0 407.3 853.3 478.1 926.7 521.9 1000.0 594.7 1073.3 645.4 1146.7 698.2 1220.0 755.0" fill="#7a8aa0" stroke="#232b3f" stroke-width="2.4" stroke-dasharray="2 6" stroke-linecap="round" transform="rotate(4.0 890.0 500.0)"/>
<polygon points="359.0 380 426.2 384 489.4 375 541.7 384 608.9 383 668.1 386 734.3 379 791.6 373 857.8 387 921.0 380 924.0 780 850.8 783 788.6 786 734.3 776 663.1 782 616.9 779 540.7 787 481.4 777 428.2 778 353.0 780 920.0 780.0 857.8 736.6 795.6 697.1 733.3 653.7 671.1 604.2 608.9 551.8 546.7 520.3 484.4 477.9 422.2 432.4 360.0 374.0 360.0 374.0 422.2 431.4 484.4 461.9 546.7 521.3 608.9 558.8 671.1 598.2 733.3 641.7 795.6 696.1 857.8 735.6 920.0 783.0" fill="#43506b" stroke="#232b3f" stroke-width="2.4" stroke-dasharray="2 6" stroke-linecap="round" transform="rotate(-1.5 640.0 580.0)"/>
</g>
<path d="M433 732 L413 770 L398 811 L362 837 L321 824 L279 816 L270 769 L249 732 L249 684 L280 650 L321 641 L361 634 L396 656 L411 695 Z" fill="#e3e9f0" opacity="0.16"/><path d="M1103 288 L1108 372 L1035 408 L984 462 L906 482 L839 436 L807 361 L780 288 L800 211 L858 167 L918 152 L986 104 L1044 156 L1072 222 Z" fill="#7a8aa0" opacity="0.16"/><path d="M1024 172 L988 283 L907 350 L826 412 L727 405 L656 336 L620 254 L541 172 L587 73 L659 12 L736 -16 L816 -19 L913 -15 L946 83 Z" fill="#e3e9f0" opacity="0.16"/><path d="M552 561 L531 603 L500 630 L474 677 L428 664 L395 635 L375 600 L366 561 L358 513 L395 487 L431 469 L470 464 L513 476 L534 517 Z" fill="#7a8aa0" opacity="0.16"/><path d="M515 579 L481 655 L431 708 L370 742 L294 779 L235 716 L192 654 L167 579 L169 492 L229 433 L294 377 L379 373 L440 437 L472 508 Z" fill="#e3e9f0" opacity="0.16"/>
<g filter="url(#fibre)" opacity="0.6"><rect width="1280" height="848" fill="#232b3f"/></g>
<circle cx="218" cy="240" r="1.4" fill="#232b3f" opacity="0.25"/><circle cx="240" cy="325" r="1.4" fill="#232b3f" opacity="0.25"/><circle cx="325" cy="369" r="1.4" fill="#232b3f" opacity="0.25"/><circle cx="369" cy="174" r="1.4" fill="#232b3f" opacity="0.25"/><circle cx="174" cy="368" r="1.4" fill="#232b3f" opacity="0.25"/><circle cx="368" cy="128" r="1.4" fill="#232b3f" opacity="0.25"/><circle cx="128" cy="323" r="1.4" fill="#232b3f" opacity="0.25"/><circle cx="323" cy="191" r="1.4" fill="#232b3f" opacity="0.25"/><circle cx="191" cy="257" r="1.4" fill="#232b3f" opacity="0.25"/><circle cx="257" cy="281" r="1.4" fill="#232b3f" opacity="0.25"/><circle cx="281" cy="145" r="1.4" fill="#232b3f" opacity="0.25"/><circle cx="145" cy="358" r="1.4" fill="#232b3f" opacity="0.25"/><circle cx="358" cy="201" r="1.4" fill="#232b3f" opacity="0.25"/><circle cx="201" cy="300" r="1.4" fill="#232b3f" opacity="0.25"/><circle cx="300" cy="149" r="1.4" fill="#232b3f" opacity="0.25"/><circle cx="149" cy="173" r="1.4" fill="#232b3f" opacity="0.25"/><circle cx="173" cy="307" r="1.4" fill="#232b3f" opacity="0.25"/><circle cx="307" cy="302" r="1.4" fill="#232b3f" opacity="0.25"/><circle cx="302" cy="123" r="1.4" fill="#232b3f" opacity="0.25"/><circle cx="123" cy="250" r="1.4" fill="#232b3f" opacity="0.25"/><circle cx="250" cy="271" r="1.4" fill="#232b3f" opacity="0.25"/><circle cx="271" cy="270" r="1.4" fill="#232b3f" opacity="0.25"/><circle cx="270" cy="275" r="1.4" fill="#232b3f" opacity="0.25"/><circle cx="275" cy="356" r="1.4" fill="#232b3f" opacity="0.25"/><circle cx="356" cy="313" r="1.4" fill="#232b3f" opacity="0.25"/><circle cx="313" cy="323" r="1.4" fill="#232b3f" opacity="0.25"/><circle cx="323" cy="217" r="1.4" fill="#232b3f" opacity="0.25"/><circle cx="217" cy="274" r="1.4" fill="#232b3f" opacity="0.25"/><circle cx="274" cy="301" r="1.4" fill="#232b3f" opacity="0.25"/><circle cx="301" cy="311" r="1.4" fill="#232b3f" opacity="0.25"/><circle cx="311" cy="365" r="1.4" fill="#232b3f" opacity="0.25"/><circle cx="365" cy="218" r="1.4" fill="#232b3f" opacity="0.25"/><circle cx="218" cy="240" r="1.4" fill="#232b3f" opacity="0.25"/><circle cx="240" cy="325" r="1.4" fill="#232b3f" opacity="0.25"/><circle cx="325" cy="369" r="1.4" fill="#232b3f" opacity="0.25"/><circle cx="369" cy="174" r="1.4" fill="#232b3f" opacity="0.25"/>
<g data-collage-motif="hälsa"><circle cx="540" cy="420" r="40" fill="#7a8aa0"/><circle cx="740" cy="400" r="34" fill="#7a8aa0" opacity="0.86"/><circle cx="650" cy="560" r="30" fill="#7a8aa0" opacity="0.8"/><path d="M540 420 L740 400 L650 560 Z" stroke="#232b3f" stroke-width="6" fill="none" stroke-linejoin="round"/></g>
<g fill="#7a8aa0" opacity="0.9"><circle cx="104" cy="106" r="8"/><circle cx="130" cy="106" r="8"/><circle cx="156" cy="106" r="8"/></g>
</svg>