<svg xmlns="http://www.w3.org/2000/svg" width="1280" height="848" viewBox="0 0 1280 848">
<defs>
  <filter id="ds" x="-20%" y="-20%" width="140%" height="140%"><feDropShadow dx="0" dy="10" stdDeviation="10" flood-color="#000000" flood-opacity="0.18"/></filter>
  <filter id="fibre"><feTurbulence type="fractalNoise" baseFrequency="0.9" numOctaves="2" result="n"/><feColorMatrix in="n" type="saturate" values="0"/><feComponentTransfer><feFuncA type="linear" slope="0.05"/></feComponentTransfer><feComposite operator="in" in2="SourceGraphic"/></filter>
</defs>
<rect width="1280" height="848" fill="#f3ece1"/>
<g filter="url(#ds)">
<polygon points="76.0 60 133.1 54 213.2 60 282.3 65 354.4 60 428.6 53 494.7 57 561.8 64 639.9 60 714.0 60 702.0 530 640.9 534 558.8 526 500.7 527 420.6 535 358.4 531 281.3 532 208.2 534 135.1 535 66.0 530 710.0 531.0 638.9 481.8 567.8 424.6 496.7 373.3 425.6 320.1 354.4 259.9 283.3 219.7 212.2 166.4 141.1 111.2 70.0 61.0 70.0 66.0 141.1 116.2 212.2 160.4 283.3 225.7 354.4 262.9 425.6 329.1 496.7 372.3 567.8 426.6 638.9 477.8 710.0 527.0" fill="#e3e9f0" stroke="#232b3f" stroke-width="2.4" stroke-dasharray="2 6" stroke-linecap="round" transform="rotate(-3.5 390.0 295.0)"/>
<polygon points="559.0 240 633.3 240 709.7 233 778.0 237 847.3 244 927.7 240 1004.0 246 1072.3 247 1146.7 246 1219.0 240 1224.0 760 1141.7 765 1077.3 761 998.0 762 922.7 764 847.3 765 776.0 760 710.7 764 624.3 764 566.0 760 1220.0 760.0 1146.7 701.2 1073.3 635.4 1000.0 589.7 926.7 530.9 853.3 470.1 780.0 414.3 706.7 357.6 633.3 289.8 560.0 232.0 560.0 249.0 633.3 291.8 706.7 363.6 780.0 412.3 853.3 472.1 926.7 528.9 1000.0 583.7 1073.3 646.4 1146.7 708.2 1220.0 759.0" fill="#7a8aa0" stroke="#232b3f" stroke-width="2.4" stroke-dasharray="2 6" stroke-linecap="round" transform="rotate(4.0 890.0 500.0)"/>
<polygon points="358.0 380 416.2 384 485.4 380 550.7 386 607.9 387 671.1 386 732.3 374 786.6 375 860.8 374 922.0 380 918.0 780 853.8 784 789.6 785 729.3 780 675.1 784 599.9 784 552.7 779 476.4 786 423.2 780 359.0 780 920.0 783.0 857.8 737.6 795.6 690.1 733.3 647.7 671.1 604.2 608.9 549.8 546.7 505.3 484.4 470.9 422.2 415.4 360.0 384.0 360.0 379.0 422.2 425.4 484.4 468.9 546.7 510.3 608.9 559.8 671.1 608.2 733.3 645.7 795.6 687.1 857.8 736.6 920.0 780.0" fill="#43506b" stroke="#232b3f" stroke-width="2.4" stroke-dasharray="2 6" stroke-linecap="round" transform="rotate(-1.5 640.0 580.0)"/>
</g>
<path d="M1202 616 L1196 673 L1141 691 L1106 710 L1062 732 L1017 710 L999 662 L991 616 L994 568 L1019 524 L1059 488 L1113 487 L1161 514 L1169 573 Z" fill="#e3e9f0" opacity="0.16"/><path d="M597 325 L583 399 L528 442 L472 467 L410 478 L347 455 L288 405 L270 325 L288 245 L361 215 L403 138 L481 140 L534 199 L601 242 Z" fill="#7a8aa0" opacity="0.16"/><path d="M672 371 L666 437 L637 504 L575 538 L505 536 L466 472 L395 447 L380 371 L418 307 L439 234 L508 217 L568 238 L617 267 L682 297 Z" fill="#e3e9f0" opacity="0.16"/><path d="M587 378 L537 435 L531 517 L465 550 L399 523 L327 517 L297 447 L302 378 L317 319 L330 243 L400 239 L455 254 L528 244 L573 303 Z" fill="#7a8aa0" opacity="0.16"/><path d="M979 468 L995 585 L911 657 L815 672 L730 668 L622 673 L593 562 L594 468 L557 355 L622 263 L733 284 L813 273 L884 315 L978 360 Z" fill="#e3e9f0" opacity="0.16"/>
<g filter="url(#fibre)" opacity="0.6"><rect width="1280" height="848" fill="#232b3f"/></g>
<circle cx="363" cy="368" r="1.4" fill="#232b3f" opacity="0.25"/><circle cx="368" cy="301" r="1.4" fill="#232b3f" opacity="0.25"/><circle cx="301" cy="337" r="1.4" fill="#232b3f" opacity="0.25"/><circle cx="337" cy="357" r="1.4" fill="#232b3f" opacity="0.25"/><circle cx="357" cy="322" r="1.4" fill="#232b3f" opacity="0.25"/><circle cx="322" cy="165" r="1.4" fill="#232b3f" opacity="0.25"/><circle cx="165" cy="199" r="1.4" fill="#232b3f" opacity="0.25"/><circle cx="199" cy="206" r="1.4" fill="#232b3f" opacity="0.25"/><circle cx="206" cy="247" r="1.4" fill="#232b3f" opacity="0.25"/><circle cx="247" cy="223" r="1.4" fill="#232b3f" opacity="0.25"/><circle cx="223" cy="224" r="1.4" fill="#232b3f" opacity="0.25"/><circle cx="224" cy="223" r="1.4" fill="#232b3f" opacity="0.25"/><circle cx="223" cy="196" r="1.4" fill="#232b3f" opacity="0.25"/><circle cx="196" cy="227" r="1.4" fill="#232b3f" opacity="0.25"/><circle cx="227" cy="226" r="1.4" fill="#232b3f" opacity="0.25"/><circle cx="226" cy="280" r="1.4" fill="#232b3f" opacity="0.25"/><circle cx="280" cy="263" r="1.4" fill="#232b3f" opacity="0.25"/><circle cx="263" cy="359" r="1.4" fill="#232b3f" opacity="0.25"/><circle cx="359" cy="273" r="1.4" fill="#232b3f" opacity="0.25"/><circle cx="273" cy="235" r="1.4" fill="#232b3f" opacity="0.25"/><circle cx="235" cy="188" r="1.4" fill="#232b3f" opacity="0.25"/><circle cx="188" cy="348" r="1.4" fill="#232b3f" opacity="0.25"/><circle cx="348" cy="266" r="1.4" fill="#232b3f" opacity="0.25"/><circle cx="266" cy="295" r="1.4" fill="#232b3f" opacity="0.25"/><circle cx="295" cy="152" r="1.4" fill="#232b3f" opacity="0.25"/><circle cx="152" cy="336" r="1.4" fill="#232b3f" opacity="0.25"/><circle cx="336" cy="125" r="1.4" fill="#232b3f" opacity="0.25"/><circle cx="125" cy="123" r="1.4" fill="#232b3f" opacity="0.25"/><circle cx="123" cy="182" r="1.4" fill="#232b3f" opacity="0.25"/><circle cx="182" cy="247" r="1.4" fill="#232b3f" opacity="0.25"/><circle cx="247" cy="348" r="1.4" fill="#232b3f" opacity="0.25"/><circle cx="348" cy="363" r="1.4" fill="#232b3f" opacity="0.25"/><circle cx="363" cy="368" r="1.4" fill="#232b3f" opacity="0.25"/><circle cx="368" cy="301" r="1.4" fill="#232b3f" opacity="0.25"/><circle cx="301" cy="337" r="1.4" fill="#232b3f" opacity="0.25"/><circle cx="337" cy="357" r="1.4" fill="#232b3f" opacity="0.25"/>
<g data-collage-motif="rymden"><circle cx="540" cy="420" r="40" fill="#7a8aa0"/><circle cx="740" cy="400" r="34" fill="#7a8aa0" opacity="0.86"/><circle cx="650" cy="560" r="30" fill="#7a8aa0" opacity="0.8"/><path d="M540 420 L740 400 L650 560 Z" stroke="#232b3f" stroke-width="6" fill="none" stroke-linejoin="round"/></g>
<g fill="#7a8aa0" opacity="0.9"><circle cx="104" cy="106" r="8"/><circle cx="130" cy="106" r="8"/><circle cx="156" cy="106" r="8"/></g>
</svg>