<svg xmlns="http://www.w3.org/2000/svg" width="1280" height="848" viewBox="0 0 1280 848" data-palette="teknik-1" data-motif-variant="2">
<defs>
  <filter id="ds" x="-20%" y="-20%" width="140%" height="140%"><feDropShadow dx="0" dy="10" stdDeviation="10" flood-color="#000000" flood-opacity="0.18"/></filter>
  <filter id="fibre"><feTurbulence type="fractalNoise" baseFrequency="0.9" numOctaves="2" result="n"/><feColorMatrix in="n" type="saturate" values="0"/><feComponentTransfer><feFuncA type="linear" slope="0.05"/></feComponentTransfer><feComposite operator="in" in2="SourceGraphic"/></filter>
</defs>
<rect width="1280" height="848" fill="#f3ece1"/>
<g filter="url(#ds)">
<polygon points="55.0 79 136.7 72 192.3 85 266.0 83 345.7 80 407.3 84 485.0 75 559.7 77 620.3 86 695.0 79 687.0 535 630.3 530 545.7 533 486.0 538 417.3 536 345.7 541 277.0 530 192.3 531 127.7 533 69.0 535 696.0 530.0 625.3 483.3 554.7 426.7 484.0 379.0 413.3 333.3 342.7 286.7 272.0 227.0 201.3 175.3 130.7 122.7 60.0 73.0 60.0 82.0 130.7 120.7 201.3 175.3 272.0 238.0 342.7 286.7 413.3 326.3 484.0 392.0 554.7 439.7 625.3 481.3 696.0 541.0" fill="#dbe6ff" stroke="#16213f" stroke-width="2.4" stroke-dasharray="2 6" stroke-linecap="round" transform="rotate(-5.5 378.0 307.0)"/>
<polygon points="557.0 228 640.9 229 706.8 233 788.7 224 867.6 226 932.4 235 1011.3 232 1080.2 232 1158.1 229 1238.0 228 1239.0 746 1166.1 747 1090.2 752 1017.3 741 928.4 742 859.6 744 796.7 746 717.8 750 630.9 751 558.0 746 1237.0 742.0 1162.1 689.4 1087.2 635.9 1012.3 569.3 937.4 510.8 862.6 451.2 787.7 394.7 712.8 341.1 637.9 283.6 563.0 219.0 563.0 235.0 637.9 290.6 712.8 337.1 787.7 409.7 862.6 464.2 937.4 512.8 1012.3 579.3 1087.2 629.9 1162.1 683.4 1237.0 751.0" fill="#5a7fd6" stroke="#16213f" stroke-width="2.4" stroke-dasharray="2 6" stroke-linecap="round" transform="rotate(4.0 900.0 487.0)"/>
<polygon points="397.0 374 463.3 372 515.7 381 582.0 378 638.3 378 703.7 375 771.0 375 837.3 371 890.7 380 952.0 374 962.0 794 885.7 790 829.3 792 779.0 794 712.7 798 638.3 799 578.0 799 526.7 801 449.3 788 390.0 794 957.0 790.0 894.7 742.3 832.3 693.7 770.0 648.0 707.7 605.3 645.3 558.7 583.0 505.0 520.7 472.3 458.3 411.7 396.0 376.0 396.0 383.0 458.3 426.7 520.7 464.3 583.0 520.0 645.3 559.7 707.7 602.3 770.0 659.0 832.3 701.7 894.7 754.3 957.0 798.0" fill="#2b3a66" stroke="#16213f" stroke-width="2.4" stroke-dasharray="2 6" stroke-linecap="round" transform="rotate(-2.5 676.5 584.0)"/>
</g>
<path d="M1210 355 L1182 439 L1108 474 L1057 526 L988 512 L906 511 L868 435 L825 355 L883 283 L897 186 L987 193 L1064 149 L1145 186 L1177 273 Z" fill="#dbe6ff" opacity="0.16"/><path d="M410 310 L429 401 L366 462 L300 529 L218 481 L123 488 L109 386 L49 310 L65 211 L140 154 L208 89 L291 135 L355 173 L435 215 Z" fill="#5a7fd6" opacity="0.16"/><path d="M737 551 L762 639 L683 673 L634 744 L551 749 L491 690 L426 639 L446 551 L463 483 L481 399 L559 390 L634 358 L681 431 L746 471 Z" fill="#dbe6ff" opacity="0.16"/><path d="M813 647 L776 717 L748 791 L672 790 L613 787 L540 786 L517 713 L475 647 L526 586 L545 515 L608 487 L669 520 L720 540 L774 578 Z" fill="#5a7fd6" opacity="0.16"/><path d="M726 546 L742 624 L681 666 L631 725 L564 684 L495 679 L456 618 L472 546 L478 486 L501 420 L559 383 L627 384 L696 406 L714 482 Z" fill="#dbe6ff" opacity="0.16"/>
<g filter="url(#fibre)" opacity="0.6"><rect width="1280" height="848" fill="#16213f"/></g>
<circle cx="257" cy="287" r="1.4" fill="#16213f" opacity="0.25"/><circle cx="287" cy="120" r="1.4" fill="#16213f" opacity="0.25"/><circle cx="120" cy="313" r="1.4" fill="#16213f" opacity="0.25"/><circle cx="313" cy="341" r="1.4" fill="#16213f" opacity="0.25"/><circle cx="341" cy="218" r="1.4" fill="#16213f" opacity="0.25"/><circle cx="218" cy="282" r="1.4" fill="#16213f" opacity="0.25"/><circle cx="282" cy="153" r="1.4" fill="#16213f" opacity="0.25"/><circle cx="153" cy="200" r="1.4" fill="#16213f" opacity="0.25"/><circle cx="200" cy="299" r="1.4" fill="#16213f" opacity="0.25"/><circle cx="299" cy="236" r="1.4" fill="#16213f" opacity="0.25"/><circle cx="236" cy="296" r="1.4" fill="#16213f" opacity="0.25"/><circle cx="296" cy="263" r="1.4" fill="#16213f" opacity="0.25"/><circle cx="263" cy="248" r="1.4" fill="#16213f" opacity="0.25"/><circle cx="248" cy="334" r="1.4" fill="#16213f" opacity="0.25"/><circle cx="334" cy="238" r="1.4" fill="#16213f" opacity="0.25"/><circle cx="238" cy="236" r="1.4" fill="#16213f" opacity="0.25"/><circle cx="236" cy="294" r="1.4" fill="#16213f" opacity="0.25"/><circle cx="294" cy="241" r="1.4" fill="#16213f" opacity="0.25"/><circle cx="241" cy="260" r="1.4" fill="#16213f" opacity="0.25"/><circle cx="260" cy="234" r="1.4" fill="#16213f" opacity="0.25"/><circle cx="234" cy="324" r="1.4" fill="#16213f" opacity="0.25"/><circle cx="324" cy="177" r="1.4" fill="#16213f" opacity="0.25"/><circle cx="177" cy="264" r="1.4" fill="#16213f" opacity="0.25"/><circle cx="264" cy="304" r="1.4" fill="#16213f" opacity="0.25"/><circle cx="304" cy="246" r="1.4" fill="#16213f" opacity="0.25"/><circle cx="246" cy="286" r="1.4" fill="#16213f" opacity="0.25"/><circle cx="286" cy="177" r="1.4" fill="#16213f" opacity="0.25"/><circle cx="177" cy="221" r="1.4" fill="#16213f" opacity="0.25"/><circle cx="221" cy="309" r="1.4" fill="#16213f" opacity="0.25"/><circle cx="309" cy="172" r="1.4" fill="#16213f" opacity="0.25"/><circle cx="172" cy="198" r="1.4" fill="#16213f" opacity="0.25"/><circle cx="198" cy="257" r="1.4" fill="#16213f" opacity="0.25"/><circle cx="257" cy="287" r="1.4" fill="#16213f" opacity="0.25"/><circle cx="287" cy="120" r="1.4" fill="#16213f" opacity="0.25"/><circle cx="120" cy="313" r="1.4" fill="#16213f" opacity="0.25"/><circle cx="313" cy="341" r="1.4" fill="#16213f" opacity="0.25"/>
<g data-collage-motif="teknik"><rect x="470" y="300" width="200" height="140" rx="14" fill="#5a7fd6" opacity="0.82"/><rect x="560" y="420" width="160" height="110" rx="12" fill="#5a7fd6" opacity="0.7"/><rect x="690" y="500" width="130" height="90" rx="10" fill="#5a7fd6" opacity="0.6"/></g>
<g fill="#5a7fd6" opacity="0.9"><circle cx="104" cy="106" r="8"/><circle cx="130" cy="106" r="8"/><circle cx="156" cy="106" r="8"/></g>
</svg>