<svg xmlns="http://www.w3.org/2000/svg" width="1280" height="848" viewBox="0 0 1280 848">
<defs>
  <linearGradient id="bg" x1="0" y1="0" x2="1" y2="1"><stop stop-color="#382354"/><stop offset="1" stop-color="#7957a8"/></linearGradient>
  <radialGradient id="glow"><stop stop-color="#f2b84b" stop-opacity=".72"/><stop offset="1" stop-color="#f2b84b" stop-opacity="0"/></radialGradient>
</defs>
<rect width="1280" height="848" fill="url(#bg)"/>
<circle cx="554" cy="220" r="390" fill="url(#glow)"/>
<circle cx="1060" cy="98" r="70" fill="#f8edff" opacity="0.119"/><circle cx="331" cy="290" r="90" fill="#f8edff" opacity="0.085"/><circle cx="1155" cy="247" r="139" fill="#f8edff" opacity="0.122"/><circle cx="952" cy="101" r="234" fill="#f8edff" opacity="0.175"/><circle cx="607" cy="260" r="192" fill="#f8edff" opacity="0.160"/><circle cx="883" cy="490" r="95" fill="#f8edff" opacity="0.184"/><circle cx="443" cy="422" r="131" fill="#f8edff" opacity="0.232"/>
<path d="M0 646 C260 496 450 756 690 601S1080 606 1280 516V848H0Z" fill="#382354" opacity=".28"/>
<path d="M640 212 684 355l148-36-104 111 104 110-148-35-44 143-44-143-148 35 104-110-104-111 148 36Z" fill="#f8edff" opacity=".76"/>
<circle cx="640" cy="430" r="78" fill="#f2b84b"/>
<g fill="#f2b84b" opacity=".9"><circle cx="104" cy="106" r="8"/><circle cx="130" cy="106" r="8"/><circle cx="156" cy="106" r="8"/></g>
</svg>