<svg xmlns="http://www.w3.org/2000/svg" width="1280" height="848" viewBox="0 0 1280 848" data-palette="samhalle-0" data-motif-variant="1">
<defs>
  <filter id="ds" x="-20%" y="-20%" width="140%" height="140%"><feDropShadow dx="0" dy="10" stdDeviation="10" flood-color="#000000" flood-opacity="0.18"/></filter>
  <filter id="fibre"><feTurbulence type="fractalNoise" baseFrequency="0.9" numOctaves="2" result="n"/><feColorMatrix in="n" type="saturate" values="0"/><feComponentTransfer><feFuncA type="linear" slope="0.05"/></feComponentTransfer><feComposite operator="in" in2="SourceGraphic"/></filter>
</defs>
<rect width="1280" height="848" fill="#f3ece1"/>
<g filter="url(#ds)">
<polygon points="67.0 60 155.3 57 222.7 65 302.0 63 370.3 54 443.7 67 509.0 67 586.3 62 654.7 63 738.0 60 728.0 554 664.7 560 595.3 551 507.0 555 446.7 551 371.3 559 303.0 561 214.7 548 138.3 555 66.0 554 734.0 548.0 660.7 503.1 587.3 446.2 514.0 396.3 440.7 325.4 367.3 287.6 294.0 233.7 220.7 165.8 147.3 115.9 74.0 51.0 74.0 69.0 147.3 122.9 220.7 163.8 294.0 226.7 367.3 286.6 440.7 326.4 514.0 387.3 587.3 436.2 660.7 496.1 734.0 551.0" fill="#d9def0" stroke="#1f2456" stroke-width="2.4" stroke-dasharray="2 6" stroke-linecap="round" transform="rotate(-3.5 404.0 307.0)"/>
<polygon points="586.0 256 651.0 250 721.0 263 783.0 263 857.0 258 922.0 259 1002.0 259 1070.0 258 1145.0 257 1199.0 256 1201.0 798 1144.0 795 1072.0 803 1007.0 805 922.0 792 849.0 799 780.0 804 724.0 793 646.0 795 571.0 798 1208.0 805.0 1138.0 728.8 1068.0 685.6 998.0 626.3 928.0 553.1 858.0 497.9 788.0 427.7 718.0 369.4 648.0 309.2 578.0 250.0 578.0 258.0 648.0 323.2 718.0 368.4 788.0 434.7 858.0 488.9 928.0 554.1 998.0 614.3 1068.0 682.6 1138.0 738.8 1208.0 804.0" fill="#6f74c2" stroke="#1f2456" stroke-width="2.4" stroke-dasharray="2 6" stroke-linecap="round" transform="rotate(6.0 893.0 527.0)"/>
<polygon points="380.0 367 445.8 369 502.6 370 574.3 370 634.1 369 700.9 368 746.7 366 825.4 365 888.2 362 937.0 367 950.0 740 873.2 734 808.4 741 747.7 746 699.9 735 630.1 737 563.3 739 516.6 743 448.8 735 393.0 740 941.0 749.0 879.2 694.6 817.4 658.1 755.7 606.7 693.9 567.2 632.1 525.8 570.3 485.3 508.6 453.9 446.8 416.4 385.0 360.0 385.0 365.0 446.8 400.4 508.6 446.9 570.3 488.3 632.1 537.8 693.9 575.2 755.7 621.7 817.4 653.1 879.2 696.6 941.0 733.0" fill="#3a3f7a" stroke="#1f2456" stroke-width="2.4" stroke-dasharray="2 6" stroke-linecap="round" transform="rotate(-4.5 663.0 553.5)"/>
</g>
<path d="M872 187 L863 267 L822 339 L757 404 L676 352 L579 367 L549 272 L491 187 L522 88 L575 2 L675 16 L753 -12 L809 53 L850 114 Z" fill="#d9def0" opacity="0.16"/><path d="M950 546 L973 610 L922 644 L881 695 L820 689 L763 665 L757 595 L729 546 L759 498 L788 462 L821 408 L879 408 L936 428 L973 482 Z" fill="#6f74c2" opacity="0.16"/><path d="M1132 245 L1125 301 L1072 320 L1040 354 L998 337 L964 317 L917 297 L906 245 L910 189 L944 146 L996 147 L1042 124 L1072 171 L1123 190 Z" fill="#d9def0" opacity="0.16"/><path d="M363 536 L352 581 L344 642 L294 669 L236 677 L184 647 L172 585 L137 536 L177 490 L184 424 L242 423 L288 430 L330 449 L387 473 Z" fill="#6f74c2" opacity="0.16"/><path d="M715 729 L696 806 L630 840 L584 900 L521 860 L445 870 L428 792 L423 729 L433 669 L443 586 L518 586 L582 566 L645 597 L687 656 Z" fill="#d9def0" opacity="0.16"/>
<g filter="url(#fibre)" opacity="0.6"><rect width="1280" height="848" fill="#1f2456"/></g>
<circle cx="160" cy="308" r="1.4" fill="#1f2456" opacity="0.25"/><circle cx="308" cy="169" r="1.4" fill="#1f2456" opacity="0.25"/><circle cx="169" cy="327" r="1.4" fill="#1f2456" opacity="0.25"/><circle cx="327" cy="265" r="1.4" fill="#1f2456" opacity="0.25"/><circle cx="265" cy="151" r="1.4" fill="#1f2456" opacity="0.25"/><circle cx="151" cy="314" r="1.4" fill="#1f2456" opacity="0.25"/><circle cx="314" cy="299" r="1.4" fill="#1f2456" opacity="0.25"/><circle cx="299" cy="294" r="1.4" fill="#1f2456" opacity="0.25"/><circle cx="294" cy="190" r="1.4" fill="#1f2456" opacity="0.25"/><circle cx="190" cy="340" r="1.4" fill="#1f2456" opacity="0.25"/><circle cx="340" cy="174" r="1.4" fill="#1f2456" opacity="0.25"/><circle cx="174" cy="158" r="1.4" fill="#1f2456" opacity="0.25"/><circle cx="158" cy="156" r="1.4" fill="#1f2456" opacity="0.25"/><circle cx="156" cy="290" r="1.4" fill="#1f2456" opacity="0.25"/><circle cx="290" cy="182" r="1.4" fill="#1f2456" opacity="0.25"/><circle cx="182" cy="225" r="1.4" fill="#1f2456" opacity="0.25"/><circle cx="225" cy="367" r="1.4" fill="#1f2456" opacity="0.25"/><circle cx="367" cy="236" r="1.4" fill="#1f2456" opacity="0.25"/><circle cx="236" cy="293" r="1.4" fill="#1f2456" opacity="0.25"/><circle cx="293" cy="123" r="1.4" fill="#1f2456" opacity="0.25"/><circle cx="123" cy="152" r="1.4" fill="#1f2456" opacity="0.25"/><circle cx="152" cy="346" r="1.4" fill="#1f2456" opacity="0.25"/><circle cx="346" cy="160" r="1.4" fill="#1f2456" opacity="0.25"/><circle cx="160" cy="306" r="1.4" fill="#1f2456" opacity="0.25"/><circle cx="306" cy="190" r="1.4" fill="#1f2456" opacity="0.25"/><circle cx="190" cy="347" r="1.4" fill="#1f2456" opacity="0.25"/><circle cx="347" cy="180" r="1.4" fill="#1f2456" opacity="0.25"/><circle cx="180" cy="253" r="1.4" fill="#1f2456" opacity="0.25"/><circle cx="253" cy="216" r="1.4" fill="#1f2456" opacity="0.25"/><circle cx="216" cy="211" r="1.4" fill="#1f2456" opacity="0.25"/><circle cx="211" cy="222" r="1.4" fill="#1f2456" opacity="0.25"/><circle cx="222" cy="160" r="1.4" fill="#1f2456" opacity="0.25"/><circle cx="160" cy="308" r="1.4" fill="#1f2456" opacity="0.25"/><circle cx="308" cy="169" r="1.4" fill="#1f2456" opacity="0.25"/><circle cx="169" cy="327" r="1.4" fill="#1f2456" opacity="0.25"/><circle cx="327" cy="265" r="1.4" fill="#1f2456" opacity="0.25"/>
<g data-collage-motif="samhalle"><rect x="500" y="360" width="120" height="120" rx="14" fill="#6f74c2" opacity="0.82"/><rect x="660" y="360" width="120" height="120" rx="14" fill="#6f74c2" opacity="0.7"/><rect x="580" y="500" width="120" height="120" rx="14" fill="#6f74c2" opacity="0.6"/></g>
<g fill="#6f74c2" opacity="0.9"><circle cx="104" cy="106" r="8"/><circle cx="130" cy="106" r="8"/><circle cx="156" cy="106" r="8"/></g>
</svg>