<svg xmlns="http://www.w3.org/2000/svg" width="1280" height="848" viewBox="0 0 1280 848">
<defs>
  <filter id="ds" x="-20%" y="-20%" width="140%" height="140%"><feDropShadow dx="0" dy="10" stdDeviation="10" flood-color="#000000" flood-opacity="0.18"/></filter>
  <filter id="fibre"><feTurbulence type="fractalNoise" baseFrequency="0.9" numOctaves="2" result="n"/><feColorMatrix in="n" type="saturate" values="0"/><feComponentTransfer><feFuncA type="linear" slope="0.05"/></feComponentTransfer><feComposite operator="in" in2="SourceGraphic"/></filter>
</defs>
<rect width="1280" height="848" fill="#f3ece1"/>
<g filter="url(#ds)">
<polygon points="78.0 60 145.1 56 206.2 62 281.3 66 359.4 67 431.6 58 489.7 53 571.8 60 641.9 65 713.0 60 706.0 530 640.9 527 571.8 525 496.7 528 432.6 530 361.4 527 278.3 535 217.2 534 147.1 534 76.0 530 710.0 533.0 638.9 480.8 567.8 432.6 496.7 365.3 425.6 328.1 354.4 275.9 283.3 212.7 212.2 163.4 141.1 109.2 70.0 51.0 70.0 54.0 141.1 106.2 212.2 155.4 283.3 223.7 354.4 260.9 425.6 317.1 496.7 379.3 567.8 427.6 638.9 472.8 710.0 524.0" fill="#d9def0" stroke="#1f2456" stroke-width="2.4" stroke-dasharray="2 6" stroke-linecap="round" transform="rotate(-3.5 390.0 295.0)"/>
<polygon points="558.0 240 638.3 247 712.7 238 773.0 233 857.3 240 929.7 245 1003.0 237 1080.3 241 1138.7 246 1227.0 240 1220.0 760 1153.7 760 1080.3 757 995.0 765 931.7 764 859.3 764 786.0 766 715.7 756 626.3 757 568.0 760 1220.0 752.0 1146.7 709.2 1073.3 651.4 1000.0 582.7 926.7 527.9 853.3 468.1 780.0 404.3 706.7 347.6 633.3 306.8 560.0 236.0 560.0 247.0 633.3 289.8 706.7 351.6 780.0 419.3 853.3 473.1 926.7 523.9 1000.0 580.7 1073.3 651.4 1146.7 698.2 1220.0 757.0" fill="#6f74c2" stroke="#1f2456" stroke-width="2.4" stroke-dasharray="2 6" stroke-linecap="round" transform="rotate(4.0 890.0 500.0)"/>
<polygon points="353.0 380 426.2 380 487.4 385 549.7 377 615.9 381 663.1 386 740.3 384 802.6 381 853.8 383 919.0 380 915.0 780 862.8 784 801.6 784 739.3 786 680.1 776 601.9 777 554.7 779 488.4 784 416.2 778 358.0 780 920.0 776.0 857.8 734.6 795.6 688.1 733.3 637.7 671.1 594.2 608.9 566.8 546.7 509.3 484.4 470.9 422.2 428.4 360.0 380.0 360.0 386.0 422.2 426.4 484.4 463.9 546.7 507.3 608.9 564.8 671.1 598.2 733.3 643.7 795.6 688.1 857.8 728.6 920.0 788.0" fill="#3a3f7a" stroke="#1f2456" stroke-width="2.4" stroke-dasharray="2 6" stroke-linecap="round" transform="rotate(-1.5 640.0 580.0)"/>
</g>
<path d="M1238 672 L1225 775 L1139 822 L1074 885 L988 867 L913 830 L850 766 L816 672 L835 570 L908 507 L978 431 L1082 422 L1136 526 L1230 567 Z" fill="#d9def0" opacity="0.16"/><path d="M871 616 L864 654 L845 689 L812 713 L771 714 L740 687 L704 662 L690 616 L725 581 L732 534 L772 522 L811 523 L842 548 L880 570 Z" fill="#6f74c2" opacity="0.16"/><path d="M1241 732 L1218 786 L1198 846 L1146 879 L1093 839 L1033 843 L1007 789 L996 732 L1017 680 L1032 620 L1087 598 L1145 588 L1198 618 L1226 674 Z" fill="#d9def0" opacity="0.16"/><path d="M1101 694 L1125 780 L1064 836 L997 870 L926 855 L845 851 L801 777 L770 694 L792 606 L853 549 L916 486 L999 509 L1066 550 L1096 623 Z" fill="#6f74c2" opacity="0.16"/><path d="M402 539 L411 598 L373 640 L327 674 L271 672 L227 637 L180 601 L181 539 L196 485 L236 453 L270 402 L326 408 L377 433 L411 480 Z" fill="#d9def0" opacity="0.16"/>
<g filter="url(#fibre)" opacity="0.6"><rect width="1280" height="848" fill="#1f2456"/></g>
<circle cx="175" cy="323" r="1.4" fill="#1f2456" opacity="0.25"/><circle cx="323" cy="123" r="1.4" fill="#1f2456" opacity="0.25"/><circle cx="123" cy="279" r="1.4" fill="#1f2456" opacity="0.25"/><circle cx="279" cy="343" r="1.4" fill="#1f2456" opacity="0.25"/><circle cx="343" cy="344" r="1.4" fill="#1f2456" opacity="0.25"/><circle cx="344" cy="350" r="1.4" fill="#1f2456" opacity="0.25"/><circle cx="350" cy="285" r="1.4" fill="#1f2456" opacity="0.25"/><circle cx="285" cy="322" r="1.4" fill="#1f2456" opacity="0.25"/><circle cx="322" cy="132" r="1.4" fill="#1f2456" opacity="0.25"/><circle cx="132" cy="364" r="1.4" fill="#1f2456" opacity="0.25"/><circle cx="364" cy="368" r="1.4" fill="#1f2456" opacity="0.25"/><circle cx="368" cy="193" r="1.4" fill="#1f2456" opacity="0.25"/><circle cx="193" cy="326" r="1.4" fill="#1f2456" opacity="0.25"/><circle cx="326" cy="353" r="1.4" fill="#1f2456" opacity="0.25"/><circle cx="353" cy="280" r="1.4" fill="#1f2456" opacity="0.25"/><circle cx="280" cy="164" r="1.4" fill="#1f2456" opacity="0.25"/><circle cx="164" cy="291" r="1.4" fill="#1f2456" opacity="0.25"/><circle cx="291" cy="178" r="1.4" fill="#1f2456" opacity="0.25"/><circle cx="178" cy="366" r="1.4" fill="#1f2456" opacity="0.25"/><circle cx="366" cy="220" r="1.4" fill="#1f2456" opacity="0.25"/><circle cx="220" cy="283" r="1.4" fill="#1f2456" opacity="0.25"/><circle cx="283" cy="190" r="1.4" fill="#1f2456" opacity="0.25"/><circle cx="190" cy="357" r="1.4" fill="#1f2456" opacity="0.25"/><circle cx="357" cy="174" r="1.4" fill="#1f2456" opacity="0.25"/><circle cx="174" cy="307" r="1.4" fill="#1f2456" opacity="0.25"/><circle cx="307" cy="295" r="1.4" fill="#1f2456" opacity="0.25"/><circle cx="295" cy="362" r="1.4" fill="#1f2456" opacity="0.25"/><circle cx="362" cy="363" r="1.4" fill="#1f2456" opacity="0.25"/><circle cx="363" cy="363" r="1.4" fill="#1f2456" opacity="0.25"/><circle cx="363" cy="271" r="1.4" fill="#1f2456" opacity="0.25"/><circle cx="271" cy="236" r="1.4" fill="#1f2456" opacity="0.25"/><circle cx="236" cy="175" r="1.4" fill="#1f2456" opacity="0.25"/><circle cx="175" cy="323" r="1.4" fill="#1f2456" opacity="0.25"/><circle cx="323" cy="123" r="1.4" fill="#1f2456" opacity="0.25"/><circle cx="123" cy="279" r="1.4" fill="#1f2456" opacity="0.25"/><circle cx="279" cy="343" r="1.4" fill="#1f2456" opacity="0.25"/>
<g data-collage-motif="samhalle"><circle cx="540" cy="420" r="40" fill="#6f74c2"/><circle cx="740" cy="400" r="34" fill="#6f74c2" opacity="0.86"/><circle cx="650" cy="560" r="30" fill="#6f74c2" opacity="0.8"/><path d="M540 420 L740 400 L650 560 Z" stroke="#1f2456" stroke-width="6" fill="none" stroke-linejoin="round"/></g>
<g fill="#6f74c2" opacity="0.9"><circle cx="104" cy="106" r="8"/><circle cx="130" cy="106" r="8"/><circle cx="156" cy="106" r="8"/></g>
</svg>