<svg xmlns="http://www.w3.org/2000/svg" width="1280" height="848" viewBox="0 0 1280 848">
<defs>
  <filter id="ds" x="-20%" y="-20%" width="140%" height="140%"><feDropShadow dx="0" dy="10" stdDeviation="10" flood-color="#000000" flood-opacity="0.18"/></filter>
  <filter id="fibre"><feTurbulence type="fractalNoise" baseFrequency="0.9" numOctaves="2" result="n"/><feColorMatrix in="n" type="saturate" values="0"/><feComponentTransfer><feFuncA type="linear" slope="0.05"/></feComponentTransfer><feComposite operator="in" in2="SourceGraphic"/></filter>
</defs>
<rect width="1280" height="848" fill="#f3ece1"/>
<g filter="url(#ds)">
<polygon points="68.0 60 137.1 55 219.2 56 287.3 64 355.4 59 418.6 56 503.7 66 561.8 62 639.9 61 708.0 60 707.0 530 635.9 529 561.8 534 490.7 536 432.6 532 347.4 536 280.3 533 203.2 523 148.1 533 76.0 530 710.0 531.0 638.9 475.8 567.8 426.6 496.7 371.3 425.6 322.1 354.4 259.9 283.3 222.7 212.2 155.4 141.1 113.2 70.0 51.0 70.0 53.0 141.1 106.2 212.2 165.4 283.3 221.7 354.4 270.9 425.6 325.1 496.7 366.3 567.8 421.6 638.9 476.8 710.0 537.0" fill="#e3e9f0" stroke="#232b3f" stroke-width="2.4" stroke-dasharray="2 6" stroke-linecap="round" transform="rotate(-3.5 390.0 295.0)"/>
<polygon points="564.0 240 634.3 239 699.7 236 787.0 246 847.3 242 927.7 241 998.0 246 1074.3 241 1144.7 237 1221.0 240 1214.0 760 1153.7 762 1066.3 766 997.0 763 917.7 753 860.3 763 786.0 755 705.7 753 628.3 755 558.0 760 1220.0 758.0 1146.7 703.2 1073.3 635.4 1000.0 592.7 926.7 519.9 853.3 472.1 780.0 404.3 706.7 346.6 633.3 303.8 560.0 237.0 560.0 245.0 633.3 299.8 706.7 359.6 780.0 406.3 853.3 467.1 926.7 527.9 1000.0 593.7 1073.3 637.4 1146.7 708.2 1220.0 759.0" fill="#7a8aa0" stroke="#232b3f" stroke-width="2.4" stroke-dasharray="2 6" stroke-linecap="round" transform="rotate(4.0 890.0 500.0)"/>
<polygon points="367.0 380 416.2 382 485.4 381 544.7 386 609.9 381 669.1 377 734.3 387 786.6 381 863.8 383 911.0 380 917.0 780 848.8 773 802.6 783 739.3 775 670.1 773 603.9 775 544.7 774 480.4 785 429.2 784 364.0 780 920.0 786.0 857.8 726.6 795.6 692.1 733.3 637.7 671.1 593.2 608.9 563.8 546.7 510.3 484.4 465.9 422.2 418.4 360.0 374.0 360.0 373.0 422.2 420.4 484.4 467.9 546.7 520.3 608.9 550.8 671.1 608.2 733.3 645.7 795.6 693.1 857.8 734.6 920.0 782.0" fill="#43506b" stroke="#232b3f" stroke-width="2.4" stroke-dasharray="2 6" stroke-linecap="round" transform="rotate(-1.5 640.0 580.0)"/>
</g>
<path d="M664 162 L609 235 L580 312 L502 312 L433 338 L359 313 L305 248 L306 162 L338 93 L370 25 L430 -29 L506 -8 L576 18 L643 71 Z" fill="#e3e9f0" opacity="0.16"/><path d="M1029 659 L1025 721 L991 773 L934 787 L883 773 L833 759 L788 721 L789 659 L795 600 L819 539 L879 526 L933 535 L986 551 L1008 606 Z" fill="#7a8aa0" opacity="0.16"/><path d="M1217 318 L1215 383 L1187 450 L1121 465 L1057 473 L987 459 L957 388 L953 318 L956 248 L1008 207 L1056 155 L1125 152 L1193 177 L1236 241 Z" fill="#e3e9f0" opacity="0.16"/><path d="M1153 243 L1157 340 L1086 399 L1010 423 L931 439 L871 381 L800 333 L778 243 L787 146 L846 72 L928 31 L1007 76 L1085 89 L1132 159 Z" fill="#7a8aa0" opacity="0.16"/><path d="M893 396 L870 443 L853 495 L806 522 L752 529 L703 501 L670 454 L684 396 L680 344 L712 304 L755 278 L805 275 L841 312 L898 334 Z" fill="#e3e9f0" opacity="0.16"/>
<g filter="url(#fibre)" opacity="0.6"><rect width="1280" height="848" fill="#232b3f"/></g>
<circle cx="222" cy="163" r="1.4" fill="#232b3f" opacity="0.25"/><circle cx="163" cy="212" r="1.4" fill="#232b3f" opacity="0.25"/><circle cx="212" cy="228" r="1.4" fill="#232b3f" opacity="0.25"/><circle cx="228" cy="206" r="1.4" fill="#232b3f" opacity="0.25"/><circle cx="206" cy="141" r="1.4" fill="#232b3f" opacity="0.25"/><circle cx="141" cy="288" r="1.4" fill="#232b3f" opacity="0.25"/><circle cx="288" cy="313" r="1.4" fill="#232b3f" opacity="0.25"/><circle cx="313" cy="339" r="1.4" fill="#232b3f" opacity="0.25"/><circle cx="339" cy="203" r="1.4" fill="#232b3f" opacity="0.25"/><circle cx="203" cy="358" r="1.4" fill="#232b3f" opacity="0.25"/><circle cx="358" cy="203" r="1.4" fill="#232b3f" opacity="0.25"/><circle cx="203" cy="244" r="1.4" fill="#232b3f" opacity="0.25"/><circle cx="244" cy="329" r="1.4" fill="#232b3f" opacity="0.25"/><circle cx="329" cy="173" r="1.4" fill="#232b3f" opacity="0.25"/><circle cx="173" cy="310" r="1.4" fill="#232b3f" opacity="0.25"/><circle cx="310" cy="282" r="1.4" fill="#232b3f" opacity="0.25"/><circle cx="282" cy="234" r="1.4" fill="#232b3f" opacity="0.25"/><circle cx="234" cy="177" r="1.4" fill="#232b3f" opacity="0.25"/><circle cx="177" cy="287" r="1.4" fill="#232b3f" opacity="0.25"/><circle cx="287" cy="221" r="1.4" fill="#232b3f" opacity="0.25"/><circle cx="221" cy="183" r="1.4" fill="#232b3f" opacity="0.25"/><circle cx="183" cy="218" r="1.4" fill="#232b3f" opacity="0.25"/><circle cx="218" cy="123" r="1.4" fill="#232b3f" opacity="0.25"/><circle cx="123" cy="136" r="1.4" fill="#232b3f" opacity="0.25"/><circle cx="136" cy="350" r="1.4" fill="#232b3f" opacity="0.25"/><circle cx="350" cy="316" r="1.4" fill="#232b3f" opacity="0.25"/><circle cx="316" cy="139" r="1.4" fill="#232b3f" opacity="0.25"/><circle cx="139" cy="269" r="1.4" fill="#232b3f" opacity="0.25"/><circle cx="269" cy="154" r="1.4" fill="#232b3f" opacity="0.25"/><circle cx="154" cy="147" r="1.4" fill="#232b3f" opacity="0.25"/><circle cx="147" cy="314" r="1.4" fill="#232b3f" opacity="0.25"/><circle cx="314" cy="222" r="1.4" fill="#232b3f" opacity="0.25"/><circle cx="222" cy="163" r="1.4" fill="#232b3f" opacity="0.25"/><circle cx="163" cy="212" r="1.4" fill="#232b3f" opacity="0.25"/><circle cx="212" cy="228" r="1.4" fill="#232b3f" opacity="0.25"/><circle cx="228" cy="206" r="1.4" fill="#232b3f" opacity="0.25"/>
<g data-collage-motif="miljö"><circle cx="540" cy="420" r="40" fill="#7a8aa0"/><circle cx="740" cy="400" r="34" fill="#7a8aa0" opacity="0.86"/><circle cx="650" cy="560" r="30" fill="#7a8aa0" opacity="0.8"/><path d="M540 420 L740 400 L650 560 Z" stroke="#232b3f" stroke-width="6" fill="none" stroke-linejoin="round"/></g>
<g fill="#7a8aa0" opacity="0.9"><circle cx="104" cy="106" r="8"/><circle cx="130" cy="106" r="8"/><circle cx="156" cy="106" r="8"/></g>
</svg>