<svg xmlns="http://www.w3.org/2000/svg" width="1280" height="848" viewBox="0 0 1280 848" data-palette="natur-0" data-motif-variant="0">
<defs>
  <filter id="ds" x="-20%" y="-20%" width="140%" height="140%"><feDropShadow dx="0" dy="10" stdDeviation="10" flood-color="#000000" flood-opacity="0.18"/></filter>
  <filter id="fibre"><feTurbulence type="fractalNoise" baseFrequency="0.9" numOctaves="2" result="n"/><feColorMatrix in="n" type="saturate" values="0"/><feComponentTransfer><feFuncA type="linear" slope="0.05"/></feComponentTransfer><feComposite operator="in" in2="SourceGraphic"/></filter>
</defs>
<rect width="1280" height="848" fill="#f3ece1"/>
<g filter="url(#ds)">
<polygon points="79.0 74 153.7 68 230.3 76 286.0 79 359.7 80 432.3 75 504.0 78 584.7 71 643.3 76 731.0 74 732.0 554 644.3 554 580.7 550 516.0 553 434.3 557 370.7 552 299.0 561 226.3 558 143.7 550 83.0 554 724.0 545.0 652.3 507.7 580.7 449.3 509.0 395.0 437.3 340.7 365.7 294.3 294.0 235.0 222.3 172.7 150.7 119.3 79.0 78.0 79.0 81.0 150.7 123.3 222.3 176.7 294.0 229.0 365.7 287.3 437.3 337.7 509.0 386.0 580.7 455.3 652.3 506.7 724.0 559.0" fill="#bfe3c8" stroke="#0c3a25" stroke-width="2.4" stroke-dasharray="2 6" stroke-linecap="round" transform="rotate(-5.5 401.5 314.0)"/>
<polygon points="532.0 230 609.9 236 686.8 231 762.7 234 847.6 227 910.4 232 1002.3 228 1073.2 228 1148.1 223 1223.0 230 1230.0 726 1144.1 729 1076.2 724 1000.3 733 923.4 730 836.6 722 771.7 725 695.8 726 620.9 725 540.0 726 1223.0 727.0 1147.1 670.9 1071.2 622.8 995.3 561.7 919.4 497.6 843.6 442.4 767.7 399.3 691.8 333.2 615.9 281.1 540.0 238.0 540.0 225.0 615.9 285.1 691.8 337.2 767.7 387.3 843.6 458.4 919.4 511.6 995.3 565.7 1071.2 620.8 1147.1 666.9 1223.0 735.0" fill="#3fa66b" stroke="#0c3a25" stroke-width="2.4" stroke-dasharray="2 6" stroke-linecap="round" transform="rotate(5.0 881.5 478.0)"/>
<polygon points="384.0 384 451.0 381 496.0 386 570.0 382 623.0 382 680.0 377 737.0 387 802.0 385 854.0 383 903.0 384 916.0 806 857.0 810 788.0 802 741.0 805 683.0 806 626.0 805 563.0 806 508.0 812 455.0 804 381.0 806 911.0 807.0 853.0 751.1 795.0 704.2 737.0 669.3 679.0 611.4 621.0 567.6 563.0 532.7 505.0 469.8 447.0 430.9 389.0 391.0 389.0 376.0 447.0 438.9 505.0 483.8 563.0 529.7 621.0 576.6 679.0 614.4 737.0 674.3 795.0 705.2 853.0 757.1 911.0 805.0" fill="#1f6f52" stroke="#0c3a25" stroke-width="2.4" stroke-dasharray="2 6" stroke-linecap="round" transform="rotate(-3.5 650.0 595.0)"/>
</g>
<path d="M677 406 L686 452 L651 480 L615 491 L578 497 L543 480 L507 453 L517 406 L511 361 L538 325 L576 307 L619 304 L645 340 L686 360 Z" fill="#bfe3c8" opacity="0.16"/><path d="M816 157 L807 205 L788 256 L736 256 L690 276 L646 252 L616 209 L601 157 L633 114 L643 59 L686 19 L741 32 L781 67 L801 112 Z" fill="#3fa66b" opacity="0.16"/><path d="M810 611 L791 696 L740 762 L670 805 L596 767 L513 770 L440 710 L439 611 L475 531 L533 480 L595 451 L672 406 L740 460 L794 525 Z" fill="#bfe3c8" opacity="0.16"/><path d="M760 468 L776 534 L748 602 L682 619 L622 603 L578 566 L548 521 L505 468 L530 405 L565 352 L615 303 L682 314 L730 358 L750 415 Z" fill="#3fa66b" opacity="0.16"/><path d="M1133 571 L1118 605 L1097 631 L1073 667 L1035 659 L1000 644 L966 617 L963 571 L981 533 L1010 512 L1033 477 L1072 480 L1099 508 L1116 538 Z" fill="#bfe3c8" opacity="0.16"/>
<g filter="url(#fibre)" opacity="0.6"><rect width="1280" height="848" fill="#0c3a25"/></g>
<circle cx="338" cy="322" r="1.4" fill="#0c3a25" opacity="0.25"/><circle cx="322" cy="346" r="1.4" fill="#0c3a25" opacity="0.25"/><circle cx="346" cy="159" r="1.4" fill="#0c3a25" opacity="0.25"/><circle cx="159" cy="237" r="1.4" fill="#0c3a25" opacity="0.25"/><circle cx="237" cy="238" r="1.4" fill="#0c3a25" opacity="0.25"/><circle cx="238" cy="143" r="1.4" fill="#0c3a25" opacity="0.25"/><circle cx="143" cy="266" r="1.4" fill="#0c3a25" opacity="0.25"/><circle cx="266" cy="139" r="1.4" fill="#0c3a25" opacity="0.25"/><circle cx="139" cy="174" r="1.4" fill="#0c3a25" opacity="0.25"/><circle cx="174" cy="245" r="1.4" fill="#0c3a25" opacity="0.25"/><circle cx="245" cy="320" r="1.4" fill="#0c3a25" opacity="0.25"/><circle cx="320" cy="300" r="1.4" fill="#0c3a25" opacity="0.25"/><circle cx="300" cy="250" r="1.4" fill="#0c3a25" opacity="0.25"/><circle cx="250" cy="263" r="1.4" fill="#0c3a25" opacity="0.25"/><circle cx="263" cy="216" r="1.4" fill="#0c3a25" opacity="0.25"/><circle cx="216" cy="349" r="1.4" fill="#0c3a25" opacity="0.25"/><circle cx="349" cy="304" r="1.4" fill="#0c3a25" opacity="0.25"/><circle cx="304" cy="122" r="1.4" fill="#0c3a25" opacity="0.25"/><circle cx="122" cy="182" r="1.4" fill="#0c3a25" opacity="0.25"/><circle cx="182" cy="137" r="1.4" fill="#0c3a25" opacity="0.25"/><circle cx="137" cy="140" r="1.4" fill="#0c3a25" opacity="0.25"/><circle cx="140" cy="262" r="1.4" fill="#0c3a25" opacity="0.25"/><circle cx="262" cy="326" r="1.4" fill="#0c3a25" opacity="0.25"/><circle cx="326" cy="278" r="1.4" fill="#0c3a25" opacity="0.25"/><circle cx="278" cy="229" r="1.4" fill="#0c3a25" opacity="0.25"/><circle cx="229" cy="324" r="1.4" fill="#0c3a25" opacity="0.25"/><circle cx="324" cy="285" r="1.4" fill="#0c3a25" opacity="0.25"/><circle cx="285" cy="198" r="1.4" fill="#0c3a25" opacity="0.25"/><circle cx="198" cy="266" r="1.4" fill="#0c3a25" opacity="0.25"/><circle cx="266" cy="323" r="1.4" fill="#0c3a25" opacity="0.25"/><circle cx="323" cy="172" r="1.4" fill="#0c3a25" opacity="0.25"/><circle cx="172" cy="338" r="1.4" fill="#0c3a25" opacity="0.25"/><circle cx="338" cy="322" r="1.4" fill="#0c3a25" opacity="0.25"/><circle cx="322" cy="346" r="1.4" fill="#0c3a25" opacity="0.25"/><circle cx="346" cy="159" r="1.4" fill="#0c3a25" opacity="0.25"/><circle cx="159" cy="237" r="1.4" fill="#0c3a25" opacity="0.25"/>
<g data-collage-motif="natur"><path d="M640 660 C520 560 520 380 640 250 C760 380 760 560 640 660 Z" fill="#3fa66b" opacity="0.82"/><path d="M640 650 V280" stroke="#0c3a25" stroke-width="6" fill="none" stroke-linecap="round"/><path d="M640 470 C600 450 575 430 552 405 M640 540 C684 520 709 500 732 475" stroke="#0c3a25" stroke-width="4" fill="none" stroke-linecap="round" opacity="0.8"/></g>
<g fill="#3fa66b" opacity="0.9"><circle cx="104" cy="106" r="8"/><circle cx="130" cy="106" r="8"/><circle cx="156" cy="106" r="8"/></g>
</svg>