<svg xmlns="http://www.w3.org/2000/svg" width="1280" height="848" viewBox="0 0 1280 848">
<defs>
  <filter id="ds" x="-20%" y="-20%" width="140%" height="140%"><feDropShadow dx="0" dy="10" stdDeviation="10" flood-color="#000000" flood-opacity="0.18"/></filter>
  <filter id="fibre"><feTurbulence type="fractalNoise" baseFrequency="0.9" numOctaves="2" result="n"/><feColorMatrix in="n" type="saturate" values="0"/><feComponentTransfer><feFuncA type="linear" slope="0.05"/></feComponentTransfer><feComposite operator="in" in2="SourceGraphic"/></filter>
</defs>
<rect width="1280" height="848" fill="#f3ece1"/>
<g filter="url(#ds)">
<polygon points="78.0 60 134.1 64 210.2 67 281.3 63 347.4 55 432.6 61 502.7 58 561.8 63 645.9 59 712.0 60 701.0 530 629.9 536 570.8 528 502.7 530 423.6 532 349.4 526 292.3 525 212.2 532 132.1 536 61.0 530 710.0 537.0 638.9 479.8 567.8 433.6 496.7 376.3 425.6 314.1 354.4 277.9 283.3 210.7 212.2 160.4 141.1 107.2 70.0 59.0 70.0 69.0 141.1 121.2 212.2 172.4 283.3 224.7 354.4 260.9 425.6 328.1 496.7 375.3 567.8 427.6 638.9 484.8 710.0 523.0" fill="#e3e9f0" stroke="#232b3f" stroke-width="2.4" stroke-dasharray="2 6" stroke-linecap="round" transform="rotate(-3.5 390.0 295.0)"/>
<polygon points="558.0 240 626.3 235 713.7 241 786.0 238 847.3 243 933.7 239 1002.0 239 1081.3 240 1149.7 235 1213.0 240 1226.0 760 1144.7 762 1068.3 756 1009.0 755 926.7 762 844.3 766 771.0 767 698.7 765 625.3 766 568.0 760 1220.0 763.0 1146.7 695.2 1073.3 653.4 1000.0 580.7 926.7 524.9 853.3 466.1 780.0 412.3 706.7 359.6 633.3 299.8 560.0 231.0 560.0 248.0 633.3 289.8 706.7 362.6 780.0 415.3 853.3 473.1 926.7 535.9 1000.0 579.7 1073.3 638.4 1146.7 708.2 1220.0 753.0" fill="#7a8aa0" stroke="#232b3f" stroke-width="2.4" stroke-dasharray="2 6" stroke-linecap="round" transform="rotate(4.0 890.0 500.0)"/>
<polygon points="366.0 380 416.2 383 491.4 379 548.7 379 616.9 380 674.1 375 726.3 381 804.6 379 851.8 386 916.0 380 929.0 780 857.8 782 786.6 786 724.3 787 663.1 785 600.9 786 554.7 776 477.4 776 420.2 773 358.0 780 920.0 774.0 857.8 731.6 795.6 686.1 733.3 645.7 671.1 606.2 608.9 559.8 546.7 504.3 484.4 459.9 422.2 427.4 360.0 386.0 360.0 382.0 422.2 426.4 484.4 475.9 546.7 506.3 608.9 551.8 671.1 608.2 733.3 639.7 795.6 689.1 857.8 727.6 920.0 777.0" fill="#43506b" stroke="#232b3f" stroke-width="2.4" stroke-dasharray="2 6" stroke-linecap="round" transform="rotate(-1.5 640.0 580.0)"/>
</g>
<path d="M385 340 L373 387 L358 442 L304 439 L262 441 L212 436 L184 392 L179 340 L179 285 L212 243 L263 243 L309 217 L341 261 L370 294 Z" fill="#e3e9f0" opacity="0.16"/><path d="M917 436 L928 528 L870 597 L792 625 L708 647 L629 603 L611 510 L553 436 L607 360 L648 295 L711 239 L790 256 L857 293 L954 330 Z" fill="#7a8aa0" opacity="0.16"/><path d="M353 616 L344 657 L309 674 L285 708 L250 691 L221 678 L193 654 L191 616 L200 581 L205 533 L248 528 L287 517 L324 537 L334 580 Z" fill="#e3e9f0" opacity="0.16"/><path d="M669 689 L663 732 L644 776 L601 789 L559 788 L503 794 L486 738 L462 689 L474 634 L521 608 L553 562 L604 574 L639 609 L666 644 Z" fill="#7a8aa0" opacity="0.16"/><path d="M406 559 L429 631 L372 669 L324 714 L259 713 L218 659 L158 629 L156 559 L186 504 L218 459 L261 418 L321 416 L377 442 L392 506 Z" fill="#e3e9f0" opacity="0.16"/>
<g filter="url(#fibre)" opacity="0.6"><rect width="1280" height="848" fill="#232b3f"/></g>
<circle cx="346" cy="236" r="1.4" fill="#232b3f" opacity="0.25"/><circle cx="236" cy="146" r="1.4" fill="#232b3f" opacity="0.25"/><circle cx="146" cy="374" r="1.4" fill="#232b3f" opacity="0.25"/><circle cx="374" cy="160" r="1.4" fill="#232b3f" opacity="0.25"/><circle cx="160" cy="212" r="1.4" fill="#232b3f" opacity="0.25"/><circle cx="212" cy="173" r="1.4" fill="#232b3f" opacity="0.25"/><circle cx="173" cy="275" r="1.4" fill="#232b3f" opacity="0.25"/><circle cx="275" cy="250" r="1.4" fill="#232b3f" opacity="0.25"/><circle cx="250" cy="321" r="1.4" fill="#232b3f" opacity="0.25"/><circle cx="321" cy="156" r="1.4" fill="#232b3f" opacity="0.25"/><circle cx="156" cy="322" r="1.4" fill="#232b3f" opacity="0.25"/><circle cx="322" cy="122" r="1.4" fill="#232b3f" opacity="0.25"/><circle cx="122" cy="233" r="1.4" fill="#232b3f" opacity="0.25"/><circle cx="233" cy="351" r="1.4" fill="#232b3f" opacity="0.25"/><circle cx="351" cy="163" r="1.4" fill="#232b3f" opacity="0.25"/><circle cx="163" cy="162" r="1.4" fill="#232b3f" opacity="0.25"/><circle cx="162" cy="299" r="1.4" fill="#232b3f" opacity="0.25"/><circle cx="299" cy="209" r="1.4" fill="#232b3f" opacity="0.25"/><circle cx="209" cy="150" r="1.4" fill="#232b3f" opacity="0.25"/><circle cx="150" cy="329" r="1.4" fill="#232b3f" opacity="0.25"/><circle cx="329" cy="272" r="1.4" fill="#232b3f" opacity="0.25"/><circle cx="272" cy="151" r="1.4" fill="#232b3f" opacity="0.25"/><circle cx="151" cy="249" r="1.4" fill="#232b3f" opacity="0.25"/><circle cx="249" cy="127" r="1.4" fill="#232b3f" opacity="0.25"/><circle cx="127" cy="200" r="1.4" fill="#232b3f" opacity="0.25"/><circle cx="200" cy="176" r="1.4" fill="#232b3f" opacity="0.25"/><circle cx="176" cy="357" r="1.4" fill="#232b3f" opacity="0.25"/><circle cx="357" cy="215" r="1.4" fill="#232b3f" opacity="0.25"/><circle cx="215" cy="196" r="1.4" fill="#232b3f" opacity="0.25"/><circle cx="196" cy="330" r="1.4" fill="#232b3f" opacity="0.25"/><circle cx="330" cy="197" r="1.4" fill="#232b3f" opacity="0.25"/><circle cx="197" cy="346" r="1.4" fill="#232b3f" opacity="0.25"/><circle cx="346" cy="236" r="1.4" fill="#232b3f" opacity="0.25"/><circle cx="236" cy="146" r="1.4" fill="#232b3f" opacity="0.25"/><circle cx="146" cy="374" r="1.4" fill="#232b3f" opacity="0.25"/><circle cx="374" cy="160" r="1.4" fill="#232b3f" opacity="0.25"/>
<g data-collage-motif="rymden"><circle cx="540" cy="420" r="40" fill="#7a8aa0"/><circle cx="740" cy="400" r="34" fill="#7a8aa0" opacity="0.86"/><circle cx="650" cy="560" r="30" fill="#7a8aa0" opacity="0.8"/><path d="M540 420 L740 400 L650 560 Z" stroke="#232b3f" stroke-width="6" fill="none" stroke-linejoin="round"/></g>
<g fill="#7a8aa0" opacity="0.9"><circle cx="104" cy="106" r="8"/><circle cx="130" cy="106" r="8"/><circle cx="156" cy="106" r="8"/></g>
</svg>