<svg xmlns="http://www.w3.org/2000/svg" width="1280" height="848" viewBox="0 0 1280 848" data-palette="teknik-0" data-motif-variant="2">
<defs>
  <filter id="ds" x="-20%" y="-20%" width="140%" height="140%"><feDropShadow dx="0" dy="10" stdDeviation="10" flood-color="#000000" flood-opacity="0.18"/></filter>
  <filter id="fibre"><feTurbulence type="fractalNoise" baseFrequency="0.9" numOctaves="2" result="n"/><feColorMatrix in="n" type="saturate" values="0"/><feComponentTransfer><feFuncA type="linear" slope="0.05"/></feComponentTransfer><feComposite operator="in" in2="SourceGraphic"/></filter>
</defs>
<rect width="1280" height="848" fill="#f3ece1"/>
<g filter="url(#ds)">
<polygon points="67.0 58 136.3 64 195.7 51 271.0 59 329.3 58 414.7 52 470.0 59 543.3 51 605.7 59 686.0 58 688.0 552 613.7 545 551.3 551 467.0 552 399.7 545 329.3 557 276.0 559 195.7 559 126.3 557 62.0 552 684.0 543.0 614.7 499.1 545.3 442.2 476.0 379.3 406.7 324.4 337.3 276.6 268.0 216.7 198.7 160.8 129.3 110.9 60.0 52.0 60.0 61.0 129.3 110.9 198.7 166.8 268.0 214.7 337.3 270.6 406.7 325.4 476.0 390.3 545.3 439.2 614.7 505.1 684.0 544.0" fill="#cfe3f4" stroke="#13283f" stroke-width="2.4" stroke-dasharray="2 6" stroke-linecap="round" transform="rotate(-4.5 372.0 305.0)"/>
<polygon points="576.0 245 634.2 245 719.4 239 774.7 246 847.9 238 910.1 246 990.3 252 1057.6 252 1118.8 241 1188.0 245 1187.0 727 1119.8 720 1049.6 732 996.3 734 916.1 734 846.9 732 782.7 730 712.4 729 650.2 723 580.0 727 1196.0 719.0 1126.8 665.4 1057.6 618.9 988.3 560.3 919.1 505.8 849.9 457.2 780.7 399.7 711.4 354.1 642.2 294.6 573.0 249.0 573.0 237.0 642.2 291.6 711.4 345.1 780.7 408.7 849.9 456.2 919.1 520.8 988.3 558.3 1057.6 625.9 1126.8 675.4 1196.0 736.0" fill="#3f78a8" stroke="#13283f" stroke-width="2.4" stroke-dasharray="2 6" stroke-linecap="round" transform="rotate(3.0 884.5 486.0)"/>
<polygon points="351.0 374 413.6 367 465.1 375 534.7 381 591.2 381 641.8 370 700.3 372 765.9 370 819.4 369 877.0 374 892.0 792 822.4 799 763.9 797 710.3 795 650.8 794 599.2 788 539.7 798 481.1 786 412.6 799 360.0 792 884.0 786.0 825.4 738.6 766.9 697.1 708.3 646.7 649.8 608.2 591.2 555.8 532.7 517.3 474.1 465.9 415.6 426.4 357.0 365.0 357.0 377.0 415.6 417.4 474.1 474.9 532.7 505.3 591.2 565.8 649.8 608.2 708.3 661.7 766.9 697.1 825.4 745.6 884.0 800.0" fill="#26405e" stroke="#13283f" stroke-width="2.4" stroke-dasharray="2 6" stroke-linecap="round" transform="rotate(-4.5 620.5 583.0)"/>
</g>
<path d="M1300 391 L1269 463 L1212 501 L1168 567 L1091 580 L1047 505 L976 472 L986 391 L1015 331 L1020 239 L1091 202 L1169 212 L1220 270 L1287 309 Z" fill="#cfe3f4" opacity="0.16"/><path d="M594 110 L551 159 L540 222 L483 228 L436 214 L373 226 L335 174 L329 110 L360 59 L375 -3 L435 2 L480 4 L532 9 L579 47 Z" fill="#3f78a8" opacity="0.16"/><path d="M680 446 L714 535 L662 606 L584 636 L510 606 L429 602 L417 512 L405 446 L396 369 L428 288 L508 276 L585 249 L644 309 L668 381 Z" fill="#cfe3f4" opacity="0.16"/><path d="M461 117 L469 161 L429 177 L401 192 L367 205 L327 197 L312 155 L291 117 L312 79 L342 58 L368 37 L401 42 L441 41 L466 74 Z" fill="#3f78a8" opacity="0.16"/><path d="M1051 546 L1054 615 L1001 653 L955 700 L895 679 L856 637 L818 601 L814 546 L798 481 L836 427 L894 410 L950 417 L999 442 L1021 495 Z" fill="#cfe3f4" opacity="0.16"/>
<g filter="url(#fibre)" opacity="0.6"><rect width="1280" height="848" fill="#13283f"/></g>
<circle cx="326" cy="136" r="1.4" fill="#13283f" opacity="0.25"/><circle cx="136" cy="373" r="1.4" fill="#13283f" opacity="0.25"/><circle cx="373" cy="360" r="1.4" fill="#13283f" opacity="0.25"/><circle cx="360" cy="368" r="1.4" fill="#13283f" opacity="0.25"/><circle cx="368" cy="232" r="1.4" fill="#13283f" opacity="0.25"/><circle cx="232" cy="256" r="1.4" fill="#13283f" opacity="0.25"/><circle cx="256" cy="203" r="1.4" fill="#13283f" opacity="0.25"/><circle cx="203" cy="120" r="1.4" fill="#13283f" opacity="0.25"/><circle cx="120" cy="188" r="1.4" fill="#13283f" opacity="0.25"/><circle cx="188" cy="224" r="1.4" fill="#13283f" opacity="0.25"/><circle cx="224" cy="254" r="1.4" fill="#13283f" opacity="0.25"/><circle cx="254" cy="273" r="1.4" fill="#13283f" opacity="0.25"/><circle cx="273" cy="185" r="1.4" fill="#13283f" opacity="0.25"/><circle cx="185" cy="123" r="1.4" fill="#13283f" opacity="0.25"/><circle cx="123" cy="122" r="1.4" fill="#13283f" opacity="0.25"/><circle cx="122" cy="317" r="1.4" fill="#13283f" opacity="0.25"/><circle cx="317" cy="294" r="1.4" fill="#13283f" opacity="0.25"/><circle cx="294" cy="207" r="1.4" fill="#13283f" opacity="0.25"/><circle cx="207" cy="258" r="1.4" fill="#13283f" opacity="0.25"/><circle cx="258" cy="171" r="1.4" fill="#13283f" opacity="0.25"/><circle cx="171" cy="337" r="1.4" fill="#13283f" opacity="0.25"/><circle cx="337" cy="344" r="1.4" fill="#13283f" opacity="0.25"/><circle cx="344" cy="158" r="1.4" fill="#13283f" opacity="0.25"/><circle cx="158" cy="217" r="1.4" fill="#13283f" opacity="0.25"/><circle cx="217" cy="254" r="1.4" fill="#13283f" opacity="0.25"/><circle cx="254" cy="137" r="1.4" fill="#13283f" opacity="0.25"/><circle cx="137" cy="240" r="1.4" fill="#13283f" opacity="0.25"/><circle cx="240" cy="240" r="1.4" fill="#13283f" opacity="0.25"/><circle cx="240" cy="302" r="1.4" fill="#13283f" opacity="0.25"/><circle cx="302" cy="244" r="1.4" fill="#13283f" opacity="0.25"/><circle cx="244" cy="365" r="1.4" fill="#13283f" opacity="0.25"/><circle cx="365" cy="326" r="1.4" fill="#13283f" opacity="0.25"/><circle cx="326" cy="136" r="1.4" fill="#13283f" opacity="0.25"/><circle cx="136" cy="373" r="1.4" fill="#13283f" opacity="0.25"/><circle cx="373" cy="360" r="1.4" fill="#13283f" opacity="0.25"/><circle cx="360" cy="368" r="1.4" fill="#13283f" opacity="0.25"/>
<g data-collage-motif="teknik"><rect x="470" y="300" width="200" height="140" rx="14" fill="#3f78a8" opacity="0.82"/><rect x="560" y="420" width="160" height="110" rx="12" fill="#3f78a8" opacity="0.7"/><rect x="690" y="500" width="130" height="90" rx="10" fill="#3f78a8" opacity="0.6"/></g>
<g fill="#3f78a8" opacity="0.9"><circle cx="104" cy="106" r="8"/><circle cx="130" cy="106" r="8"/><circle cx="156" cy="106" r="8"/></g>
</svg>