<svg xmlns="http://www.w3.org/2000/svg" width="1280" height="848" viewBox="0 0 1280 848">
<defs>
  <filter id="ds" x="-20%" y="-20%" width="140%" height="140%"><feDropShadow dx="0" dy="10" stdDeviation="10" flood-color="#000000" flood-opacity="0.18"/></filter>
  <filter id="fibre"><feTurbulence type="fractalNoise" baseFrequency="0.9" numOctaves="2" result="n"/><feColorMatrix in="n" type="saturate" values="0"/><feComponentTransfer><feFuncA type="linear" slope="0.05"/></feComponentTransfer><feComposite operator="in" in2="SourceGraphic"/></filter>
</defs>
<rect width="1280" height="848" fill="#f3ece1"/>
<g filter="url(#ds)">
<polygon points="71.0 60 135.1 67 213.2 60 279.3 56 362.4 53 419.6 65 505.7 58 573.8 58 647.9 67 708.0 60 709.0 530 647.9 533 560.8 535 499.7 523 420.6 527 353.4 536 285.3 524 221.2 528 137.1 536 77.0 530 710.0 539.0 638.9 475.8 567.8 427.6 496.7 364.3 425.6 328.1 354.4 264.9 283.3 215.7 212.2 156.4 141.1 114.2 70.0 69.0 70.0 64.0 141.1 105.2 212.2 171.4 283.3 217.7 354.4 267.9 425.6 327.1 496.7 372.3 567.8 429.6 638.9 469.8 710.0 536.0" fill="#e3e9f0" stroke="#232b3f" stroke-width="2.4" stroke-dasharray="2 6" stroke-linecap="round" transform="rotate(-3.5 390.0 295.0)"/>
<polygon points="556.0 240 641.3 233 700.7 245 789.0 238 859.3 238 935.7 247 998.0 234 1075.3 237 1137.7 233 1227.0 240 1223.0 760 1141.7 757 1072.3 766 1002.0 754 935.7 758 849.3 766 787.0 758 699.7 761 632.3 755 561.0 760 1220.0 751.0 1146.7 709.2 1073.3 640.4 1000.0 585.7 926.7 520.9 853.3 473.1 780.0 422.3 706.7 354.6 633.3 290.8 560.0 239.0 560.0 241.0 633.3 296.8 706.7 361.6 780.0 412.3 853.3 475.1 926.7 520.9 1000.0 592.7 1073.3 635.4 1146.7 696.2 1220.0 751.0" fill="#7a8aa0" stroke="#232b3f" stroke-width="2.4" stroke-dasharray="2 6" stroke-linecap="round" transform="rotate(4.0 890.0 500.0)"/>
<polygon points="369.0 380 428.2 378 493.4 387 544.7 374 610.9 377 662.1 373 740.3 387 791.6 382 856.8 381 912.0 380 922.0 780 866.8 778 791.6 786 740.3 778 664.1 781 607.9 775 547.7 783 478.4 773 423.2 780 356.0 780 920.0 779.0 857.8 727.6 795.6 693.1 733.3 655.7 671.1 601.2 608.9 550.8 546.7 512.3 484.4 477.9 422.2 417.4 360.0 383.0 360.0 379.0 422.2 428.4 484.4 460.9 546.7 519.3 608.9 548.8 671.1 596.2 733.3 637.7 795.6 693.1 857.8 733.6 920.0 789.0" fill="#43506b" stroke="#232b3f" stroke-width="2.4" stroke-dasharray="2 6" stroke-linecap="round" transform="rotate(-1.5 640.0 580.0)"/>
</g>
<path d="M653 260 L622 324 L605 405 L531 415 L464 428 L397 398 L352 337 L370 260 L350 182 L419 150 L459 71 L534 96 L586 141 L628 193 Z" fill="#e3e9f0" opacity="0.16"/><path d="M794 536 L778 646 L713 734 L609 732 L515 788 L453 693 L338 656 L346 536 L388 442 L441 362 L522 317 L624 270 L704 351 L782 424 Z" fill="#7a8aa0" opacity="0.16"/><path d="M773 157 L707 238 L700 358 L598 376 L511 354 L434 318 L379 248 L319 157 L370 62 L414 -30 L509 -46 L604 -92 L669 -3 L716 71 Z" fill="#e3e9f0" opacity="0.16"/><path d="M802 320 L786 415 L732 493 L660 581 L557 547 L459 518 L422 416 L356 320 L426 226 L485 156 L561 109 L661 52 L734 144 L796 220 Z" fill="#7a8aa0" opacity="0.16"/><path d="M756 536 L753 601 L704 638 L662 692 L603 661 L558 633 L523 591 L479 536 L518 478 L551 429 L596 379 L660 387 L714 421 L742 477 Z" fill="#e3e9f0" opacity="0.16"/>
<g filter="url(#fibre)" opacity="0.6"><rect width="1280" height="848" fill="#232b3f"/></g>
<circle cx="282" cy="199" r="1.4" fill="#232b3f" opacity="0.25"/><circle cx="199" cy="149" r="1.4" fill="#232b3f" opacity="0.25"/><circle cx="149" cy="277" r="1.4" fill="#232b3f" opacity="0.25"/><circle cx="277" cy="213" r="1.4" fill="#232b3f" opacity="0.25"/><circle cx="213" cy="180" r="1.4" fill="#232b3f" opacity="0.25"/><circle cx="180" cy="252" r="1.4" fill="#232b3f" opacity="0.25"/><circle cx="252" cy="230" r="1.4" fill="#232b3f" opacity="0.25"/><circle cx="230" cy="290" r="1.4" fill="#232b3f" opacity="0.25"/><circle cx="290" cy="374" r="1.4" fill="#232b3f" opacity="0.25"/><circle cx="374" cy="226" r="1.4" fill="#232b3f" opacity="0.25"/><circle cx="226" cy="139" r="1.4" fill="#232b3f" opacity="0.25"/><circle cx="139" cy="345" r="1.4" fill="#232b3f" opacity="0.25"/><circle cx="345" cy="239" r="1.4" fill="#232b3f" opacity="0.25"/><circle cx="239" cy="204" r="1.4" fill="#232b3f" opacity="0.25"/><circle cx="204" cy="368" r="1.4" fill="#232b3f" opacity="0.25"/><circle cx="368" cy="245" r="1.4" fill="#232b3f" opacity="0.25"/><circle cx="245" cy="290" r="1.4" fill="#232b3f" opacity="0.25"/><circle cx="290" cy="204" r="1.4" fill="#232b3f" opacity="0.25"/><circle cx="204" cy="369" r="1.4" fill="#232b3f" opacity="0.25"/><circle cx="369" cy="166" r="1.4" fill="#232b3f" opacity="0.25"/><circle cx="166" cy="271" r="1.4" fill="#232b3f" opacity="0.25"/><circle cx="271" cy="274" r="1.4" fill="#232b3f" opacity="0.25"/><circle cx="274" cy="227" r="1.4" fill="#232b3f" opacity="0.25"/><circle cx="227" cy="314" r="1.4" fill="#232b3f" opacity="0.25"/><circle cx="314" cy="280" r="1.4" fill="#232b3f" opacity="0.25"/><circle cx="280" cy="226" r="1.4" fill="#232b3f" opacity="0.25"/><circle cx="226" cy="328" r="1.4" fill="#232b3f" opacity="0.25"/><circle cx="328" cy="144" r="1.4" fill="#232b3f" opacity="0.25"/><circle cx="144" cy="136" r="1.4" fill="#232b3f" opacity="0.25"/><circle cx="136" cy="369" r="1.4" fill="#232b3f" opacity="0.25"/><circle cx="369" cy="261" r="1.4" fill="#232b3f" opacity="0.25"/><circle cx="261" cy="282" r="1.4" fill="#232b3f" opacity="0.25"/><circle cx="282" cy="199" r="1.4" fill="#232b3f" opacity="0.25"/><circle cx="199" cy="149" r="1.4" fill="#232b3f" opacity="0.25"/><circle cx="149" cy="277" r="1.4" fill="#232b3f" opacity="0.25"/><circle cx="277" cy="213" r="1.4" fill="#232b3f" opacity="0.25"/>
<g data-collage-motif="hälsa"><circle cx="540" cy="420" r="40" fill="#7a8aa0"/><circle cx="740" cy="400" r="34" fill="#7a8aa0" opacity="0.86"/><circle cx="650" cy="560" r="30" fill="#7a8aa0" opacity="0.8"/><path d="M540 420 L740 400 L650 560 Z" stroke="#232b3f" stroke-width="6" fill="none" stroke-linejoin="round"/></g>
<g fill="#7a8aa0" opacity="0.9"><circle cx="104" cy="106" r="8"/><circle cx="130" cy="106" r="8"/><circle cx="156" cy="106" r="8"/></g>
</svg>