<svg xmlns="http://www.w3.org/2000/svg" width="1280" height="848" viewBox="0 0 1280 848" data-palette="halsa-0" data-motif-variant="0">
<defs>
  <filter id="ds" x="-20%" y="-20%" width="140%" height="140%"><feDropShadow dx="0" dy="10" stdDeviation="10" flood-color="#000000" flood-opacity="0.18"/></filter>
  <filter id="fibre"><feTurbulence type="fractalNoise" baseFrequency="0.9" numOctaves="2" result="n"/><feColorMatrix in="n" type="saturate" values="0"/><feComponentTransfer><feFuncA type="linear" slope="0.05"/></feComponentTransfer><feComposite operator="in" in2="SourceGraphic"/></filter>
</defs>
<rect width="1280" height="848" fill="#f3ece1"/>
<g filter="url(#ds)">
<polygon points="92.0 61 162.2 65 229.4 63 300.7 57 369.9 59 439.1 57 503.3 61 585.6 64 643.8 65 719.0 61 724.0 554 637.8 561 584.6 550 511.3 558 427.1 549 359.9 559 291.7 551 231.4 560 156.2 549 87.0 554 717.0 551.0 646.8 501.2 576.6 452.4 506.3 384.7 436.1 343.9 365.9 279.1 295.7 229.3 225.4 161.6 155.2 114.8 85.0 67.0 85.0 60.0 155.2 113.8 225.4 171.6 295.7 224.3 365.9 273.1 436.1 327.9 506.3 385.7 576.6 439.4 646.8 495.2 717.0 551.0" fill="#fbd9e1" stroke="#5e132b" stroke-width="2.4" stroke-dasharray="2 6" stroke-linecap="round" transform="rotate(-2.5 401.0 307.5)"/>
<polygon points="560.0 258 634.8 256 709.6 254 779.3 258 867.1 261 930.9 262 1011.7 258 1093.4 254 1156.2 251 1246.0 258 1242.0 814 1152.2 809 1079.4 819 1005.7 811 939.9 820 859.1 809 784.3 813 705.6 812 631.8 821 562.0 814 1237.0 809.0 1161.2 761.2 1085.4 689.4 1009.7 632.7 933.9 557.9 858.1 504.1 782.3 449.3 706.6 379.6 630.8 324.8 555.0 265.0 555.0 257.0 630.8 312.8 706.6 374.6 782.3 439.3 858.1 500.1 933.9 562.9 1009.7 625.7 1085.4 693.4 1161.2 743.2 1237.0 817.0" fill="#e07a94" stroke="#5e132b" stroke-width="2.4" stroke-dasharray="2 6" stroke-linecap="round" transform="rotate(5.0 896.0 536.0)"/>
<polygon points="345.0 384 418.9 387 468.8 388 535.7 384 603.6 380 652.4 377 728.3 380 780.2 389 847.1 378 896.0 384 901.0 758 849.1 764 782.2 753 721.3 757 656.4 756 596.6 765 540.7 754 478.8 754 413.9 756 353.0 758 905.0 762.0 843.1 707.4 781.2 673.9 719.3 639.3 657.4 589.8 595.6 555.2 533.7 515.7 471.8 458.1 409.9 433.6 348.0 389.0 348.0 380.0 409.9 420.6 471.8 463.1 533.7 505.7 595.6 553.2 657.4 582.8 719.3 636.3 781.2 672.9 843.1 708.4 905.0 763.0" fill="#9c2f4a" stroke="#5e132b" stroke-width="2.4" stroke-dasharray="2 6" stroke-linecap="round" transform="rotate(-2.5 626.5 571.0)"/>
</g>
<path d="M666 235 L674 295 L621 318 L588 366 L539 337 L490 330 L445 295 L463 235 L447 176 L492 143 L538 129 L590 93 L622 151 L665 180 Z" fill="#fbd9e1" opacity="0.16"/><path d="M342 172 L346 212 L330 254 L286 250 L249 272 L219 242 L202 208 L168 172 L202 137 L215 97 L253 90 L287 92 L320 104 L342 135 Z" fill="#e07a94" opacity="0.16"/><path d="M708 644 L679 698 L642 734 L608 794 L553 755 L499 749 L478 695 L470 644 L476 592 L507 550 L549 515 L602 519 L661 529 L678 591 Z" fill="#fbd9e1" opacity="0.16"/><path d="M1032 667 L1038 725 L995 759 L951 779 L902 785 L858 761 L817 725 L809 667 L805 603 L856 571 L903 552 L959 514 L999 569 L1028 614 Z" fill="#e07a94" opacity="0.16"/><path d="M322 672 L305 752 L268 831 L192 864 L106 892 L44 819 L2 750 L-69 672 L-8 588 L45 526 L107 456 L197 458 L250 539 L317 586 Z" fill="#fbd9e1" opacity="0.16"/>
<g filter="url(#fibre)" opacity="0.6"><rect width="1280" height="848" fill="#5e132b"/></g>
<circle cx="345" cy="326" r="1.4" fill="#5e132b" opacity="0.25"/><circle cx="326" cy="266" r="1.4" fill="#5e132b" opacity="0.25"/><circle cx="266" cy="324" r="1.4" fill="#5e132b" opacity="0.25"/><circle cx="324" cy="228" r="1.4" fill="#5e132b" opacity="0.25"/><circle cx="228" cy="170" r="1.4" fill="#5e132b" opacity="0.25"/><circle cx="170" cy="183" r="1.4" fill="#5e132b" opacity="0.25"/><circle cx="183" cy="157" r="1.4" fill="#5e132b" opacity="0.25"/><circle cx="157" cy="145" r="1.4" fill="#5e132b" opacity="0.25"/><circle cx="145" cy="131" r="1.4" fill="#5e132b" opacity="0.25"/><circle cx="131" cy="232" r="1.4" fill="#5e132b" opacity="0.25"/><circle cx="232" cy="333" r="1.4" fill="#5e132b" opacity="0.25"/><circle cx="333" cy="195" r="1.4" fill="#5e132b" opacity="0.25"/><circle cx="195" cy="318" r="1.4" fill="#5e132b" opacity="0.25"/><circle cx="318" cy="342" r="1.4" fill="#5e132b" opacity="0.25"/><circle cx="342" cy="196" r="1.4" fill="#5e132b" opacity="0.25"/><circle cx="196" cy="128" r="1.4" fill="#5e132b" opacity="0.25"/><circle cx="128" cy="344" r="1.4" fill="#5e132b" opacity="0.25"/><circle cx="344" cy="317" r="1.4" fill="#5e132b" opacity="0.25"/><circle cx="317" cy="134" r="1.4" fill="#5e132b" opacity="0.25"/><circle cx="134" cy="364" r="1.4" fill="#5e132b" opacity="0.25"/><circle cx="364" cy="310" r="1.4" fill="#5e132b" opacity="0.25"/><circle cx="310" cy="270" r="1.4" fill="#5e132b" opacity="0.25"/><circle cx="270" cy="191" r="1.4" fill="#5e132b" opacity="0.25"/><circle cx="191" cy="348" r="1.4" fill="#5e132b" opacity="0.25"/><circle cx="348" cy="237" r="1.4" fill="#5e132b" opacity="0.25"/><circle cx="237" cy="182" r="1.4" fill="#5e132b" opacity="0.25"/><circle cx="182" cy="325" r="1.4" fill="#5e132b" opacity="0.25"/><circle cx="325" cy="301" r="1.4" fill="#5e132b" opacity="0.25"/><circle cx="301" cy="207" r="1.4" fill="#5e132b" opacity="0.25"/><circle cx="207" cy="128" r="1.4" fill="#5e132b" opacity="0.25"/><circle cx="128" cy="339" r="1.4" fill="#5e132b" opacity="0.25"/><circle cx="339" cy="345" r="1.4" fill="#5e132b" opacity="0.25"/><circle cx="345" cy="326" r="1.4" fill="#5e132b" opacity="0.25"/><circle cx="326" cy="266" r="1.4" fill="#5e132b" opacity="0.25"/><circle cx="266" cy="324" r="1.4" fill="#5e132b" opacity="0.25"/><circle cx="324" cy="228" r="1.4" fill="#5e132b" opacity="0.25"/>
<g data-collage-motif="halsa"><path d="M400 440 H560 L600 320 L660 560 L700 440 H880" stroke="#5e132b" stroke-width="9" fill="none" stroke-linecap="round" stroke-linejoin="round"/><circle cx="640" cy="440" r="40" fill="#e07a94" opacity="0.8"/></g>
<g fill="#e07a94" opacity="0.9"><circle cx="104" cy="106" r="8"/><circle cx="130" cy="106" r="8"/><circle cx="156" cy="106" r="8"/></g>
</svg>