<svg xmlns="http://www.w3.org/2000/svg" width="1280" height="848" viewBox="0 0 1280 848">
<defs>
  <linearGradient id="bg" x1="0" y1="0" x2="1" y2="1"><stop stop-color="#062f2b"/><stop offset="1" stop-color="#0e7467"/></linearGradient>
  <radialGradient id="glow"><stop stop-color="#f5c45d" stop-opacity=".72"/><stop offset="1" stop-color="#f5c45d" stop-opacity="0"/></radialGradient>
</defs>
<rect width="1280" height="848" fill="url(#bg)"/>
<circle cx="722" cy="404" r="390" fill="url(#glow)"/>
<circle cx="745" cy="673" r="104" fill="#d7fff4" opacity="0.128"/><circle cx="754" cy="449" r="197" fill="#d7fff4" opacity="0.120"/><circle cx="741" cy="285" r="236" fill="#d7fff4" opacity="0.165"/><circle cx="279" cy="252" r="83" fill="#d7fff4" opacity="0.098"/><circle cx="314" cy="446" r="151" fill="#d7fff4" opacity="0.165"/><circle cx="1034" cy="155" r="220" fill="#d7fff4" opacity="0.232"/><circle cx="253" cy="446" r="178" fill="#d7fff4" opacity="0.194"/>
<path d="M0 618 C260 468 450 728 690 573S1080 578 1280 488V848H0Z" fill="#062f2b" opacity=".28"/>
<g fill="none" stroke="#d7fff4" stroke-width="18" opacity=".72">
  <ellipse cx="640" cy="424" rx="238" ry="112" transform="rotate(-18 640 424)"/>
  <ellipse cx="640" cy="424" rx="238" ry="112" transform="rotate(42 640 424)"/>
</g><circle cx="640" cy="424" r="54" fill="#f5c45d"/>
<g fill="#f5c45d" opacity=".9"><circle cx="104" cy="106" r="8"/><circle cx="130" cy="106" r="8"/><circle cx="156" cy="106" r="8"/></g>
</svg>