<svg xmlns="http://www.w3.org/2000/svg" width="1280" height="848" viewBox="0 0 1280 848">
<defs>
  <filter id="ds" x="-20%" y="-20%" width="140%" height="140%"><feDropShadow dx="0" dy="10" stdDeviation="10" flood-color="#000000" flood-opacity="0.18"/></filter>
  <filter id="fibre"><feTurbulence type="fractalNoise" baseFrequency="0.9" numOctaves="2" result="n"/><feColorMatrix in="n" type="saturate" values="0"/><feComponentTransfer><feFuncA type="linear" slope="0.05"/></feComponentTransfer><feComposite operator="in" in2="SourceGraphic"/></filter>
</defs>
<rect width="1280" height="848" fill="#f3ece1"/>
<g filter="url(#ds)">
<polygon points="79.0 60 133.1 55 219.2 64 276.3 56 350.4 53 434.6 55 489.7 65 576.8 53 640.9 58 701.0 60 708.0 530 630.9 525 564.8 529 502.7 531 427.6 523 349.4 530 280.3 532 214.2 537 135.1 534 73.0 530 710.0 532.0 638.9 468.8 567.8 416.6 496.7 376.3 425.6 313.1 354.4 273.9 283.3 225.7 212.2 170.4 141.1 109.2 70.0 60.0 70.0 66.0 141.1 109.2 212.2 160.4 283.3 213.7 354.4 259.9 425.6 329.1 496.7 366.3 567.8 432.6 638.9 481.8 710.0 521.0" fill="#d9def0" stroke="#1f2456" stroke-width="2.4" stroke-dasharray="2 6" stroke-linecap="round" transform="rotate(-3.5 390.0 295.0)"/>
<polygon points="553.0 240 629.3 233 715.7 235 773.0 245 862.3 233 928.7 238 991.0 245 1064.3 247 1149.7 239 1212.0 240 1226.0 760 1148.7 753 1068.3 760 997.0 762 928.7 767 847.3 764 783.0 760 710.7 756 636.3 765 569.0 760 1220.0 763.0 1146.7 694.2 1073.3 649.4 1000.0 595.7 926.7 534.9 853.3 468.1 780.0 413.3 706.7 354.6 633.3 304.8 560.0 238.0 560.0 237.0 633.3 288.8 706.7 363.6 780.0 406.3 853.3 478.1 926.7 532.9 1000.0 577.7 1073.3 651.4 1146.7 693.2 1220.0 758.0" fill="#6f74c2" stroke="#1f2456" stroke-width="2.4" stroke-dasharray="2 6" stroke-linecap="round" transform="rotate(4.0 890.0 500.0)"/>
<polygon points="353.0 380 431.2 373 486.4 378 537.7 385 599.9 387 674.1 379 725.3 384 800.6 376 866.8 385 926.0 380 917.0 780 859.8 787 789.6 784 736.3 780 675.1 776 611.9 785 555.7 782 476.4 785 429.2 776 353.0 780 920.0 789.0 857.8 741.6 795.6 688.1 733.3 646.7 671.1 601.2 608.9 564.8 546.7 511.3 484.4 460.9 422.2 421.4 360.0 386.0 360.0 373.0 422.2 431.4 484.4 472.9 546.7 504.3 608.9 564.8 671.1 593.2 733.3 644.7 795.6 700.1 857.8 744.6 920.0 777.0" fill="#3a3f7a" stroke="#1f2456" stroke-width="2.4" stroke-dasharray="2 6" stroke-linecap="round" transform="rotate(-1.5 640.0 580.0)"/>
</g>
<path d="M760 298 L759 338 L735 371 L699 378 L661 397 L638 358 L619 331 L593 298 L598 254 L627 223 L663 207 L701 208 L737 223 L770 252 Z" fill="#d9def0" opacity="0.16"/><path d="M807 185 L760 238 L728 280 L689 335 L625 343 L571 304 L534 250 L522 185 L531 118 L561 52 L628 44 L682 69 L752 57 L757 133 Z" fill="#6f74c2" opacity="0.16"/><path d="M502 521 L479 588 L438 639 L382 666 L320 672 L254 655 L231 584 L242 521 L215 449 L283 427 L318 360 L379 394 L421 427 L478 455 Z" fill="#d9def0" opacity="0.16"/><path d="M538 155 L537 222 L485 258 L431 261 L378 300 L347 240 L285 220 L301 155 L319 108 L330 48 L378 7 L436 28 L487 49 L514 100 Z" fill="#6f74c2" opacity="0.16"/><path d="M842 561 L788 614 L783 694 L713 691 L661 681 L597 683 L543 636 L549 561 L558 494 L603 448 L658 426 L716 416 L777 437 L792 506 Z" fill="#d9def0" opacity="0.16"/>
<g filter="url(#fibre)" opacity="0.6"><rect width="1280" height="848" fill="#1f2456"/></g>
<circle cx="347" cy="140" r="1.4" fill="#1f2456" opacity="0.25"/><circle cx="140" cy="212" r="1.4" fill="#1f2456" opacity="0.25"/><circle cx="212" cy="236" r="1.4" fill="#1f2456" opacity="0.25"/><circle cx="236" cy="258" r="1.4" fill="#1f2456" opacity="0.25"/><circle cx="258" cy="195" r="1.4" fill="#1f2456" opacity="0.25"/><circle cx="195" cy="122" r="1.4" fill="#1f2456" opacity="0.25"/><circle cx="122" cy="252" r="1.4" fill="#1f2456" opacity="0.25"/><circle cx="252" cy="150" r="1.4" fill="#1f2456" opacity="0.25"/><circle cx="150" cy="215" r="1.4" fill="#1f2456" opacity="0.25"/><circle cx="215" cy="177" r="1.4" fill="#1f2456" opacity="0.25"/><circle cx="177" cy="284" r="1.4" fill="#1f2456" opacity="0.25"/><circle cx="284" cy="216" r="1.4" fill="#1f2456" opacity="0.25"/><circle cx="216" cy="191" r="1.4" fill="#1f2456" opacity="0.25"/><circle cx="191" cy="138" r="1.4" fill="#1f2456" opacity="0.25"/><circle cx="138" cy="192" r="1.4" fill="#1f2456" opacity="0.25"/><circle cx="192" cy="259" r="1.4" fill="#1f2456" opacity="0.25"/><circle cx="259" cy="300" r="1.4" fill="#1f2456" opacity="0.25"/><circle cx="300" cy="223" r="1.4" fill="#1f2456" opacity="0.25"/><circle cx="223" cy="307" r="1.4" fill="#1f2456" opacity="0.25"/><circle cx="307" cy="336" r="1.4" fill="#1f2456" opacity="0.25"/><circle cx="336" cy="178" r="1.4" fill="#1f2456" opacity="0.25"/><circle cx="178" cy="297" r="1.4" fill="#1f2456" opacity="0.25"/><circle cx="297" cy="173" r="1.4" fill="#1f2456" opacity="0.25"/><circle cx="173" cy="321" r="1.4" fill="#1f2456" opacity="0.25"/><circle cx="321" cy="314" r="1.4" fill="#1f2456" opacity="0.25"/><circle cx="314" cy="202" r="1.4" fill="#1f2456" opacity="0.25"/><circle cx="202" cy="245" r="1.4" fill="#1f2456" opacity="0.25"/><circle cx="245" cy="180" r="1.4" fill="#1f2456" opacity="0.25"/><circle cx="180" cy="303" r="1.4" fill="#1f2456" opacity="0.25"/><circle cx="303" cy="247" r="1.4" fill="#1f2456" opacity="0.25"/><circle cx="247" cy="341" r="1.4" fill="#1f2456" opacity="0.25"/><circle cx="341" cy="347" r="1.4" fill="#1f2456" opacity="0.25"/><circle cx="347" cy="140" r="1.4" fill="#1f2456" opacity="0.25"/><circle cx="140" cy="212" r="1.4" fill="#1f2456" opacity="0.25"/><circle cx="212" cy="236" r="1.4" fill="#1f2456" opacity="0.25"/><circle cx="236" cy="258" r="1.4" fill="#1f2456" opacity="0.25"/>
<g data-collage-motif="samhalle"><circle cx="540" cy="420" r="40" fill="#6f74c2"/><circle cx="740" cy="400" r="34" fill="#6f74c2" opacity="0.86"/><circle cx="650" cy="560" r="30" fill="#6f74c2" opacity="0.8"/><path d="M540 420 L740 400 L650 560 Z" stroke="#1f2456" stroke-width="6" fill="none" stroke-linejoin="round"/></g>
<g fill="#6f74c2" opacity="0.9"><circle cx="104" cy="106" r="8"/><circle cx="130" cy="106" r="8"/><circle cx="156" cy="106" r="8"/></g>
</svg>