<svg xmlns="http://www.w3.org/2000/svg" width="1280" height="848" viewBox="0 0 1280 848" data-palette="samhalle-0" data-motif-variant="0">
<defs>
  <filter id="ds" x="-20%" y="-20%" width="140%" height="140%"><feDropShadow dx="0" dy="10" stdDeviation="10" flood-color="#000000" flood-opacity="0.18"/></filter>
  <filter id="fibre"><feTurbulence type="fractalNoise" baseFrequency="0.9" numOctaves="2" result="n"/><feColorMatrix in="n" type="saturate" values="0"/><feComponentTransfer><feFuncA type="linear" slope="0.05"/></feComponentTransfer><feComposite operator="in" in2="SourceGraphic"/></filter>
</defs>
<rect width="1280" height="848" fill="#f3ece1"/>
<g filter="url(#ds)">
<polygon points="100.0 68 169.3 74 236.7 73 297.0 73 369.3 72 427.7 73 505.0 65 570.3 63 633.7 64 710.0 68 710.0 534 640.7 539 572.3 529 497.0 534 430.7 531 366.3 527 305.0 536 233.7 540 170.3 538 106.0 534 703.0 532.0 635.7 489.2 568.3 439.4 501.0 380.7 433.7 325.9 366.3 273.1 299.0 231.3 231.7 175.6 164.3 120.8 97.0 67.0 97.0 62.0 164.3 110.8 231.7 162.6 299.0 231.3 366.3 272.1 433.7 321.9 501.0 373.7 568.3 432.4 635.7 479.2 703.0 540.0" fill="#d9def0" stroke="#1f2456" stroke-width="2.4" stroke-dasharray="2 6" stroke-linecap="round" transform="rotate(-3.5 400.0 301.0)"/>
<polygon points="575.0 246 652.0 250 715.0 251 797.0 243 867.0 241 935.0 242 1016.0 245 1090.0 240 1155.0 246 1224.0 246 1221.0 792 1150.0 789 1081.0 785 1015.0 794 939.0 798 871.0 796 802.0 795 730.0 793 641.0 785 580.0 792 1225.0 794.0 1153.0 730.3 1081.0 668.7 1009.0 618.0 937.0 553.3 865.0 489.7 793.0 427.0 721.0 364.3 649.0 311.7 577.0 253.0 577.0 254.0 649.0 303.7 721.0 362.3 793.0 423.0 865.0 490.7 937.0 546.3 1009.0 616.0 1081.0 666.7 1153.0 729.3 1225.0 794.0" fill="#6f74c2" stroke="#1f2456" stroke-width="2.4" stroke-dasharray="2 6" stroke-linecap="round" transform="rotate(4.0 901.0 519.0)"/>
<polygon points="345.0 379 401.0 374 455.0 375 522.0 378 582.0 373 633.0 379 688.0 383 745.0 380 813.0 383 867.0 379 869.0 768 807.0 774 753.0 772 698.0 771 640.0 769 565.0 761 518.0 775 462.0 762 404.0 763 339.0 768 863.0 776.0 805.0 728.8 747.0 682.6 689.0 637.3 631.0 592.1 573.0 556.9 515.0 515.7 457.0 470.4 399.0 426.2 341.0 375.0 341.0 374.0 399.0 424.2 457.0 462.4 515.0 514.7 573.0 547.9 631.0 593.1 689.0 640.3 747.0 674.6 805.0 715.8 863.0 766.0" fill="#3a3f7a" stroke="#1f2456" stroke-width="2.4" stroke-dasharray="2 6" stroke-linecap="round" transform="rotate(-2.5 602.0 573.5)"/>
</g>
<path d="M374 212 L350 307 L280 365 L218 452 L126 414 L58 362 L8 296 L-24 212 L-13 118 L34 30 L118 -28 L220 -37 L273 69 L365 109 Z" fill="#d9def0" opacity="0.16"/><path d="M482 604 L455 675 L414 733 L356 778 L281 785 L205 760 L144 695 L118 604 L190 536 L203 445 L284 439 L351 450 L409 482 L501 509 Z" fill="#6f74c2" opacity="0.16"/><path d="M1321 376 L1314 476 L1262 566 L1175 621 L1086 552 L989 559 L961 461 L955 376 L974 298 L977 178 L1082 181 L1160 200 L1231 228 L1330 268 Z" fill="#d9def0" opacity="0.16"/><path d="M360 581 L383 663 L316 704 L256 724 L196 723 L109 741 L93 651 L92 581 L100 515 L111 424 L185 387 L255 441 L318 455 L364 509 Z" fill="#6f74c2" opacity="0.16"/><path d="M963 559 L992 629 L931 658 L881 671 L833 676 L767 683 L728 627 L754 559 L753 504 L783 457 L833 438 L886 426 L938 450 L972 499 Z" fill="#d9def0" opacity="0.16"/>
<g filter="url(#fibre)" opacity="0.6"><rect width="1280" height="848" fill="#1f2456"/></g>
<circle cx="284" cy="210" r="1.4" fill="#1f2456" opacity="0.25"/><circle cx="210" cy="343" r="1.4" fill="#1f2456" opacity="0.25"/><circle cx="343" cy="222" r="1.4" fill="#1f2456" opacity="0.25"/><circle cx="222" cy="132" r="1.4" fill="#1f2456" opacity="0.25"/><circle cx="132" cy="161" r="1.4" fill="#1f2456" opacity="0.25"/><circle cx="161" cy="342" r="1.4" fill="#1f2456" opacity="0.25"/><circle cx="342" cy="169" r="1.4" fill="#1f2456" opacity="0.25"/><circle cx="169" cy="317" r="1.4" fill="#1f2456" opacity="0.25"/><circle cx="317" cy="288" r="1.4" fill="#1f2456" opacity="0.25"/><circle cx="288" cy="366" r="1.4" fill="#1f2456" opacity="0.25"/><circle cx="366" cy="226" r="1.4" fill="#1f2456" opacity="0.25"/><circle cx="226" cy="337" r="1.4" fill="#1f2456" opacity="0.25"/><circle cx="337" cy="146" r="1.4" fill="#1f2456" opacity="0.25"/><circle cx="146" cy="308" r="1.4" fill="#1f2456" opacity="0.25"/><circle cx="308" cy="266" r="1.4" fill="#1f2456" opacity="0.25"/><circle cx="266" cy="301" r="1.4" fill="#1f2456" opacity="0.25"/><circle cx="301" cy="299" r="1.4" fill="#1f2456" opacity="0.25"/><circle cx="299" cy="202" r="1.4" fill="#1f2456" opacity="0.25"/><circle cx="202" cy="229" r="1.4" fill="#1f2456" opacity="0.25"/><circle cx="229" cy="269" r="1.4" fill="#1f2456" opacity="0.25"/><circle cx="269" cy="153" r="1.4" fill="#1f2456" opacity="0.25"/><circle cx="153" cy="152" r="1.4" fill="#1f2456" opacity="0.25"/><circle cx="152" cy="372" r="1.4" fill="#1f2456" opacity="0.25"/><circle cx="372" cy="202" r="1.4" fill="#1f2456" opacity="0.25"/><circle cx="202" cy="205" r="1.4" fill="#1f2456" opacity="0.25"/><circle cx="205" cy="344" r="1.4" fill="#1f2456" opacity="0.25"/><circle cx="344" cy="245" r="1.4" fill="#1f2456" opacity="0.25"/><circle cx="245" cy="211" r="1.4" fill="#1f2456" opacity="0.25"/><circle cx="211" cy="138" r="1.4" fill="#1f2456" opacity="0.25"/><circle cx="138" cy="214" r="1.4" fill="#1f2456" opacity="0.25"/><circle cx="214" cy="216" r="1.4" fill="#1f2456" opacity="0.25"/><circle cx="216" cy="284" r="1.4" fill="#1f2456" opacity="0.25"/><circle cx="284" cy="210" r="1.4" fill="#1f2456" opacity="0.25"/><circle cx="210" cy="343" r="1.4" fill="#1f2456" opacity="0.25"/><circle cx="343" cy="222" r="1.4" fill="#1f2456" opacity="0.25"/><circle cx="222" cy="132" r="1.4" fill="#1f2456" opacity="0.25"/>
<g data-collage-motif="samhalle"><circle cx="540" cy="420" r="40" fill="#6f74c2"/><circle cx="740" cy="400" r="34" fill="#6f74c2" opacity="0.86"/><circle cx="650" cy="560" r="30" fill="#6f74c2" opacity="0.8"/><path d="M540 420 L740 400 L650 560 Z" stroke="#1f2456" stroke-width="6" fill="none" stroke-linejoin="round"/></g>
<g fill="#6f74c2" opacity="0.9"><circle cx="104" cy="106" r="8"/><circle cx="130" cy="106" r="8"/><circle cx="156" cy="106" r="8"/></g>
</svg>