<svg xmlns="http://www.w3.org/2000/svg" width="1280" height="848" viewBox="0 0 1280 848" data-palette="teknik-2" data-motif-variant="2">
<defs>
  <filter id="ds" x="-20%" y="-20%" width="140%" height="140%"><feDropShadow dx="0" dy="10" stdDeviation="10" flood-color="#000000" flood-opacity="0.18"/></filter>
  <filter id="fibre"><feTurbulence type="fractalNoise" baseFrequency="0.9" numOctaves="2" result="n"/><feColorMatrix in="n" type="saturate" values="0"/><feComponentTransfer><feFuncA type="linear" slope="0.05"/></feComponentTransfer><feComposite operator="in" in2="SourceGraphic"/></filter>
</defs>
<rect width="1280" height="848" fill="#f3ece1"/>
<g filter="url(#ds)">
<polygon points="92.0 63 154.4 65 222.9 70 297.3 58 355.8 60 428.2 57 489.7 63 562.1 64 628.6 69 697.0 63 697.0 577 638.6 583 558.1 581 491.7 576 430.2 570 361.8 573 295.3 571 227.9 571 157.4 582 100.0 577 700.0 573.0 632.6 516.9 565.1 468.8 497.7 398.7 430.2 357.6 362.8 294.4 295.3 241.3 227.9 176.2 160.4 112.1 93.0 55.0 93.0 66.0 160.4 113.1 227.9 175.2 295.3 237.3 362.8 292.4 430.2 354.6 497.7 410.7 565.1 460.8 632.6 526.9 700.0 579.0" fill="#d4f1f2" stroke="#103038" stroke-width="2.4" stroke-dasharray="2 6" stroke-linecap="round" transform="rotate(-6.5 396.5 320.0)"/>
<polygon points="592.0 249 659.1 246 740.2 243 810.3 249 891.4 250 966.6 255 1043.7 244 1128.8 246 1191.9 247 1284.0 249 1269.0 805 1198.9 798 1121.8 801 1046.7 799 970.6 799 891.4 810 825.3 808 744.2 807 663.1 799 589.0 805 1275.0 798.0 1198.9 752.2 1122.8 684.4 1046.7 626.7 970.6 556.9 894.4 488.1 818.3 426.3 742.2 374.6 666.1 307.8 590.0 246.0 590.0 252.0 666.1 311.8 742.2 378.6 818.3 439.3 894.4 494.1 970.6 564.9 1046.7 621.7 1122.8 689.4 1198.9 746.2 1275.0 809.0" fill="#3fb0b8" stroke="#103038" stroke-width="2.4" stroke-dasharray="2 6" stroke-linecap="round" transform="rotate(3.0 932.5 527.0)"/>
<polygon points="349.0 389 418.9 390 482.8 395 548.7 384 622.6 386 674.4 387 755.3 391 814.2 382 883.1 393 940.0 389 941.0 823 876.1 817 808.2 828 753.3 826 683.4 825 613.6 817 550.7 819 480.8 821 416.9 816 359.0 823 941.0 830.0 876.1 773.8 811.2 718.6 746.3 670.3 681.4 632.1 616.6 578.9 551.7 530.7 486.8 491.4 421.9 430.2 357.0 383.0 357.0 394.0 421.9 435.2 486.8 492.4 551.7 535.7 616.6 589.9 681.4 633.1 746.3 682.3 811.2 729.6 876.1 768.8 941.0 830.0" fill="#1f4a5e" stroke="#103038" stroke-width="2.4" stroke-dasharray="2 6" stroke-linecap="round" transform="rotate(-3.5 649.0 606.0)"/>
</g>
<path d="M222 270 L193 304 L184 347 L147 362 L113 344 L71 347 L66 302 L52 270 L54 231 L85 212 L109 178 L145 189 L184 194 L214 225 Z" fill="#d4f1f2" opacity="0.16"/><path d="M638 694 L671 808 L567 848 L499 907 L406 924 L341 848 L247 802 L253 694 L241 582 L297 480 L410 483 L504 457 L573 532 L641 596 Z" fill="#3fb0b8" opacity="0.16"/><path d="M974 496 L932 564 L915 652 L837 666 L759 696 L676 667 L658 571 L623 496 L664 424 L697 355 L769 344 L840 311 L926 325 L984 400 Z" fill="#d4f1f2" opacity="0.16"/><path d="M628 674 L618 788 L520 836 L449 901 L360 867 L277 843 L246 755 L191 674 L184 560 L249 467 L348 423 L441 485 L511 524 L622 558 Z" fill="#3fb0b8" opacity="0.16"/><path d="M573 684 L571 756 L516 796 L470 854 L393 879 L318 842 L271 769 L298 684 L313 621 L317 525 L399 516 L473 497 L517 571 L581 607 Z" fill="#d4f1f2" opacity="0.16"/>
<g filter="url(#fibre)" opacity="0.6"><rect width="1280" height="848" fill="#103038"/></g>
<circle cx="223" cy="161" r="1.4" fill="#103038" opacity="0.25"/><circle cx="161" cy="219" r="1.4" fill="#103038" opacity="0.25"/><circle cx="219" cy="359" r="1.4" fill="#103038" opacity="0.25"/><circle cx="359" cy="122" r="1.4" fill="#103038" opacity="0.25"/><circle cx="122" cy="184" r="1.4" fill="#103038" opacity="0.25"/><circle cx="184" cy="121" r="1.4" fill="#103038" opacity="0.25"/><circle cx="121" cy="202" r="1.4" fill="#103038" opacity="0.25"/><circle cx="202" cy="353" r="1.4" fill="#103038" opacity="0.25"/><circle cx="353" cy="373" r="1.4" fill="#103038" opacity="0.25"/><circle cx="373" cy="287" r="1.4" fill="#103038" opacity="0.25"/><circle cx="287" cy="274" r="1.4" fill="#103038" opacity="0.25"/><circle cx="274" cy="290" r="1.4" fill="#103038" opacity="0.25"/><circle cx="290" cy="189" r="1.4" fill="#103038" opacity="0.25"/><circle cx="189" cy="345" r="1.4" fill="#103038" opacity="0.25"/><circle cx="345" cy="356" r="1.4" fill="#103038" opacity="0.25"/><circle cx="356" cy="197" r="1.4" fill="#103038" opacity="0.25"/><circle cx="197" cy="349" r="1.4" fill="#103038" opacity="0.25"/><circle cx="349" cy="264" r="1.4" fill="#103038" opacity="0.25"/><circle cx="264" cy="354" r="1.4" fill="#103038" opacity="0.25"/><circle cx="354" cy="297" r="1.4" fill="#103038" opacity="0.25"/><circle cx="297" cy="154" r="1.4" fill="#103038" opacity="0.25"/><circle cx="154" cy="331" r="1.4" fill="#103038" opacity="0.25"/><circle cx="331" cy="123" r="1.4" fill="#103038" opacity="0.25"/><circle cx="123" cy="338" r="1.4" fill="#103038" opacity="0.25"/><circle cx="338" cy="299" r="1.4" fill="#103038" opacity="0.25"/><circle cx="299" cy="281" r="1.4" fill="#103038" opacity="0.25"/><circle cx="281" cy="148" r="1.4" fill="#103038" opacity="0.25"/><circle cx="148" cy="373" r="1.4" fill="#103038" opacity="0.25"/><circle cx="373" cy="212" r="1.4" fill="#103038" opacity="0.25"/><circle cx="212" cy="169" r="1.4" fill="#103038" opacity="0.25"/><circle cx="169" cy="335" r="1.4" fill="#103038" opacity="0.25"/><circle cx="335" cy="223" r="1.4" fill="#103038" opacity="0.25"/><circle cx="223" cy="161" r="1.4" fill="#103038" opacity="0.25"/><circle cx="161" cy="219" r="1.4" fill="#103038" opacity="0.25"/><circle cx="219" cy="359" r="1.4" fill="#103038" opacity="0.25"/><circle cx="359" cy="122" r="1.4" fill="#103038" opacity="0.25"/>
<g data-collage-motif="teknik"><rect x="470" y="300" width="200" height="140" rx="14" fill="#3fb0b8" opacity="0.82"/><rect x="560" y="420" width="160" height="110" rx="12" fill="#3fb0b8" opacity="0.7"/><rect x="690" y="500" width="130" height="90" rx="10" fill="#3fb0b8" opacity="0.6"/></g>
<g fill="#3fb0b8" opacity="0.9"><circle cx="104" cy="106" r="8"/><circle cx="130" cy="106" r="8"/><circle cx="156" cy="106" r="8"/></g>
</svg>