<svg xmlns="http://www.w3.org/2000/svg" width="1280" height="848" viewBox="0 0 1280 848">
<defs>
  <filter id="ds" x="-20%" y="-20%" width="140%" height="140%"><feDropShadow dx="0" dy="10" stdDeviation="10" flood-color="#000000" flood-opacity="0.18"/></filter>
  <filter id="fibre"><feTurbulence type="fractalNoise" baseFrequency="0.9" numOctaves="2" result="n"/><feColorMatrix in="n" type="saturate" values="0"/><feComponentTransfer><feFuncA type="linear" slope="0.05"/></feComponentTransfer><feComposite operator="in" in2="SourceGraphic"/></filter>
</defs>
<rect width="1280" height="848" fill="#f3ece1"/>
<g filter="url(#ds)">
<polygon points="78.0 60 147.1 66 212.2 61 288.3 67 347.4 58 428.6 59 498.7 57 572.8 64 637.9 54 711.0 60 707.0 530 638.9 537 566.8 525 491.7 534 416.6 527 350.4 534 283.3 533 212.2 526 145.1 535 76.0 530 710.0 529.0 638.9 478.8 567.8 419.6 496.7 381.3 425.6 317.1 354.4 266.9 283.3 218.7 212.2 172.4 141.1 110.2 70.0 57.0 70.0 56.0 141.1 106.2 212.2 159.4 283.3 220.7 354.4 260.9 425.6 315.1 496.7 373.3 567.8 420.6 638.9 484.8 710.0 527.0" fill="#e3e9f0" stroke="#232b3f" stroke-width="2.4" stroke-dasharray="2 6" stroke-linecap="round" transform="rotate(-3.5 390.0 295.0)"/>
<polygon points="565.0 240 626.3 238 709.7 239 782.0 237 858.3 244 925.7 234 1001.0 234 1067.3 237 1154.7 246 1216.0 240 1215.0 760 1137.7 757 1069.3 764 1000.0 763 926.7 756 857.3 765 786.0 753 711.7 763 629.3 764 568.0 760 1220.0 768.0 1146.7 698.2 1073.3 642.4 1000.0 588.7 926.7 536.9 853.3 469.1 780.0 410.3 706.7 356.6 633.3 303.8 560.0 237.0 560.0 244.0 633.3 289.8 706.7 349.6 780.0 413.3 853.3 466.1 926.7 535.9 1000.0 583.7 1073.3 642.4 1146.7 697.2 1220.0 761.0" fill="#7a8aa0" stroke="#232b3f" stroke-width="2.4" stroke-dasharray="2 6" stroke-linecap="round" transform="rotate(4.0 890.0 500.0)"/>
<polygon points="362.0 380 427.2 384 483.4 374 547.7 374 602.9 377 679.1 386 729.3 378 793.6 383 859.8 384 928.0 380 920.0 780 857.8 776 799.6 785 739.3 773 676.1 783 604.9 784 554.7 781 490.4 774 422.2 779 365.0 780 920.0 782.0 857.8 743.6 795.6 689.1 733.3 643.7 671.1 603.2 608.9 563.8 546.7 510.3 484.4 468.9 422.2 423.4 360.0 375.0 360.0 380.0 422.2 419.4 484.4 475.9 546.7 510.3 608.9 555.8 671.1 597.2 733.3 647.7 795.6 690.1 857.8 741.6 920.0 772.0" fill="#43506b" stroke="#232b3f" stroke-width="2.4" stroke-dasharray="2 6" stroke-linecap="round" transform="rotate(-1.5 640.0 580.0)"/>
</g>
<path d="M557 235 L512 314 L491 414 L403 442 L315 448 L245 391 L182 328 L201 235 L184 143 L261 100 L313 12 L406 18 L466 90 L557 132 Z" fill="#e3e9f0" opacity="0.16"/><path d="M753 702 L720 784 L680 860 L597 861 L523 897 L471 829 L385 796 L371 702 L419 626 L436 527 L529 538 L606 501 L692 527 L726 617 Z" fill="#7a8aa0" opacity="0.16"/><path d="M782 534 L753 575 L747 633 L699 654 L653 634 L599 636 L592 577 L563 534 L565 477 L608 444 L654 441 L694 438 L735 451 L781 478 Z" fill="#e3e9f0" opacity="0.16"/><path d="M827 662 L848 745 L772 774 L726 833 L651 848 L594 793 L575 722 L558 662 L563 595 L583 516 L661 524 L720 519 L780 539 L842 582 Z" fill="#7a8aa0" opacity="0.16"/><path d="M896 697 L852 782 L783 824 L725 861 L653 873 L564 869 L552 769 L531 697 L537 617 L566 528 L651 512 L731 504 L784 568 L861 608 Z" fill="#e3e9f0" opacity="0.16"/>
<g filter="url(#fibre)" opacity="0.6"><rect width="1280" height="848" fill="#232b3f"/></g>
<circle cx="213" cy="306" r="1.4" fill="#232b3f" opacity="0.25"/><circle cx="306" cy="148" r="1.4" fill="#232b3f" opacity="0.25"/><circle cx="148" cy="248" r="1.4" fill="#232b3f" opacity="0.25"/><circle cx="248" cy="179" r="1.4" fill="#232b3f" opacity="0.25"/><circle cx="179" cy="170" r="1.4" fill="#232b3f" opacity="0.25"/><circle cx="170" cy="321" r="1.4" fill="#232b3f" opacity="0.25"/><circle cx="321" cy="229" r="1.4" fill="#232b3f" opacity="0.25"/><circle cx="229" cy="356" r="1.4" fill="#232b3f" opacity="0.25"/><circle cx="356" cy="301" r="1.4" fill="#232b3f" opacity="0.25"/><circle cx="301" cy="256" r="1.4" fill="#232b3f" opacity="0.25"/><circle cx="256" cy="289" r="1.4" fill="#232b3f" opacity="0.25"/><circle cx="289" cy="163" r="1.4" fill="#232b3f" opacity="0.25"/><circle cx="163" cy="260" r="1.4" fill="#232b3f" opacity="0.25"/><circle cx="260" cy="340" r="1.4" fill="#232b3f" opacity="0.25"/><circle cx="340" cy="251" r="1.4" fill="#232b3f" opacity="0.25"/><circle cx="251" cy="260" r="1.4" fill="#232b3f" opacity="0.25"/><circle cx="260" cy="354" r="1.4" fill="#232b3f" opacity="0.25"/><circle cx="354" cy="301" r="1.4" fill="#232b3f" opacity="0.25"/><circle cx="301" cy="268" r="1.4" fill="#232b3f" opacity="0.25"/><circle cx="268" cy="202" r="1.4" fill="#232b3f" opacity="0.25"/><circle cx="202" cy="186" r="1.4" fill="#232b3f" opacity="0.25"/><circle cx="186" cy="375" r="1.4" fill="#232b3f" opacity="0.25"/><circle cx="375" cy="162" r="1.4" fill="#232b3f" opacity="0.25"/><circle cx="162" cy="348" r="1.4" fill="#232b3f" opacity="0.25"/><circle cx="348" cy="220" r="1.4" fill="#232b3f" opacity="0.25"/><circle cx="220" cy="243" r="1.4" fill="#232b3f" opacity="0.25"/><circle cx="243" cy="319" r="1.4" fill="#232b3f" opacity="0.25"/><circle cx="319" cy="266" r="1.4" fill="#232b3f" opacity="0.25"/><circle cx="266" cy="287" r="1.4" fill="#232b3f" opacity="0.25"/><circle cx="287" cy="134" r="1.4" fill="#232b3f" opacity="0.25"/><circle cx="134" cy="334" r="1.4" fill="#232b3f" opacity="0.25"/><circle cx="334" cy="213" r="1.4" fill="#232b3f" opacity="0.25"/><circle cx="213" cy="306" r="1.4" fill="#232b3f" opacity="0.25"/><circle cx="306" cy="148" r="1.4" fill="#232b3f" opacity="0.25"/><circle cx="148" cy="248" r="1.4" fill="#232b3f" opacity="0.25"/><circle cx="248" cy="179" r="1.4" fill="#232b3f" opacity="0.25"/>
<g data-collage-motif="innovation"><circle cx="540" cy="420" r="40" fill="#7a8aa0"/><circle cx="740" cy="400" r="34" fill="#7a8aa0" opacity="0.86"/><circle cx="650" cy="560" r="30" fill="#7a8aa0" opacity="0.8"/><path d="M540 420 L740 400 L650 560 Z" stroke="#232b3f" stroke-width="6" fill="none" stroke-linejoin="round"/></g>
<g fill="#7a8aa0" opacity="0.9"><circle cx="104" cy="106" r="8"/><circle cx="130" cy="106" r="8"/><circle cx="156" cy="106" r="8"/></g>
</svg>