<svg xmlns="http://www.w3.org/2000/svg" width="1280" height="848" viewBox="0 0 1280 848">
<defs>
  <filter id="ds" x="-20%" y="-20%" width="140%" height="140%"><feDropShadow dx="0" dy="10" stdDeviation="10" flood-color="#000000" flood-opacity="0.18"/></filter>
  <filter id="fibre"><feTurbulence type="fractalNoise" baseFrequency="0.9" numOctaves="2" result="n"/><feColorMatrix in="n" type="saturate" values="0"/><feComponentTransfer><feFuncA type="linear" slope="0.05"/></feComponentTransfer><feComposite operator="in" in2="SourceGraphic"/></filter>
</defs>
<rect width="1280" height="848" fill="#f3ece1"/>
<g filter="url(#ds)">
<polygon points="79.0 60 147.1 53 204.2 53 288.3 59 352.4 56 428.6 64 492.7 65 562.8 56 645.9 61 715.0 60 716.0 530 640.9 529 576.8 529 504.7 535 425.6 533 348.4 535 281.3 530 219.2 536 150.1 536 77.0 530 710.0 537.0 638.9 482.8 567.8 424.6 496.7 375.3 425.6 321.1 354.4 277.9 283.3 210.7 212.2 164.4 141.1 121.2 70.0 66.0 70.0 51.0 141.1 105.2 212.2 155.4 283.3 216.7 354.4 259.9 425.6 315.1 496.7 381.3 567.8 420.6 638.9 479.8 710.0 527.0" fill="#e3e9f0" stroke="#232b3f" stroke-width="2.4" stroke-dasharray="2 6" stroke-linecap="round" transform="rotate(-3.5 390.0 295.0)"/>
<polygon points="565.0 240 631.3 236 709.7 244 776.0 245 848.3 236 933.7 241 1005.0 239 1072.3 243 1148.7 241 1220.0 240 1228.0 760 1146.7 763 1067.3 765 998.0 760 933.7 766 862.3 766 787.0 755 715.7 753 633.3 766 569.0 760 1220.0 762.0 1146.7 702.2 1073.3 653.4 1000.0 580.7 926.7 528.9 853.3 480.1 780.0 419.3 706.7 358.6 633.3 293.8 560.0 246.0 560.0 240.0 633.3 288.8 706.7 349.6 780.0 421.3 853.3 466.1 926.7 530.9 1000.0 583.7 1073.3 648.4 1146.7 707.2 1220.0 753.0" fill="#7a8aa0" stroke="#232b3f" stroke-width="2.4" stroke-dasharray="2 6" stroke-linecap="round" transform="rotate(4.0 890.0 500.0)"/>
<polygon points="356.0 380 417.2 376 491.4 381 551.7 379 607.9 383 673.1 381 733.3 386 804.6 376 851.8 382 920.0 380 918.0 780 864.8 786 804.6 786 740.3 775 680.1 773 608.9 786 555.7 783 490.4 787 414.2 787 365.0 780 920.0 774.0 857.8 735.6 795.6 700.1 733.3 652.7 671.1 605.2 608.9 553.8 546.7 519.3 484.4 470.9 422.2 433.4 360.0 388.0 360.0 388.0 422.2 419.4 484.4 470.9 546.7 510.3 608.9 561.8 671.1 607.2 733.3 639.7 795.6 686.1 857.8 736.6 920.0 778.0" fill="#43506b" stroke="#232b3f" stroke-width="2.4" stroke-dasharray="2 6" stroke-linecap="round" transform="rotate(-1.5 640.0 580.0)"/>
</g>
<path d="M1158 569 L1186 666 L1124 738 L1040 757 L968 723 L906 697 L818 664 L844 569 L830 480 L887 415 L955 353 L1034 407 L1093 442 L1176 477 Z" fill="#e3e9f0" opacity="0.16"/><path d="M415 531 L407 592 L399 678 L321 673 L255 702 L194 663 L134 613 L160 531 L176 471 L187 389 L262 394 L322 385 L371 421 L426 460 Z" fill="#7a8aa0" opacity="0.16"/><path d="M908 662 L879 758 L839 858 L733 845 L658 841 L557 849 L541 742 L512 662 L541 582 L571 493 L645 422 L743 432 L824 486 L874 568 Z" fill="#e3e9f0" opacity="0.16"/><path d="M1041 117 L1055 162 L1014 180 L986 201 L951 196 L914 191 L879 164 L874 117 L887 75 L914 43 L951 36 L986 34 L1019 48 L1038 80 Z" fill="#7a8aa0" opacity="0.16"/><path d="M509 243 L514 289 L495 338 L449 357 L402 351 L364 327 L347 284 L336 243 L342 199 L370 168 L403 139 L445 149 L480 168 L513 197 Z" fill="#e3e9f0" opacity="0.16"/>
<g filter="url(#fibre)" opacity="0.6"><rect width="1280" height="848" fill="#232b3f"/></g>
<circle cx="271" cy="154" r="1.4" fill="#232b3f" opacity="0.25"/><circle cx="154" cy="330" r="1.4" fill="#232b3f" opacity="0.25"/><circle cx="330" cy="210" r="1.4" fill="#232b3f" opacity="0.25"/><circle cx="210" cy="336" r="1.4" fill="#232b3f" opacity="0.25"/><circle cx="336" cy="303" r="1.4" fill="#232b3f" opacity="0.25"/><circle cx="303" cy="296" r="1.4" fill="#232b3f" opacity="0.25"/><circle cx="296" cy="162" r="1.4" fill="#232b3f" opacity="0.25"/><circle cx="162" cy="288" r="1.4" fill="#232b3f" opacity="0.25"/><circle cx="288" cy="248" r="1.4" fill="#232b3f" opacity="0.25"/><circle cx="248" cy="261" r="1.4" fill="#232b3f" opacity="0.25"/><circle cx="261" cy="340" r="1.4" fill="#232b3f" opacity="0.25"/><circle cx="340" cy="338" r="1.4" fill="#232b3f" opacity="0.25"/><circle cx="338" cy="328" r="1.4" fill="#232b3f" opacity="0.25"/><circle cx="328" cy="123" r="1.4" fill="#232b3f" opacity="0.25"/><circle cx="123" cy="129" r="1.4" fill="#232b3f" opacity="0.25"/><circle cx="129" cy="195" r="1.4" fill="#232b3f" opacity="0.25"/><circle cx="195" cy="173" r="1.4" fill="#232b3f" opacity="0.25"/><circle cx="173" cy="151" r="1.4" fill="#232b3f" opacity="0.25"/><circle cx="151" cy="182" r="1.4" fill="#232b3f" opacity="0.25"/><circle cx="182" cy="249" r="1.4" fill="#232b3f" opacity="0.25"/><circle cx="249" cy="245" r="1.4" fill="#232b3f" opacity="0.25"/><circle cx="245" cy="233" r="1.4" fill="#232b3f" opacity="0.25"/><circle cx="233" cy="308" r="1.4" fill="#232b3f" opacity="0.25"/><circle cx="308" cy="167" r="1.4" fill="#232b3f" opacity="0.25"/><circle cx="167" cy="199" r="1.4" fill="#232b3f" opacity="0.25"/><circle cx="199" cy="317" r="1.4" fill="#232b3f" opacity="0.25"/><circle cx="317" cy="307" r="1.4" fill="#232b3f" opacity="0.25"/><circle cx="307" cy="271" r="1.4" fill="#232b3f" opacity="0.25"/><circle cx="271" cy="136" r="1.4" fill="#232b3f" opacity="0.25"/><circle cx="136" cy="252" r="1.4" fill="#232b3f" opacity="0.25"/><circle cx="252" cy="224" r="1.4" fill="#232b3f" opacity="0.25"/><circle cx="224" cy="271" r="1.4" fill="#232b3f" opacity="0.25"/><circle cx="271" cy="154" r="1.4" fill="#232b3f" opacity="0.25"/><circle cx="154" cy="330" r="1.4" fill="#232b3f" opacity="0.25"/><circle cx="330" cy="210" r="1.4" fill="#232b3f" opacity="0.25"/><circle cx="210" cy="336" r="1.4" fill="#232b3f" opacity="0.25"/>
<g data-collage-motif="hälsa"><circle cx="540" cy="420" r="40" fill="#7a8aa0"/><circle cx="740" cy="400" r="34" fill="#7a8aa0" opacity="0.86"/><circle cx="650" cy="560" r="30" fill="#7a8aa0" opacity="0.8"/><path d="M540 420 L740 400 L650 560 Z" stroke="#232b3f" stroke-width="6" fill="none" stroke-linejoin="round"/></g>
<g fill="#7a8aa0" opacity="0.9"><circle cx="104" cy="106" r="8"/><circle cx="130" cy="106" r="8"/><circle cx="156" cy="106" r="8"/></g>
</svg>