<svg xmlns="http://www.w3.org/2000/svg" width="1280" height="848" viewBox="0 0 1280 848" data-palette="halsa-1" data-motif-variant="1">
<defs>
  <filter id="ds" x="-20%" y="-20%" width="140%" height="140%"><feDropShadow dx="0" dy="10" stdDeviation="10" flood-color="#000000" flood-opacity="0.18"/></filter>
  <filter id="fibre"><feTurbulence type="fractalNoise" baseFrequency="0.9" numOctaves="2" result="n"/><feColorMatrix in="n" type="saturate" values="0"/><feComponentTransfer><feFuncA type="linear" slope="0.05"/></feComponentTransfer><feComposite operator="in" in2="SourceGraphic"/></filter>
</defs>
<rect width="1280" height="848" fill="#f3ece1"/>
<g filter="url(#ds)">
<polygon points="91.0 76 171.2 77 247.4 70 315.7 73 390.9 71 464.1 70 536.3 80 620.6 77 703.8 80 768.0 76 774.0 521 686.8 521 623.6 528 547.3 522 464.1 523 401.9 518 318.7 519 244.4 520 161.2 528 99.0 521 770.0 530.0 694.8 469.6 619.6 414.1 544.3 376.7 469.1 322.2 393.9 278.8 318.7 223.3 243.4 166.9 168.2 123.4 93.0 76.0 93.0 83.0 168.2 119.4 243.4 173.9 318.7 222.3 393.9 275.8 469.1 320.2 544.3 368.7 619.6 425.1 694.8 474.6 770.0 526.0" fill="#fbe6cf" stroke="#5e2813" stroke-width="2.4" stroke-dasharray="2 6" stroke-linecap="round" transform="rotate(-4.5 431.5 298.5)"/>
<polygon points="539.0 249 610.4 244 679.9 243 748.3 253 828.8 250 908.2 253 968.7 244 1034.1 242 1117.6 244 1184.0 249 1188.0 787 1108.6 789 1050.1 784 970.7 785 900.2 786 820.8 794 762.3 789 685.9 785 615.4 781 540.0 787 1185.0 791.0 1113.6 726.2 1042.1 672.4 970.7 606.7 899.2 539.9 827.8 486.1 756.3 428.3 684.9 369.6 613.4 302.8 542.0 253.0 542.0 247.0 613.4 310.8 684.9 365.6 756.3 424.3 827.8 491.1 899.2 550.9 970.7 612.7 1042.1 675.4 1113.6 726.2 1185.0 778.0" fill="#e89b5b" stroke="#5e2813" stroke-width="2.4" stroke-dasharray="2 6" stroke-linecap="round" transform="rotate(3.0 863.5 518.0)"/>
<polygon points="349.0 378 416.0 379 482.0 382 529.0 373 581.0 371 651.0 373 704.0 375 768.0 384 820.0 384 871.0 378 879.0 779 822.0 778 756.0 786 711.0 781 648.0 777 591.0 773 529.0 780 476.0 778 419.0 785 354.0 779 879.0 778.0 821.0 726.4 763.0 687.9 705.0 645.3 647.0 601.8 589.0 550.2 531.0 515.7 473.0 459.1 415.0 426.6 357.0 381.0 357.0 374.0 415.0 425.6 473.0 470.1 531.0 516.7 589.0 564.2 647.0 599.8 705.0 636.3 763.0 691.9 821.0 742.4 879.0 775.0" fill="#a8431f" stroke="#5e2813" stroke-width="2.4" stroke-dasharray="2 6" stroke-linecap="round" transform="rotate(-3.5 618.0 578.5)"/>
</g>
<path d="M782 453 L761 492 L740 527 L704 539 L665 552 L629 531 L624 485 L607 453 L621 419 L630 377 L670 377 L705 363 L736 385 L748 421 Z" fill="#fbe6cf" opacity="0.16"/><path d="M579 393 L567 444 L520 461 L491 491 L451 482 L405 482 L394 433 L371 393 L386 349 L420 325 L446 277 L492 287 L530 312 L543 355 Z" fill="#e89b5b" opacity="0.16"/><path d="M563 524 L578 599 L514 634 L468 686 L402 675 L357 628 L283 603 L280 524 L302 455 L356 418 L401 367 L463 387 L539 381 L550 463 Z" fill="#fbe6cf" opacity="0.16"/><path d="M674 368 L649 413 L644 478 L590 494 L539 488 L504 449 L461 422 L465 368 L447 307 L502 284 L538 246 L591 240 L631 277 L678 308 Z" fill="#e89b5b" opacity="0.16"/><path d="M1091 657 L1052 724 L1029 802 L956 814 L880 863 L831 783 L768 738 L743 657 L779 582 L805 496 L887 486 L955 504 L1041 496 L1072 579 Z" fill="#fbe6cf" opacity="0.16"/>
<g filter="url(#fibre)" opacity="0.6"><rect width="1280" height="848" fill="#5e2813"/></g>
<circle cx="298" cy="246" r="1.4" fill="#5e2813" opacity="0.25"/><circle cx="246" cy="323" r="1.4" fill="#5e2813" opacity="0.25"/><circle cx="323" cy="316" r="1.4" fill="#5e2813" opacity="0.25"/><circle cx="316" cy="259" r="1.4" fill="#5e2813" opacity="0.25"/><circle cx="259" cy="257" r="1.4" fill="#5e2813" opacity="0.25"/><circle cx="257" cy="121" r="1.4" fill="#5e2813" opacity="0.25"/><circle cx="121" cy="206" r="1.4" fill="#5e2813" opacity="0.25"/><circle cx="206" cy="233" r="1.4" fill="#5e2813" opacity="0.25"/><circle cx="233" cy="146" r="1.4" fill="#5e2813" opacity="0.25"/><circle cx="146" cy="197" r="1.4" fill="#5e2813" opacity="0.25"/><circle cx="197" cy="285" r="1.4" fill="#5e2813" opacity="0.25"/><circle cx="285" cy="242" r="1.4" fill="#5e2813" opacity="0.25"/><circle cx="242" cy="229" r="1.4" fill="#5e2813" opacity="0.25"/><circle cx="229" cy="223" r="1.4" fill="#5e2813" opacity="0.25"/><circle cx="223" cy="178" r="1.4" fill="#5e2813" opacity="0.25"/><circle cx="178" cy="317" r="1.4" fill="#5e2813" opacity="0.25"/><circle cx="317" cy="338" r="1.4" fill="#5e2813" opacity="0.25"/><circle cx="338" cy="282" r="1.4" fill="#5e2813" opacity="0.25"/><circle cx="282" cy="161" r="1.4" fill="#5e2813" opacity="0.25"/><circle cx="161" cy="152" r="1.4" fill="#5e2813" opacity="0.25"/><circle cx="152" cy="197" r="1.4" fill="#5e2813" opacity="0.25"/><circle cx="197" cy="247" r="1.4" fill="#5e2813" opacity="0.25"/><circle cx="247" cy="360" r="1.4" fill="#5e2813" opacity="0.25"/><circle cx="360" cy="276" r="1.4" fill="#5e2813" opacity="0.25"/><circle cx="276" cy="365" r="1.4" fill="#5e2813" opacity="0.25"/><circle cx="365" cy="205" r="1.4" fill="#5e2813" opacity="0.25"/><circle cx="205" cy="339" r="1.4" fill="#5e2813" opacity="0.25"/><circle cx="339" cy="293" r="1.4" fill="#5e2813" opacity="0.25"/><circle cx="293" cy="135" r="1.4" fill="#5e2813" opacity="0.25"/><circle cx="135" cy="320" r="1.4" fill="#5e2813" opacity="0.25"/><circle cx="320" cy="264" r="1.4" fill="#5e2813" opacity="0.25"/><circle cx="264" cy="298" r="1.4" fill="#5e2813" opacity="0.25"/><circle cx="298" cy="246" r="1.4" fill="#5e2813" opacity="0.25"/><circle cx="246" cy="323" r="1.4" fill="#5e2813" opacity="0.25"/><circle cx="323" cy="316" r="1.4" fill="#5e2813" opacity="0.25"/><circle cx="316" cy="259" r="1.4" fill="#5e2813" opacity="0.25"/>
<g data-collage-motif="halsa"><path d="M640 580 C520 480 520 360 600 340 C640 330 640 370 640 380 C640 370 640 330 680 340 C760 360 760 480 640 580 Z" fill="#e89b5b" opacity="0.84"/></g>
<g fill="#e89b5b" opacity="0.9"><circle cx="104" cy="106" r="8"/><circle cx="130" cy="106" r="8"/><circle cx="156" cy="106" r="8"/></g>
</svg>