<svg xmlns="http://www.w3.org/2000/svg" width="1280" height="848" viewBox="0 0 1280 848" data-palette="halsa-2" data-motif-variant="0">
<defs>
  <filter id="ds" x="-20%" y="-20%" width="140%" height="140%"><feDropShadow dx="0" dy="10" stdDeviation="10" flood-color="#000000" flood-opacity="0.18"/></filter>
  <filter id="fibre"><feTurbulence type="fractalNoise" baseFrequency="0.9" numOctaves="2" result="n"/><feColorMatrix in="n" type="saturate" values="0"/><feComponentTransfer><feFuncA type="linear" slope="0.05"/></feComponentTransfer><feComposite operator="in" in2="SourceGraphic"/></filter>
</defs>
<rect width="1280" height="848" fill="#f3ece1"/>
<g filter="url(#ds)">
<polygon points="83.0 54 146.8 47 215.6 61 290.3 47 352.1 61 433.9 58 501.7 60 556.4 56 636.2 51 710.0 54 697.0 532 638.2 534 570.4 530 502.7 529 433.9 531 360.1 530 292.3 532 226.6 526 151.8 534 90.0 532 703.0 534.0 634.2 485.9 565.4 420.8 496.7 363.7 427.9 317.6 359.1 265.4 290.3 208.3 221.6 161.2 152.8 116.1 84.0 55.0 84.0 55.0 152.8 101.1 221.6 168.2 290.3 222.3 359.1 267.4 427.9 325.6 496.7 378.7 565.4 425.8 634.2 485.9 703.0 526.0" fill="#f6dcf1" stroke="#3f1538" stroke-width="2.4" stroke-dasharray="2 6" stroke-linecap="round" transform="rotate(-6.5 393.5 293.0)"/>
<polygon points="554.0 245 623.9 252 713.8 249 789.7 251 852.6 247 940.4 242 1022.3 247 1087.2 246 1160.1 252 1244.0 245 1252.0 735 1175.1 734 1093.2 733 1017.3 735 943.4 729 860.6 737 790.7 741 699.8 732 621.9 740 553.0 735 1246.0 726.0 1169.1 678.6 1092.2 625.1 1015.3 566.7 938.4 518.2 861.6 471.8 784.7 409.3 707.8 346.9 630.9 306.4 554.0 239.0 554.0 254.0 630.9 300.4 707.8 359.9 784.7 414.3 861.6 462.8 938.4 524.2 1015.3 565.7 1092.2 621.1 1169.1 689.6 1246.0 733.0" fill="#c87ab8" stroke="#3f1538" stroke-width="2.4" stroke-dasharray="2 6" stroke-linecap="round" transform="rotate(3.0 900.0 490.0)"/>
<polygon points="360.0 364 407.8 366 480.6 361 547.3 366 597.1 365 654.9 371 723.7 362 786.4 364 844.2 367 912.0 364 913.0 770 854.2 764 786.4 772 731.7 776 655.9 767 593.1 775 539.3 766 472.6 777 410.8 763 355.0 770 911.0 765.0 849.2 725.9 787.4 688.8 725.7 635.7 663.9 582.6 602.1 551.4 540.3 493.3 478.6 458.2 416.8 414.1 355.0 370.0 355.0 370.0 416.8 409.1 478.6 461.2 540.3 493.3 602.1 539.4 663.9 598.6 725.7 632.7 787.4 672.8 849.2 729.9 911.0 779.0" fill="#7a2f6b" stroke="#3f1538" stroke-width="2.4" stroke-dasharray="2 6" stroke-linecap="round" transform="rotate(-2.5 633.0 567.0)"/>
</g>
<path d="M786 672 L764 721 L750 781 L701 818 L641 811 L602 764 L543 739 L541 672 L581 625 L587 559 L641 533 L693 565 L733 586 L791 609 Z" fill="#f6dcf1" opacity="0.16"/><path d="M896 471 L836 562 L818 684 L713 714 L623 657 L515 671 L451 581 L482 471 L500 386 L514 269 L615 248 L706 262 L776 316 L851 372 Z" fill="#c87ab8" opacity="0.16"/><path d="M703 205 L741 319 L672 409 L564 401 L482 401 L371 412 L329 307 L321 205 L355 117 L389 22 L479 -5 L576 -47 L666 11 L719 102 Z" fill="#f6dcf1" opacity="0.16"/><path d="M458 692 L472 738 L438 765 L403 777 L368 771 L332 765 L314 729 L291 692 L303 649 L331 618 L368 611 L405 597 L443 613 L477 644 Z" fill="#c87ab8" opacity="0.16"/><path d="M549 421 L553 488 L507 532 L460 587 L391 581 L335 543 L311 481 L275 421 L285 348 L319 276 L398 295 L457 270 L527 281 L535 363 Z" fill="#f6dcf1" opacity="0.16"/>
<g filter="url(#fibre)" opacity="0.6"><rect width="1280" height="848" fill="#3f1538"/></g>
<circle cx="242" cy="161" r="1.4" fill="#3f1538" opacity="0.25"/><circle cx="161" cy="180" r="1.4" fill="#3f1538" opacity="0.25"/><circle cx="180" cy="224" r="1.4" fill="#3f1538" opacity="0.25"/><circle cx="224" cy="255" r="1.4" fill="#3f1538" opacity="0.25"/><circle cx="255" cy="344" r="1.4" fill="#3f1538" opacity="0.25"/><circle cx="344" cy="191" r="1.4" fill="#3f1538" opacity="0.25"/><circle cx="191" cy="253" r="1.4" fill="#3f1538" opacity="0.25"/><circle cx="253" cy="264" r="1.4" fill="#3f1538" opacity="0.25"/><circle cx="264" cy="364" r="1.4" fill="#3f1538" opacity="0.25"/><circle cx="364" cy="219" r="1.4" fill="#3f1538" opacity="0.25"/><circle cx="219" cy="158" r="1.4" fill="#3f1538" opacity="0.25"/><circle cx="158" cy="374" r="1.4" fill="#3f1538" opacity="0.25"/><circle cx="374" cy="185" r="1.4" fill="#3f1538" opacity="0.25"/><circle cx="185" cy="352" r="1.4" fill="#3f1538" opacity="0.25"/><circle cx="352" cy="130" r="1.4" fill="#3f1538" opacity="0.25"/><circle cx="130" cy="195" r="1.4" fill="#3f1538" opacity="0.25"/><circle cx="195" cy="244" r="1.4" fill="#3f1538" opacity="0.25"/><circle cx="244" cy="236" r="1.4" fill="#3f1538" opacity="0.25"/><circle cx="236" cy="326" r="1.4" fill="#3f1538" opacity="0.25"/><circle cx="326" cy="142" r="1.4" fill="#3f1538" opacity="0.25"/><circle cx="142" cy="209" r="1.4" fill="#3f1538" opacity="0.25"/><circle cx="209" cy="305" r="1.4" fill="#3f1538" opacity="0.25"/><circle cx="305" cy="249" r="1.4" fill="#3f1538" opacity="0.25"/><circle cx="249" cy="325" r="1.4" fill="#3f1538" opacity="0.25"/><circle cx="325" cy="263" r="1.4" fill="#3f1538" opacity="0.25"/><circle cx="263" cy="264" r="1.4" fill="#3f1538" opacity="0.25"/><circle cx="264" cy="172" r="1.4" fill="#3f1538" opacity="0.25"/><circle cx="172" cy="223" r="1.4" fill="#3f1538" opacity="0.25"/><circle cx="223" cy="230" r="1.4" fill="#3f1538" opacity="0.25"/><circle cx="230" cy="121" r="1.4" fill="#3f1538" opacity="0.25"/><circle cx="121" cy="310" r="1.4" fill="#3f1538" opacity="0.25"/><circle cx="310" cy="242" r="1.4" fill="#3f1538" opacity="0.25"/><circle cx="242" cy="161" r="1.4" fill="#3f1538" opacity="0.25"/><circle cx="161" cy="180" r="1.4" fill="#3f1538" opacity="0.25"/><circle cx="180" cy="224" r="1.4" fill="#3f1538" opacity="0.25"/><circle cx="224" cy="255" r="1.4" fill="#3f1538" opacity="0.25"/>
<g data-collage-motif="halsa"><path d="M400 440 H560 L600 320 L660 560 L700 440 H880" stroke="#3f1538" stroke-width="9" fill="none" stroke-linecap="round" stroke-linejoin="round"/><circle cx="640" cy="440" r="40" fill="#c87ab8" opacity="0.8"/></g>
<g fill="#c87ab8" opacity="0.9"><circle cx="104" cy="106" r="8"/><circle cx="130" cy="106" r="8"/><circle cx="156" cy="106" r="8"/></g>
</svg>