<svg xmlns="http://www.w3.org/2000/svg" width="1280" height="848" viewBox="0 0 1280 848">
<defs>
  <filter id="ds" x="-20%" y="-20%" width="140%" height="140%"><feDropShadow dx="0" dy="10" stdDeviation="10" flood-color="#000000" flood-opacity="0.18"/></filter>
  <filter id="fibre"><feTurbulence type="fractalNoise" baseFrequency="0.9" numOctaves="2" result="n"/><feColorMatrix in="n" type="saturate" values="0"/><feComponentTransfer><feFuncA type="linear" slope="0.05"/></feComponentTransfer><feComposite operator="in" in2="SourceGraphic"/></filter>
</defs>
<rect width="1280" height="848" fill="#f3ece1"/>
<g filter="url(#ds)">
<polygon points="61.0 60 138.1 62 207.2 54 280.3 55 359.4 53 434.6 65 505.7 56 574.8 61 635.9 55 705.0 60 705.0 530 636.9 523 560.8 529 491.7 528 422.6 534 358.4 527 285.3 523 205.2 531 144.1 523 75.0 530 710.0 527.0 638.9 472.8 567.8 425.6 496.7 371.3 425.6 328.1 354.4 262.9 283.3 223.7 212.2 168.4 141.1 103.2 70.0 54.0 70.0 57.0 141.1 107.2 212.2 156.4 283.3 207.7 354.4 277.9 425.6 324.1 496.7 378.3 567.8 428.6 638.9 472.8 710.0 521.0" fill="#e3e9f0" stroke="#232b3f" stroke-width="2.4" stroke-dasharray="2 6" stroke-linecap="round" transform="rotate(-3.5 390.0 295.0)"/>
<polygon points="557.0 240 638.3 233 715.7 245 789.0 236 860.3 241 923.7 235 995.0 236 1073.3 242 1144.7 239 1227.0 240 1215.0 760 1143.7 764 1077.3 757 1002.0 753 919.7 761 856.3 753 785.0 762 714.7 758 642.3 763 551.0 760 1220.0 758.0 1146.7 709.2 1073.3 638.4 1000.0 593.7 926.7 532.9 853.3 462.1 780.0 407.3 706.7 350.6 633.3 293.8 560.0 235.0 560.0 231.0 633.3 306.8 706.7 358.6 780.0 418.3 853.3 474.1 926.7 523.9 1000.0 577.7 1073.3 635.4 1146.7 695.2 1220.0 763.0" fill="#7a8aa0" stroke="#232b3f" stroke-width="2.4" stroke-dasharray="2 6" stroke-linecap="round" transform="rotate(4.0 890.0 500.0)"/>
<polygon points="369.0 380 429.2 381 481.4 375 541.7 376 608.9 382 669.1 379 740.3 379 789.6 380 864.8 377 924.0 380 922.0 780 850.8 781 798.6 773 738.3 782 679.1 778 617.9 783 537.7 777 481.4 778 417.2 786 357.0 780 920.0 787.0 857.8 739.6 795.6 682.1 733.3 640.7 671.1 597.2 608.9 553.8 546.7 508.3 484.4 466.9 422.2 417.4 360.0 375.0 360.0 385.0 422.2 427.4 484.4 463.9 546.7 504.3 608.9 548.8 671.1 595.2 733.3 649.7 795.6 696.1 857.8 735.6 920.0 782.0" fill="#43506b" stroke="#232b3f" stroke-width="2.4" stroke-dasharray="2 6" stroke-linecap="round" transform="rotate(-1.5 640.0 580.0)"/>
</g>
<path d="M1261 298 L1254 376 L1210 440 L1140 458 L1069 474 L1025 409 L959 375 L943 298 L973 228 L1000 153 L1073 140 L1139 140 L1187 187 L1240 228 Z" fill="#e3e9f0" opacity="0.16"/><path d="M974 506 L925 569 L908 647 L842 682 L772 665 L697 654 L668 578 L653 506 L685 443 L710 377 L774 358 L835 363 L915 356 L925 443 Z" fill="#7a8aa0" opacity="0.16"/><path d="M758 509 L764 584 L707 627 L652 656 L594 637 L535 627 L507 569 L498 509 L476 433 L545 406 L585 338 L655 349 L725 367 L735 449 Z" fill="#e3e9f0" opacity="0.16"/><path d="M1217 579 L1221 662 L1163 717 L1097 745 L1016 797 L965 711 L877 676 L869 579 L870 478 L961 441 L1019 376 L1105 376 L1176 424 L1197 509 Z" fill="#7a8aa0" opacity="0.16"/><path d="M1327 117 L1262 188 L1251 287 L1169 315 L1081 336 L1029 251 L960 204 L942 117 L968 34 L1037 -6 L1093 -44 L1168 -80 L1237 -33 L1280 37 Z" fill="#e3e9f0" opacity="0.16"/>
<g filter="url(#fibre)" opacity="0.6"><rect width="1280" height="848" fill="#232b3f"/></g>
<circle cx="139" cy="145" r="1.4" fill="#232b3f" opacity="0.25"/><circle cx="145" cy="219" r="1.4" fill="#232b3f" opacity="0.25"/><circle cx="219" cy="316" r="1.4" fill="#232b3f" opacity="0.25"/><circle cx="316" cy="362" r="1.4" fill="#232b3f" opacity="0.25"/><circle cx="362" cy="195" r="1.4" fill="#232b3f" opacity="0.25"/><circle cx="195" cy="252" r="1.4" fill="#232b3f" opacity="0.25"/><circle cx="252" cy="288" r="1.4" fill="#232b3f" opacity="0.25"/><circle cx="288" cy="278" r="1.4" fill="#232b3f" opacity="0.25"/><circle cx="278" cy="257" r="1.4" fill="#232b3f" opacity="0.25"/><circle cx="257" cy="243" r="1.4" fill="#232b3f" opacity="0.25"/><circle cx="243" cy="279" r="1.4" fill="#232b3f" opacity="0.25"/><circle cx="279" cy="231" r="1.4" fill="#232b3f" opacity="0.25"/><circle cx="231" cy="351" r="1.4" fill="#232b3f" opacity="0.25"/><circle cx="351" cy="307" r="1.4" fill="#232b3f" opacity="0.25"/><circle cx="307" cy="304" r="1.4" fill="#232b3f" opacity="0.25"/><circle cx="304" cy="367" r="1.4" fill="#232b3f" opacity="0.25"/><circle cx="367" cy="123" r="1.4" fill="#232b3f" opacity="0.25"/><circle cx="123" cy="295" r="1.4" fill="#232b3f" opacity="0.25"/><circle cx="295" cy="144" r="1.4" fill="#232b3f" opacity="0.25"/><circle cx="144" cy="371" r="1.4" fill="#232b3f" opacity="0.25"/><circle cx="371" cy="127" r="1.4" fill="#232b3f" opacity="0.25"/><circle cx="127" cy="179" r="1.4" fill="#232b3f" opacity="0.25"/><circle cx="179" cy="143" r="1.4" fill="#232b3f" opacity="0.25"/><circle cx="143" cy="354" r="1.4" fill="#232b3f" opacity="0.25"/><circle cx="354" cy="228" r="1.4" fill="#232b3f" opacity="0.25"/><circle cx="228" cy="340" r="1.4" fill="#232b3f" opacity="0.25"/><circle cx="340" cy="179" r="1.4" fill="#232b3f" opacity="0.25"/><circle cx="179" cy="246" r="1.4" fill="#232b3f" opacity="0.25"/><circle cx="246" cy="134" r="1.4" fill="#232b3f" opacity="0.25"/><circle cx="134" cy="365" r="1.4" fill="#232b3f" opacity="0.25"/><circle cx="365" cy="309" r="1.4" fill="#232b3f" opacity="0.25"/><circle cx="309" cy="139" r="1.4" fill="#232b3f" opacity="0.25"/><circle cx="139" cy="145" r="1.4" fill="#232b3f" opacity="0.25"/><circle cx="145" cy="219" r="1.4" fill="#232b3f" opacity="0.25"/><circle cx="219" cy="316" r="1.4" fill="#232b3f" opacity="0.25"/><circle cx="316" cy="362" r="1.4" fill="#232b3f" opacity="0.25"/>
<g data-collage-motif="hälsa"><circle cx="540" cy="420" r="40" fill="#7a8aa0"/><circle cx="740" cy="400" r="34" fill="#7a8aa0" opacity="0.86"/><circle cx="650" cy="560" r="30" fill="#7a8aa0" opacity="0.8"/><path d="M540 420 L740 400 L650 560 Z" stroke="#232b3f" stroke-width="6" fill="none" stroke-linejoin="round"/></g>
<g fill="#7a8aa0" opacity="0.9"><circle cx="104" cy="106" r="8"/><circle cx="130" cy="106" r="8"/><circle cx="156" cy="106" r="8"/></g>
</svg>