<svg xmlns="http://www.w3.org/2000/svg" width="1280" height="848" viewBox="0 0 1280 848" data-palette="halsa-2" data-motif-variant="0">
<defs>
  <filter id="ds" x="-20%" y="-20%" width="140%" height="140%"><feDropShadow dx="0" dy="10" stdDeviation="10" flood-color="#000000" flood-opacity="0.18"/></filter>
  <filter id="fibre"><feTurbulence type="fractalNoise" baseFrequency="0.9" numOctaves="2" result="n"/><feColorMatrix in="n" type="saturate" values="0"/><feComponentTransfer><feFuncA type="linear" slope="0.05"/></feComponentTransfer><feComposite operator="in" in2="SourceGraphic"/></filter>
</defs>
<rect width="1280" height="848" fill="#f3ece1"/>
<g filter="url(#ds)">
<polygon points="71.0 56 132.0 57 203.0 60 271.0 49 329.0 50 403.0 52 470.0 58 539.0 61 611.0 55 670.0 56 669.0 568 605.0 567 538.0 575 468.0 563 408.0 564 343.0 562 270.0 564 206.0 561 134.0 568 67.0 568 670.0 576.0 603.0 511.1 536.0 456.2 469.0 392.3 402.0 338.4 335.0 278.6 268.0 228.7 201.0 170.8 134.0 105.9 67.0 60.0 67.0 56.0 134.0 112.9 201.0 164.8 268.0 229.7 335.0 279.6 402.0 342.4 469.0 395.3 536.0 451.2 603.0 517.1 670.0 567.0" fill="#f6dcf1" stroke="#3f1538" stroke-width="2.4" stroke-dasharray="2 6" stroke-linecap="round" transform="rotate(-3.5 368.5 312.0)"/>
<polygon points="560.0 220 621.1 214 698.2 216 768.3 222 840.4 225 915.6 219 977.7 226 1049.8 220 1112.9 215 1186.0 220 1187.0 767 1123.9 763 1055.8 761 979.7 763 912.6 760 837.4 767 767.3 763 702.2 766 624.1 760 561.0 767 1188.0 762.0 1117.9 704.2 1047.8 640.4 977.7 586.7 907.6 524.9 837.4 456.1 767.3 406.3 697.2 333.6 627.1 281.8 557.0 219.0 557.0 223.0 627.1 276.8 697.2 343.6 767.3 400.3 837.4 460.1 907.6 529.9 977.7 583.7 1047.8 644.4 1117.9 703.2 1188.0 759.0" fill="#c87ab8" stroke="#3f1538" stroke-width="2.4" stroke-dasharray="2 6" stroke-linecap="round" transform="rotate(5.0 872.5 493.5)"/>
<polygon points="356.0 369 424.3 374 495.7 368 554.0 375 622.3 369 681.7 364 751.0 367 814.3 373 887.7 369 953.0 369 954.0 731 890.7 724 819.3 731 753.0 727 691.7 730 617.3 724 558.0 726 485.7 730 423.3 727 358.0 731 952.0 733.0 885.7 691.8 819.3 643.6 753.0 614.3 686.7 562.1 620.3 530.9 554.0 488.7 487.7 451.4 421.3 411.2 355.0 368.0 355.0 367.0 421.3 406.2 487.7 455.4 554.0 488.7 620.3 528.9 686.7 567.1 753.0 602.3 819.3 650.6 885.7 688.8 952.0 736.0" fill="#7a2f6b" stroke="#3f1538" stroke-width="2.4" stroke-dasharray="2 6" stroke-linecap="round" transform="rotate(-2.5 653.5 550.0)"/>
</g>
<path d="M471 564 L474 621 L441 669 L385 664 L338 686 L308 641 L272 612 L239 564 L257 508 L288 461 L340 448 L388 451 L431 473 L452 518 Z" fill="#f6dcf1" opacity="0.16"/><path d="M526 629 L489 675 L470 723 L431 773 L372 765 L319 741 L294 685 L286 629 L296 574 L335 539 L377 513 L431 488 L481 520 L506 574 Z" fill="#c87ab8" opacity="0.16"/><path d="M990 692 L974 792 L903 854 L825 888 L742 890 L678 836 L626 775 L571 692 L599 595 L668 533 L747 518 L826 492 L922 504 L923 619 Z" fill="#f6dcf1" opacity="0.16"/><path d="M563 137 L542 187 L515 231 L476 279 L417 274 L373 237 L353 186 L327 137 L321 72 L385 54 L416 -6 L468 30 L507 54 L558 78 Z" fill="#c87ab8" opacity="0.16"/><path d="M805 333 L781 391 L737 425 L698 465 L638 487 L607 420 L542 400 L564 333 L578 285 L589 222 L642 200 L702 179 L758 213 L800 265 Z" fill="#f6dcf1" opacity="0.16"/>
<g filter="url(#fibre)" opacity="0.6"><rect width="1280" height="848" fill="#3f1538"/></g>
<circle cx="209" cy="222" r="1.4" fill="#3f1538" opacity="0.25"/><circle cx="222" cy="188" r="1.4" fill="#3f1538" opacity="0.25"/><circle cx="188" cy="341" r="1.4" fill="#3f1538" opacity="0.25"/><circle cx="341" cy="180" r="1.4" fill="#3f1538" opacity="0.25"/><circle cx="180" cy="301" r="1.4" fill="#3f1538" opacity="0.25"/><circle cx="301" cy="168" r="1.4" fill="#3f1538" opacity="0.25"/><circle cx="168" cy="189" r="1.4" fill="#3f1538" opacity="0.25"/><circle cx="189" cy="327" r="1.4" fill="#3f1538" opacity="0.25"/><circle cx="327" cy="186" r="1.4" fill="#3f1538" opacity="0.25"/><circle cx="186" cy="283" r="1.4" fill="#3f1538" opacity="0.25"/><circle cx="283" cy="352" r="1.4" fill="#3f1538" opacity="0.25"/><circle cx="352" cy="317" r="1.4" fill="#3f1538" opacity="0.25"/><circle cx="317" cy="200" r="1.4" fill="#3f1538" opacity="0.25"/><circle cx="200" cy="131" r="1.4" fill="#3f1538" opacity="0.25"/><circle cx="131" cy="187" r="1.4" fill="#3f1538" opacity="0.25"/><circle cx="187" cy="255" r="1.4" fill="#3f1538" opacity="0.25"/><circle cx="255" cy="209" r="1.4" fill="#3f1538" opacity="0.25"/><circle cx="209" cy="197" r="1.4" fill="#3f1538" opacity="0.25"/><circle cx="197" cy="282" r="1.4" fill="#3f1538" opacity="0.25"/><circle cx="282" cy="299" r="1.4" fill="#3f1538" opacity="0.25"/><circle cx="299" cy="264" r="1.4" fill="#3f1538" opacity="0.25"/><circle cx="264" cy="188" r="1.4" fill="#3f1538" opacity="0.25"/><circle cx="188" cy="375" r="1.4" fill="#3f1538" opacity="0.25"/><circle cx="375" cy="192" r="1.4" fill="#3f1538" opacity="0.25"/><circle cx="192" cy="251" r="1.4" fill="#3f1538" opacity="0.25"/><circle cx="251" cy="283" r="1.4" fill="#3f1538" opacity="0.25"/><circle cx="283" cy="191" r="1.4" fill="#3f1538" opacity="0.25"/><circle cx="191" cy="224" r="1.4" fill="#3f1538" opacity="0.25"/><circle cx="224" cy="262" r="1.4" fill="#3f1538" opacity="0.25"/><circle cx="262" cy="191" r="1.4" fill="#3f1538" opacity="0.25"/><circle cx="191" cy="278" r="1.4" fill="#3f1538" opacity="0.25"/><circle cx="278" cy="209" r="1.4" fill="#3f1538" opacity="0.25"/><circle cx="209" cy="222" r="1.4" fill="#3f1538" opacity="0.25"/><circle cx="222" cy="188" r="1.4" fill="#3f1538" opacity="0.25"/><circle cx="188" cy="341" r="1.4" fill="#3f1538" opacity="0.25"/><circle cx="341" cy="180" r="1.4" fill="#3f1538" opacity="0.25"/>
<g data-collage-motif="halsa"><path d="M400 440 H560 L600 320 L660 560 L700 440 H880" stroke="#3f1538" stroke-width="9" fill="none" stroke-linecap="round" stroke-linejoin="round"/><circle cx="640" cy="440" r="40" fill="#c87ab8" opacity="0.8"/></g>
<g fill="#c87ab8" opacity="0.9"><circle cx="104" cy="106" r="8"/><circle cx="130" cy="106" r="8"/><circle cx="156" cy="106" r="8"/></g>
</svg>