<svg xmlns="http://www.w3.org/2000/svg" width="1280" height="848" viewBox="0 0 1280 848" data-palette="halsa-2" data-motif-variant="2">
<defs>
  <filter id="ds" x="-20%" y="-20%" width="140%" height="140%"><feDropShadow dx="0" dy="10" stdDeviation="10" flood-color="#000000" flood-opacity="0.18"/></filter>
  <filter id="fibre"><feTurbulence type="fractalNoise" baseFrequency="0.9" numOctaves="2" result="n"/><feColorMatrix in="n" type="saturate" values="0"/><feComponentTransfer><feFuncA type="linear" slope="0.05"/></feComponentTransfer><feComposite operator="in" in2="SourceGraphic"/></filter>
</defs>
<rect width="1280" height="848" fill="#f3ece1"/>
<g filter="url(#ds)">
<polygon points="73.0 59 147.9 53 233.8 66 301.7 60 366.6 62 434.4 54 506.3 65 578.2 58 649.1 61 728.0 59 730.0 525 655.1 529 577.2 520 510.3 530 445.4 526 368.6 523 302.7 525 222.8 532 146.9 518 85.0 525 728.0 518.0 656.1 473.2 584.2 425.4 512.3 371.7 440.4 325.9 368.6 271.1 296.7 218.3 224.8 156.6 152.9 114.8 81.0 55.0 81.0 65.0 152.9 106.8 224.8 153.6 296.7 205.3 368.6 274.1 440.4 322.9 512.3 360.7 584.2 416.4 656.1 475.2 728.0 531.0" fill="#f6dcf1" stroke="#3f1538" stroke-width="2.4" stroke-dasharray="2 6" stroke-linecap="round" transform="rotate(-2.5 404.5 292.0)"/>
<polygon points="575.0 245 643.8 248 715.6 240 791.3 251 867.1 244 941.9 247 1024.7 245 1104.4 239 1178.2 238 1260.0 245 1250.0 781 1181.2 782 1100.4 779 1030.7 781 946.9 788 867.1 774 801.3 785 730.6 783 654.8 783 562.0 781 1252.0 783.0 1176.2 729.4 1100.4 666.9 1024.7 606.3 948.9 536.8 873.1 487.2 797.3 419.7 721.6 368.1 645.8 298.6 570.0 247.0 570.0 236.0 645.8 312.6 721.6 369.1 797.3 414.7 873.1 478.2 948.9 544.8 1024.7 608.3 1100.4 667.9 1176.2 727.4 1252.0 788.0" fill="#c87ab8" stroke="#3f1538" stroke-width="2.4" stroke-dasharray="2 6" stroke-linecap="round" transform="rotate(4.0 911.0 513.0)"/>
<polygon points="347.0 365 412.6 364 477.1 367 549.7 365 619.2 359 682.8 358 754.3 363 816.9 370 881.4 359 937.0 365 949.0 743 875.4 750 805.9 736 750.3 747 689.8 745 624.2 745 541.7 742 479.1 749 427.6 736 358.0 743 943.0 747.0 877.4 695.0 811.9 663.0 746.3 613.0 680.8 579.0 615.2 527.0 549.7 493.0 484.1 448.0 418.6 400.0 353.0 363.0 353.0 356.0 418.6 402.0 484.1 451.0 549.7 497.0 615.2 539.0 680.8 581.0 746.3 624.0 811.9 659.0 877.4 697.0 943.0 741.0" fill="#7a2f6b" stroke="#3f1538" stroke-width="2.4" stroke-dasharray="2 6" stroke-linecap="round" transform="rotate(-2.5 648.0 554.0)"/>
</g>
<path d="M659 737 L644 834 L567 886 L500 937 L417 931 L316 931 L256 843 L271 737 L275 641 L346 585 L414 526 L509 495 L566 590 L612 656 Z" fill="#f6dcf1" opacity="0.16"/><path d="M988 162 L998 210 L969 247 L925 250 L887 257 L857 230 L827 204 L806 162 L838 126 L860 97 L890 80 L928 60 L959 91 L976 126 Z" fill="#c87ab8" opacity="0.16"/><path d="M806 376 L771 446 L740 517 L679 577 L605 529 L548 497 L507 444 L457 376 L497 303 L548 255 L595 175 L676 189 L732 247 L798 292 Z" fill="#f6dcf1" opacity="0.16"/><path d="M1012 667 L997 731 L960 784 L912 849 L841 824 L789 783 L711 753 L705 667 L743 598 L768 522 L843 521 L913 481 L979 523 L1032 584 Z" fill="#c87ab8" opacity="0.16"/><path d="M287 122 L267 171 L260 241 L202 260 L148 241 L91 234 L77 172 L38 122 L56 61 L89 7 L145 -10 L197 8 L253 13 L280 66 Z" fill="#f6dcf1" opacity="0.16"/>
<g filter="url(#fibre)" opacity="0.6"><rect width="1280" height="848" fill="#3f1538"/></g>
<circle cx="140" cy="143" r="1.4" fill="#3f1538" opacity="0.25"/><circle cx="143" cy="271" r="1.4" fill="#3f1538" opacity="0.25"/><circle cx="271" cy="134" r="1.4" fill="#3f1538" opacity="0.25"/><circle cx="134" cy="203" r="1.4" fill="#3f1538" opacity="0.25"/><circle cx="203" cy="370" r="1.4" fill="#3f1538" opacity="0.25"/><circle cx="370" cy="332" r="1.4" fill="#3f1538" opacity="0.25"/><circle cx="332" cy="313" r="1.4" fill="#3f1538" opacity="0.25"/><circle cx="313" cy="141" r="1.4" fill="#3f1538" opacity="0.25"/><circle cx="141" cy="129" r="1.4" fill="#3f1538" opacity="0.25"/><circle cx="129" cy="247" r="1.4" fill="#3f1538" opacity="0.25"/><circle cx="247" cy="226" r="1.4" fill="#3f1538" opacity="0.25"/><circle cx="226" cy="270" r="1.4" fill="#3f1538" opacity="0.25"/><circle cx="270" cy="305" r="1.4" fill="#3f1538" opacity="0.25"/><circle cx="305" cy="342" r="1.4" fill="#3f1538" opacity="0.25"/><circle cx="342" cy="256" r="1.4" fill="#3f1538" opacity="0.25"/><circle cx="256" cy="133" r="1.4" fill="#3f1538" opacity="0.25"/><circle cx="133" cy="125" r="1.4" fill="#3f1538" opacity="0.25"/><circle cx="125" cy="190" r="1.4" fill="#3f1538" opacity="0.25"/><circle cx="190" cy="218" r="1.4" fill="#3f1538" opacity="0.25"/><circle cx="218" cy="131" r="1.4" fill="#3f1538" opacity="0.25"/><circle cx="131" cy="147" r="1.4" fill="#3f1538" opacity="0.25"/><circle cx="147" cy="198" r="1.4" fill="#3f1538" opacity="0.25"/><circle cx="198" cy="222" r="1.4" fill="#3f1538" opacity="0.25"/><circle cx="222" cy="362" r="1.4" fill="#3f1538" opacity="0.25"/><circle cx="362" cy="186" r="1.4" fill="#3f1538" opacity="0.25"/><circle cx="186" cy="249" r="1.4" fill="#3f1538" opacity="0.25"/><circle cx="249" cy="127" r="1.4" fill="#3f1538" opacity="0.25"/><circle cx="127" cy="180" r="1.4" fill="#3f1538" opacity="0.25"/><circle cx="180" cy="209" r="1.4" fill="#3f1538" opacity="0.25"/><circle cx="209" cy="138" r="1.4" fill="#3f1538" opacity="0.25"/><circle cx="138" cy="290" r="1.4" fill="#3f1538" opacity="0.25"/><circle cx="290" cy="140" r="1.4" fill="#3f1538" opacity="0.25"/><circle cx="140" cy="143" r="1.4" fill="#3f1538" opacity="0.25"/><circle cx="143" cy="271" r="1.4" fill="#3f1538" opacity="0.25"/><circle cx="271" cy="134" r="1.4" fill="#3f1538" opacity="0.25"/><circle cx="134" cy="203" r="1.4" fill="#3f1538" opacity="0.25"/>
<g data-collage-motif="halsa"><path d="M640 300 C720 420 740 500 640 580 C540 500 560 420 640 300 Z" fill="#c87ab8" opacity="0.82"/><circle cx="640" cy="470" r="30" fill="#3f1538" opacity="0.6"/></g>
<g fill="#c87ab8" opacity="0.9"><circle cx="104" cy="106" r="8"/><circle cx="130" cy="106" r="8"/><circle cx="156" cy="106" r="8"/></g>
</svg>