<svg xmlns="http://www.w3.org/2000/svg" width="1280" height="848" viewBox="0 0 1280 848" data-palette="halsa-1" data-motif-variant="2">
<defs>
  <filter id="ds" x="-20%" y="-20%" width="140%" height="140%"><feDropShadow dx="0" dy="10" stdDeviation="10" flood-color="#000000" flood-opacity="0.18"/></filter>
  <filter id="fibre"><feTurbulence type="fractalNoise" baseFrequency="0.9" numOctaves="2" result="n"/><feColorMatrix in="n" type="saturate" values="0"/><feComponentTransfer><feFuncA type="linear" slope="0.05"/></feComponentTransfer><feComposite operator="in" in2="SourceGraphic"/></filter>
</defs>
<rect width="1280" height="848" fill="#f3ece1"/>
<g filter="url(#ds)">
<polygon points="69.0 50 128.2 55 193.4 53 271.7 48 339.9 51 404.1 43 488.3 43 560.6 45 628.8 43 697.0 50 685.0 508 628.8 505 554.6 507 485.3 506 406.1 501 337.9 501 273.7 507 204.4 512 126.2 502 69.0 508 694.0 513.0 623.8 460.1 553.6 414.2 483.3 353.3 413.1 308.4 342.9 255.6 272.7 211.7 202.4 156.8 132.2 104.9 62.0 51.0 62.0 56.0 132.2 93.9 202.4 148.8 272.7 205.7 342.9 246.6 413.1 308.4 483.3 364.3 553.6 407.2 623.8 460.1 694.0 517.0" fill="#fbe6cf" stroke="#5e2813" stroke-width="2.4" stroke-dasharray="2 6" stroke-linecap="round" transform="rotate(-5.5 378.0 279.0)"/>
<polygon points="549.0 242 617.0 243 681.0 235 765.0 235 837.0 237 905.0 235 973.0 242 1048.0 248 1108.0 245 1184.0 242 1182.0 793 1103.0 786 1035.0 786 971.0 792 902.0 797 824.0 787 767.0 789 693.0 791 617.0 790 557.0 793 1180.0 791.0 1110.0 735.8 1040.0 672.6 970.0 618.3 900.0 553.1 830.0 490.9 760.0 426.7 690.0 361.4 620.0 300.2 550.0 233.0 550.0 245.0 620.0 296.2 690.0 368.4 760.0 434.7 830.0 487.9 900.0 551.1 970.0 618.3 1040.0 665.6 1110.0 724.8 1180.0 788.0" fill="#e89b5b" stroke="#5e2813" stroke-width="2.4" stroke-dasharray="2 6" stroke-linecap="round" transform="rotate(2.0 865.0 517.5)"/>
<polygon points="355.0 362 415.4 357 471.9 355 528.3 362 591.8 368 640.2 365 704.7 357 761.1 360 826.6 366 881.0 362 877.0 777 819.6 781 753.1 771 707.7 773 645.2 775 580.8 774 532.3 774 462.9 772 399.4 774 349.0 777 876.0 786.0 817.6 735.9 759.1 688.8 700.7 639.7 642.2 589.6 583.8 543.4 525.3 491.3 466.9 459.2 408.4 409.1 350.0 364.0 350.0 371.0 408.4 409.1 466.9 457.2 525.3 509.3 583.8 541.4 642.2 585.6 700.7 633.7 759.1 681.8 817.6 722.9 876.0 779.0" fill="#a8431f" stroke="#5e2813" stroke-width="2.4" stroke-dasharray="2 6" stroke-linecap="round" transform="rotate(-2.5 613.0 569.5)"/>
</g>
<path d="M1132 205 L1125 273 L1080 319 L1024 341 L962 367 L928 298 L878 267 L877 205 L869 138 L910 87 L971 86 L1030 44 L1090 76 L1095 153 Z" fill="#fbe6cf" opacity="0.16"/><path d="M1286 717 L1198 801 L1170 898 L1080 922 L986 960 L897 908 L872 803 L790 717 L815 601 L926 565 L986 474 L1092 454 L1191 508 L1228 617 Z" fill="#e89b5b" opacity="0.16"/><path d="M706 556 L691 616 L641 644 L607 704 L545 704 L513 642 L459 617 L435 556 L450 490 L501 454 L552 444 L607 407 L644 464 L693 495 Z" fill="#fbe6cf" opacity="0.16"/><path d="M1002 536 L953 584 L943 647 L893 685 L831 684 L787 638 L766 586 L721 536 L764 485 L781 425 L837 419 L893 390 L948 418 L966 481 Z" fill="#e89b5b" opacity="0.16"/><path d="M504 516 L482 556 L452 580 L427 622 L388 598 L347 595 L334 553 L307 516 L316 470 L354 446 L384 415 L427 413 L450 454 L469 483 Z" fill="#fbe6cf" opacity="0.16"/>
<g filter="url(#fibre)" opacity="0.6"><rect width="1280" height="848" fill="#5e2813"/></g>
<circle cx="250" cy="220" r="1.4" fill="#5e2813" opacity="0.25"/><circle cx="220" cy="177" r="1.4" fill="#5e2813" opacity="0.25"/><circle cx="177" cy="280" r="1.4" fill="#5e2813" opacity="0.25"/><circle cx="280" cy="335" r="1.4" fill="#5e2813" opacity="0.25"/><circle cx="335" cy="158" r="1.4" fill="#5e2813" opacity="0.25"/><circle cx="158" cy="210" r="1.4" fill="#5e2813" opacity="0.25"/><circle cx="210" cy="345" r="1.4" fill="#5e2813" opacity="0.25"/><circle cx="345" cy="362" r="1.4" fill="#5e2813" opacity="0.25"/><circle cx="362" cy="360" r="1.4" fill="#5e2813" opacity="0.25"/><circle cx="360" cy="232" r="1.4" fill="#5e2813" opacity="0.25"/><circle cx="232" cy="298" r="1.4" fill="#5e2813" opacity="0.25"/><circle cx="298" cy="190" r="1.4" fill="#5e2813" opacity="0.25"/><circle cx="190" cy="302" r="1.4" fill="#5e2813" opacity="0.25"/><circle cx="302" cy="290" r="1.4" fill="#5e2813" opacity="0.25"/><circle cx="290" cy="191" r="1.4" fill="#5e2813" opacity="0.25"/><circle cx="191" cy="190" r="1.4" fill="#5e2813" opacity="0.25"/><circle cx="190" cy="282" r="1.4" fill="#5e2813" opacity="0.25"/><circle cx="282" cy="126" r="1.4" fill="#5e2813" opacity="0.25"/><circle cx="126" cy="335" r="1.4" fill="#5e2813" opacity="0.25"/><circle cx="335" cy="272" r="1.4" fill="#5e2813" opacity="0.25"/><circle cx="272" cy="362" r="1.4" fill="#5e2813" opacity="0.25"/><circle cx="362" cy="130" r="1.4" fill="#5e2813" opacity="0.25"/><circle cx="130" cy="188" r="1.4" fill="#5e2813" opacity="0.25"/><circle cx="188" cy="369" r="1.4" fill="#5e2813" opacity="0.25"/><circle cx="369" cy="314" r="1.4" fill="#5e2813" opacity="0.25"/><circle cx="314" cy="149" r="1.4" fill="#5e2813" opacity="0.25"/><circle cx="149" cy="188" r="1.4" fill="#5e2813" opacity="0.25"/><circle cx="188" cy="123" r="1.4" fill="#5e2813" opacity="0.25"/><circle cx="123" cy="193" r="1.4" fill="#5e2813" opacity="0.25"/><circle cx="193" cy="341" r="1.4" fill="#5e2813" opacity="0.25"/><circle cx="341" cy="354" r="1.4" fill="#5e2813" opacity="0.25"/><circle cx="354" cy="250" r="1.4" fill="#5e2813" opacity="0.25"/><circle cx="250" cy="220" r="1.4" fill="#5e2813" opacity="0.25"/><circle cx="220" cy="177" r="1.4" fill="#5e2813" opacity="0.25"/><circle cx="177" cy="280" r="1.4" fill="#5e2813" opacity="0.25"/><circle cx="280" cy="335" r="1.4" fill="#5e2813" opacity="0.25"/>
<g data-collage-motif="halsa"><path d="M640 300 C720 420 740 500 640 580 C540 500 560 420 640 300 Z" fill="#e89b5b" opacity="0.82"/><circle cx="640" cy="470" r="30" fill="#5e2813" opacity="0.6"/></g>
<g fill="#e89b5b" opacity="0.9"><circle cx="104" cy="106" r="8"/><circle cx="130" cy="106" r="8"/><circle cx="156" cy="106" r="8"/></g>
</svg>