<svg xmlns="http://www.w3.org/2000/svg" width="1280" height="848" viewBox="0 0 1280 848">
<defs>
  <filter id="ds" x="-20%" y="-20%" width="140%" height="140%"><feDropShadow dx="0" dy="10" stdDeviation="10" flood-color="#000000" flood-opacity="0.18"/></filter>
  <filter id="fibre"><feTurbulence type="fractalNoise" baseFrequency="0.9" numOctaves="2" result="n"/><feColorMatrix in="n" type="saturate" values="0"/><feComponentTransfer><feFuncA type="linear" slope="0.05"/></feComponentTransfer><feComposite operator="in" in2="SourceGraphic"/></filter>
</defs>
<rect width="1280" height="848" fill="#f3ece1"/>
<g filter="url(#ds)">
<polygon points="74.0 60 133.1 57 220.2 65 277.3 55 349.4 57 434.6 63 500.7 58 559.8 54 647.9 53 717.0 60 703.0 530 635.9 532 561.8 530 488.7 536 434.6 525 355.4 528 285.3 524 207.2 537 144.1 535 65.0 530 710.0 539.0 638.9 484.8 567.8 416.6 496.7 371.3 425.6 319.1 354.4 268.9 283.3 216.7 212.2 164.4 141.1 105.2 70.0 58.0 70.0 57.0 141.1 117.2 212.2 161.4 283.3 220.7 354.4 264.9 425.6 329.1 496.7 365.3 567.8 431.6 638.9 482.8 710.0 521.0" fill="#e3e9f0" stroke="#232b3f" stroke-width="2.4" stroke-dasharray="2 6" stroke-linecap="round" transform="rotate(-3.5 390.0 295.0)"/>
<polygon points="554.0 240 628.3 237 715.7 243 784.0 238 845.3 234 935.7 233 1007.0 238 1064.3 237 1144.7 246 1218.0 240 1212.0 760 1155.7 755 1074.3 758 1002.0 754 921.7 767 856.3 765 775.0 753 709.7 753 629.3 757 564.0 760 1220.0 758.0 1146.7 700.2 1073.3 644.4 1000.0 586.7 926.7 528.9 853.3 464.1 780.0 411.3 706.7 353.6 633.3 289.8 560.0 233.0 560.0 244.0 633.3 293.8 706.7 363.6 780.0 405.3 853.3 477.1 926.7 533.9 1000.0 577.7 1073.3 640.4 1146.7 710.2 1220.0 751.0" fill="#7a8aa0" stroke="#232b3f" stroke-width="2.4" stroke-dasharray="2 6" stroke-linecap="round" transform="rotate(4.0 890.0 500.0)"/>
<polygon points="364.0 380 414.2 374 493.4 373 553.7 378 599.9 377 669.1 386 731.3 383 795.6 381 857.8 380 920.0 380 922.0 780 852.8 787 798.6 785 728.3 773 674.1 773 604.9 777 550.7 782 476.4 783 430.2 775 354.0 780 920.0 780.0 857.8 735.6 795.6 684.1 733.3 644.7 671.1 600.2 608.9 549.8 546.7 506.3 484.4 465.9 422.2 418.4 360.0 372.0 360.0 372.0 422.2 430.4 484.4 473.9 546.7 504.3 608.9 553.8 671.1 610.2 733.3 637.7 795.6 684.1 857.8 744.6 920.0 782.0" fill="#43506b" stroke="#232b3f" stroke-width="2.4" stroke-dasharray="2 6" stroke-linecap="round" transform="rotate(-1.5 640.0 580.0)"/>
</g>
<path d="M818 345 L789 403 L758 455 L702 461 L648 487 L600 452 L552 411 L555 345 L581 294 L610 252 L650 211 L708 205 L765 226 L781 291 Z" fill="#e3e9f0" opacity="0.16"/><path d="M428 488 L392 588 L349 689 L247 709 L161 681 L85 646 L8 589 L-24 488 L-12 376 L80 323 L163 306 L254 237 L321 325 L368 400 Z" fill="#7a8aa0" opacity="0.16"/><path d="M666 270 L653 347 L624 429 L551 478 L461 489 L401 414 L372 341 L300 270 L356 191 L406 132 L474 111 L544 94 L628 105 L652 194 Z" fill="#e3e9f0" opacity="0.16"/><path d="M651 657 L602 728 L549 771 L507 853 L433 816 L376 780 L346 720 L318 657 L310 575 L377 535 L433 500 L505 471 L554 537 L609 582 Z" fill="#7a8aa0" opacity="0.16"/><path d="M1110 222 L1083 316 L1018 379 L949 439 L850 476 L780 390 L719 318 L661 222 L727 130 L766 35 L863 31 L948 8 L1048 24 L1123 107 Z" fill="#e3e9f0" opacity="0.16"/>
<g filter="url(#fibre)" opacity="0.6"><rect width="1280" height="848" fill="#232b3f"/></g>
<circle cx="190" cy="140" r="1.4" fill="#232b3f" opacity="0.25"/><circle cx="140" cy="289" r="1.4" fill="#232b3f" opacity="0.25"/><circle cx="289" cy="237" r="1.4" fill="#232b3f" opacity="0.25"/><circle cx="237" cy="257" r="1.4" fill="#232b3f" opacity="0.25"/><circle cx="257" cy="214" r="1.4" fill="#232b3f" opacity="0.25"/><circle cx="214" cy="190" r="1.4" fill="#232b3f" opacity="0.25"/><circle cx="190" cy="140" r="1.4" fill="#232b3f" opacity="0.25"/><circle cx="140" cy="271" r="1.4" fill="#232b3f" opacity="0.25"/><circle cx="271" cy="345" r="1.4" fill="#232b3f" opacity="0.25"/><circle cx="345" cy="215" r="1.4" fill="#232b3f" opacity="0.25"/><circle cx="215" cy="184" r="1.4" fill="#232b3f" opacity="0.25"/><circle cx="184" cy="298" r="1.4" fill="#232b3f" opacity="0.25"/><circle cx="298" cy="205" r="1.4" fill="#232b3f" opacity="0.25"/><circle cx="205" cy="338" r="1.4" fill="#232b3f" opacity="0.25"/><circle cx="338" cy="262" r="1.4" fill="#232b3f" opacity="0.25"/><circle cx="262" cy="312" r="1.4" fill="#232b3f" opacity="0.25"/><circle cx="312" cy="165" r="1.4" fill="#232b3f" opacity="0.25"/><circle cx="165" cy="374" r="1.4" fill="#232b3f" opacity="0.25"/><circle cx="374" cy="311" r="1.4" fill="#232b3f" opacity="0.25"/><circle cx="311" cy="255" r="1.4" fill="#232b3f" opacity="0.25"/><circle cx="255" cy="164" r="1.4" fill="#232b3f" opacity="0.25"/><circle cx="164" cy="275" r="1.4" fill="#232b3f" opacity="0.25"/><circle cx="275" cy="292" r="1.4" fill="#232b3f" opacity="0.25"/><circle cx="292" cy="271" r="1.4" fill="#232b3f" opacity="0.25"/><circle cx="271" cy="282" r="1.4" fill="#232b3f" opacity="0.25"/><circle cx="282" cy="264" r="1.4" fill="#232b3f" opacity="0.25"/><circle cx="264" cy="238" r="1.4" fill="#232b3f" opacity="0.25"/><circle cx="238" cy="360" r="1.4" fill="#232b3f" opacity="0.25"/><circle cx="360" cy="257" r="1.4" fill="#232b3f" opacity="0.25"/><circle cx="257" cy="284" r="1.4" fill="#232b3f" opacity="0.25"/><circle cx="284" cy="239" r="1.4" fill="#232b3f" opacity="0.25"/><circle cx="239" cy="190" r="1.4" fill="#232b3f" opacity="0.25"/><circle cx="190" cy="140" r="1.4" fill="#232b3f" opacity="0.25"/><circle cx="140" cy="289" r="1.4" fill="#232b3f" opacity="0.25"/><circle cx="289" cy="237" r="1.4" fill="#232b3f" opacity="0.25"/><circle cx="237" cy="257" r="1.4" fill="#232b3f" opacity="0.25"/>
<g data-collage-motif="hälsa"><circle cx="540" cy="420" r="40" fill="#7a8aa0"/><circle cx="740" cy="400" r="34" fill="#7a8aa0" opacity="0.86"/><circle cx="650" cy="560" r="30" fill="#7a8aa0" opacity="0.8"/><path d="M540 420 L740 400 L650 560 Z" stroke="#232b3f" stroke-width="6" fill="none" stroke-linejoin="round"/></g>
<g fill="#7a8aa0" opacity="0.9"><circle cx="104" cy="106" r="8"/><circle cx="130" cy="106" r="8"/><circle cx="156" cy="106" r="8"/></g>
</svg>