<svg xmlns="http://www.w3.org/2000/svg" viewBox="0 0 96 96" role="img" aria-label="Glad blomma">
  <rect width="96" height="96" rx="48" fill="#edf7e8"/><path d="M48 52c-21-2-26-20-15-26 5-3 10 0 15 7 5-7 10-10 15-7 11 6 6 24-15 26Z" fill="#f4a7b7"/><path d="M48 48c2-21 20-26 26-15 3 5 0 10-7 15 7 5 10 10 7 15-6 11-24 6-26-15Z" fill="#e88da5"/><path d="M48 48c-2 21-20 26-26 15-3-5 0-10 7-15-7-5-10-10-7-15 6-11 24-6 26 15Z" fill="#f5b7c3"/><circle cx="48" cy="48" r="13" fill="#f6c957" stroke="#b77e25" stroke-width="3"/><circle cx="43" cy="46" r="2" fill="#183f34"/><circle cx="53" cy="46" r="2" fill="#183f34"/><path d="M42 52c4 4 8 4 12 0" fill="none" stroke="#183f34" stroke-width="2.5" stroke-linecap="round"/><path d="M48 62v23M48 75c-8-7-13-6-16 1 6 5 11 4 16-1Zm0 4c8-7 13-6 16 1-6 5-11 4-16-1Z" fill="#63a575" stroke="#397952" stroke-width="2" stroke-linejoin="round"/>
</svg>
