<svg xmlns="http://www.w3.org/2000/svg" viewBox="0 0 96 96" role="img" aria-label="Glad hund">
  <rect width="96" height="96" rx="48" fill="#e7f3f6"/><path d="M27 38c-12-5-16 6-10 22 3 8 10 10 17 4M69 38c12-5 16 6 10 22-3 8-10 10-17 4" fill="#9b674a" stroke="#634331" stroke-width="3"/><path d="M28 45c0-18 40-18 40 0v18c0 14-9 23-20 23S28 77 28 63Z" fill="#d99b68" stroke="#634331" stroke-width="3"/>
  <circle cx="39" cy="53" r="3" fill="#183f34"/><circle cx="57" cy="53" r="3" fill="#183f34"/><path d="M41 63c2-6 12-6 14 0-2 5-12 5-14 0Z" fill="#3d302a"/><path d="M38 69c5 7 15 7 20 0" fill="none" stroke="#634331" stroke-width="3" stroke-linecap="round"/><path d="M45 71c0 8 6 9 8 0" fill="#e98989"/>
</svg>
