<svg xmlns="http://www.w3.org/2000/svg" viewBox="0 0 96 96" role="img" aria-label="Söt katt">
  <rect width="96" height="96" rx="48" fill="#fff0e5"/><path d="M27 38 25 19l16 12a35 35 0 0 1 14 0l16-12-2 20c5 5 8 12 8 20 0 17-13 27-29 27S19 76 19 59c0-8 3-16 8-21Z" fill="#eaa879" stroke="#7a4b39" stroke-width="3" stroke-linejoin="round"/>
  <path d="m29 27 9 7-10 4Zm38 0-9 7 10 4Z" fill="#ffd5c1"/><circle cx="38" cy="53" r="3" fill="#183f34"/><circle cx="58" cy="53" r="3" fill="#183f34"/><path d="m48 58-4 3 4 3 4-3Z" fill="#bd6d6d"/><path d="M48 64c-4 5-9 4-11 1M48 64c4 5 9 4 11 1M31 60l-11-2M31 65l-11 3M65 60l11-2M65 65l11 3" fill="none" stroke="#7a4b39" stroke-width="2.5" stroke-linecap="round"/>
</svg>
