<svg xmlns="http://www.w3.org/2000/svg" viewBox="0 0 96 96" role="img" aria-label="Ljus regnbåge">
  <rect width="96" height="96" rx="48" fill="#eaf4ff"/><path d="M19 67a29 29 0 0 1 58 0" fill="none" stroke="#e97676" stroke-width="18"/><path d="M25 67a23 23 0 0 1 46 0" fill="none" stroke="#f2bb4f" stroke-width="13"/><path d="M31 67a17 17 0 0 1 34 0" fill="none" stroke="#61ae78" stroke-width="9"/><path d="M37 67a11 11 0 0 1 22 0" fill="none" stroke="#78a8df" stroke-width="6"/><g fill="#fff" stroke="#b9d5e7" stroke-width="2"><path d="M12 68c0-7 8-11 14-7 7-5 16 0 16 8 0 6-5 10-12 10H22c-6 0-10-4-10-11Z"/><path d="M54 69c0-8 9-13 16-8 7-5 16 0 16 8 0 6-5 10-12 10H65c-7 0-11-4-11-10Z"/></g>
</svg>
